<svg version="1.1" xmlns="http://www.w3.org/2000/svg" viewBox="0 0 1294.3588790893555 731.7578125" width="2588.717758178711" height="1463.515625">
  <!-- svg-source:excalidraw -->
  
  <defs>
    <style class="style-fonts">
      @font-face {
        font-family: "Virgil";
        src: url("https://excalidraw.com/Virgil.woff2");
      }
      @font-face {
        font-family: "Cascadia";
        src: url("https://excalidraw.com/Cascadia.woff2");
      }
      @font-face {
        font-family: "Assistant";
        src: url("https://excalidraw.com/Assistant-Regular.woff2");
      }
    </style>
    
  </defs>
  <rect x="0" y="0" width="1294.3588790893555" height="731.7578125" fill="#ffffff"></rect><g stroke-linecap="round" transform="translate(199.60543060302734 24.65625) rotate(0 18.78515625 44.017578125)"><path d="M9.39 0 C13.38 -3.27, 22.59 0.58, 28.18 0 C37.75 -2.97, 41.15 0.49, 37.57 9.39 C40.61 27.15, 35.07 47.81, 37.57 78.64 C35.66 84.9, 37.48 88.13, 28.18 88.04 C20.54 88.1, 17.94 89.28, 9.39 88.04 C6.09 91.13, 2.27 85.25, 0 78.64 C-2.76 61.34, -0.29 42.35, 0 9.39 C-2.55 -0.22, -0.39 0.93, 9.39 0" stroke="none" stroke-width="0" fill="#b2f2bb"></path><path d="M9.39 0 C12.04 -0.58, 18.87 0.84, 28.18 0 M9.39 0 C13.78 -0.44, 19.34 0.38, 28.18 0 M28.18 0 C36.1 0.27, 36.45 3.3, 37.57 9.39 M28.18 0 C32.17 -1.64, 37.65 2.32, 37.57 9.39 M37.57 9.39 C36.59 32.02, 38.33 50.54, 37.57 78.64 M37.57 9.39 C37.96 27.27, 36.66 45.62, 37.57 78.64 M37.57 78.64 C38.66 83.21, 36.35 87.81, 28.18 88.04 M37.57 78.64 C38.9 84.95, 34.56 87, 28.18 88.04 M28.18 88.04 C21.23 86.41, 15.77 87.93, 9.39 88.04 M28.18 88.04 C21.9 87.65, 15.97 88.93, 9.39 88.04 M9.39 88.04 C1.18 86.96, -0.97 85.86, 0 78.64 M9.39 88.04 C4.43 88.11, 0.1 86.3, 0 78.64 M0 78.64 C-0.31 53.31, 0.74 29.73, 0 9.39 M0 78.64 C-0.02 57.79, 0.14 36.67, 0 9.39 M0 9.39 C-0.35 4.89, 2.79 -0.24, 9.39 0 M0 9.39 C-0.32 0.87, 1.11 1.51, 9.39 0" stroke="#e03131" stroke-width="2" fill="none"></path></g><g stroke-linecap="round" transform="translate(199.16011810302734 64.390625) rotate(0 18.634765625 24.328125)"><path d="M9.32 0 C18.32 -1.98, 21.93 3.11, 27.95 0 C36.2 2.76, 36.34 5.52, 37.27 9.32 C40.06 19.03, 34.81 25.62, 37.27 39.34 C33.74 44.23, 33.11 47.41, 27.95 48.66 C24.55 49.76, 16.89 46.84, 9.32 48.66 C2.19 48.22, -3.46 46.35, 0 39.34 C-1.36 27.3, -2.71 14.01, 0 9.32 C0.62 2.69, 6.21 1.98, 9.32 0" stroke="none" stroke-width="0" fill="#a5d8ff"></path><path d="M9.32 0 C16.02 0.3, 21.34 1.33, 27.95 0 M9.32 0 C17.34 0.99, 23.49 0.56, 27.95 0 M27.95 0 C35.42 1.42, 36.64 3.66, 37.27 9.32 M27.95 0 C34.97 1.1, 37.45 1.2, 37.27 9.32 M37.27 9.32 C37.44 18.79, 35.97 27.4, 37.27 39.34 M37.27 9.32 C36.49 16.98, 37.32 25.47, 37.27 39.34 M37.27 39.34 C39.22 44.16, 33.54 48.09, 27.95 48.66 M37.27 39.34 C37.37 43.76, 36.33 46.94, 27.95 48.66 M27.95 48.66 C25.4 46.65, 21.47 47.65, 9.32 48.66 M27.95 48.66 C23.77 48.92, 20.35 48.68, 9.32 48.66 M9.32 48.66 C3.31 49.91, -0.56 44.51, 0 39.34 M9.32 48.66 C2.63 50.47, 0.13 47.07, 0 39.34 M0 39.34 C-1.82 33.85, -2.03 23.3, 0 9.32 M0 39.34 C0.04 27.17, -0.49 16.29, 0 9.32 M0 9.32 C0.23 3.91, 4.48 0.79, 9.32 0 M0 9.32 C-0.53 3.41, 3.87 1.15, 9.32 0" stroke="#e03131" stroke-width="2" fill="none"></path></g><g stroke-linecap="round"><g transform="translate(86.34761810302734 66.4453125) rotate(0 49.47265625 -1.01171875)"><path d="M0.92 -0.31 C17.36 -0.74, 83.28 -1.79, 99.75 -1.91 M-0.06 -1.52 C16.2 -1.8, 82.65 -0.08, 99.23 -0.32" stroke="#e03131" stroke-width="2" fill="none"></path></g><g transform="translate(86.34761810302734 66.4453125) rotate(0 49.47265625 -1.01171875)"><path d="M75.66 8.04 C84.37 5.91, 94.33 2.61, 99.23 -0.32 M75.66 8.04 C83.74 4.22, 92.46 1.32, 99.23 -0.32" stroke="#e03131" stroke-width="2" fill="none"></path></g><g transform="translate(86.34761810302734 66.4453125) rotate(0 49.47265625 -1.01171875)"><path d="M75.8 -9.06 C84.55 -4.46, 94.46 -1.04, 99.23 -0.32 M75.8 -9.06 C83.94 -6.41, 92.61 -2.84, 99.23 -0.32" stroke="#e03131" stroke-width="2" fill="none"></path></g></g><mask></mask><g transform="translate(140.42964935302734 123.9765625) rotate(0 82.11991882324219 37.5)"><text x="82.11991882324219" y="17.52" font-family="Virgil, Segoe UI Emoji" font-size="20px" fill="#e03131" text-anchor="middle" style="white-space: pre;" direction="ltr" dominant-baseline="alphabetic">proteogenomics</text><text x="82.11991882324219" y="42.519999999999996" font-family="Virgil, Segoe UI Emoji" font-size="20px" fill="#e03131" text-anchor="middle" style="white-space: pre;" direction="ltr" dominant-baseline="alphabetic">database</text><text x="82.11991882324219" y="67.52" font-family="Virgil, Segoe UI Emoji" font-size="20px" fill="#e03131" text-anchor="middle" style="white-space: pre;" direction="ltr" dominant-baseline="alphabetic">(including decoys)</text></g><g transform="translate(10 93.44140625) rotate(0 36.749961853027344 12.5)"><text x="36.749961853027344" y="17.52" font-family="Virgil, Segoe UI Emoji" font-size="20px" fill="#e03131" text-anchor="middle" style="white-space: pre;" direction="ltr" dominant-baseline="alphabetic">pypgatk</text></g><g stroke-linecap="round" transform="translate(28.097618103027344 51.18359375) rotate(0 16.76171875 16.15234375)"><path d="M21.25 4.25 C21.99 5.38, 27.44 8.67, 29.27 12.75 C33.9 17, 29.94 13.84, 29.27 21.25 C25.2 22.99, 24.77 26.71, 21.25 28.05 C20.21 34.1, 14.24 35.2, 12.75 28.05 C8.95 26.33, 9.61 23.12, 4.25 21.25 C-0.86 16.09, 3.27 14.76, 4.25 12.75 C6.94 8.67, 9.12 8.22, 12.75 4.25 C20.16 -2.34, 18.68 -2.09, 21.25 4.25" stroke="none" stroke-width="0" fill="#b2f2bb"></path><path d="M21.25 4.25 C23.87 8.38, 28.2 10.72, 29.27 12.75 M21.25 4.25 C24.71 7.41, 27.42 10.22, 29.27 12.75 M29.27 12.75 C34.52 16.67, 34.96 15.36, 29.27 21.25 M29.27 12.75 C33.85 17.91, 32.35 15.18, 29.27 21.25 M29.27 21.25 C26.7 24.45, 23.99 27.56, 21.25 28.05 M29.27 21.25 C27.06 22.61, 25.44 24.95, 21.25 28.05 M21.25 28.05 C18.41 33.66, 17.24 33.17, 12.75 28.05 M21.25 28.05 C18.99 34.17, 17.8 31.98, 12.75 28.05 M12.75 28.05 C10.05 27.1, 7.52 25.31, 4.25 21.25 M12.75 28.05 C9.83 25.88, 6.88 23.58, 4.25 21.25 M4.25 21.25 C-0.7 15.29, -1.58 15.69, 4.25 12.75 M4.25 21.25 C1.72 17.15, -0.56 18.8, 4.25 12.75 M4.25 12.75 C7.21 10.06, 9.94 7.85, 12.75 4.25 M4.25 12.75 C7.63 9.84, 10.42 5.87, 12.75 4.25 M12.75 4.25 C17.68 -1.07, 15.08 -0.05, 21.25 4.25 M12.75 4.25 C15.52 -2.09, 15.33 -0.43, 21.25 4.25" stroke="#1e1e1e" stroke-width="2" fill="none"></path></g><g transform="translate(91.061767578125 10) rotate(0 37.863975524902344 20)"><text x="37.863975524902344" y="14.016" font-family="Virgil, Segoe UI Emoji" font-size="16px" fill="#1e1e1e" text-anchor="middle" style="white-space: pre;" direction="ltr" dominant-baseline="alphabetic">database</text><text x="37.863975524902344" y="34.016" font-family="Virgil, Segoe UI Emoji" font-size="16px" fill="#1e1e1e" text-anchor="middle" style="white-space: pre;" direction="ltr" dominant-baseline="alphabetic">creation</text></g><g stroke-linecap="round"><g transform="translate(160.45699310302734 326.7578125) rotate(0 56.435546875 0.728515625)"><path d="M-0.2 -0.1 C18.34 0.3, 93.33 1.57, 112.25 1.88 M-1.77 -1.19 C17.09 -1.12, 95.55 -0.76, 114.63 -0.02" stroke="#1e1e1e" stroke-width="2" fill="none"></path></g></g><mask></mask><g stroke-linecap="round"><g transform="translate(159.28425276149062 324.3918209688552) rotate(0 0.146484375 -37.0859375)"><path d="M0.07 1.11 C0.19 -11.16, 1.35 -61.5, 1.25 -73.9 M-1.36 0.65 C-1.35 -11.98, 0.26 -63.24, 0.81 -75.89" stroke="#1e1e1e" stroke-width="2" fill="none"></path></g></g><mask></mask><g stroke-linecap="round"><g transform="translate(187.89839935302734 324.91015625) rotate(0 0.234375 -14.953125)"><path d="M0.24 -0.46 C0.18 -5.59, -0.08 -25.34, -0.08 -30.25 M-0.3 0.49 C-0.23 -4.34, 0.86 -24.76, 0.87 -29.72" stroke="#1e1e1e" stroke-width="2" fill="none"></path></g></g><mask></mask><g stroke-linecap="round"><g transform="translate(244.09204857400618 324.3166823423467) rotate(0 0.0078125 -9.61328125)"><path d="M-0.05 0.46 C-0.13 -2.65, -0.57 -15.73, -0.5 -19.03 M-0.74 0.22 C-0.66 -3.02, 0.32 -16.73, 0.47 -19.9" stroke="#1e1e1e" stroke-width="2" fill="none"></path></g></g><mask></mask><g stroke-linecap="round"><g transform="translate(214.93699425457964 325.29232280628764) rotate(0 0.46484375 -23.5859375)"><path d="M-0.41 0.19 C-0.39 -7.67, 0.18 -39.33, 0.46 -47.26 M0.39 -0.19 C0.54 -7.95, 1.33 -38.82, 1.45 -46.6" stroke="#1e1e1e" stroke-width="2" fill="none"></path></g></g><mask></mask><g transform="translate(125.09894561767578 345.18359375) rotate(0 88.77992248535156 25)"><text x="88.77992248535156" y="17.52" font-family="Virgil, Segoe UI Emoji" font-size="20px" fill="#e03131" text-anchor="middle" style="white-space: pre;" direction="ltr" dominant-baseline="alphabetic">PRIDE proteomics</text><text x="88.77992248535156" y="42.519999999999996" font-family="Virgil, Segoe UI Emoji" font-size="20px" fill="#e03131" text-anchor="middle" style="white-space: pre;" direction="ltr" dominant-baseline="alphabetic">dataset</text></g><g stroke-linecap="round" transform="translate(458.28511810302734 152.484375) rotate(0 18.689453125 19.271484375)"><path d="M23.75 5 C25.61 8.49, 25.83 11.74, 32.63 15 C35.55 18.99, 40.53 21.19, 32.63 25 C31.2 29.37, 25.41 28.49, 23.75 33.54 C17.69 35.76, 21.33 40.33, 14.25 33.54 C10.34 32.96, 8.59 25.95, 4.75 25 C1.33 21.98, 2.81 17.65, 4.75 15 C8.01 11.51, 11.73 9.97, 14.25 5 C16.58 -1.96, 17.44 2.14, 23.75 5" stroke="none" stroke-width="0" fill="#b2f2bb"></path><path d="M23.75 5 C24.96 8.41, 27.36 9.73, 32.63 15 M23.75 5 C27.19 8.5, 29.53 12.1, 32.63 15 M32.63 15 C38.73 20.29, 36.09 18.89, 32.63 25 M32.63 15 C38.37 20.06, 36.25 19.54, 32.63 25 M32.63 25 C27.91 29.45, 24.69 32.46, 23.75 33.54 M32.63 25 C28.63 28.89, 25.35 31.44, 23.75 33.54 M23.75 33.54 C19.57 36.89, 17.17 37.78, 14.25 33.54 M23.75 33.54 C20.05 36.41, 17 39.34, 14.25 33.54 M14.25 33.54 C9.85 29.61, 7.27 27.71, 4.75 25 M14.25 33.54 C11.68 30.93, 9.73 29.62, 4.75 25 M4.75 25 C-0.66 21.45, 0.28 20.18, 4.75 15 M4.75 25 C1.58 18.91, 1.32 19.65, 4.75 15 M4.75 15 C7.58 13.08, 8.01 9.49, 14.25 5 M4.75 15 C8.12 11.8, 10.86 7.75, 14.25 5 M14.25 5 C17.25 1.01, 18.6 0.93, 23.75 5 M14.25 5 C18.68 -0.14, 17.84 -0.42, 23.75 5" stroke="#1e1e1e" stroke-width="2" fill="none"></path></g><g transform="translate(446.0372009277344 197.73046875) rotate(0 31.91197967529297 10)"><text x="31.91197967529297" y="14.016" font-family="Virgil, Segoe UI Emoji" font-size="16px" fill="#e03131" text-anchor="middle" style="white-space: pre;" direction="ltr" dominant-baseline="alphabetic">quantms</text></g><g stroke-linecap="round"><g transform="translate(252.92240427509876 65.57850407689341) rotate(0 100.6390363234537 51.819375142927356)"><path d="M-0.19 -0.21 C33.36 17.18, 167.23 86.36, 200.99 103.76 M-1.75 -1.37 C31.64 16.28, 165.91 88.11, 199.89 105.35" stroke="#e03131" stroke-width="2" fill="none"></path></g><g transform="translate(252.92240427509876 65.57850407689341) rotate(0 100.6390363234537 51.819375142927356)"><path d="M175.11 102.04 C181.58 102.52, 188.97 105.71, 199.89 105.35 M175.11 102.04 C183.72 103.12, 191.35 103.91, 199.89 105.35" stroke="#e03131" stroke-width="2" fill="none"></path></g><g transform="translate(252.92240427509876 65.57850407689341) rotate(0 100.6390363234537 51.819375142927356)"><path d="M183.04 86.89 C187.24 91.53, 192.45 98.91, 199.89 105.35 M183.04 86.89 C188.77 93.21, 193.67 99.22, 199.89 105.35" stroke="#e03131" stroke-width="2" fill="none"></path></g></g><mask></mask><g stroke-linecap="round"><g transform="translate(298.4799310110325 288.20476674150683) rotate(0 77.82410052464616 -59.10127319438561)"><path d="M-0.86 -0.93 C25.21 -20.46, 129.59 -97.8, 155.48 -117.49 M0.88 1.19 C26.87 -18.65, 128.46 -99.33, 154.45 -119.25" stroke="#e03131" stroke-width="2" fill="none"></path></g><g transform="translate(298.4799310110325 288.20476674150683) rotate(0 77.82410052464616 -59.10127319438561)"><path d="M141.21 -98.04 C142.61 -102.86, 148.24 -109.12, 154.45 -119.25 M141.21 -98.04 C143.87 -101.84, 146.93 -107.61, 154.45 -119.25" stroke="#e03131" stroke-width="2" fill="none"></path></g><g transform="translate(298.4799310110325 288.20476674150683) rotate(0 77.82410052464616 -59.10127319438561)"><path d="M130.67 -111.52 C134.35 -113.31, 142.28 -116.62, 154.45 -119.25 M130.67 -111.52 C135.65 -112.35, 141.07 -115.12, 154.45 -119.25" stroke="#e03131" stroke-width="2" fill="none"></path></g></g><mask></mask><g stroke-linecap="round"><g transform="translate(476.79390544928606 238.61025609146805) rotate(0 0.5372474618321235 29.66015624999997)"><path d="M0.43 -0.19 C0.53 9.74, 0.16 50.24, 0.16 60.22" stroke="#e03131" stroke-width="2.5" fill="none" stroke-dasharray="8 10"></path></g><g transform="translate(476.79390544928606 238.61025609146805) rotate(0 0.5372474618321235 29.66015624999997)"><path d="M-8.27 36.69 C-6.24 41.37, -2.18 48.02, 0.16 60.22" stroke="#e03131" stroke-width="2.5" fill="none"></path></g><g transform="translate(476.79390544928606 238.61025609146805) rotate(0 0.5372474618321235 29.66015624999997)"><path d="M8.83 36.78 C6.33 41.49, 5.86 48.12, 0.16 60.22" stroke="#e03131" stroke-width="2.5" fill="none"></path></g></g><mask></mask><g stroke-linecap="round" transform="translate(332.80855560302734 313.66015625) rotate(0 150.15234375 204.048828125)"><path d="M32 0 C106.09 -0.57, 182.25 -1.17, 268.3 0 M268.3 0 C290.53 -1.49, 300.11 10.14, 300.3 32 M300.3 32 C297.82 131.07, 299.38 226.64, 300.3 376.1 M300.3 376.1 C300.66 398.06, 291.06 406.99, 268.3 408.1 M268.3 408.1 C177.23 411.36, 87.97 411.03, 32 408.1 M32 408.1 C11.54 409.13, -0.34 396.57, 0 376.1 M0 376.1 C1.28 273.62, 1.79 170.62, 0 32 M0 32 C0.37 9.53, 10.59 0.03, 32 0" stroke="#e03131" stroke-width="2.5" fill="none" stroke-dasharray="8 10"></path></g><g stroke-linecap="round" transform="translate(365.83980560302734 328.478515625) rotate(0 18.689453125 19.271484375)"><path d="M23.75 5 C28.5 10.02, 31.52 12.63, 32.63 15 C36.69 20.21, 38.68 17.21, 32.63 25 C30.34 29.62, 26.95 30.46, 23.75 33.54 C20.81 40.97, 21.67 39.33, 14.25 33.54 C9.11 31.56, 9.01 28.75, 4.75 25 C-2.17 21.15, 1.57 23, 4.75 15 C7.16 9.58, 9.6 9.12, 14.25 5 C22.21 0.46, 16.87 1.05, 23.75 5" stroke="none" stroke-width="0" fill="#b2f2bb"></path><path d="M23.75 5 C25.33 6.93, 26.83 10.26, 32.63 15 M23.75 5 C25.74 7.69, 28.31 9.83, 32.63 15 M32.63 15 C37.64 19.81, 37.75 18.84, 32.63 25 M32.63 15 C36.76 21.35, 37.87 18.44, 32.63 25 M32.63 25 C30.73 26.3, 29.1 28.27, 23.75 33.54 M32.63 25 C30.67 27.8, 27.66 29.3, 23.75 33.54 M23.75 33.54 C20 37.22, 19.28 40.12, 14.25 33.54 M23.75 33.54 C19.42 37.4, 18.36 39.12, 14.25 33.54 M14.25 33.54 C12.51 31.87, 8.75 28.69, 4.75 25 M14.25 33.54 C11.89 30.88, 8.54 28.37, 4.75 25 M4.75 25 C1.56 20.11, -0.32 18.27, 4.75 15 M4.75 25 C0.91 17.88, -0.96 19.12, 4.75 15 M4.75 15 C8.31 11.3, 11.3 6.96, 14.25 5 M4.75 15 C9.09 11.37, 11.62 7.42, 14.25 5 M14.25 5 C18.63 -0.1, 17.8 0.95, 23.75 5 M14.25 5 C17.18 -1.18, 18.64 1.8, 23.75 5" stroke="#1e1e1e" stroke-width="2" fill="none"></path></g><g transform="translate(362.97332763671875 373.494140625) rotate(0 22.303977966308594 10)"><text x="22.303977966308594" y="14.016" font-family="Virgil, Segoe UI Emoji" font-size="16px" fill="#e03131" text-anchor="middle" style="white-space: pre;" direction="ltr" dominant-baseline="alphabetic">msgf+</text></g><g stroke-linecap="round" transform="translate(458.48043060302734 326.724609375) rotate(0 18.689453125 19.271484375)"><path d="M23.75 5 C28.71 6.79, 30.49 12.35, 32.63 15 C36.47 17.88, 36.53 18.6, 32.63 25 C28.86 27.63, 25.88 31.95, 23.75 33.54 C22.33 35.49, 21.14 41.48, 14.25 33.54 C9.12 32.79, 10.06 26.84, 4.75 25 C2.91 19.44, 3.1 22.18, 4.75 15 C6.1 13.03, 12.07 10, 14.25 5 C15.49 0.03, 18.39 -3.54, 23.75 5" stroke="none" stroke-width="0" fill="#b2f2bb"></path><path d="M23.75 5 C26.06 6.09, 27.62 8.54, 32.63 15 M23.75 5 C26.44 8.23, 29.74 12.21, 32.63 15 M32.63 15 C35.59 19.72, 39.34 19.26, 32.63 25 M32.63 15 C39.43 19.1, 36.02 20.67, 32.63 25 M32.63 25 C30.48 26.67, 29.37 28.43, 23.75 33.54 M32.63 25 C29.02 27.7, 26.97 30.26, 23.75 33.54 M23.75 33.54 C19.62 38.45, 19.24 39.77, 14.25 33.54 M23.75 33.54 C18.35 37.36, 20.38 36.59, 14.25 33.54 M14.25 33.54 C11.76 31.31, 6.12 27.67, 4.75 25 M14.25 33.54 C11.96 31.69, 8.91 28.95, 4.75 25 M4.75 25 C1.3 21.7, 1.79 21.03, 4.75 15 M4.75 25 C-0.14 21.84, -0.88 18.76, 4.75 15 M4.75 15 C8.28 12.36, 9.09 10.75, 14.25 5 M4.75 15 C8.44 11.57, 10.77 8.35, 14.25 5 M14.25 5 C17.65 0.91, 20.57 1.66, 23.75 5 M14.25 5 C18.54 -0.76, 21.17 -0.01, 23.75 5" stroke="#1e1e1e" stroke-width="2" fill="none"></path></g><g transform="translate(456.32850646972656 371.740234375) rotate(0 21.81598663330078 10)"><text x="21.81598663330078" y="14.016" font-family="Virgil, Segoe UI Emoji" font-size="16px" fill="#e03131" text-anchor="middle" style="white-space: pre;" direction="ltr" dominant-baseline="alphabetic">SAGE</text></g><g stroke-linecap="round" transform="translate(555.9804306030273 327.83203125) rotate(0 18.689453125 19.271484375)"><path d="M23.75 5 C26.12 8.47, 26.95 8.27, 32.63 15 C36.67 20.18, 35.92 17.71, 32.63 25 C30.43 27.99, 27.16 28.56, 23.75 33.54 C22.06 41.6, 16.98 39.12, 14.25 33.54 C9.5 29.18, 8.08 26.03, 4.75 25 C-0.19 20.35, 2.44 18.21, 4.75 15 C7.43 11.89, 12.34 9.41, 14.25 5 C19.95 2.76, 21.83 0, 23.75 5" stroke="none" stroke-width="0" fill="#b2f2bb"></path><path d="M23.75 5 C25.43 9.21, 29.66 10.05, 32.63 15 M23.75 5 C26.66 8.68, 29.73 12.11, 32.63 15 M32.63 15 C37.1 19.96, 36.64 19.52, 32.63 25 M32.63 15 C37.13 20.4, 35.38 18.7, 32.63 25 M32.63 25 C29.02 28.52, 26.32 31.96, 23.75 33.54 M32.63 25 C31 27.24, 28.68 29.12, 23.75 33.54 M23.75 33.54 C19.61 39.85, 19.1 39.37, 14.25 33.54 M23.75 33.54 C19.78 39.43, 20.93 39.94, 14.25 33.54 M14.25 33.54 C10.83 31.03, 8.32 27.6, 4.75 25 M14.25 33.54 C10.26 29.92, 7.05 26.53, 4.75 25 M4.75 25 C0.61 18.5, -0.76 21.26, 4.75 15 M4.75 25 C-1.04 18.73, 0.79 21.55, 4.75 15 M4.75 15 C8.8 12.38, 11.37 8.38, 14.25 5 M4.75 15 C8.1 12.17, 9.75 8.97, 14.25 5 M14.25 5 C19.84 -1.62, 17.89 -1.66, 23.75 5 M14.25 5 C18.17 1.15, 19.58 -1.91, 23.75 5" stroke="#1e1e1e" stroke-width="2" fill="none"></path></g><g transform="translate(546.7325057983398 372.84765625) rotate(0 28.9119873046875 10)"><text x="28.9119873046875" y="14.016" font-family="Virgil, Segoe UI Emoji" font-size="16px" fill="#e03131" text-anchor="middle" style="white-space: pre;" direction="ltr" dominant-baseline="alphabetic">COMET</text></g><g stroke-linecap="round" transform="translate(368.35543060302734 434.1279296875) rotate(0 18.689453125 19.271484375)"><path d="M23.75 5 C27.67 10.12, 29.49 13.06, 32.63 15 C38.76 22.72, 35.94 19.77, 32.63 25 C31.86 27.71, 28.41 29.09, 23.75 33.54 C22.39 41, 20.76 38.58, 14.25 33.54 C9.91 31.18, 9.98 26.03, 4.75 25 C-1.38 16.47, 0.65 20.37, 4.75 15 C8.94 13.44, 13.45 7.77, 14.25 5 C15.45 0.2, 18.99 0.31, 23.75 5" stroke="none" stroke-width="0" fill="#b2f2bb"></path><path d="M23.75 5 C25.4 7.39, 29.01 10.87, 32.63 15 M23.75 5 C26.55 8.03, 29.56 11.47, 32.63 15 M32.63 15 C38.43 21.1, 38.96 21.98, 32.63 25 M32.63 15 C36.07 17.77, 39.1 20.16, 32.63 25 M32.63 25 C28.95 27.99, 26.16 29.48, 23.75 33.54 M32.63 25 C29.66 27.36, 26.88 30.13, 23.75 33.54 M23.75 33.54 C20.94 37.33, 18.19 37.98, 14.25 33.54 M23.75 33.54 C20.33 39.2, 17.63 39.26, 14.25 33.54 M14.25 33.54 C10.14 29.98, 8.03 27.52, 4.75 25 M14.25 33.54 C11.56 31.12, 9.82 28.47, 4.75 25 M4.75 25 C-0.62 19.1, -0.86 18.17, 4.75 15 M4.75 25 C-0.41 18.04, 1.17 19.76, 4.75 15 M4.75 15 C8.22 12.08, 9.53 9.05, 14.25 5 M4.75 15 C7.82 12.75, 10.4 8.84, 14.25 5 M14.25 5 C18.34 1.98, 19.52 0.81, 23.75 5 M14.25 5 C18.35 -1.56, 16.92 2.12, 23.75 5" stroke="#1e1e1e" stroke-width="2" fill="none"></path></g><g stroke-linecap="round" transform="translate(458.60152435302734 433.1396484375) rotate(0 18.689453125 19.271484375)"><path d="M23.75 5 C27.32 10.29, 30.77 13.44, 32.63 15 C35.94 19.77, 35.66 17.3, 32.63 25 C29.69 27.97, 27.98 33.13, 23.75 33.54 C20.76 38.58, 19.2 39.86, 14.25 33.54 C13.7 29.39, 9.01 27.31, 4.75 25 C0.65 20.37, 3.09 16.72, 4.75 15 C8.25 12.8, 6.92 10.1, 14.25 5 C18.99 0.31, 17.95 1.02, 23.75 5" stroke="none" stroke-width="0" fill="#b2f2bb"></path><path d="M23.75 5 C27.46 9.11, 30.07 12.91, 32.63 15 M23.75 5 C26.29 8, 29.76 11.83, 32.63 15 M32.63 15 C38.96 21.98, 36.24 18.07, 32.63 25 M32.63 15 C39.1 20.16, 37.26 19.11, 32.63 25 M32.63 25 C28.85 26.9, 27.76 30.8, 23.75 33.54 M32.63 25 C30.58 26.53, 29.5 28.14, 23.75 33.54 M23.75 33.54 C18.19 37.98, 20.16 39.11, 14.25 33.54 M23.75 33.54 C17.63 39.26, 20.59 39.55, 14.25 33.54 M14.25 33.54 C12.42 31.38, 8.45 27.59, 4.75 25 M14.25 33.54 C12.65 31.11, 9.78 29.37, 4.75 25 M4.75 25 C-0.86 18.17, -0.36 18.3, 4.75 15 M4.75 25 C1.17 19.76, 0.12 18.09, 4.75 15 M4.75 15 C6.35 12.26, 9.77 9.68, 14.25 5 M4.75 15 C8.94 10.35, 11.87 7.8, 14.25 5 M14.25 5 C19.52 0.81, 18.43 -1.35, 23.75 5 M14.25 5 C16.92 2.12, 19.07 -1.51, 23.75 5" stroke="#1e1e1e" stroke-width="2" fill="none"></path></g><g stroke-linecap="round" transform="translate(553.0663681030273 432.9423828125) rotate(0 18.689453125 19.271484375)"><path d="M23.75 5 C28.16 10.58, 29.73 12.49, 32.63 15 C35.66 17.3, 40.46 22.57, 32.63 25 C31.91 29.21, 28.07 30.45, 23.75 33.54 C19.2 39.86, 16.64 36.38, 14.25 33.54 C10.27 28.43, 8.56 28.22, 4.75 25 C3.09 16.72, -2.01 20.52, 4.75 15 C5.91 11.22, 12.05 7.41, 14.25 5 C17.95 1.02, 19.32 0.23, 23.75 5" stroke="none" stroke-width="0" fill="#b2f2bb"></path><path d="M23.75 5 C26.89 9.15, 29.25 10.18, 32.63 15 M23.75 5 C26.3 7.93, 28.72 10.74, 32.63 15 M32.63 15 C36.24 18.07, 38.87 20.14, 32.63 25 M32.63 15 C37.26 19.11, 36.98 18.08, 32.63 25 M32.63 25 C29.75 28.8, 25.39 30.32, 23.75 33.54 M32.63 25 C30.92 26.79, 27.79 29.18, 23.75 33.54 M23.75 33.54 C20.16 39.11, 17.81 39.17, 14.25 33.54 M23.75 33.54 C20.59 39.55, 18.62 37.52, 14.25 33.54 M14.25 33.54 C11.18 30.19, 8.14 28.47, 4.75 25 M14.25 33.54 C11.27 30.74, 8.48 28, 4.75 25 M4.75 25 C-0.36 18.3, 1.02 19.79, 4.75 15 M4.75 25 C0.12 18.09, -0.28 20.81, 4.75 15 M4.75 15 C7.35 12.34, 11.95 9.88, 14.25 5 M4.75 15 C8.03 12, 12.03 7.81, 14.25 5 M14.25 5 C18.43 -1.35, 17.19 1.84, 23.75 5 M14.25 5 C19.07 -1.51, 19.87 1.29, 23.75 5" stroke="#1e1e1e" stroke-width="2" fill="none"></path></g><g transform="translate(346.64987564086914 484.0634765625) rotate(0 41.38397216796875 10)"><text x="41.38397216796875" y="14.016" font-family="Virgil, Segoe UI Emoji" font-size="16px" fill="#e03131" text-anchor="middle" style="white-space: pre;" direction="ltr" dominant-baseline="alphabetic">Percolator</text></g><g transform="translate(437.51315689086914 481.7900390625) rotate(0 41.38397216796875 10)"><text x="41.38397216796875" y="14.016" font-family="Virgil, Segoe UI Emoji" font-size="16px" fill="#e03131" text-anchor="middle" style="white-space: pre;" direction="ltr" dominant-baseline="alphabetic">Percolator</text></g><g transform="translate(528.3686256408691 481.5302734375) rotate(0 41.38397216796875 10)"><text x="41.38397216796875" y="14.016" font-family="Virgil, Segoe UI Emoji" font-size="16px" fill="#e03131" text-anchor="middle" style="white-space: pre;" direction="ltr" dominant-baseline="alphabetic">Percolator</text></g><g stroke-linecap="round"><g transform="translate(384.6397267996399 399.90488866085366) rotate(0 0.17175677464615546 16.607711180614388)"><path d="M-0.1 -0.37 C0.05 5.18, 0.27 27.52, 0.43 33.11 M-0.82 0.64 C-0.69 6.28, -0.22 28.23, 0.04 33.75" stroke="#e03131" stroke-width="2" fill="none"></path></g><g transform="translate(384.6397267996399 399.90488866085366) rotate(0 0.17175677464615546 16.607711180614388)"><path d="M-6.15 18.33 C-5.38 21.81, -3.65 25.78, 0.04 33.75 M-6.15 18.33 C-4.1 23.09, -2.31 27.43, 0.04 33.75" stroke="#e03131" stroke-width="2" fill="none"></path></g><g transform="translate(384.6397267996399 399.90488866085366) rotate(0 0.17175677464615546 16.607711180614388)"><path d="M5.21 17.97 C3.51 21.51, 2.77 25.56, 0.04 33.75 M5.21 17.97 C3.96 22.8, 2.46 27.25, 0.04 33.75" stroke="#e03131" stroke-width="2" fill="none"></path></g></g><mask></mask><g stroke-linecap="round"><g transform="translate(476.613273220367 395.85166267004047) rotate(0 0.17175677464615546 16.607711180614388)"><path d="M0.4 0.18 C0.55 5.73, 0.71 28.19, 0.62 33.71 M-0.06 -0.21 C0.06 5.16, 0.17 27.31, 0.33 32.99" stroke="#e03131" stroke-width="2" fill="none"></path></g><g transform="translate(476.613273220367 395.85166267004047) rotate(0 0.17175677464615546 16.607711180614388)"><path d="M-5.59 17.47 C-3.76 21.81, -1.78 24.58, 0.33 32.99 M-5.59 17.47 C-3.98 21.97, -2.3 27.12, 0.33 32.99" stroke="#e03131" stroke-width="2" fill="none"></path></g><g transform="translate(476.613273220367 395.85166267004047) rotate(0 0.17175677464615546 16.607711180614388)"><path d="M5.77 17.3 C4.71 21.73, 3.81 24.54, 0.33 32.99 M5.77 17.3 C3.88 21.87, 2.07 27.07, 0.33 32.99" stroke="#e03131" stroke-width="2" fill="none"></path></g></g><mask></mask><g stroke-linecap="round"><g transform="translate(573.0234294703671 393.99228767004047) rotate(0 0.17175677464615546 16.607711180614388)"><path d="M-0.47 0.41 C-0.31 5.96, 0.62 27.6, 0.83 33.07 M0.3 0.15 C0.43 5.79, 0.59 28.08, 0.65 33.7" stroke="#e03131" stroke-width="2" fill="none"></path></g><g transform="translate(573.0234294703671 393.99228767004047) rotate(0 0.17175677464615546 16.607711180614388)"><path d="M-5.17 18.14 C-2.93 23.29, -2.13 27.59, 0.65 33.7 M-5.17 18.14 C-3.23 23.14, -1.51 28.05, 0.65 33.7" stroke="#e03131" stroke-width="2" fill="none"></path></g><g transform="translate(573.0234294703671 393.99228767004047) rotate(0 0.17175677464615546 16.607711180614388)"><path d="M6.19 18.04 C5.22 23.17, 2.82 27.5, 0.65 33.7 M6.19 18.04 C4.62 23.08, 2.84 28.03, 0.65 33.7" stroke="#e03131" stroke-width="2" fill="none"></path></g></g><mask></mask><g stroke-linecap="round" transform="translate(457.1809196472168 540.12255859375) rotate(0 18.689453125 19.271484375)"><path d="M23.75 5 C25.37 6.17, 29.03 8.22, 32.63 15 C38.55 18.14, 36 20.77, 32.63 25 C29.62 25.56, 26.65 29.49, 23.75 33.54 C20.8 36.39, 18.17 39.35, 14.25 33.54 C11.71 31.69, 10.21 27.98, 4.75 25 C1.52 20.71, 1.17 23.55, 4.75 15 C8.1 10.27, 12.4 6.87, 14.25 5 C16.85 -1.25, 22.51 2.68, 23.75 5" stroke="none" stroke-width="0" fill="#b2f2bb"></path><path d="M23.75 5 C25.45 6.58, 27.27 9.95, 32.63 15 M23.75 5 C26.08 7.54, 28.23 9.87, 32.63 15 M32.63 15 C36.25 18.73, 36.26 20.74, 32.63 25 M32.63 15 C38.56 19.83, 36.25 18.99, 32.63 25 M32.63 25 C31.1 26.47, 26.03 30.82, 23.75 33.54 M32.63 25 C30.01 27.89, 26.41 31.66, 23.75 33.54 M23.75 33.54 C20.76 37.53, 19.46 37.64, 14.25 33.54 M23.75 33.54 C17.33 39.41, 17.49 39.83, 14.25 33.54 M14.25 33.54 C10.9 30.73, 9.06 29.5, 4.75 25 M14.25 33.54 C10.72 30.09, 7.04 27.03, 4.75 25 M4.75 25 C0.91 20.2, 1.27 20.04, 4.75 15 M4.75 25 C0.61 22.28, -1.07 21.72, 4.75 15 M4.75 15 C7.12 9.82, 12.37 6.8, 14.25 5 M4.75 15 C7.78 12.44, 10.35 8.82, 14.25 5 M14.25 5 C20.6 1.75, 20.79 0.55, 23.75 5 M14.25 5 C20.75 -2.05, 21.01 -1.52, 23.75 5" stroke="#1e1e1e" stroke-width="2" fill="none"></path></g><g transform="translate(432.0733108520508 581.62841796875) rotate(0 45.87196350097656 10)"><text x="45.87196350097656" y="14.016" font-family="Virgil, Segoe UI Emoji" font-size="16px" fill="#e03131" text-anchor="middle" style="white-space: pre;" direction="ltr" dominant-baseline="alphabetic">ConsesusID</text></g><g stroke-linecap="round"><g transform="translate(476.7841171938039 504.18788548570296) rotate(0 0.06354948853447695 17.785763720301077)"><path d="M-0.08 0.3 C-0.09 6.25, 0.02 29.37, 0.14 35.34 M-0.78 -0.02 C-0.89 6.04, -0.51 30.03, -0.28 35.92" stroke="#e03131" stroke-width="2" fill="none"></path></g><g transform="translate(476.7841171938039 504.18788548570296) rotate(0 0.06354948853447695 17.785763720301077)"><path d="M-6.77 19.36 C-4.13 25.05, -2.77 31.52, -0.28 35.92 M-6.77 19.36 C-4.43 25.79, -1.64 32.86, -0.28 35.92" stroke="#e03131" stroke-width="2" fill="none"></path></g><g transform="translate(476.7841171938039 504.18788548570296) rotate(0 0.06354948853447695 17.785763720301077)"><path d="M5.39 19.07 C3.88 24.84, 1.08 31.41, -0.28 35.92 M5.39 19.07 C2.91 25.63, 0.86 32.81, -0.28 35.92" stroke="#e03131" stroke-width="2" fill="none"></path></g></g><mask></mask><g stroke-linecap="round"><g transform="translate(391.3678071142866 516.4713229907871) rotate(0 43.67683073853448 11.199826220301077)"><path d="M0.54 0.67 C15.08 4.22, 72.66 18.71, 87.02 22.5 M-0.64 -0.02 C13.73 4.25, 71.53 20.49, 85.9 24.08" stroke="#e03131" stroke-width="2" fill="none"></path></g><g transform="translate(391.3678071142866 516.4713229907871) rotate(0 43.67683073853448 11.199826220301077)"><path d="M61 26.26 C69.12 24.98, 75.2 23.84, 85.9 24.08 M61 26.26 C69.65 25.96, 80.29 23.88, 85.9 24.08" stroke="#e03131" stroke-width="2" fill="none"></path></g><g transform="translate(391.3678071142866 516.4713229907871) rotate(0 43.67683073853448 11.199826220301077)"><path d="M65.42 9.74 C72.46 13.15, 77.29 16.68, 85.9 24.08 M65.42 9.74 C72.37 15.74, 81.32 19.95, 85.9 24.08" stroke="#e03131" stroke-width="2" fill="none"></path></g></g><mask></mask><g stroke-linecap="round"><g transform="translate(566.7857758642866 513.7564792407871) rotate(0 -44.03605988646552 13.053341845301077)"><path d="M-0.82 0.52 C-15.69 4.68, -74.07 20.96, -88.67 25.32 M0.95 -0.25 C-13.57 4.01, -71.22 22.29, -86.27 26.44" stroke="#e03131" stroke-width="2" fill="none"></path></g><g transform="translate(566.7857758642866 513.7564792407871) rotate(0 -44.03605988646552 13.053341845301077)"><path d="M-66.21 11.52 C-72.22 15.56, -81.34 21.17, -86.27 26.44 M-66.21 11.52 C-72.23 16.74, -79.56 20.93, -86.27 26.44" stroke="#e03131" stroke-width="2" fill="none"></path></g><g transform="translate(566.7857758642866 513.7564792407871) rotate(0 -44.03605988646552 13.053341845301077)"><path d="M-61.31 27.91 C-69.07 26.24, -79.88 26.19, -86.27 26.44 M-61.31 27.91 C-69.13 27.38, -78.17 25.84, -86.27 26.44" stroke="#e03131" stroke-width="2" fill="none"></path></g></g><mask></mask><g stroke-linecap="round" transform="translate(460.0324821472168 626.04443359375) rotate(0 18.2109375 22.078125)"><path d="M23.75 5.75 C26.05 9.84, 31.74 14.2, 31.67 17.25 C36.25 19.66, 35.35 24.53, 31.67 28.75 C28.05 34.06, 26.03 38.23, 23.75 38.41 C19.36 44.4, 20.15 47.26, 14.25 38.41 C12.51 36.04, 7.48 34.74, 4.75 28.75 C-1.52 21.04, 0.33 21.9, 4.75 17.25 C8.96 11.07, 9.73 7.78, 14.25 5.75 C17.7 1.19, 21.67 1.05, 23.75 5.75" stroke="none" stroke-width="0" fill="#b2f2bb"></path><path d="M23.75 5.75 C24.81 8.29, 29.93 12.3, 31.67 17.25 M23.75 5.75 C26.22 8.96, 26.91 11.31, 31.67 17.25 M31.67 17.25 C35.14 22.81, 36.25 21.43, 31.67 28.75 M31.67 17.25 C35.5 22.67, 38.6 22.11, 31.67 28.75 M31.67 28.75 C29.59 31.91, 26.89 35.44, 23.75 38.41 M31.67 28.75 C29.66 30.99, 27.88 33.3, 23.75 38.41 M23.75 38.41 C18.16 42.82, 17.09 43.44, 14.25 38.41 M23.75 38.41 C17.56 41.95, 20.2 46.25, 14.25 38.41 M14.25 38.41 C10.73 34.74, 6.66 32.24, 4.75 28.75 M14.25 38.41 C11.35 35.5, 7.29 31.86, 4.75 28.75 M4.75 28.75 C-1.51 21.57, -1.12 24.24, 4.75 17.25 M4.75 28.75 C2.29 22.36, 1.63 24.47, 4.75 17.25 M4.75 17.25 C9.03 13.56, 9.82 9.84, 14.25 5.75 M4.75 17.25 C8.19 13.77, 11.55 10.48, 14.25 5.75 M14.25 5.75 C20.31 0.62, 19.38 -0.4, 23.75 5.75 M14.25 5.75 C20.9 -0.77, 20.38 1.67, 23.75 5.75" stroke="#1e1e1e" stroke-width="2" fill="none"></path></g><g transform="translate(418.5535125732422 670.53076171875) rotate(0 62.383949279785156 20)"><text x="62.383949279785156" y="14.016" font-family="Virgil, Segoe UI Emoji" font-size="16px" fill="#e03131" text-anchor="middle" style="white-space: pre;" direction="ltr" dominant-baseline="alphabetic">Peptide filtering</text><text x="62.383949279785156" y="34.016" font-family="Virgil, Segoe UI Emoji" font-size="16px" fill="#e03131" text-anchor="middle" style="white-space: pre;" direction="ltr" dominant-baseline="alphabetic">quantification</text></g><g stroke-linecap="round"><g transform="translate(475.42738035761454 604.7556560949338) rotate(0 0.3096432385344201 9.336544970301134)"><path d="M-0.29 -0.21 C-0.29 2.88, 0.13 15.17, 0.25 18.23 M0.56 -0.79 C0.71 2.38, 1.39 15.48, 1.29 18.71" stroke="#e03131" stroke-width="2" fill="none"></path></g><g transform="translate(475.42738035761454 604.7556560949338) rotate(0 0.3096432385344201 9.336544970301134)"><path d="M-2.05 9.99 C-1.1 12.69, -0.14 15.85, 1.29 18.71 M-2.05 9.99 C-1.55 11.73, -0.56 13.9, 1.29 18.71" stroke="#e03131" stroke-width="2" fill="none"></path></g><g transform="translate(475.42738035761454 604.7556560949338) rotate(0 0.3096432385344201 9.336544970301134)"><path d="M4.34 9.88 C3.09 12.6, 1.84 15.8, 1.29 18.71 M4.34 9.88 C3.47 11.65, 3.08 13.84, 1.29 18.71" stroke="#e03131" stroke-width="2" fill="none"></path></g></g><mask></mask><g stroke-linecap="round" transform="translate(718.5722274780273 142.7930908203125) rotate(0 18.634765625 24.328125)"><path d="M9.32 0 C16.97 0.95, 23.65 -1.85, 27.95 0 C34.95 3.6, 34.14 0.07, 37.27 9.32 C39.75 21.9, 34.14 28.97, 37.27 39.34 C39.26 42.6, 36.05 48.69, 27.95 48.66 C18.84 46.08, 15.23 48.61, 9.32 48.66 C0.91 45.16, 0.26 45.39, 0 39.34 C-2.97 34.16, -2.27 26.81, 0 9.32 C-2.16 3.33, 3.61 -2.68, 9.32 0" stroke="none" stroke-width="0" fill="#ffec99"></path><path d="M9.32 0 C13.93 -0.66, 18.8 -1.12, 27.95 0 M9.32 0 C15.65 0.22, 19.34 0.42, 27.95 0 M27.95 0 C32.24 0.56, 35.34 1.68, 37.27 9.32 M27.95 0 C34.35 0.18, 37.79 5.08, 37.27 9.32 M37.27 9.32 C37.87 20.42, 39.26 27.83, 37.27 39.34 M37.27 9.32 C36.6 20.38, 37.09 30.64, 37.27 39.34 M37.27 39.34 C36.52 46, 32.58 49.17, 27.95 48.66 M37.27 39.34 C37.83 46.66, 35.53 49.37, 27.95 48.66 M27.95 48.66 C25.74 48.84, 21.16 47.38, 9.32 48.66 M27.95 48.66 C22.06 48.19, 15.12 48, 9.32 48.66 M9.32 48.66 C3.34 49.1, -1.68 44.94, 0 39.34 M9.32 48.66 C5.31 49.91, 1.33 46.66, 0 39.34 M0 39.34 C-0.89 31.26, -1.15 24.37, 0 9.32 M0 39.34 C-0.05 28.38, 0.23 17.74, 0 9.32 M0 9.32 C0.66 3.32, 4.87 -1.69, 9.32 0 M0 9.32 C1.96 4.42, 5.23 1.08, 9.32 0" stroke="#e03131" stroke-width="2" fill="none"></path></g><g stroke-linecap="round"><g transform="translate(501.1397267996399 173.05344823116616) rotate(0 99.59753802464616 -1.3083044443856124)"><path d="M-0.9 -0.51 C32.53 -0.78, 167.16 -1.45, 200.36 -1.61 M0.83 -1.82 C34.22 -2.42, 166.7 -2.97, 200.03 -3.21" stroke="#e03131" stroke-width="2" fill="none"></path></g><g transform="translate(501.1397267996399 173.05344823116616) rotate(0 99.59753802464616 -1.3083044443856124)"><path d="M176.59 5.47 C182.39 5.13, 191.55 -0.68, 200.03 -3.21 M176.59 5.47 C185.98 1.39, 195.13 -1.31, 200.03 -3.21" stroke="#e03131" stroke-width="2" fill="none"></path></g><g transform="translate(501.1397267996399 173.05344823116616) rotate(0 99.59753802464616 -1.3083044443856124)"><path d="M176.49 -11.63 C182.32 -7.12, 191.52 -8.09, 200.03 -3.21 M176.49 -11.63 C185.89 -8.99, 195.07 -4.98, 200.03 -3.21" stroke="#e03131" stroke-width="2" fill="none"></path></g></g><mask></mask><g transform="translate(699.8955841064453 202.1329345703125) rotate(0 40.28797149658203 10)"><text x="40.28797149658203" y="14.016" font-family="Virgil, Segoe UI Emoji" font-size="16px" fill="#e03131" text-anchor="middle" style="white-space: pre;" direction="ltr" dominant-baseline="alphabetic">quantms.io</text></g><g stroke-linecap="round" transform="translate(722.0390243530273 258.2689208984375) rotate(0 18.78515625 44.017578125)"><path d="M9.39 0 C18.32 1.96, 27.15 2.15, 28.18 0 C31.28 -2.51, 37.26 3.01, 37.57 9.39 C36.13 29.61, 41.18 45.96, 37.57 78.64 C37.32 82.02, 33.58 89.43, 28.18 88.04 C21.19 89.01, 18.81 87.18, 9.39 88.04 C3.13 85.96, 2.99 86.36, 0 78.64 C0.09 63.77, 4.17 48.87, 0 9.39 C-1.81 3.07, 6.68 0.12, 9.39 0" stroke="none" stroke-width="0" fill="#b2f2bb"></path><path d="M9.39 0 C13.13 0.78, 17.63 0.85, 28.18 0 M9.39 0 C14.5 -0.07, 19.46 -0.95, 28.18 0 M28.18 0 C35.93 -1.06, 35.74 5, 37.57 9.39 M28.18 0 C34.99 1.52, 35.75 3.07, 37.57 9.39 M37.57 9.39 C38.2 24.6, 38.75 43.56, 37.57 78.64 M37.57 9.39 C37.39 25.46, 38.04 40.17, 37.57 78.64 M37.57 78.64 C38.23 85.22, 32.67 88.01, 28.18 88.04 M37.57 78.64 C36.63 83.93, 36.05 85.87, 28.18 88.04 M28.18 88.04 C22.38 87.17, 15.48 88.01, 9.39 88.04 M28.18 88.04 C21.22 87.45, 14.06 87.65, 9.39 88.04 M9.39 88.04 C3.94 88.98, -0.33 84.05, 0 78.64 M9.39 88.04 C2.03 87.62, 0.98 83.92, 0 78.64 M0 78.64 C-0.72 60.81, 1.15 42.57, 0 9.39 M0 78.64 C-0.12 55.88, 0.17 32.34, 0 9.39 M0 9.39 C-1.43 4.26, 3.61 -1.97, 9.39 0 M0 9.39 C-0.59 3.99, 2.81 -0.91, 9.39 0" stroke="#e03131" stroke-width="2" fill="none"></path></g><g transform="translate(673.2576522827148 355.4466552734375) rotate(0 68.8399658203125 60)"><text x="68.8399658203125" y="14.016" font-family="Virgil, Segoe UI Emoji" font-size="16px" fill="#e03131" text-anchor="middle" style="white-space: pre;" direction="ltr" dominant-baseline="alphabetic">Global Protein </text><text x="68.8399658203125" y="34.016" font-family="Virgil, Segoe UI Emoji" font-size="16px" fill="#e03131" text-anchor="middle" style="white-space: pre;" direction="ltr" dominant-baseline="alphabetic">Database</text><text x="68.8399658203125" y="54.016" font-family="Virgil, Segoe UI Emoji" font-size="16px" fill="#e03131" text-anchor="middle" style="white-space: pre;" direction="ltr" dominant-baseline="alphabetic"> Canonical</text><text x="68.8399658203125" y="74.016" font-family="Virgil, Segoe UI Emoji" font-size="16px" fill="#e03131" text-anchor="middle" style="white-space: pre;" direction="ltr" dominant-baseline="alphabetic"></text><text x="68.8399658203125" y="94.016" font-family="Virgil, Segoe UI Emoji" font-size="16px" fill="#e03131" text-anchor="middle" style="white-space: pre;" direction="ltr" dominant-baseline="alphabetic">(Uniprot TREMBL</text><text x="68.8399658203125" y="114.016" font-family="Virgil, Segoe UI Emoji" font-size="16px" fill="#e03131" text-anchor="middle" style="white-space: pre;" direction="ltr" dominant-baseline="alphabetic">ENSEMBL)</text></g><g stroke-linecap="round" transform="translate(871.4316024780273 217.1204833984375) rotate(0 18.689453125 19.271484375)"><path d="M23.75 5 C27.74 8.88, 28.72 12.66, 32.63 15 C39.02 21.25, 40.72 21.85, 32.63 25 C30.1 26.78, 26.78 27.41, 23.75 33.54 C20.82 39.58, 21.57 41.19, 14.25 33.54 C10.23 30.33, 4.85 27.58, 4.75 25 C-0.8 19.62, 3.23 19.88, 4.75 15 C6.53 10.51, 9.82 5.31, 14.25 5 C15.48 -1.02, 16.39 -1.49, 23.75 5" stroke="none" stroke-width="0" fill="#b2f2bb"></path><path d="M23.75 5 C27 7.07, 30.01 11.23, 32.63 15 M23.75 5 C26.05 7.18, 28.34 9.58, 32.63 15 M32.63 15 C38.77 19.9, 38.57 19.86, 32.63 25 M32.63 15 C38.2 20.55, 38.89 20.36, 32.63 25 M32.63 25 C29.66 28.37, 27.11 32.64, 23.75 33.54 M32.63 25 C29.57 27.96, 25.67 30.98, 23.75 33.54 M23.75 33.54 C17.33 38.77, 19.86 37.33, 14.25 33.54 M23.75 33.54 C17.37 36.97, 17.89 37.56, 14.25 33.54 M14.25 33.54 C11.59 31.34, 7.54 25.99, 4.75 25 M14.25 33.54 C11.67 30.57, 8.28 28.09, 4.75 25 M4.75 25 C-0.18 21.89, 1.13 21.75, 4.75 15 M4.75 25 C1.25 22.14, -2.04 18.47, 4.75 15 M4.75 15 C7.64 11.11, 8.38 11.05, 14.25 5 M4.75 15 C6.34 12.41, 8.99 11.03, 14.25 5 M14.25 5 C18.18 -0.37, 20.74 1.83, 23.75 5 M14.25 5 C20.51 1.95, 16.98 -1.27, 23.75 5" stroke="#1e1e1e" stroke-width="2" fill="none"></path></g><g transform="translate(860.7098922729492 263.4700927734375) rotate(0 34.543975830078125 20)"><text x="34.543975830078125" y="14.016" font-family="Virgil, Segoe UI Emoji" font-size="16px" fill="#e03131" text-anchor="middle" style="white-space: pre;" direction="ltr" dominant-baseline="alphabetic">Peptide</text><text x="34.543975830078125" y="34.016" font-family="Virgil, Segoe UI Emoji" font-size="16px" fill="#e03131" text-anchor="middle" style="white-space: pre;" direction="ltr" dominant-baseline="alphabetic">Alignment</text></g><g stroke-linecap="round"><g transform="translate(781.3109464704125 181.27366586998278) rotate(0 39.538944274646155 27.230758055614388)"><path d="M-0.17 0.94 C12.84 9.99, 64.67 46.13, 77.95 55.2 M-1.73 0.39 C11.65 9.02, 66.62 44.62, 80.06 53.46" stroke="#e03131" stroke-width="2" fill="none"></path></g><g transform="translate(781.3109464704125 181.27366586998278) rotate(0 39.538944274646155 27.230758055614388)"><path d="M55.71 47.8 C64.39 47.59, 71.11 51.81, 80.06 53.46 M55.71 47.8 C64.3 50.08, 72.87 52, 80.06 53.46" stroke="#e03131" stroke-width="2" fill="none"></path></g><g transform="translate(781.3109464704125 181.27366586998278) rotate(0 39.538944274646155 27.230758055614388)"><path d="M65.05 33.47 C71.13 37.41, 75.14 45.78, 80.06 53.46 M65.05 33.47 C70.2 41.17, 75.3 48.42, 80.06 53.46" stroke="#e03131" stroke-width="2" fill="none"></path></g></g><mask></mask><g stroke-linecap="round"><g transform="translate(772.4437589704125 300.1955408699828) rotate(0 42.886600524646155 -32.38057006938561)"><path d="M0.61 -0.88 C15.02 -11.66, 71.94 -54.89, 86.25 -65.35 M-0.54 1.27 C13.78 -9.29, 71.11 -53.01, 85.55 -64.12" stroke="#e03131" stroke-width="2" fill="none"></path></g><g transform="translate(772.4437589704125 300.1955408699828) rotate(0 42.886600524646155 -32.38057006938561)"><path d="M72.09 -43.05 C74.54 -48.27, 78.82 -53.84, 85.55 -64.12 M72.09 -43.05 C77.63 -51.05, 83.06 -59.81, 85.55 -64.12" stroke="#e03131" stroke-width="2" fill="none"></path></g><g transform="translate(772.4437589704125 300.1955408699828) rotate(0 42.886600524646155 -32.38057006938561)"><path d="M61.7 -56.64 C67 -58.08, 74.21 -59.81, 85.55 -64.12 M61.7 -56.64 C71.29 -59.34, 80.79 -62.78, 85.55 -64.12" stroke="#e03131" stroke-width="2" fill="none"></path></g></g><mask></mask><g stroke-linecap="round" transform="translate(978.0761337280273 159.6585693359375) rotate(0 18.689453125 19.271484375)"><path d="M23.75 5 C27.45 7.64, 32.74 10.72, 32.63 15 C33.92 21.11, 33.78 21.74, 32.63 25 C31.56 29.11, 29.97 27.93, 23.75 33.54 C15.48 37.25, 15.89 38.39, 14.25 33.54 C12.9 32.09, 9.71 28.24, 4.75 25 C0.83 19.78, 2.87 20.78, 4.75 15 C4.74 13.79, 8.15 9.95, 14.25 5 C19.25 -3.04, 18.88 -1.06, 23.75 5" stroke="none" stroke-width="0" fill="#b2f2bb"></path><path d="M23.75 5 C25.74 9.15, 31.21 13.52, 32.63 15 M23.75 5 C25.96 7.63, 29.21 11.23, 32.63 15 M32.63 15 C35.92 21.96, 38.12 21.68, 32.63 25 M32.63 15 C39.65 19.33, 36.95 20.57, 32.63 25 M32.63 25 C30.07 27.74, 28.78 30.03, 23.75 33.54 M32.63 25 C29.56 27.82, 27.82 30.37, 23.75 33.54 M23.75 33.54 C20.37 39.2, 19.76 39.04, 14.25 33.54 M23.75 33.54 C19.58 36.3, 20.48 38.99, 14.25 33.54 M14.25 33.54 C10.85 32.04, 9.57 30.67, 4.75 25 M14.25 33.54 C11.43 30.63, 8.6 29.2, 4.75 25 M4.75 25 C-1.3 20.01, 1.44 20.84, 4.75 15 M4.75 25 C-2.05 18.95, 2.09 19.71, 4.75 15 M4.75 15 C9 11.76, 12.07 7.74, 14.25 5 M4.75 15 C6.87 12.83, 8.6 11.15, 14.25 5 M14.25 5 C18.7 0.29, 17.52 -0.76, 23.75 5 M14.25 5 C19.36 -0.72, 19.95 2.04, 23.75 5" stroke="#1e1e1e" stroke-width="2" fill="none"></path></g><g transform="translate(972.0361404418945 209.4769287109375) rotate(0 35.62397766113281 20)"><text x="35.62397766113281" y="14.016" font-family="Virgil, Segoe UI Emoji" font-size="16px" fill="#e03131" text-anchor="middle" style="white-space: pre;" direction="ltr" dominant-baseline="alphabetic">MS2PIP </text><text x="35.62397766113281" y="34.016" font-family="Virgil, Segoe UI Emoji" font-size="16px" fill="#e03131" text-anchor="middle" style="white-space: pre;" direction="ltr" dominant-baseline="alphabetic">+ SNR</text></g><g stroke-linecap="round"><g transform="translate(915.2797607421198 232.43988792521122) rotate(0 27.568241149646155 -23.741898194385612)"><path d="M0.75 -0.02 C10.01 -8.19, 46.7 -40.31, 55.68 -48.29 M-0.32 -1.08 C8.82 -9.18, 46.03 -39.55, 55.01 -47.18" stroke="#e03131" stroke-width="2" fill="none"></path></g><g transform="translate(915.2797607421198 232.43988792521122) rotate(0 27.568241149646155 -23.741898194385612)"><path d="M42.41 -25.59 C46.12 -31.4, 48.68 -39.85, 55.01 -47.18 M42.41 -25.59 C45.97 -30.33, 48.91 -36.81, 55.01 -47.18" stroke="#e03131" stroke-width="2" fill="none"></path></g><g transform="translate(915.2797607421198 232.43988792521122) rotate(0 27.568241149646155 -23.741898194385612)"><path d="M31.48 -38.74 C38.62 -40.58, 44.54 -44.98, 55.01 -47.18 M31.48 -38.74 C38 -39.92, 43.82 -42.96, 55.01 -47.18" stroke="#e03131" stroke-width="2" fill="none"></path></g></g><mask></mask><g stroke-linecap="round" transform="translate(983.4980087280273 275.2366943359375) rotate(0 18.689453125 19.271484375)"><path d="M23.75 5 C28.5 6.51, 27.65 11.98, 32.63 15 C38.05 20.98, 38.51 19.78, 32.63 25 C28.18 27.39, 25.15 31.35, 23.75 33.54 C21.77 35.13, 20.7 41.51, 14.25 33.54 C9.82 29.81, 10.02 26.47, 4.75 25 C0.99 18.47, -1.44 16.75, 4.75 15 C7.34 13.56, 9.94 11.62, 14.25 5 C17.87 2.43, 19.48 0.36, 23.75 5" stroke="none" stroke-width="0" fill="#b2f2bb"></path><path d="M23.75 5 C25.8 8.05, 30.91 13.55, 32.63 15 M23.75 5 C25.83 8.29, 28.51 11.21, 32.63 15 M32.63 15 C38.52 21.25, 38.81 18.87, 32.63 25 M32.63 15 C38.34 21.35, 39.24 21.05, 32.63 25 M32.63 25 C29.71 27.66, 28.09 28.64, 23.75 33.54 M32.63 25 C29.65 28.14, 26.14 31.49, 23.75 33.54 M23.75 33.54 C20.51 38.97, 17.17 37.47, 14.25 33.54 M23.75 33.54 C17.81 40.05, 16.83 38.32, 14.25 33.54 M14.25 33.54 C12.57 30.27, 9.39 28.78, 4.75 25 M14.25 33.54 C11.69 30.2, 8.11 27.79, 4.75 25 M4.75 25 C0.36 20.49, 0.37 18.92, 4.75 15 M4.75 25 C-2 20.96, 0.52 20.88, 4.75 15 M4.75 15 C7.28 12.42, 12.64 7.97, 14.25 5 M4.75 15 C7.12 12.26, 9.47 9.85, 14.25 5 M14.25 5 C17.33 1.67, 20.17 0.29, 23.75 5 M14.25 5 C19.53 -0.74, 20.1 0.58, 23.75 5" stroke="#1e1e1e" stroke-width="2" fill="none"></path></g><g transform="translate(956.3158798217773 318.1448974609375) rotate(0 43.85595703125 10)"><text x="43.85595703125" y="14.016" font-family="Virgil, Segoe UI Emoji" font-size="16px" fill="#e03131" text-anchor="middle" style="white-space: pre;" direction="ltr" dominant-baseline="alphabetic">spectrumAI</text></g><g stroke-linecap="round"><g transform="translate(916.9674751311513 236.37734603068037) rotate(0 30.535038024646155 27.906539305614388)"><path d="M-0.62 -0.72 C9.4 8.46, 50.53 45.63, 60.85 54.86 M1.25 1.51 C11.04 10.83, 49.89 46.91, 59.78 55.9" stroke="#e03131" stroke-width="2" fill="none"></path></g><g transform="translate(916.9674751311513 236.37734603068037) rotate(0 30.535038024646155 27.906539305614388)"><path d="M36.71 46.29 C43.76 49.48, 51.64 53.66, 59.78 55.9 M36.71 46.29 C40.63 49.34, 46.77 51.02, 59.78 55.9" stroke="#e03131" stroke-width="2" fill="none"></path></g><g transform="translate(916.9674751311513 236.37734603068037) rotate(0 30.535038024646155 27.906539305614388)"><path d="M48.29 33.7 C51.17 41.35, 54.91 50.04, 59.78 55.9 M48.29 33.7 C49.85 39.28, 53.58 43.58, 59.78 55.9" stroke="#e03131" stroke-width="2" fill="none"></path></g></g><mask></mask><g stroke-linecap="round"><g transform="translate(1167.2122097600443 223.08873979146057) rotate(0 19.635191776538136 0.5123042344623059)"><path d="M-0.35 -0.54 C6.16 -0.37, 32.62 1.01, 39.23 1.28 M0.47 0.38 C6.89 0.35, 32.36 0.22, 38.79 0.44" stroke="#e03131" stroke-width="2" fill="none"></path></g><g transform="translate(1167.2122097600443 223.08873979146057) rotate(0 19.635191776538136 0.5123042344623059)"><path d="M20.25 6.95 C25.36 4.81, 32.84 2.84, 38.79 0.44 M20.25 6.95 C26.16 4.99, 31.46 2.76, 38.79 0.44" stroke="#e03131" stroke-width="2" fill="none"></path></g><g transform="translate(1167.2122097600443 223.08873979146057) rotate(0 19.635191776538136 0.5123042344623059)"><path d="M20.41 -6.49 C25.5 -4.22, 32.93 -1.79, 38.79 0.44 M20.41 -6.49 C26.23 -4.35, 31.48 -2.47, 38.79 0.44" stroke="#e03131" stroke-width="2" fill="none"></path></g></g><mask></mask><g stroke-linecap="round"><g transform="translate(1026.34648046846 297.24746219866216) rotate(0 40.511558210620706 -35.03065160735477)"><path d="M0.94 0.04 C14.48 -11.52, 67.24 -57.45, 80.67 -69.24 M-0.02 -0.98 C13.37 -12.89, 66.03 -59.48, 79.54 -70.94" stroke="#e03131" stroke-width="2" fill="none"></path></g><g transform="translate(1026.34648046846 297.24746219866216) rotate(0 40.511558210620706 -35.03065160735477)"><path d="M67.41 -49.07 C70.55 -55.33, 74.94 -59.45, 79.54 -70.94 M67.41 -49.07 C70.53 -54.8, 73.94 -59.09, 79.54 -70.94" stroke="#e03131" stroke-width="2" fill="none"></path></g><g transform="translate(1026.34648046846 297.24746219866216) rotate(0 40.511558210620706 -35.03065160735477)"><path d="M56.2 -61.98 C62.21 -65.04, 69.46 -65.86, 79.54 -70.94 M56.2 -61.98 C62.06 -64.42, 68.25 -65.52, 79.54 -70.94" stroke="#e03131" stroke-width="2" fill="none"></path></g></g><mask></mask><g stroke-linecap="round" transform="translate(1119.2284774780273 203.0823974609375) rotate(0 18.689453125 19.271484375)"><path d="M23.75 5 C28.92 8.87, 31.13 12.77, 32.63 15 C34.03 18.06, 40.06 21.52, 32.63 25 C29.24 25.85, 26.72 32.36, 23.75 33.54 C19.45 41.54, 15.9 36.94, 14.25 33.54 C9.32 32.42, 7.55 29.04, 4.75 25 C0.37 23.03, -3.24 17.78, 4.75 15 C9.85 13.68, 12.95 5.94, 14.25 5 C15.47 -0.03, 21.32 -1.71, 23.75 5" stroke="none" stroke-width="0" fill="#b2f2bb"></path><path d="M23.75 5 C25.7 8.68, 28.33 12.48, 32.63 15 M23.75 5 C27.14 9.17, 30.07 12.46, 32.63 15 M32.63 15 C38.85 18.97, 35.56 21.72, 32.63 25 M32.63 15 C37.11 18.34, 35.58 19.7, 32.63 25 M32.63 25 C28.83 27.98, 27.44 29.85, 23.75 33.54 M32.63 25 C30.39 27.11, 28.96 28.37, 23.75 33.54 M23.75 33.54 C20.65 40.25, 18.27 38.4, 14.25 33.54 M23.75 33.54 C18.35 39.82, 20.54 38.82, 14.25 33.54 M14.25 33.54 C12.96 30.82, 9.54 28.29, 4.75 25 M14.25 33.54 C11.22 30.46, 8.01 27.9, 4.75 25 M4.75 25 C1.36 19.3, -0.9 19.15, 4.75 15 M4.75 25 C-1.4 18.36, -1.39 19.56, 4.75 15 M4.75 15 C6.73 12.79, 10.14 10.89, 14.25 5 M4.75 15 C7.36 13.11, 9.64 10.25, 14.25 5 M14.25 5 C17.66 1.05, 18.2 -0.83, 23.75 5 M14.25 5 C17.75 1.9, 20.76 -1.54, 23.75 5" stroke="#1e1e1e" stroke-width="2" fill="none"></path></g><g transform="translate(1107.0223236083984 245.9906005859375) rotate(0 28.879981994628906 10)"><text x="28.879981994628906" y="14.016" font-family="Virgil, Segoe UI Emoji" font-size="16px" fill="#e03131" text-anchor="middle" style="white-space: pre;" direction="ltr" dominant-baseline="alphabetic">DeepLC</text></g><g stroke-linecap="round"><g transform="translate(1024.9404551778641 178.60019201081752) rotate(0 41.795348026538136 23.832616734462306)"><path d="M0.06 -0.78 C13.92 7.24, 68.74 38.91, 82.82 47.06 M-1.37 1.43 C12.91 9.69, 70.85 40.85, 85.12 48.27" stroke="#e03131" stroke-width="2" fill="none"></path></g><g transform="translate(1024.9404551778641 178.60019201081752) rotate(0 41.795348026538136 23.832616734462306)"><path d="M60.37 44.81 C65.73 44.44, 72.68 48.24, 85.12 48.27 M60.37 44.81 C68.43 46.96, 77.58 48.06, 85.12 48.27" stroke="#e03131" stroke-width="2" fill="none"></path></g><g transform="translate(1024.9404551778641 178.60019201081752) rotate(0 41.795348026538136 23.832616734462306)"><path d="M68.39 29.7 C71.45 33.42, 76.25 41.29, 85.12 48.27 M68.39 29.7 C73.84 36.88, 80.29 43.07, 85.12 48.27" stroke="#e03131" stroke-width="2" fill="none"></path></g></g><mask></mask><g stroke-linecap="round" transform="translate(1217.8417587280273 196.1263427734375) rotate(0 18.634765625 24.328125)"><path d="M9.32 0 C14.61 -1.32, 23.81 3.16, 27.95 0 C35.39 -2.26, 37.86 4.25, 37.27 9.32 C36 19.31, 36.85 27.25, 37.27 39.34 C39.53 44.99, 37.64 45.84, 27.95 48.66 C22.41 47.85, 18.74 48.5, 9.32 48.66 C4.98 50.84, 0.33 49.07, 0 39.34 C-3.64 30.04, 2.98 20.92, 0 9.32 C3.41 3.06, -0.11 1.39, 9.32 0" stroke="none" stroke-width="0" fill="#ffec99"></path><path d="M9.32 0 C15.01 -0.66, 24.92 0.87, 27.95 0 M9.32 0 C16.75 0.52, 22.52 0.53, 27.95 0 M27.95 0 C32.3 -0.63, 37.5 2.76, 37.27 9.32 M27.95 0 C36.1 1.39, 36.53 2.05, 37.27 9.32 M37.27 9.32 C38.03 16.63, 35.75 26.98, 37.27 39.34 M37.27 9.32 C37.13 21.69, 36.9 32.8, 37.27 39.34 M37.27 39.34 C35.29 44.83, 33.55 49.03, 27.95 48.66 M37.27 39.34 C35.08 46.53, 35.51 49.37, 27.95 48.66 M27.95 48.66 C22.2 49.19, 18.39 49.94, 9.32 48.66 M27.95 48.66 C22.14 48.3, 18.84 48.69, 9.32 48.66 M9.32 48.66 C5.09 47.93, -1.82 45.91, 0 39.34 M9.32 48.66 C5.02 50.17, -1.76 44.48, 0 39.34 M0 39.34 C0.97 33.29, -1.28 25.05, 0 9.32 M0 39.34 C-0.07 27.57, 0.1 17.14, 0 9.32 M0 9.32 C1.83 2.68, 1.92 -1.8, 9.32 0 M0 9.32 C-0.04 2.66, 4.38 -0.04, 9.32 0" stroke="#e03131" stroke-width="2" fill="none"></path></g><g transform="translate(1205.0629196166992 255.9271240234375) rotate(0 39.647979736328125 20)"><text x="39.647979736328125" y="14.016" font-family="Virgil, Segoe UI Emoji" font-size="16px" fill="#e03131" text-anchor="middle" style="white-space: pre;" direction="ltr" dominant-baseline="alphabetic">final novel</text><text x="39.647979736328125" y="34.016" font-family="Virgil, Segoe UI Emoji" font-size="16px" fill="#e03131" text-anchor="middle" style="white-space: pre;" direction="ltr" dominant-baseline="alphabetic">peptides</text></g></svg>