<?xml version="1.0" encoding="utf-8" standalone="no"?>
<!DOCTYPE svg PUBLIC "-//W3C//DTD SVG 1.1//EN"
  "http://www.w3.org/Graphics/SVG/1.1/DTD/svg11.dtd">
<svg xmlns:xlink="http://www.w3.org/1999/xlink" width="576pt" height="576pt" viewBox="0 0 576 576" xmlns="http://www.w3.org/2000/svg" version="1.1">
 <metadata>
  <rdf:RDF xmlns:dc="http://purl.org/dc/elements/1.1/" xmlns:cc="http://creativecommons.org/ns#" xmlns:rdf="http://www.w3.org/1999/02/22-rdf-syntax-ns#">
   <cc:Work>
    <dc:type rdf:resource="http://purl.org/dc/dcmitype/StillImage"/>
    <dc:date>2024-05-15T17:19:08.781086</dc:date>
    <dc:format>image/svg+xml</dc:format>
    <dc:creator>
     <cc:Agent>
      <dc:title>Matplotlib v3.5.3, https://matplotlib.org/</dc:title>
     </cc:Agent>
    </dc:creator>
   </cc:Work>
  </rdf:RDF>
 </metadata>
 <defs>
  <style type="text/css">*{stroke-linejoin: round; stroke-linecap: butt}</style>
 </defs>
 <g id="figure_1">
  <g id="patch_1">
   <path d="M 0 576 
L 576 576 
L 576 0 
L 0 0 
L 0 576 
z
" style="fill: none"/>
  </g>
  <g id="axes_1">
   <g id="patch_2">
    <path d="M 270.658004 115.685006 
C 239.213672 108.99862 206.374587 114.477708 178.804292 131.010483 
C 151.233997 147.543258 130.932582 173.930347 122.019509 204.817414 
C 113.106435 235.704482 116.228303 268.850821 130.751638 297.530545 
C 145.274973 326.210269 170.146179 348.342802 200.318515 359.437123 
C 201.752505 351.934029 204.076854 344.628818 207.242208 337.676604 
C 210.407562 330.72439 214.391358 324.174728 219.109008 318.16669 
C 208.150055 301.787672 200.760747 283.283674 197.422913 263.861271 
C 194.085079 244.438868 194.87288 224.529594 199.734947 205.431658 
C 204.597013 186.333722 213.425319 168.471447 225.644202 153.009566 
C 237.863085 137.547686 253.201063 124.829736 270.658004 115.685006 
" clip-path="url(#pefe7f1f84c)" style="fill: #ff0000; opacity: 0.4"/>
   </g>
   <g id="patch_3">
    <path d="M 270.658004 115.685006 
C 290.196635 119.83974 308.484268 128.540101 324.03422 141.078798 
C 339.584171 153.617495 351.963331 169.645289 360.165342 187.859211 
C 368.367354 206.073132 372.163767 225.96587 371.245955 245.920257 
C 370.328143 265.874643 364.72167 285.334891 354.88231 302.71899 
C 364.99772 310.874767 373.352945 320.999814 379.440617 332.479294 
C 385.528289 343.958774 389.22264 356.555525 390.299333 369.504616 
C 407.753756 362.157627 423.542953 351.355173 436.714811 337.748657 
C 449.88667 324.142141 460.170999 308.010671 466.947639 290.326998 
C 473.724279 272.643325 476.854222 253.770191 476.148727 234.845672 
C 475.443232 215.921153 470.916772 197.333445 462.842298 180.203412 
C 454.767824 163.07338 443.310966 147.752409 429.16259 135.164375 
C 415.014214 122.576341 398.464543 112.979461 380.511544 106.952439 
C 362.558546 100.925418 343.570487 98.591887 324.692375 100.092561 
C 305.814263 101.593235 287.433341 106.897332 270.658004 115.685006 
" clip-path="url(#pefe7f1f84c)" style="fill: #008000; opacity: 0.4"/>
   </g>
   <g id="patch_4">
    <path d="M 270.658004 115.685006 
C 253.201063 124.829736 237.863085 137.547686 225.644202 153.009566 
C 213.425319 168.471447 204.597013 186.333722 199.734947 205.431658 
C 194.87288 224.529594 194.085079 244.438868 197.422913 263.861271 
C 200.760747 283.283674 208.150055 301.787672 219.109008 318.16669 
C 226.959649 308.168712 236.71833 299.828744 247.817462 293.631859 
C 258.916593 287.434973 271.136737 283.503688 283.767139 282.066655 
C 296.397541 280.629623 309.188488 281.715254 321.396027 285.260408 
C 333.603566 288.805561 344.986343 294.740145 354.88231 302.71899 
C 364.72167 285.334891 370.328143 265.874643 371.245955 245.920257 
C 372.163767 225.96587 368.367354 206.073132 360.165342 187.859211 
C 351.963331 169.645289 339.584171 153.617495 324.03422 141.078798 
C 308.484268 128.540101 290.196635 119.83974 270.658004 115.685006 
" clip-path="url(#pefe7f1f84c)" style="fill: #b25900; opacity: 0.4"/>
   </g>
   <g id="patch_5">
    <path d="M 200.318515 359.437123 
C 197.745517 372.899867 198.085053 386.758816 201.314226 400.079411 
C 204.543399 413.400006 210.587955 425.875946 219.04029 436.665934 
C 227.492625 447.455923 238.158379 456.311848 250.318325 462.636524 
C 262.478271 468.961201 275.852794 472.609195 289.540005 473.33451 
C 303.227215 474.059824 316.91238 471.845782 329.672662 466.841682 
C 342.432944 461.837582 353.974925 454.158492 363.520289 444.322241 
C 373.065652 434.485989 380.394907 422.718757 385.013815 409.814048 
C 389.632724 396.90934 391.435076 383.163895 390.299333 369.504616 
C 371.219555 377.535756 350.597842 381.249406 329.915015 380.378893 
C 309.232188 379.50838 288.995459 374.075052 270.658004 364.46907 
C 258.990083 366.95016 247.030891 367.777287 235.132501 366.9261 
C 223.234111 366.074913 211.514442 363.553847 200.318515 359.437123 
" clip-path="url(#pefe7f1f84c)" style="fill: #0000ff; opacity: 0.4"/>
   </g>
   <g id="patch_6">
    <path d="M 200.318515 359.437123 
C 211.514442 363.553847 223.234111 366.074913 235.132501 366.9261 
C 247.030891 367.777287 258.990083 366.95016 270.658004 364.46907 
C 260.308069 359.047309 250.675146 352.354945 241.982786 344.547286 
C 233.290426 336.739628 225.606392 327.877542 219.109008 318.16669 
C 214.391358 324.174728 210.407562 330.72439 207.242208 337.676604 
C 204.076854 344.628818 201.752505 351.934029 200.318515 359.437123 
" clip-path="url(#pefe7f1f84c)" style="fill: #b200b2; opacity: 0.4"/>
   </g>
   <g id="patch_7">
    <path d="M 354.88231 302.71899 
C 346.014546 318.386481 333.92013 331.993842 319.401248 342.638538 
C 304.882367 353.283233 288.267275 360.724599 270.658004 364.46907 
C 288.995459 374.075052 309.232188 379.50838 329.915015 380.378893 
C 350.597842 381.249406 371.219555 377.535756 390.299333 369.504616 
C 389.22264 356.555525 385.528289 343.958774 379.440617 332.479294 
C 373.352945 320.999814 364.99772 310.874767 354.88231 302.71899 
" clip-path="url(#pefe7f1f84c)" style="fill: #0059b2; opacity: 0.4"/>
   </g>
   <g id="patch_8">
    <path d="M 219.109008 318.16669 
C 225.606392 327.877542 233.290426 336.739628 241.982786 344.547286 
C 250.675146 352.354945 260.308069 359.047309 270.658004 364.46907 
C 288.267275 360.724599 304.882367 353.283233 319.401248 342.638538 
C 333.92013 331.993842 346.014546 318.386481 354.88231 302.71899 
C 344.986343 294.740145 333.603566 288.805561 321.396027 285.260408 
C 309.188488 281.715254 296.397541 280.629623 283.767139 282.066655 
C 271.136737 283.503688 258.916593 287.434973 247.817462 293.631859 
C 236.71833 299.828744 226.959649 308.168712 219.109008 318.16669 
" clip-path="url(#pefe7f1f84c)" style="fill: #663366; opacity: 0.4"/>
   </g>
   <g id="text_1">
    <!-- 294 -->
    <g transform="translate(145.664228 220.069424)scale(0.1 -0.1)">
     <defs>
      <path id="DejaVuSans-32" d="M 1228 531 
L 3431 531 
L 3431 0 
L 469 0 
L 469 531 
Q 828 903 1448 1529 
Q 2069 2156 2228 2338 
Q 2531 2678 2651 2914 
Q 2772 3150 2772 3378 
Q 2772 3750 2511 3984 
Q 2250 4219 1831 4219 
Q 1534 4219 1204 4116 
Q 875 4013 500 3803 
L 500 4441 
Q 881 4594 1212 4672 
Q 1544 4750 1819 4750 
Q 2544 4750 2975 4387 
Q 3406 4025 3406 3419 
Q 3406 3131 3298 2873 
Q 3191 2616 2906 2266 
Q 2828 2175 2409 1742 
Q 1991 1309 1228 531 
z
" transform="scale(0.015625)"/>
      <path id="DejaVuSans-39" d="M 703 97 
L 703 672 
Q 941 559 1184 500 
Q 1428 441 1663 441 
Q 2288 441 2617 861 
Q 2947 1281 2994 2138 
Q 2813 1869 2534 1725 
Q 2256 1581 1919 1581 
Q 1219 1581 811 2004 
Q 403 2428 403 3163 
Q 403 3881 828 4315 
Q 1253 4750 1959 4750 
Q 2769 4750 3195 4129 
Q 3622 3509 3622 2328 
Q 3622 1225 3098 567 
Q 2575 -91 1691 -91 
Q 1453 -91 1209 -44 
Q 966 3 703 97 
z
M 1959 2075 
Q 2384 2075 2632 2365 
Q 2881 2656 2881 3163 
Q 2881 3666 2632 3958 
Q 2384 4250 1959 4250 
Q 1534 4250 1286 3958 
Q 1038 3666 1038 3163 
Q 1038 2656 1286 2365 
Q 1534 2075 1959 2075 
z
" transform="scale(0.015625)"/>
      <path id="DejaVuSans-34" d="M 2419 4116 
L 825 1625 
L 2419 1625 
L 2419 4116 
z
M 2253 4666 
L 3047 4666 
L 3047 1625 
L 3713 1625 
L 3713 1100 
L 3047 1100 
L 3047 0 
L 2419 0 
L 2419 1100 
L 313 1100 
L 313 1709 
L 2253 4666 
z
" transform="scale(0.015625)"/>
     </defs>
     <use xlink:href="#DejaVuSans-32"/>
     <use xlink:href="#DejaVuSans-39" x="63.623047"/>
     <use xlink:href="#DejaVuSans-34" x="127.246094"/>
    </g>
   </g>
   <g id="text_2">
    <!-- 464 -->
    <g transform="translate(409.289734 206.240033)scale(0.1 -0.1)">
     <defs>
      <path id="DejaVuSans-36" d="M 2113 2584 
Q 1688 2584 1439 2293 
Q 1191 2003 1191 1497 
Q 1191 994 1439 701 
Q 1688 409 2113 409 
Q 2538 409 2786 701 
Q 3034 994 3034 1497 
Q 3034 2003 2786 2293 
Q 2538 2584 2113 2584 
z
M 3366 4563 
L 3366 3988 
Q 3128 4100 2886 4159 
Q 2644 4219 2406 4219 
Q 1781 4219 1451 3797 
Q 1122 3375 1075 2522 
Q 1259 2794 1537 2939 
Q 1816 3084 2150 3084 
Q 2853 3084 3261 2657 
Q 3669 2231 3669 1497 
Q 3669 778 3244 343 
Q 2819 -91 2113 -91 
Q 1303 -91 875 529 
Q 447 1150 447 2328 
Q 447 3434 972 4092 
Q 1497 4750 2381 4750 
Q 2619 4750 2861 4703 
Q 3103 4656 3366 4563 
z
" transform="scale(0.015625)"/>
     </defs>
     <use xlink:href="#DejaVuSans-34"/>
     <use xlink:href="#DejaVuSans-36" x="63.623047"/>
     <use xlink:href="#DejaVuSans-34" x="127.246094"/>
    </g>
   </g>
   <g id="text_3">
    <!-- 580 -->
    <g transform="translate(274.680214 225.395267)scale(0.1 -0.1)">
     <defs>
      <path id="DejaVuSans-35" d="M 691 4666 
L 3169 4666 
L 3169 4134 
L 1269 4134 
L 1269 2991 
Q 1406 3038 1543 3061 
Q 1681 3084 1819 3084 
Q 2600 3084 3056 2656 
Q 3513 2228 3513 1497 
Q 3513 744 3044 326 
Q 2575 -91 1722 -91 
Q 1428 -91 1123 -41 
Q 819 9 494 109 
L 494 744 
Q 775 591 1075 516 
Q 1375 441 1709 441 
Q 2250 441 2565 725 
Q 2881 1009 2881 1497 
Q 2881 1984 2565 2268 
Q 2250 2553 1709 2553 
Q 1456 2553 1204 2497 
Q 953 2441 691 2322 
L 691 4666 
z
" transform="scale(0.015625)"/>
      <path id="DejaVuSans-38" d="M 2034 2216 
Q 1584 2216 1326 1975 
Q 1069 1734 1069 1313 
Q 1069 891 1326 650 
Q 1584 409 2034 409 
Q 2484 409 2743 651 
Q 3003 894 3003 1313 
Q 3003 1734 2745 1975 
Q 2488 2216 2034 2216 
z
M 1403 2484 
Q 997 2584 770 2862 
Q 544 3141 544 3541 
Q 544 4100 942 4425 
Q 1341 4750 2034 4750 
Q 2731 4750 3128 4425 
Q 3525 4100 3525 3541 
Q 3525 3141 3298 2862 
Q 3072 2584 2669 2484 
Q 3125 2378 3379 2068 
Q 3634 1759 3634 1313 
Q 3634 634 3220 271 
Q 2806 -91 2034 -91 
Q 1263 -91 848 271 
Q 434 634 434 1313 
Q 434 1759 690 2068 
Q 947 2378 1403 2484 
z
M 1172 3481 
Q 1172 3119 1398 2916 
Q 1625 2713 2034 2713 
Q 2441 2713 2670 2916 
Q 2900 3119 2900 3481 
Q 2900 3844 2670 4047 
Q 2441 4250 2034 4250 
Q 1625 4250 1398 4047 
Q 1172 3844 1172 3481 
z
" transform="scale(0.015625)"/>
      <path id="DejaVuSans-30" d="M 2034 4250 
Q 1547 4250 1301 3770 
Q 1056 3291 1056 2328 
Q 1056 1369 1301 889 
Q 1547 409 2034 409 
Q 2525 409 2770 889 
Q 3016 1369 3016 2328 
Q 3016 3291 2770 3770 
Q 2525 4250 2034 4250 
z
M 2034 4750 
Q 2819 4750 3233 4129 
Q 3647 3509 3647 2328 
Q 3647 1150 3233 529 
Q 2819 -91 2034 -91 
Q 1250 -91 836 529 
Q 422 1150 422 2328 
Q 422 3509 836 4129 
Q 1250 4750 2034 4750 
z
" transform="scale(0.015625)"/>
     </defs>
     <use xlink:href="#DejaVuSans-35"/>
     <use xlink:href="#DejaVuSans-38" x="63.623047"/>
     <use xlink:href="#DejaVuSans-30" x="127.246094"/>
    </g>
   </g>
   <g id="text_4">
    <!-- 261 -->
    <g transform="translate(281.025514 446.919373)scale(0.1 -0.1)">
     <defs>
      <path id="DejaVuSans-31" d="M 794 531 
L 1825 531 
L 1825 4091 
L 703 3866 
L 703 4441 
L 1819 4666 
L 2450 4666 
L 2450 531 
L 3481 531 
L 3481 0 
L 794 0 
L 794 531 
z
" transform="scale(0.015625)"/>
     </defs>
     <use xlink:href="#DejaVuSans-32"/>
     <use xlink:href="#DejaVuSans-36" x="63.623047"/>
     <use xlink:href="#DejaVuSans-31" x="127.246094"/>
    </g>
   </g>
   <g id="text_5">
    <!-- 96 -->
    <g transform="translate(222.340905 353.355015)scale(0.1 -0.1)">
     <use xlink:href="#DejaVuSans-39"/>
     <use xlink:href="#DejaVuSans-36" x="63.623047"/>
    </g>
   </g>
   <g id="text_6">
    <!-- 158 -->
    <g transform="translate(332.665207 355.264296)scale(0.1 -0.1)">
     <use xlink:href="#DejaVuSans-31"/>
     <use xlink:href="#DejaVuSans-35" x="63.623047"/>
     <use xlink:href="#DejaVuSans-38" x="127.246094"/>
    </g>
   </g>
   <g id="text_7">
    <!-- 88 -->
    <g transform="translate(280.587802 312.966572)scale(0.1 -0.1)">
     <use xlink:href="#DejaVuSans-38"/>
     <use xlink:href="#DejaVuSans-38" x="63.623047"/>
    </g>
   </g>
   <g id="text_8">
    <!-- Highly Modified -->
    <g transform="translate(87.581038 112.903803)scale(0.12 -0.12)">
     <defs>
      <path id="DejaVuSans-48" d="M 628 4666 
L 1259 4666 
L 1259 2753 
L 3553 2753 
L 3553 4666 
L 4184 4666 
L 4184 0 
L 3553 0 
L 3553 2222 
L 1259 2222 
L 1259 0 
L 628 0 
L 628 4666 
z
" transform="scale(0.015625)"/>
      <path id="DejaVuSans-69" d="M 603 3500 
L 1178 3500 
L 1178 0 
L 603 0 
L 603 3500 
z
M 603 4863 
L 1178 4863 
L 1178 4134 
L 603 4134 
L 603 4863 
z
" transform="scale(0.015625)"/>
      <path id="DejaVuSans-67" d="M 2906 1791 
Q 2906 2416 2648 2759 
Q 2391 3103 1925 3103 
Q 1463 3103 1205 2759 
Q 947 2416 947 1791 
Q 947 1169 1205 825 
Q 1463 481 1925 481 
Q 2391 481 2648 825 
Q 2906 1169 2906 1791 
z
M 3481 434 
Q 3481 -459 3084 -895 
Q 2688 -1331 1869 -1331 
Q 1566 -1331 1297 -1286 
Q 1028 -1241 775 -1147 
L 775 -588 
Q 1028 -725 1275 -790 
Q 1522 -856 1778 -856 
Q 2344 -856 2625 -561 
Q 2906 -266 2906 331 
L 2906 616 
Q 2728 306 2450 153 
Q 2172 0 1784 0 
Q 1141 0 747 490 
Q 353 981 353 1791 
Q 353 2603 747 3093 
Q 1141 3584 1784 3584 
Q 2172 3584 2450 3431 
Q 2728 3278 2906 2969 
L 2906 3500 
L 3481 3500 
L 3481 434 
z
" transform="scale(0.015625)"/>
      <path id="DejaVuSans-68" d="M 3513 2113 
L 3513 0 
L 2938 0 
L 2938 2094 
Q 2938 2591 2744 2837 
Q 2550 3084 2163 3084 
Q 1697 3084 1428 2787 
Q 1159 2491 1159 1978 
L 1159 0 
L 581 0 
L 581 4863 
L 1159 4863 
L 1159 2956 
Q 1366 3272 1645 3428 
Q 1925 3584 2291 3584 
Q 2894 3584 3203 3211 
Q 3513 2838 3513 2113 
z
" transform="scale(0.015625)"/>
      <path id="DejaVuSans-6c" d="M 603 4863 
L 1178 4863 
L 1178 0 
L 603 0 
L 603 4863 
z
" transform="scale(0.015625)"/>
      <path id="DejaVuSans-79" d="M 2059 -325 
Q 1816 -950 1584 -1140 
Q 1353 -1331 966 -1331 
L 506 -1331 
L 506 -850 
L 844 -850 
Q 1081 -850 1212 -737 
Q 1344 -625 1503 -206 
L 1606 56 
L 191 3500 
L 800 3500 
L 1894 763 
L 2988 3500 
L 3597 3500 
L 2059 -325 
z
" transform="scale(0.015625)"/>
      <path id="DejaVuSans-20" transform="scale(0.015625)"/>
      <path id="DejaVuSans-4d" d="M 628 4666 
L 1569 4666 
L 2759 1491 
L 3956 4666 
L 4897 4666 
L 4897 0 
L 4281 0 
L 4281 4097 
L 3078 897 
L 2444 897 
L 1241 4097 
L 1241 0 
L 628 0 
L 628 4666 
z
" transform="scale(0.015625)"/>
      <path id="DejaVuSans-6f" d="M 1959 3097 
Q 1497 3097 1228 2736 
Q 959 2375 959 1747 
Q 959 1119 1226 758 
Q 1494 397 1959 397 
Q 2419 397 2687 759 
Q 2956 1122 2956 1747 
Q 2956 2369 2687 2733 
Q 2419 3097 1959 3097 
z
M 1959 3584 
Q 2709 3584 3137 3096 
Q 3566 2609 3566 1747 
Q 3566 888 3137 398 
Q 2709 -91 1959 -91 
Q 1206 -91 779 398 
Q 353 888 353 1747 
Q 353 2609 779 3096 
Q 1206 3584 1959 3584 
z
" transform="scale(0.015625)"/>
      <path id="DejaVuSans-64" d="M 2906 2969 
L 2906 4863 
L 3481 4863 
L 3481 0 
L 2906 0 
L 2906 525 
Q 2725 213 2448 61 
Q 2172 -91 1784 -91 
Q 1150 -91 751 415 
Q 353 922 353 1747 
Q 353 2572 751 3078 
Q 1150 3584 1784 3584 
Q 2172 3584 2448 3432 
Q 2725 3281 2906 2969 
z
M 947 1747 
Q 947 1113 1208 752 
Q 1469 391 1925 391 
Q 2381 391 2643 752 
Q 2906 1113 2906 1747 
Q 2906 2381 2643 2742 
Q 2381 3103 1925 3103 
Q 1469 3103 1208 2742 
Q 947 2381 947 1747 
z
" transform="scale(0.015625)"/>
      <path id="DejaVuSans-66" d="M 2375 4863 
L 2375 4384 
L 1825 4384 
Q 1516 4384 1395 4259 
Q 1275 4134 1275 3809 
L 1275 3500 
L 2222 3500 
L 2222 3053 
L 1275 3053 
L 1275 0 
L 697 0 
L 697 3053 
L 147 3053 
L 147 3500 
L 697 3500 
L 697 3744 
Q 697 4328 969 4595 
Q 1241 4863 1831 4863 
L 2375 4863 
z
" transform="scale(0.015625)"/>
      <path id="DejaVuSans-65" d="M 3597 1894 
L 3597 1613 
L 953 1613 
Q 991 1019 1311 708 
Q 1631 397 2203 397 
Q 2534 397 2845 478 
Q 3156 559 3463 722 
L 3463 178 
Q 3153 47 2828 -22 
Q 2503 -91 2169 -91 
Q 1331 -91 842 396 
Q 353 884 353 1716 
Q 353 2575 817 3079 
Q 1281 3584 2069 3584 
Q 2775 3584 3186 3129 
Q 3597 2675 3597 1894 
z
M 3022 2063 
Q 3016 2534 2758 2815 
Q 2500 3097 2075 3097 
Q 1594 3097 1305 2825 
Q 1016 2553 972 2059 
L 3022 2063 
z
" transform="scale(0.015625)"/>
     </defs>
     <use xlink:href="#DejaVuSans-48"/>
     <use xlink:href="#DejaVuSans-69" x="75.195312"/>
     <use xlink:href="#DejaVuSans-67" x="102.978516"/>
     <use xlink:href="#DejaVuSans-68" x="166.455078"/>
     <use xlink:href="#DejaVuSans-6c" x="229.833984"/>
     <use xlink:href="#DejaVuSans-79" x="257.617188"/>
     <use xlink:href="#DejaVuSans-20" x="316.796875"/>
     <use xlink:href="#DejaVuSans-4d" x="348.583984"/>
     <use xlink:href="#DejaVuSans-6f" x="434.863281"/>
     <use xlink:href="#DejaVuSans-64" x="496.044922"/>
     <use xlink:href="#DejaVuSans-69" x="559.521484"/>
     <use xlink:href="#DejaVuSans-66" x="587.304688"/>
     <use xlink:href="#DejaVuSans-69" x="622.509766"/>
     <use xlink:href="#DejaVuSans-65" x="650.292969"/>
     <use xlink:href="#DejaVuSans-64" x="711.816406"/>
    </g>
   </g>
   <g id="text_9">
    <!-- Highly Identified -->
    <g transform="translate(406.03317 99.650969)scale(0.12 -0.12)">
     <defs>
      <path id="DejaVuSans-49" d="M 628 4666 
L 1259 4666 
L 1259 0 
L 628 0 
L 628 4666 
z
" transform="scale(0.015625)"/>
      <path id="DejaVuSans-6e" d="M 3513 2113 
L 3513 0 
L 2938 0 
L 2938 2094 
Q 2938 2591 2744 2837 
Q 2550 3084 2163 3084 
Q 1697 3084 1428 2787 
Q 1159 2491 1159 1978 
L 1159 0 
L 581 0 
L 581 3500 
L 1159 3500 
L 1159 2956 
Q 1366 3272 1645 3428 
Q 1925 3584 2291 3584 
Q 2894 3584 3203 3211 
Q 3513 2838 3513 2113 
z
" transform="scale(0.015625)"/>
      <path id="DejaVuSans-74" d="M 1172 4494 
L 1172 3500 
L 2356 3500 
L 2356 3053 
L 1172 3053 
L 1172 1153 
Q 1172 725 1289 603 
Q 1406 481 1766 481 
L 2356 481 
L 2356 0 
L 1766 0 
Q 1100 0 847 248 
Q 594 497 594 1153 
L 594 3053 
L 172 3053 
L 172 3500 
L 594 3500 
L 594 4494 
L 1172 4494 
z
" transform="scale(0.015625)"/>
     </defs>
     <use xlink:href="#DejaVuSans-48"/>
     <use xlink:href="#DejaVuSans-69" x="75.195312"/>
     <use xlink:href="#DejaVuSans-67" x="102.978516"/>
     <use xlink:href="#DejaVuSans-68" x="166.455078"/>
     <use xlink:href="#DejaVuSans-6c" x="229.833984"/>
     <use xlink:href="#DejaVuSans-79" x="257.617188"/>
     <use xlink:href="#DejaVuSans-20" x="316.796875"/>
     <use xlink:href="#DejaVuSans-49" x="348.583984"/>
     <use xlink:href="#DejaVuSans-64" x="378.076172"/>
     <use xlink:href="#DejaVuSans-65" x="441.552734"/>
     <use xlink:href="#DejaVuSans-6e" x="503.076172"/>
     <use xlink:href="#DejaVuSans-74" x="566.455078"/>
     <use xlink:href="#DejaVuSans-69" x="605.664062"/>
     <use xlink:href="#DejaVuSans-66" x="633.447266"/>
     <use xlink:href="#DejaVuSans-69" x="668.652344"/>
     <use xlink:href="#DejaVuSans-65" x="696.435547"/>
     <use xlink:href="#DejaVuSans-64" x="757.958984"/>
    </g>
   </g>
   <g id="text_10">
    <!-- Highly Presented -->
    <g transform="translate(243.695595 492.188047)scale(0.12 -0.12)">
     <defs>
      <path id="DejaVuSans-50" d="M 1259 4147 
L 1259 2394 
L 2053 2394 
Q 2494 2394 2734 2622 
Q 2975 2850 2975 3272 
Q 2975 3691 2734 3919 
Q 2494 4147 2053 4147 
L 1259 4147 
z
M 628 4666 
L 2053 4666 
Q 2838 4666 3239 4311 
Q 3641 3956 3641 3272 
Q 3641 2581 3239 2228 
Q 2838 1875 2053 1875 
L 1259 1875 
L 1259 0 
L 628 0 
L 628 4666 
z
" transform="scale(0.015625)"/>
      <path id="DejaVuSans-72" d="M 2631 2963 
Q 2534 3019 2420 3045 
Q 2306 3072 2169 3072 
Q 1681 3072 1420 2755 
Q 1159 2438 1159 1844 
L 1159 0 
L 581 0 
L 581 3500 
L 1159 3500 
L 1159 2956 
Q 1341 3275 1631 3429 
Q 1922 3584 2338 3584 
Q 2397 3584 2469 3576 
Q 2541 3569 2628 3553 
L 2631 2963 
z
" transform="scale(0.015625)"/>
      <path id="DejaVuSans-73" d="M 2834 3397 
L 2834 2853 
Q 2591 2978 2328 3040 
Q 2066 3103 1784 3103 
Q 1356 3103 1142 2972 
Q 928 2841 928 2578 
Q 928 2378 1081 2264 
Q 1234 2150 1697 2047 
L 1894 2003 
Q 2506 1872 2764 1633 
Q 3022 1394 3022 966 
Q 3022 478 2636 193 
Q 2250 -91 1575 -91 
Q 1294 -91 989 -36 
Q 684 19 347 128 
L 347 722 
Q 666 556 975 473 
Q 1284 391 1588 391 
Q 1994 391 2212 530 
Q 2431 669 2431 922 
Q 2431 1156 2273 1281 
Q 2116 1406 1581 1522 
L 1381 1569 
Q 847 1681 609 1914 
Q 372 2147 372 2553 
Q 372 3047 722 3315 
Q 1072 3584 1716 3584 
Q 2034 3584 2315 3537 
Q 2597 3491 2834 3397 
z
" transform="scale(0.015625)"/>
     </defs>
     <use xlink:href="#DejaVuSans-48"/>
     <use xlink:href="#DejaVuSans-69" x="75.195312"/>
     <use xlink:href="#DejaVuSans-67" x="102.978516"/>
     <use xlink:href="#DejaVuSans-68" x="166.455078"/>
     <use xlink:href="#DejaVuSans-6c" x="229.833984"/>
     <use xlink:href="#DejaVuSans-79" x="257.617188"/>
     <use xlink:href="#DejaVuSans-20" x="316.796875"/>
     <use xlink:href="#DejaVuSans-50" x="348.583984"/>
     <use xlink:href="#DejaVuSans-72" x="407.136719"/>
     <use xlink:href="#DejaVuSans-65" x="446"/>
     <use xlink:href="#DejaVuSans-73" x="507.523438"/>
     <use xlink:href="#DejaVuSans-65" x="559.623047"/>
     <use xlink:href="#DejaVuSans-6e" x="621.146484"/>
     <use xlink:href="#DejaVuSans-74" x="684.525391"/>
     <use xlink:href="#DejaVuSans-65" x="723.734375"/>
     <use xlink:href="#DejaVuSans-64" x="785.257812"/>
    </g>
   </g>
   <g id="text_11">
    <!-- Genes by Classifications -->
    <g transform="translate(209.088 63.12)scale(0.144 -0.144)">
     <defs>
      <path id="DejaVuSans-47" d="M 3809 666 
L 3809 1919 
L 2778 1919 
L 2778 2438 
L 4434 2438 
L 4434 434 
Q 4069 175 3628 42 
Q 3188 -91 2688 -91 
Q 1594 -91 976 548 
Q 359 1188 359 2328 
Q 359 3472 976 4111 
Q 1594 4750 2688 4750 
Q 3144 4750 3555 4637 
Q 3966 4525 4313 4306 
L 4313 3634 
Q 3963 3931 3569 4081 
Q 3175 4231 2741 4231 
Q 1884 4231 1454 3753 
Q 1025 3275 1025 2328 
Q 1025 1384 1454 906 
Q 1884 428 2741 428 
Q 3075 428 3337 486 
Q 3600 544 3809 666 
z
" transform="scale(0.015625)"/>
      <path id="DejaVuSans-62" d="M 3116 1747 
Q 3116 2381 2855 2742 
Q 2594 3103 2138 3103 
Q 1681 3103 1420 2742 
Q 1159 2381 1159 1747 
Q 1159 1113 1420 752 
Q 1681 391 2138 391 
Q 2594 391 2855 752 
Q 3116 1113 3116 1747 
z
M 1159 2969 
Q 1341 3281 1617 3432 
Q 1894 3584 2278 3584 
Q 2916 3584 3314 3078 
Q 3713 2572 3713 1747 
Q 3713 922 3314 415 
Q 2916 -91 2278 -91 
Q 1894 -91 1617 61 
Q 1341 213 1159 525 
L 1159 0 
L 581 0 
L 581 4863 
L 1159 4863 
L 1159 2969 
z
" transform="scale(0.015625)"/>
      <path id="DejaVuSans-43" d="M 4122 4306 
L 4122 3641 
Q 3803 3938 3442 4084 
Q 3081 4231 2675 4231 
Q 1875 4231 1450 3742 
Q 1025 3253 1025 2328 
Q 1025 1406 1450 917 
Q 1875 428 2675 428 
Q 3081 428 3442 575 
Q 3803 722 4122 1019 
L 4122 359 
Q 3791 134 3420 21 
Q 3050 -91 2638 -91 
Q 1578 -91 968 557 
Q 359 1206 359 2328 
Q 359 3453 968 4101 
Q 1578 4750 2638 4750 
Q 3056 4750 3426 4639 
Q 3797 4528 4122 4306 
z
" transform="scale(0.015625)"/>
      <path id="DejaVuSans-61" d="M 2194 1759 
Q 1497 1759 1228 1600 
Q 959 1441 959 1056 
Q 959 750 1161 570 
Q 1363 391 1709 391 
Q 2188 391 2477 730 
Q 2766 1069 2766 1631 
L 2766 1759 
L 2194 1759 
z
M 3341 1997 
L 3341 0 
L 2766 0 
L 2766 531 
Q 2569 213 2275 61 
Q 1981 -91 1556 -91 
Q 1019 -91 701 211 
Q 384 513 384 1019 
Q 384 1609 779 1909 
Q 1175 2209 1959 2209 
L 2766 2209 
L 2766 2266 
Q 2766 2663 2505 2880 
Q 2244 3097 1772 3097 
Q 1472 3097 1187 3025 
Q 903 2953 641 2809 
L 641 3341 
Q 956 3463 1253 3523 
Q 1550 3584 1831 3584 
Q 2591 3584 2966 3190 
Q 3341 2797 3341 1997 
z
" transform="scale(0.015625)"/>
      <path id="DejaVuSans-63" d="M 3122 3366 
L 3122 2828 
Q 2878 2963 2633 3030 
Q 2388 3097 2138 3097 
Q 1578 3097 1268 2742 
Q 959 2388 959 1747 
Q 959 1106 1268 751 
Q 1578 397 2138 397 
Q 2388 397 2633 464 
Q 2878 531 3122 666 
L 3122 134 
Q 2881 22 2623 -34 
Q 2366 -91 2075 -91 
Q 1284 -91 818 406 
Q 353 903 353 1747 
Q 353 2603 823 3093 
Q 1294 3584 2113 3584 
Q 2378 3584 2631 3529 
Q 2884 3475 3122 3366 
z
" transform="scale(0.015625)"/>
     </defs>
     <use xlink:href="#DejaVuSans-47"/>
     <use xlink:href="#DejaVuSans-65" x="77.490234"/>
     <use xlink:href="#DejaVuSans-6e" x="139.013672"/>
     <use xlink:href="#DejaVuSans-65" x="202.392578"/>
     <use xlink:href="#DejaVuSans-73" x="263.916016"/>
     <use xlink:href="#DejaVuSans-20" x="316.015625"/>
     <use xlink:href="#DejaVuSans-62" x="347.802734"/>
     <use xlink:href="#DejaVuSans-79" x="411.279297"/>
     <use xlink:href="#DejaVuSans-20" x="470.458984"/>
     <use xlink:href="#DejaVuSans-43" x="502.246094"/>
     <use xlink:href="#DejaVuSans-6c" x="572.070312"/>
     <use xlink:href="#DejaVuSans-61" x="599.853516"/>
     <use xlink:href="#DejaVuSans-73" x="661.132812"/>
     <use xlink:href="#DejaVuSans-73" x="713.232422"/>
     <use xlink:href="#DejaVuSans-69" x="765.332031"/>
     <use xlink:href="#DejaVuSans-66" x="793.115234"/>
     <use xlink:href="#DejaVuSans-69" x="828.320312"/>
     <use xlink:href="#DejaVuSans-63" x="856.103516"/>
     <use xlink:href="#DejaVuSans-61" x="911.083984"/>
     <use xlink:href="#DejaVuSans-74" x="972.363281"/>
     <use xlink:href="#DejaVuSans-69" x="1011.572266"/>
     <use xlink:href="#DejaVuSans-6f" x="1039.355469"/>
     <use xlink:href="#DejaVuSans-6e" x="1100.537109"/>
     <use xlink:href="#DejaVuSans-73" x="1163.916016"/>
    </g>
   </g>
  </g>
 </g>
 <defs>
  <clipPath id="pefe7f1f84c">
   <rect x="86.502827" y="69.12" width="420.274346" height="434.88"/>
  </clipPath>
 </defs>
</svg>
