<?xml version="1.0" encoding="utf-8" standalone="no"?>
<!DOCTYPE svg PUBLIC "-//W3C//DTD SVG 1.1//EN"
  "http://www.w3.org/Graphics/SVG/1.1/DTD/svg11.dtd">
<svg xmlns:xlink="http://www.w3.org/1999/xlink" width="460.8pt" height="345.6pt" viewBox="0 0 460.8 345.6" xmlns="http://www.w3.org/2000/svg" version="1.1">
 <metadata>
  <rdf:RDF xmlns:dc="http://purl.org/dc/elements/1.1/" xmlns:cc="http://creativecommons.org/ns#" xmlns:rdf="http://www.w3.org/1999/02/22-rdf-syntax-ns#">
   <cc:Work>
    <dc:type rdf:resource="http://purl.org/dc/dcmitype/StillImage"/>
    <dc:date>2024-01-17T10:15:37.275459</dc:date>
    <dc:format>image/svg+xml</dc:format>
    <dc:creator>
     <cc:Agent>
      <dc:title>Matplotlib v3.7.3, https://matplotlib.org/</dc:title>
     </cc:Agent>
    </dc:creator>
   </cc:Work>
  </rdf:RDF>
 </metadata>
 <defs>
  <style type="text/css">*{stroke-linejoin: round; stroke-linecap: butt}</style>
 </defs>
 <g id="figure_1">
  <g id="patch_1">
   <path d="M 0 345.6 
L 460.8 345.6 
L 460.8 0 
L 0 0 
z
" style="fill: #ffffff"/>
  </g>
  <g id="axes_1">
   <g id="patch_2">
    <path d="M 57.44 320.72 
L 450 320.72 
L 450 25.44 
L 57.44 25.44 
z
" style="fill: #ffffff"/>
   </g>
   <g id="patch_3">
    <path d="M 75.283636 320.72 
L 78.598244 320.72 
L 78.598244 39.500952 
L 75.283636 39.500952 
z
" clip-path="url(#pcca81bc17d)" style="fill: #1f77b4"/>
   </g>
   <g id="patch_4">
    <path d="M 78.966533 320.72 
L 82.281141 320.72 
L 82.281141 40.232024 
L 78.966533 40.232024 
z
" clip-path="url(#pcca81bc17d)" style="fill: #1f77b4"/>
   </g>
   <g id="patch_5">
    <path d="M 82.649431 320.72 
L 85.964038 320.72 
L 85.964038 40.719406 
L 82.649431 40.719406 
z
" clip-path="url(#pcca81bc17d)" style="fill: #1f77b4"/>
   </g>
   <g id="patch_6">
    <path d="M 86.332328 320.72 
L 89.646935 320.72 
L 89.646935 40.719406 
L 86.332328 40.719406 
z
" clip-path="url(#pcca81bc17d)" style="fill: #1f77b4"/>
   </g>
   <g id="patch_7">
    <path d="M 90.015225 320.72 
L 93.329832 320.72 
L 93.329832 42.425241 
L 90.015225 42.425241 
z
" clip-path="url(#pcca81bc17d)" style="fill: #1f77b4"/>
   </g>
   <g id="patch_8">
    <path d="M 93.698122 320.72 
L 97.012729 320.72 
L 97.012729 44.862147 
L 93.698122 44.862147 
z
" clip-path="url(#pcca81bc17d)" style="fill: #1f77b4"/>
   </g>
   <g id="patch_9">
    <path d="M 97.381019 320.72 
L 100.695626 320.72 
L 100.695626 45.349529 
L 97.381019 45.349529 
z
" clip-path="url(#pcca81bc17d)" style="fill: #1f77b4"/>
   </g>
   <g id="patch_10">
    <path d="M 101.063916 320.72 
L 104.378523 320.72 
L 104.378523 47.299054 
L 101.063916 47.299054 
z
" clip-path="url(#pcca81bc17d)" style="fill: #1f77b4"/>
   </g>
   <g id="patch_11">
    <path d="M 104.746813 320.72 
L 108.06142 320.72 
L 108.06142 47.542745 
L 104.746813 47.542745 
z
" clip-path="url(#pcca81bc17d)" style="fill: #1f77b4"/>
   </g>
   <g id="patch_12">
    <path d="M 108.42971 320.72 
L 111.744317 320.72 
L 111.744317 48.030126 
L 108.42971 48.030126 
z
" clip-path="url(#pcca81bc17d)" style="fill: #1f77b4"/>
   </g>
   <g id="patch_13">
    <path d="M 112.112607 320.72 
L 115.427215 320.72 
L 115.427215 48.761198 
L 112.112607 48.761198 
z
" clip-path="url(#pcca81bc17d)" style="fill: #1f77b4"/>
   </g>
   <g id="patch_14">
    <path d="M 115.795504 320.72 
L 119.110112 320.72 
L 119.110112 49.004889 
L 115.795504 49.004889 
z
" clip-path="url(#pcca81bc17d)" style="fill: #1f77b4"/>
   </g>
   <g id="patch_15">
    <path d="M 119.478401 320.72 
L 122.793009 320.72 
L 122.793009 49.004889 
L 119.478401 49.004889 
z
" clip-path="url(#pcca81bc17d)" style="fill: #1f77b4"/>
   </g>
   <g id="patch_16">
    <path d="M 123.161298 320.72 
L 126.475906 320.72 
L 126.475906 49.004889 
L 123.161298 49.004889 
z
" clip-path="url(#pcca81bc17d)" style="fill: #1f77b4"/>
   </g>
   <g id="patch_17">
    <path d="M 126.844196 320.72 
L 130.158803 320.72 
L 130.158803 49.24858 
L 126.844196 49.24858 
z
" clip-path="url(#pcca81bc17d)" style="fill: #1f77b4"/>
   </g>
   <g id="patch_18">
    <path d="M 130.527093 320.72 
L 133.8417 320.72 
L 133.8417 49.735961 
L 130.527093 49.735961 
z
" clip-path="url(#pcca81bc17d)" style="fill: #1f77b4"/>
   </g>
   <g id="patch_19">
    <path d="M 134.20999 320.72 
L 137.524597 320.72 
L 137.524597 49.735961 
L 134.20999 49.735961 
z
" clip-path="url(#pcca81bc17d)" style="fill: #1f77b4"/>
   </g>
   <g id="patch_20">
    <path d="M 137.892887 320.72 
L 141.207494 320.72 
L 141.207494 49.979652 
L 137.892887 49.979652 
z
" clip-path="url(#pcca81bc17d)" style="fill: #1f77b4"/>
   </g>
   <g id="patch_21">
    <path d="M 141.575784 320.72 
L 144.890391 320.72 
L 144.890391 50.710724 
L 141.575784 50.710724 
z
" clip-path="url(#pcca81bc17d)" style="fill: #1f77b4"/>
   </g>
   <g id="patch_22">
    <path d="M 145.258681 320.72 
L 148.573288 320.72 
L 148.573288 50.710724 
L 145.258681 50.710724 
z
" clip-path="url(#pcca81bc17d)" style="fill: #1f77b4"/>
   </g>
   <g id="patch_23">
    <path d="M 148.941578 320.72 
L 152.256185 320.72 
L 152.256185 50.710724 
L 148.941578 50.710724 
z
" clip-path="url(#pcca81bc17d)" style="fill: #1f77b4"/>
   </g>
   <g id="patch_24">
    <path d="M 152.624475 320.72 
L 155.939082 320.72 
L 155.939082 50.954414 
L 152.624475 50.954414 
z
" clip-path="url(#pcca81bc17d)" style="fill: #1f77b4"/>
   </g>
   <g id="patch_25">
    <path d="M 156.307372 320.72 
L 159.62198 320.72 
L 159.62198 50.954414 
L 156.307372 50.954414 
z
" clip-path="url(#pcca81bc17d)" style="fill: #1f77b4"/>
   </g>
   <g id="patch_26">
    <path d="M 159.990269 320.72 
L 163.304877 320.72 
L 163.304877 51.198105 
L 159.990269 51.198105 
z
" clip-path="url(#pcca81bc17d)" style="fill: #1f77b4"/>
   </g>
   <g id="patch_27">
    <path d="M 163.673166 320.72 
L 166.987774 320.72 
L 166.987774 51.441796 
L 163.673166 51.441796 
z
" clip-path="url(#pcca81bc17d)" style="fill: #1f77b4"/>
   </g>
   <g id="patch_28">
    <path d="M 167.356063 320.72 
L 170.670671 320.72 
L 170.670671 51.441796 
L 167.356063 51.441796 
z
" clip-path="url(#pcca81bc17d)" style="fill: #1f77b4"/>
   </g>
   <g id="patch_29">
    <path d="M 171.038961 320.72 
L 174.353568 320.72 
L 174.353568 52.172868 
L 171.038961 52.172868 
z
" clip-path="url(#pcca81bc17d)" style="fill: #1f77b4"/>
   </g>
   <g id="patch_30">
    <path d="M 174.721858 320.72 
L 178.036465 320.72 
L 178.036465 52.660249 
L 174.721858 52.660249 
z
" clip-path="url(#pcca81bc17d)" style="fill: #1f77b4"/>
   </g>
   <g id="patch_31">
    <path d="M 178.404755 320.72 
L 181.719362 320.72 
L 181.719362 53.635012 
L 178.404755 53.635012 
z
" clip-path="url(#pcca81bc17d)" style="fill: #1f77b4"/>
   </g>
   <g id="patch_32">
    <path d="M 182.087652 320.72 
L 185.402259 320.72 
L 185.402259 54.366084 
L 182.087652 54.366084 
z
" clip-path="url(#pcca81bc17d)" style="fill: #1f77b4"/>
   </g>
   <g id="patch_33">
    <path d="M 185.770549 320.72 
L 189.085156 320.72 
L 189.085156 55.584537 
L 185.770549 55.584537 
z
" clip-path="url(#pcca81bc17d)" style="fill: #1f77b4"/>
   </g>
   <g id="patch_34">
    <path d="M 189.453446 320.72 
L 192.768053 320.72 
L 192.768053 56.071919 
L 189.453446 56.071919 
z
" clip-path="url(#pcca81bc17d)" style="fill: #1f77b4"/>
   </g>
   <g id="patch_35">
    <path d="M 193.136343 320.72 
L 196.45095 320.72 
L 196.45095 56.5593 
L 193.136343 56.5593 
z
" clip-path="url(#pcca81bc17d)" style="fill: #1f77b4"/>
   </g>
   <g id="patch_36">
    <path d="M 196.81924 320.72 
L 200.133847 320.72 
L 200.133847 56.5593 
L 196.81924 56.5593 
z
" clip-path="url(#pcca81bc17d)" style="fill: #1f77b4"/>
   </g>
   <g id="patch_37">
    <path d="M 200.502137 320.72 
L 203.816745 320.72 
L 203.816745 57.290372 
L 200.502137 57.290372 
z
" clip-path="url(#pcca81bc17d)" style="fill: #1f77b4"/>
   </g>
   <g id="patch_38">
    <path d="M 204.185034 320.72 
L 207.499642 320.72 
L 207.499642 57.534063 
L 204.185034 57.534063 
z
" clip-path="url(#pcca81bc17d)" style="fill: #1f77b4"/>
   </g>
   <g id="patch_39">
    <path d="M 207.867931 320.72 
L 211.182539 320.72 
L 211.182539 57.534063 
L 207.867931 57.534063 
z
" clip-path="url(#pcca81bc17d)" style="fill: #1f77b4"/>
   </g>
   <g id="patch_40">
    <path d="M 211.550828 320.72 
L 214.865436 320.72 
L 214.865436 57.777754 
L 211.550828 57.777754 
z
" clip-path="url(#pcca81bc17d)" style="fill: #1f77b4"/>
   </g>
   <g id="patch_41">
    <path d="M 215.233725 320.72 
L 218.548333 320.72 
L 218.548333 58.265135 
L 215.233725 58.265135 
z
" clip-path="url(#pcca81bc17d)" style="fill: #1f77b4"/>
   </g>
   <g id="patch_42">
    <path d="M 218.916623 320.72 
L 222.23123 320.72 
L 222.23123 58.508826 
L 218.916623 58.508826 
z
" clip-path="url(#pcca81bc17d)" style="fill: #1f77b4"/>
   </g>
   <g id="patch_43">
    <path d="M 222.59952 320.72 
L 225.914127 320.72 
L 225.914127 58.508826 
L 222.59952 58.508826 
z
" clip-path="url(#pcca81bc17d)" style="fill: #1f77b4"/>
   </g>
   <g id="patch_44">
    <path d="M 226.282417 320.72 
L 229.597024 320.72 
L 229.597024 58.508826 
L 226.282417 58.508826 
z
" clip-path="url(#pcca81bc17d)" style="fill: #1f77b4"/>
   </g>
   <g id="patch_45">
    <path d="M 229.965314 320.72 
L 233.279921 320.72 
L 233.279921 58.752516 
L 229.965314 58.752516 
z
" clip-path="url(#pcca81bc17d)" style="fill: #1f77b4"/>
   </g>
   <g id="patch_46">
    <path d="M 233.648211 320.72 
L 236.962818 320.72 
L 236.962818 58.996207 
L 233.648211 58.996207 
z
" clip-path="url(#pcca81bc17d)" style="fill: #1f77b4"/>
   </g>
   <g id="patch_47">
    <path d="M 237.331108 320.72 
L 240.645715 320.72 
L 240.645715 59.483588 
L 237.331108 59.483588 
z
" clip-path="url(#pcca81bc17d)" style="fill: #1f77b4"/>
   </g>
   <g id="patch_48">
    <path d="M 241.014005 320.72 
L 244.328612 320.72 
L 244.328612 59.727279 
L 241.014005 59.727279 
z
" clip-path="url(#pcca81bc17d)" style="fill: #1f77b4"/>
   </g>
   <g id="patch_49">
    <path d="M 244.696902 320.72 
L 248.01151 320.72 
L 248.01151 60.21466 
L 244.696902 60.21466 
z
" clip-path="url(#pcca81bc17d)" style="fill: #1f77b4"/>
   </g>
   <g id="patch_50">
    <path d="M 248.379799 320.72 
L 251.694407 320.72 
L 251.694407 60.702042 
L 248.379799 60.702042 
z
" clip-path="url(#pcca81bc17d)" style="fill: #1f77b4"/>
   </g>
   <g id="patch_51">
    <path d="M 252.062696 320.72 
L 255.377304 320.72 
L 255.377304 60.945732 
L 252.062696 60.945732 
z
" clip-path="url(#pcca81bc17d)" style="fill: #1f77b4"/>
   </g>
   <g id="patch_52">
    <path d="M 255.745593 320.72 
L 259.060201 320.72 
L 259.060201 61.189423 
L 255.745593 61.189423 
z
" clip-path="url(#pcca81bc17d)" style="fill: #1f77b4"/>
   </g>
   <g id="patch_53">
    <path d="M 259.42849 320.72 
L 262.743098 320.72 
L 262.743098 61.433114 
L 259.42849 61.433114 
z
" clip-path="url(#pcca81bc17d)" style="fill: #1f77b4"/>
   </g>
   <g id="patch_54">
    <path d="M 263.111388 320.72 
L 266.425995 320.72 
L 266.425995 61.676804 
L 263.111388 61.676804 
z
" clip-path="url(#pcca81bc17d)" style="fill: #1f77b4"/>
   </g>
   <g id="patch_55">
    <path d="M 266.794285 320.72 
L 270.108892 320.72 
L 270.108892 62.164186 
L 266.794285 62.164186 
z
" clip-path="url(#pcca81bc17d)" style="fill: #1f77b4"/>
   </g>
   <g id="patch_56">
    <path d="M 270.477182 320.72 
L 273.791789 320.72 
L 273.791789 62.164186 
L 270.477182 62.164186 
z
" clip-path="url(#pcca81bc17d)" style="fill: #1f77b4"/>
   </g>
   <g id="patch_57">
    <path d="M 274.160079 320.72 
L 277.474686 320.72 
L 277.474686 62.407877 
L 274.160079 62.407877 
z
" clip-path="url(#pcca81bc17d)" style="fill: #1f77b4"/>
   </g>
   <g id="patch_58">
    <path d="M 277.842976 320.72 
L 281.157583 320.72 
L 281.157583 62.407877 
L 277.842976 62.407877 
z
" clip-path="url(#pcca81bc17d)" style="fill: #1f77b4"/>
   </g>
   <g id="patch_59">
    <path d="M 281.525873 320.72 
L 284.84048 320.72 
L 284.84048 62.895258 
L 281.525873 62.895258 
z
" clip-path="url(#pcca81bc17d)" style="fill: #1f77b4"/>
   </g>
   <g id="patch_60">
    <path d="M 285.20877 320.72 
L 288.523377 320.72 
L 288.523377 63.62633 
L 285.20877 63.62633 
z
" clip-path="url(#pcca81bc17d)" style="fill: #1f77b4"/>
   </g>
   <g id="patch_61">
    <path d="M 288.891667 320.72 
L 292.206275 320.72 
L 292.206275 64.844783 
L 288.891667 64.844783 
z
" clip-path="url(#pcca81bc17d)" style="fill: #1f77b4"/>
   </g>
   <g id="patch_62">
    <path d="M 292.574564 320.72 
L 295.889172 320.72 
L 295.889172 65.575855 
L 292.574564 65.575855 
z
" clip-path="url(#pcca81bc17d)" style="fill: #1f77b4"/>
   </g>
   <g id="patch_63">
    <path d="M 296.257461 320.72 
L 299.572069 320.72 
L 299.572069 65.819546 
L 296.257461 65.819546 
z
" clip-path="url(#pcca81bc17d)" style="fill: #1f77b4"/>
   </g>
   <g id="patch_64">
    <path d="M 299.940358 320.72 
L 303.254966 320.72 
L 303.254966 65.819546 
L 299.940358 65.819546 
z
" clip-path="url(#pcca81bc17d)" style="fill: #1f77b4"/>
   </g>
   <g id="patch_65">
    <path d="M 303.623255 320.72 
L 306.937863 320.72 
L 306.937863 65.819546 
L 303.623255 65.819546 
z
" clip-path="url(#pcca81bc17d)" style="fill: #1f77b4"/>
   </g>
   <g id="patch_66">
    <path d="M 307.306153 320.72 
L 310.62076 320.72 
L 310.62076 66.063237 
L 307.306153 66.063237 
z
" clip-path="url(#pcca81bc17d)" style="fill: #1f77b4"/>
   </g>
   <g id="patch_67">
    <path d="M 310.98905 320.72 
L 314.303657 320.72 
L 314.303657 66.306927 
L 310.98905 66.306927 
z
" clip-path="url(#pcca81bc17d)" style="fill: #1f77b4"/>
   </g>
   <g id="patch_68">
    <path d="M 314.671947 320.72 
L 317.986554 320.72 
L 317.986554 66.550618 
L 314.671947 66.550618 
z
" clip-path="url(#pcca81bc17d)" style="fill: #1f77b4"/>
   </g>
   <g id="patch_69">
    <path d="M 318.354844 320.72 
L 321.669451 320.72 
L 321.669451 66.794309 
L 318.354844 66.794309 
z
" clip-path="url(#pcca81bc17d)" style="fill: #1f77b4"/>
   </g>
   <g id="patch_70">
    <path d="M 322.037741 320.72 
L 325.352348 320.72 
L 325.352348 66.794309 
L 322.037741 66.794309 
z
" clip-path="url(#pcca81bc17d)" style="fill: #1f77b4"/>
   </g>
   <g id="patch_71">
    <path d="M 325.720638 320.72 
L 329.035245 320.72 
L 329.035245 67.28169 
L 325.720638 67.28169 
z
" clip-path="url(#pcca81bc17d)" style="fill: #1f77b4"/>
   </g>
   <g id="patch_72">
    <path d="M 329.403535 320.72 
L 332.718142 320.72 
L 332.718142 67.525381 
L 329.403535 67.525381 
z
" clip-path="url(#pcca81bc17d)" style="fill: #1f77b4"/>
   </g>
   <g id="patch_73">
    <path d="M 333.086432 320.72 
L 336.401039 320.72 
L 336.401039 67.525381 
L 333.086432 67.525381 
z
" clip-path="url(#pcca81bc17d)" style="fill: #1f77b4"/>
   </g>
   <g id="patch_74">
    <path d="M 336.769329 320.72 
L 340.083937 320.72 
L 340.083937 68.256453 
L 336.769329 68.256453 
z
" clip-path="url(#pcca81bc17d)" style="fill: #1f77b4"/>
   </g>
   <g id="patch_75">
    <path d="M 340.452226 320.72 
L 343.766834 320.72 
L 343.766834 68.500144 
L 340.452226 68.500144 
z
" clip-path="url(#pcca81bc17d)" style="fill: #1f77b4"/>
   </g>
   <g id="patch_76">
    <path d="M 344.135123 320.72 
L 347.449731 320.72 
L 347.449731 68.987525 
L 344.135123 68.987525 
z
" clip-path="url(#pcca81bc17d)" style="fill: #1f77b4"/>
   </g>
   <g id="patch_77">
    <path d="M 347.81802 320.72 
L 351.132628 320.72 
L 351.132628 69.474906 
L 347.81802 69.474906 
z
" clip-path="url(#pcca81bc17d)" style="fill: #1f77b4"/>
   </g>
   <g id="patch_78">
    <path d="M 351.500918 320.72 
L 354.815525 320.72 
L 354.815525 69.962288 
L 351.500918 69.962288 
z
" clip-path="url(#pcca81bc17d)" style="fill: #1f77b4"/>
   </g>
   <g id="patch_79">
    <path d="M 355.183815 320.72 
L 358.498422 320.72 
L 358.498422 71.180741 
L 355.183815 71.180741 
z
" clip-path="url(#pcca81bc17d)" style="fill: #1f77b4"/>
   </g>
   <g id="patch_80">
    <path d="M 358.866712 320.72 
L 362.181319 320.72 
L 362.181319 72.155504 
L 358.866712 72.155504 
z
" clip-path="url(#pcca81bc17d)" style="fill: #1f77b4"/>
   </g>
   <g id="patch_81">
    <path d="M 362.549609 320.72 
L 365.864216 320.72 
L 365.864216 72.155504 
L 362.549609 72.155504 
z
" clip-path="url(#pcca81bc17d)" style="fill: #1f77b4"/>
   </g>
   <g id="patch_82">
    <path d="M 366.232506 320.72 
L 369.547113 320.72 
L 369.547113 72.399195 
L 366.232506 72.399195 
z
" clip-path="url(#pcca81bc17d)" style="fill: #1f77b4"/>
   </g>
   <g id="patch_83">
    <path d="M 369.915403 320.72 
L 373.23001 320.72 
L 373.23001 72.399195 
L 369.915403 72.399195 
z
" clip-path="url(#pcca81bc17d)" style="fill: #1f77b4"/>
   </g>
   <g id="patch_84">
    <path d="M 373.5983 320.72 
L 376.912907 320.72 
L 376.912907 72.642885 
L 373.5983 72.642885 
z
" clip-path="url(#pcca81bc17d)" style="fill: #1f77b4"/>
   </g>
   <g id="patch_85">
    <path d="M 377.281197 320.72 
L 380.595804 320.72 
L 380.595804 73.373957 
L 377.281197 73.373957 
z
" clip-path="url(#pcca81bc17d)" style="fill: #1f77b4"/>
   </g>
   <g id="patch_86">
    <path d="M 380.964094 320.72 
L 384.278702 320.72 
L 384.278702 73.373957 
L 380.964094 73.373957 
z
" clip-path="url(#pcca81bc17d)" style="fill: #1f77b4"/>
   </g>
   <g id="patch_87">
    <path d="M 384.646991 320.72 
L 387.961599 320.72 
L 387.961599 73.617648 
L 384.646991 73.617648 
z
" clip-path="url(#pcca81bc17d)" style="fill: #1f77b4"/>
   </g>
   <g id="patch_88">
    <path d="M 388.329888 320.72 
L 391.644496 320.72 
L 391.644496 73.861339 
L 388.329888 73.861339 
z
" clip-path="url(#pcca81bc17d)" style="fill: #1f77b4"/>
   </g>
   <g id="patch_89">
    <path d="M 392.012785 320.72 
L 395.327393 320.72 
L 395.327393 74.34872 
L 392.012785 74.34872 
z
" clip-path="url(#pcca81bc17d)" style="fill: #1f77b4"/>
   </g>
   <g id="patch_90">
    <path d="M 395.695683 320.72 
L 399.01029 320.72 
L 399.01029 75.323483 
L 395.695683 75.323483 
z
" clip-path="url(#pcca81bc17d)" style="fill: #1f77b4"/>
   </g>
   <g id="patch_91">
    <path d="M 399.37858 320.72 
L 402.693187 320.72 
L 402.693187 75.323483 
L 399.37858 75.323483 
z
" clip-path="url(#pcca81bc17d)" style="fill: #1f77b4"/>
   </g>
   <g id="patch_92">
    <path d="M 403.061477 320.72 
L 406.376084 320.72 
L 406.376084 75.567173 
L 403.061477 75.567173 
z
" clip-path="url(#pcca81bc17d)" style="fill: #1f77b4"/>
   </g>
   <g id="patch_93">
    <path d="M 406.744374 320.72 
L 410.058981 320.72 
L 410.058981 75.810864 
L 406.744374 75.810864 
z
" clip-path="url(#pcca81bc17d)" style="fill: #1f77b4"/>
   </g>
   <g id="patch_94">
    <path d="M 410.427271 320.72 
L 413.741878 320.72 
L 413.741878 76.298245 
L 410.427271 76.298245 
z
" clip-path="url(#pcca81bc17d)" style="fill: #1f77b4"/>
   </g>
   <g id="patch_95">
    <path d="M 414.110168 320.72 
L 417.424775 320.72 
L 417.424775 76.785627 
L 414.110168 76.785627 
z
" clip-path="url(#pcca81bc17d)" style="fill: #1f77b4"/>
   </g>
   <g id="patch_96">
    <path d="M 417.793065 320.72 
L 421.107672 320.72 
L 421.107672 79.222534 
L 417.793065 79.222534 
z
" clip-path="url(#pcca81bc17d)" style="fill: #1f77b4"/>
   </g>
   <g id="patch_97">
    <path d="M 421.475962 320.72 
L 424.790569 320.72 
L 424.790569 79.709915 
L 421.475962 79.709915 
z
" clip-path="url(#pcca81bc17d)" style="fill: #1f77b4"/>
   </g>
   <g id="patch_98">
    <path d="M 425.158859 320.72 
L 428.473467 320.72 
L 428.473467 83.608966 
L 425.158859 83.608966 
z
" clip-path="url(#pcca81bc17d)" style="fill: #1f77b4"/>
   </g>
   <g id="patch_99">
    <path d="M 428.841756 320.72 
L 432.156364 320.72 
L 432.156364 85.802182 
L 428.841756 85.802182 
z
" clip-path="url(#pcca81bc17d)" style="fill: #1f77b4"/>
   </g>
   <g id="matplotlib.axis_1">
    <g id="text_1">
     <!-- sample -->
     <g transform="translate(235.541094 332.318437) scale(0.1 -0.1)">
      <defs>
       <path id="DejaVuSans-73" d="M 2834 3397 
L 2834 2853 
Q 2591 2978 2328 3040 
Q 2066 3103 1784 3103 
Q 1356 3103 1142 2972 
Q 928 2841 928 2578 
Q 928 2378 1081 2264 
Q 1234 2150 1697 2047 
L 1894 2003 
Q 2506 1872 2764 1633 
Q 3022 1394 3022 966 
Q 3022 478 2636 193 
Q 2250 -91 1575 -91 
Q 1294 -91 989 -36 
Q 684 19 347 128 
L 347 722 
Q 666 556 975 473 
Q 1284 391 1588 391 
Q 1994 391 2212 530 
Q 2431 669 2431 922 
Q 2431 1156 2273 1281 
Q 2116 1406 1581 1522 
L 1381 1569 
Q 847 1681 609 1914 
Q 372 2147 372 2553 
Q 372 3047 722 3315 
Q 1072 3584 1716 3584 
Q 2034 3584 2315 3537 
Q 2597 3491 2834 3397 
z
" transform="scale(0.015625)"/>
       <path id="DejaVuSans-61" d="M 2194 1759 
Q 1497 1759 1228 1600 
Q 959 1441 959 1056 
Q 959 750 1161 570 
Q 1363 391 1709 391 
Q 2188 391 2477 730 
Q 2766 1069 2766 1631 
L 2766 1759 
L 2194 1759 
z
M 3341 1997 
L 3341 0 
L 2766 0 
L 2766 531 
Q 2569 213 2275 61 
Q 1981 -91 1556 -91 
Q 1019 -91 701 211 
Q 384 513 384 1019 
Q 384 1609 779 1909 
Q 1175 2209 1959 2209 
L 2766 2209 
L 2766 2266 
Q 2766 2663 2505 2880 
Q 2244 3097 1772 3097 
Q 1472 3097 1187 3025 
Q 903 2953 641 2809 
L 641 3341 
Q 956 3463 1253 3523 
Q 1550 3584 1831 3584 
Q 2591 3584 2966 3190 
Q 3341 2797 3341 1997 
z
" transform="scale(0.015625)"/>
       <path id="DejaVuSans-6d" d="M 3328 2828 
Q 3544 3216 3844 3400 
Q 4144 3584 4550 3584 
Q 5097 3584 5394 3201 
Q 5691 2819 5691 2113 
L 5691 0 
L 5113 0 
L 5113 2094 
Q 5113 2597 4934 2840 
Q 4756 3084 4391 3084 
Q 3944 3084 3684 2787 
Q 3425 2491 3425 1978 
L 3425 0 
L 2847 0 
L 2847 2094 
Q 2847 2600 2669 2842 
Q 2491 3084 2119 3084 
Q 1678 3084 1418 2786 
Q 1159 2488 1159 1978 
L 1159 0 
L 581 0 
L 581 3500 
L 1159 3500 
L 1159 2956 
Q 1356 3278 1631 3431 
Q 1906 3584 2284 3584 
Q 2666 3584 2933 3390 
Q 3200 3197 3328 2828 
z
" transform="scale(0.015625)"/>
       <path id="DejaVuSans-70" d="M 1159 525 
L 1159 -1331 
L 581 -1331 
L 581 3500 
L 1159 3500 
L 1159 2969 
Q 1341 3281 1617 3432 
Q 1894 3584 2278 3584 
Q 2916 3584 3314 3078 
Q 3713 2572 3713 1747 
Q 3713 922 3314 415 
Q 2916 -91 2278 -91 
Q 1894 -91 1617 61 
Q 1341 213 1159 525 
z
M 3116 1747 
Q 3116 2381 2855 2742 
Q 2594 3103 2138 3103 
Q 1681 3103 1420 2742 
Q 1159 2381 1159 1747 
Q 1159 1113 1420 752 
Q 1681 391 2138 391 
Q 2594 391 2855 752 
Q 3116 1113 3116 1747 
z
" transform="scale(0.015625)"/>
       <path id="DejaVuSans-6c" d="M 603 4863 
L 1178 4863 
L 1178 0 
L 603 0 
L 603 4863 
z
" transform="scale(0.015625)"/>
       <path id="DejaVuSans-65" d="M 3597 1894 
L 3597 1613 
L 953 1613 
Q 991 1019 1311 708 
Q 1631 397 2203 397 
Q 2534 397 2845 478 
Q 3156 559 3463 722 
L 3463 178 
Q 3153 47 2828 -22 
Q 2503 -91 2169 -91 
Q 1331 -91 842 396 
Q 353 884 353 1716 
Q 353 2575 817 3079 
Q 1281 3584 2069 3584 
Q 2775 3584 3186 3129 
Q 3597 2675 3597 1894 
z
M 3022 2063 
Q 3016 2534 2758 2815 
Q 2500 3097 2075 3097 
Q 1594 3097 1305 2825 
Q 1016 2553 972 2059 
L 3022 2063 
z
" transform="scale(0.015625)"/>
      </defs>
      <use xlink:href="#DejaVuSans-73"/>
      <use xlink:href="#DejaVuSans-61" x="52.099609"/>
      <use xlink:href="#DejaVuSans-6d" x="113.378906"/>
      <use xlink:href="#DejaVuSans-70" x="210.791016"/>
      <use xlink:href="#DejaVuSans-6c" x="274.267578"/>
      <use xlink:href="#DejaVuSans-65" x="302.050781"/>
     </g>
    </g>
   </g>
   <g id="matplotlib.axis_2">
    <g id="ytick_1">
     <g id="line2d_1">
      <defs>
       <path id="m0ad3e50b7a" d="M 0 0 
L -3.5 0 
" style="stroke: #000000; stroke-width: 0.8"/>
      </defs>
      <g>
       <use xlink:href="#m0ad3e50b7a" x="57.44" y="320.72" style="stroke: #000000; stroke-width: 0.8"/>
      </g>
     </g>
     <g id="text_2">
      <!-- 0 -->
      <g transform="translate(44.0775 324.519219) scale(0.1 -0.1)">
       <defs>
        <path id="DejaVuSans-30" d="M 2034 4250 
Q 1547 4250 1301 3770 
Q 1056 3291 1056 2328 
Q 1056 1369 1301 889 
Q 1547 409 2034 409 
Q 2525 409 2770 889 
Q 3016 1369 3016 2328 
Q 3016 3291 2770 3770 
Q 2525 4250 2034 4250 
z
M 2034 4750 
Q 2819 4750 3233 4129 
Q 3647 3509 3647 2328 
Q 3647 1150 3233 529 
Q 2819 -91 2034 -91 
Q 1250 -91 836 529 
Q 422 1150 422 2328 
Q 422 3509 836 4129 
Q 1250 4750 2034 4750 
z
" transform="scale(0.015625)"/>
       </defs>
       <use xlink:href="#DejaVuSans-30"/>
      </g>
     </g>
    </g>
    <g id="ytick_2">
     <g id="line2d_2">
      <g>
       <use xlink:href="#m0ad3e50b7a" x="57.44" y="271.981863" style="stroke: #000000; stroke-width: 0.8"/>
      </g>
     </g>
     <g id="text_3">
      <!-- 200 -->
      <g transform="translate(31.3525 275.781082) scale(0.1 -0.1)">
       <defs>
        <path id="DejaVuSans-32" d="M 1228 531 
L 3431 531 
L 3431 0 
L 469 0 
L 469 531 
Q 828 903 1448 1529 
Q 2069 2156 2228 2338 
Q 2531 2678 2651 2914 
Q 2772 3150 2772 3378 
Q 2772 3750 2511 3984 
Q 2250 4219 1831 4219 
Q 1534 4219 1204 4116 
Q 875 4013 500 3803 
L 500 4441 
Q 881 4594 1212 4672 
Q 1544 4750 1819 4750 
Q 2544 4750 2975 4387 
Q 3406 4025 3406 3419 
Q 3406 3131 3298 2873 
Q 3191 2616 2906 2266 
Q 2828 2175 2409 1742 
Q 1991 1309 1228 531 
z
" transform="scale(0.015625)"/>
       </defs>
       <use xlink:href="#DejaVuSans-32"/>
       <use xlink:href="#DejaVuSans-30" x="63.623047"/>
       <use xlink:href="#DejaVuSans-30" x="127.246094"/>
      </g>
     </g>
    </g>
    <g id="ytick_3">
     <g id="line2d_3">
      <g>
       <use xlink:href="#m0ad3e50b7a" x="57.44" y="223.243727" style="stroke: #000000; stroke-width: 0.8"/>
      </g>
     </g>
     <g id="text_4">
      <!-- 400 -->
      <g transform="translate(31.3525 227.042946) scale(0.1 -0.1)">
       <defs>
        <path id="DejaVuSans-34" d="M 2419 4116 
L 825 1625 
L 2419 1625 
L 2419 4116 
z
M 2253 4666 
L 3047 4666 
L 3047 1625 
L 3713 1625 
L 3713 1100 
L 3047 1100 
L 3047 0 
L 2419 0 
L 2419 1100 
L 313 1100 
L 313 1709 
L 2253 4666 
z
" transform="scale(0.015625)"/>
       </defs>
       <use xlink:href="#DejaVuSans-34"/>
       <use xlink:href="#DejaVuSans-30" x="63.623047"/>
       <use xlink:href="#DejaVuSans-30" x="127.246094"/>
      </g>
     </g>
    </g>
    <g id="ytick_4">
     <g id="line2d_4">
      <g>
       <use xlink:href="#m0ad3e50b7a" x="57.44" y="174.50559" style="stroke: #000000; stroke-width: 0.8"/>
      </g>
     </g>
     <g id="text_5">
      <!-- 600 -->
      <g transform="translate(31.3525 178.304809) scale(0.1 -0.1)">
       <defs>
        <path id="DejaVuSans-36" d="M 2113 2584 
Q 1688 2584 1439 2293 
Q 1191 2003 1191 1497 
Q 1191 994 1439 701 
Q 1688 409 2113 409 
Q 2538 409 2786 701 
Q 3034 994 3034 1497 
Q 3034 2003 2786 2293 
Q 2538 2584 2113 2584 
z
M 3366 4563 
L 3366 3988 
Q 3128 4100 2886 4159 
Q 2644 4219 2406 4219 
Q 1781 4219 1451 3797 
Q 1122 3375 1075 2522 
Q 1259 2794 1537 2939 
Q 1816 3084 2150 3084 
Q 2853 3084 3261 2657 
Q 3669 2231 3669 1497 
Q 3669 778 3244 343 
Q 2819 -91 2113 -91 
Q 1303 -91 875 529 
Q 447 1150 447 2328 
Q 447 3434 972 4092 
Q 1497 4750 2381 4750 
Q 2619 4750 2861 4703 
Q 3103 4656 3366 4563 
z
" transform="scale(0.015625)"/>
       </defs>
       <use xlink:href="#DejaVuSans-36"/>
       <use xlink:href="#DejaVuSans-30" x="63.623047"/>
       <use xlink:href="#DejaVuSans-30" x="127.246094"/>
      </g>
     </g>
    </g>
    <g id="ytick_5">
     <g id="line2d_5">
      <g>
       <use xlink:href="#m0ad3e50b7a" x="57.44" y="125.767454" style="stroke: #000000; stroke-width: 0.8"/>
      </g>
     </g>
     <g id="text_6">
      <!-- 800 -->
      <g transform="translate(31.3525 129.566673) scale(0.1 -0.1)">
       <defs>
        <path id="DejaVuSans-38" d="M 2034 2216 
Q 1584 2216 1326 1975 
Q 1069 1734 1069 1313 
Q 1069 891 1326 650 
Q 1584 409 2034 409 
Q 2484 409 2743 651 
Q 3003 894 3003 1313 
Q 3003 1734 2745 1975 
Q 2488 2216 2034 2216 
z
M 1403 2484 
Q 997 2584 770 2862 
Q 544 3141 544 3541 
Q 544 4100 942 4425 
Q 1341 4750 2034 4750 
Q 2731 4750 3128 4425 
Q 3525 4100 3525 3541 
Q 3525 3141 3298 2862 
Q 3072 2584 2669 2484 
Q 3125 2378 3379 2068 
Q 3634 1759 3634 1313 
Q 3634 634 3220 271 
Q 2806 -91 2034 -91 
Q 1263 -91 848 271 
Q 434 634 434 1313 
Q 434 1759 690 2068 
Q 947 2378 1403 2484 
z
M 1172 3481 
Q 1172 3119 1398 2916 
Q 1625 2713 2034 2713 
Q 2441 2713 2670 2916 
Q 2900 3119 2900 3481 
Q 2900 3844 2670 4047 
Q 2441 4250 2034 4250 
Q 1625 4250 1398 4047 
Q 1172 3844 1172 3481 
z
" transform="scale(0.015625)"/>
       </defs>
       <use xlink:href="#DejaVuSans-38"/>
       <use xlink:href="#DejaVuSans-30" x="63.623047"/>
       <use xlink:href="#DejaVuSans-30" x="127.246094"/>
      </g>
     </g>
    </g>
    <g id="ytick_6">
     <g id="line2d_6">
      <g>
       <use xlink:href="#m0ad3e50b7a" x="57.44" y="77.029317" style="stroke: #000000; stroke-width: 0.8"/>
      </g>
     </g>
     <g id="text_7">
      <!-- 1000 -->
      <g transform="translate(24.99 80.828536) scale(0.1 -0.1)">
       <defs>
        <path id="DejaVuSans-31" d="M 794 531 
L 1825 531 
L 1825 4091 
L 703 3866 
L 703 4441 
L 1819 4666 
L 2450 4666 
L 2450 531 
L 3481 531 
L 3481 0 
L 794 0 
L 794 531 
z
" transform="scale(0.015625)"/>
       </defs>
       <use xlink:href="#DejaVuSans-31"/>
       <use xlink:href="#DejaVuSans-30" x="63.623047"/>
       <use xlink:href="#DejaVuSans-30" x="127.246094"/>
       <use xlink:href="#DejaVuSans-30" x="190.869141"/>
      </g>
     </g>
    </g>
    <g id="ytick_7">
     <g id="line2d_7">
      <g>
       <use xlink:href="#m0ad3e50b7a" x="57.44" y="28.291181" style="stroke: #000000; stroke-width: 0.8"/>
      </g>
     </g>
     <g id="text_8">
      <!-- 1200 -->
      <g transform="translate(24.99 32.0904) scale(0.1 -0.1)">
       <use xlink:href="#DejaVuSans-31"/>
       <use xlink:href="#DejaVuSans-32" x="63.623047"/>
       <use xlink:href="#DejaVuSans-30" x="127.246094"/>
       <use xlink:href="#DejaVuSans-30" x="190.869141"/>
      </g>
     </g>
    </g>
    <g id="text_9">
     <!-- Count -->
     <g transform="translate(18.910312 187.928437) rotate(-90) scale(0.1 -0.1)">
      <defs>
       <path id="DejaVuSans-43" d="M 4122 4306 
L 4122 3641 
Q 3803 3938 3442 4084 
Q 3081 4231 2675 4231 
Q 1875 4231 1450 3742 
Q 1025 3253 1025 2328 
Q 1025 1406 1450 917 
Q 1875 428 2675 428 
Q 3081 428 3442 575 
Q 3803 722 4122 1019 
L 4122 359 
Q 3791 134 3420 21 
Q 3050 -91 2638 -91 
Q 1578 -91 968 557 
Q 359 1206 359 2328 
Q 359 3453 968 4101 
Q 1578 4750 2638 4750 
Q 3056 4750 3426 4639 
Q 3797 4528 4122 4306 
z
" transform="scale(0.015625)"/>
       <path id="DejaVuSans-6f" d="M 1959 3097 
Q 1497 3097 1228 2736 
Q 959 2375 959 1747 
Q 959 1119 1226 758 
Q 1494 397 1959 397 
Q 2419 397 2687 759 
Q 2956 1122 2956 1747 
Q 2956 2369 2687 2733 
Q 2419 3097 1959 3097 
z
M 1959 3584 
Q 2709 3584 3137 3096 
Q 3566 2609 3566 1747 
Q 3566 888 3137 398 
Q 2709 -91 1959 -91 
Q 1206 -91 779 398 
Q 353 888 353 1747 
Q 353 2609 779 3096 
Q 1206 3584 1959 3584 
z
" transform="scale(0.015625)"/>
       <path id="DejaVuSans-75" d="M 544 1381 
L 544 3500 
L 1119 3500 
L 1119 1403 
Q 1119 906 1312 657 
Q 1506 409 1894 409 
Q 2359 409 2629 706 
Q 2900 1003 2900 1516 
L 2900 3500 
L 3475 3500 
L 3475 0 
L 2900 0 
L 2900 538 
Q 2691 219 2414 64 
Q 2138 -91 1772 -91 
Q 1169 -91 856 284 
Q 544 659 544 1381 
z
M 1991 3584 
L 1991 3584 
z
" transform="scale(0.015625)"/>
       <path id="DejaVuSans-6e" d="M 3513 2113 
L 3513 0 
L 2938 0 
L 2938 2094 
Q 2938 2591 2744 2837 
Q 2550 3084 2163 3084 
Q 1697 3084 1428 2787 
Q 1159 2491 1159 1978 
L 1159 0 
L 581 0 
L 581 3500 
L 1159 3500 
L 1159 2956 
Q 1366 3272 1645 3428 
Q 1925 3584 2291 3584 
Q 2894 3584 3203 3211 
Q 3513 2838 3513 2113 
z
" transform="scale(0.015625)"/>
       <path id="DejaVuSans-74" d="M 1172 4494 
L 1172 3500 
L 2356 3500 
L 2356 3053 
L 1172 3053 
L 1172 1153 
Q 1172 725 1289 603 
Q 1406 481 1766 481 
L 2356 481 
L 2356 0 
L 1766 0 
Q 1100 0 847 248 
Q 594 497 594 1153 
L 594 3053 
L 172 3053 
L 172 3500 
L 594 3500 
L 594 4494 
L 1172 4494 
z
" transform="scale(0.015625)"/>
      </defs>
      <use xlink:href="#DejaVuSans-43"/>
      <use xlink:href="#DejaVuSans-6f" x="69.824219"/>
      <use xlink:href="#DejaVuSans-75" x="131.005859"/>
      <use xlink:href="#DejaVuSans-6e" x="194.384766"/>
      <use xlink:href="#DejaVuSans-74" x="257.763672"/>
     </g>
    </g>
   </g>
   <g id="patch_100">
    <path d="M 57.44 320.72 
L 57.44 25.44 
" style="fill: none; stroke: #000000; stroke-width: 0.8; stroke-linejoin: miter; stroke-linecap: square"/>
   </g>
   <g id="patch_101">
    <path d="M 450 320.72 
L 450 25.44 
" style="fill: none; stroke: #000000; stroke-width: 0.8; stroke-linejoin: miter; stroke-linecap: square"/>
   </g>
   <g id="patch_102">
    <path d="M 57.44 320.72 
L 450 320.72 
" style="fill: none; stroke: #000000; stroke-width: 0.8; stroke-linejoin: miter; stroke-linecap: square"/>
   </g>
   <g id="patch_103">
    <path d="M 57.44 25.44 
L 450 25.44 
" style="fill: none; stroke: #000000; stroke-width: 0.8; stroke-linejoin: miter; stroke-linecap: square"/>
   </g>
   <g id="text_10">
    <!-- Peptide_Count -->
    <g transform="translate(210.480625 19.44) scale(0.12 -0.12)">
     <defs>
      <path id="DejaVuSans-50" d="M 1259 4147 
L 1259 2394 
L 2053 2394 
Q 2494 2394 2734 2622 
Q 2975 2850 2975 3272 
Q 2975 3691 2734 3919 
Q 2494 4147 2053 4147 
L 1259 4147 
z
M 628 4666 
L 2053 4666 
Q 2838 4666 3239 4311 
Q 3641 3956 3641 3272 
Q 3641 2581 3239 2228 
Q 2838 1875 2053 1875 
L 1259 1875 
L 1259 0 
L 628 0 
L 628 4666 
z
" transform="scale(0.015625)"/>
      <path id="DejaVuSans-69" d="M 603 3500 
L 1178 3500 
L 1178 0 
L 603 0 
L 603 3500 
z
M 603 4863 
L 1178 4863 
L 1178 4134 
L 603 4134 
L 603 4863 
z
" transform="scale(0.015625)"/>
      <path id="DejaVuSans-64" d="M 2906 2969 
L 2906 4863 
L 3481 4863 
L 3481 0 
L 2906 0 
L 2906 525 
Q 2725 213 2448 61 
Q 2172 -91 1784 -91 
Q 1150 -91 751 415 
Q 353 922 353 1747 
Q 353 2572 751 3078 
Q 1150 3584 1784 3584 
Q 2172 3584 2448 3432 
Q 2725 3281 2906 2969 
z
M 947 1747 
Q 947 1113 1208 752 
Q 1469 391 1925 391 
Q 2381 391 2643 752 
Q 2906 1113 2906 1747 
Q 2906 2381 2643 2742 
Q 2381 3103 1925 3103 
Q 1469 3103 1208 2742 
Q 947 2381 947 1747 
z
" transform="scale(0.015625)"/>
      <path id="DejaVuSans-5f" d="M 3263 -1063 
L 3263 -1509 
L -63 -1509 
L -63 -1063 
L 3263 -1063 
z
" transform="scale(0.015625)"/>
     </defs>
     <use xlink:href="#DejaVuSans-50"/>
     <use xlink:href="#DejaVuSans-65" x="56.677734"/>
     <use xlink:href="#DejaVuSans-70" x="118.201172"/>
     <use xlink:href="#DejaVuSans-74" x="181.677734"/>
     <use xlink:href="#DejaVuSans-69" x="220.886719"/>
     <use xlink:href="#DejaVuSans-64" x="248.669922"/>
     <use xlink:href="#DejaVuSans-65" x="312.146484"/>
     <use xlink:href="#DejaVuSans-5f" x="373.669922"/>
     <use xlink:href="#DejaVuSans-43" x="423.669922"/>
     <use xlink:href="#DejaVuSans-6f" x="493.494141"/>
     <use xlink:href="#DejaVuSans-75" x="554.675781"/>
     <use xlink:href="#DejaVuSans-6e" x="618.054688"/>
     <use xlink:href="#DejaVuSans-74" x="681.433594"/>
    </g>
   </g>
  </g>
 </g>
 <defs>
  <clipPath id="pcca81bc17d">
   <rect x="57.44" y="25.44" width="392.56" height="295.28"/>
  </clipPath>
 </defs>
</svg>
