<?xml version="1.0" encoding="utf-8" standalone="no"?>
<!DOCTYPE svg PUBLIC "-//W3C//DTD SVG 1.1//EN"
  "http://www.w3.org/Graphics/SVG/1.1/DTD/svg11.dtd">
<svg xmlns:xlink="http://www.w3.org/1999/xlink" width="648pt" height="504pt" viewBox="0 0 648 504" xmlns="http://www.w3.org/2000/svg" version="1.1">
 <metadata>
  <rdf:RDF xmlns:dc="http://purl.org/dc/elements/1.1/" xmlns:cc="http://creativecommons.org/ns#" xmlns:rdf="http://www.w3.org/1999/02/22-rdf-syntax-ns#">
   <cc:Work>
    <dc:type rdf:resource="http://purl.org/dc/dcmitype/StillImage"/>
    <dc:date>2024-05-01T18:58:13.789471</dc:date>
    <dc:format>image/svg+xml</dc:format>
    <dc:creator>
     <cc:Agent>
      <dc:title>Matplotlib v3.8.0, https://matplotlib.org/</dc:title>
     </cc:Agent>
    </dc:creator>
   </cc:Work>
  </rdf:RDF>
 </metadata>
 <defs>
  <style type="text/css">*{stroke-linejoin: round; stroke-linecap: butt}</style>
 </defs>
 <g id="figure_1">
  <g id="patch_1">
   <path d="M 0 504 
L 648 504 
L 648 0 
L 0 0 
z
" style="fill: #ffffff"/>
  </g>
  <g id="axes_1">
   <g id="patch_2">
    <path d="M 48.26 416.95 
L 637.2 416.95 
L 637.2 10.8 
L 48.26 10.8 
z
" style="fill: #ffffff"/>
   </g>
   <g id="patch_3">
    <path d="M 75.03 416.95 
L 86.069175 416.95 
L 86.069175 30.140476 
L 75.03 30.140476 
z
" clip-path="url(#pd20e9bd723)" style="fill: #1f77b4"/>
   </g>
   <g id="patch_4">
    <path d="M 88.828969 416.95 
L 99.868144 416.95 
L 99.868144 68.821429 
L 88.828969 68.821429 
z
" clip-path="url(#pd20e9bd723)" style="fill: #1f77b4"/>
   </g>
   <g id="patch_5">
    <path d="M 102.627938 416.95 
L 113.667113 416.95 
L 113.667113 99.76619 
L 102.627938 99.76619 
z
" clip-path="url(#pd20e9bd723)" style="fill: #1f77b4"/>
   </g>
   <g id="patch_6">
    <path d="M 116.426907 416.95 
L 127.466082 416.95 
L 127.466082 200.336667 
L 116.426907 200.336667 
z
" clip-path="url(#pd20e9bd723)" style="fill: #1f77b4"/>
   </g>
   <g id="patch_7">
    <path d="M 130.225876 416.95 
L 141.265052 416.95 
L 141.265052 215.809048 
L 130.225876 215.809048 
z
" clip-path="url(#pd20e9bd723)" style="fill: #1f77b4"/>
   </g>
   <g id="patch_8">
    <path d="M 144.024845 416.95 
L 155.064021 416.95 
L 155.064021 239.017619 
L 144.024845 239.017619 
z
" clip-path="url(#pd20e9bd723)" style="fill: #1f77b4"/>
   </g>
   <g id="patch_9">
    <path d="M 157.823814 416.95 
L 168.86299 416.95 
L 168.86299 239.017619 
L 157.823814 239.017619 
z
" clip-path="url(#pd20e9bd723)" style="fill: #1f77b4"/>
   </g>
   <g id="patch_10">
    <path d="M 171.622784 416.95 
L 182.661959 416.95 
L 182.661959 254.49 
L 171.622784 254.49 
z
" clip-path="url(#pd20e9bd723)" style="fill: #1f77b4"/>
   </g>
   <g id="patch_11">
    <path d="M 185.421753 416.95 
L 196.460928 416.95 
L 196.460928 262.22619 
L 185.421753 262.22619 
z
" clip-path="url(#pd20e9bd723)" style="fill: #1f77b4"/>
   </g>
   <g id="patch_12">
    <path d="M 199.220722 416.95 
L 210.259897 416.95 
L 210.259897 269.962381 
L 199.220722 269.962381 
z
" clip-path="url(#pd20e9bd723)" style="fill: #1f77b4"/>
   </g>
   <g id="patch_13">
    <path d="M 213.019691 416.95 
L 224.058866 416.95 
L 224.058866 269.962381 
L 213.019691 269.962381 
z
" clip-path="url(#pd20e9bd723)" style="fill: #1f77b4"/>
   </g>
   <g id="patch_14">
    <path d="M 226.81866 416.95 
L 237.857835 416.95 
L 237.857835 277.698571 
L 226.81866 277.698571 
z
" clip-path="url(#pd20e9bd723)" style="fill: #1f77b4"/>
   </g>
   <g id="patch_15">
    <path d="M 240.617629 416.95 
L 251.656804 416.95 
L 251.656804 277.698571 
L 240.617629 277.698571 
z
" clip-path="url(#pd20e9bd723)" style="fill: #1f77b4"/>
   </g>
   <g id="patch_16">
    <path d="M 254.416598 416.95 
L 265.455773 416.95 
L 265.455773 285.434762 
L 254.416598 285.434762 
z
" clip-path="url(#pd20e9bd723)" style="fill: #1f77b4"/>
   </g>
   <g id="patch_17">
    <path d="M 268.215567 416.95 
L 279.254742 416.95 
L 279.254742 293.170952 
L 268.215567 293.170952 
z
" clip-path="url(#pd20e9bd723)" style="fill: #1f77b4"/>
   </g>
   <g id="patch_18">
    <path d="M 282.014536 416.95 
L 293.053711 416.95 
L 293.053711 300.907143 
L 282.014536 300.907143 
z
" clip-path="url(#pd20e9bd723)" style="fill: #1f77b4"/>
   </g>
   <g id="patch_19">
    <path d="M 295.813505 416.95 
L 306.85268 416.95 
L 306.85268 300.907143 
L 295.813505 300.907143 
z
" clip-path="url(#pd20e9bd723)" style="fill: #1f77b4"/>
   </g>
   <g id="patch_20">
    <path d="M 309.612474 416.95 
L 320.651649 416.95 
L 320.651649 308.643333 
L 309.612474 308.643333 
z
" clip-path="url(#pd20e9bd723)" style="fill: #1f77b4"/>
   </g>
   <g id="patch_21">
    <path d="M 323.411443 416.95 
L 334.450619 416.95 
L 334.450619 308.643333 
L 323.411443 308.643333 
z
" clip-path="url(#pd20e9bd723)" style="fill: #1f77b4"/>
   </g>
   <g id="patch_22">
    <path d="M 337.210412 416.95 
L 348.249588 416.95 
L 348.249588 308.643333 
L 337.210412 308.643333 
z
" clip-path="url(#pd20e9bd723)" style="fill: #1f77b4"/>
   </g>
   <g id="patch_23">
    <path d="M 351.009381 416.95 
L 362.048557 416.95 
L 362.048557 316.379524 
L 351.009381 316.379524 
z
" clip-path="url(#pd20e9bd723)" style="fill: #1f77b4"/>
   </g>
   <g id="patch_24">
    <path d="M 364.808351 416.95 
L 375.847526 416.95 
L 375.847526 316.379524 
L 364.808351 316.379524 
z
" clip-path="url(#pd20e9bd723)" style="fill: #1f77b4"/>
   </g>
   <g id="patch_25">
    <path d="M 378.60732 416.95 
L 389.646495 416.95 
L 389.646495 324.115714 
L 378.60732 324.115714 
z
" clip-path="url(#pd20e9bd723)" style="fill: #1f77b4"/>
   </g>
   <g id="patch_26">
    <path d="M 392.406289 416.95 
L 403.445464 416.95 
L 403.445464 324.115714 
L 392.406289 324.115714 
z
" clip-path="url(#pd20e9bd723)" style="fill: #1f77b4"/>
   </g>
   <g id="patch_27">
    <path d="M 406.205258 416.95 
L 417.244433 416.95 
L 417.244433 324.115714 
L 406.205258 324.115714 
z
" clip-path="url(#pd20e9bd723)" style="fill: #1f77b4"/>
   </g>
   <g id="patch_28">
    <path d="M 420.004227 416.95 
L 431.043402 416.95 
L 431.043402 324.115714 
L 420.004227 324.115714 
z
" clip-path="url(#pd20e9bd723)" style="fill: #1f77b4"/>
   </g>
   <g id="patch_29">
    <path d="M 433.803196 416.95 
L 444.842371 416.95 
L 444.842371 324.115714 
L 433.803196 324.115714 
z
" clip-path="url(#pd20e9bd723)" style="fill: #1f77b4"/>
   </g>
   <g id="patch_30">
    <path d="M 447.602165 416.95 
L 458.64134 416.95 
L 458.64134 324.115714 
L 447.602165 324.115714 
z
" clip-path="url(#pd20e9bd723)" style="fill: #1f77b4"/>
   </g>
   <g id="patch_31">
    <path d="M 461.401134 416.95 
L 472.440309 416.95 
L 472.440309 324.115714 
L 461.401134 324.115714 
z
" clip-path="url(#pd20e9bd723)" style="fill: #1f77b4"/>
   </g>
   <g id="patch_32">
    <path d="M 475.200103 416.95 
L 486.239278 416.95 
L 486.239278 331.851905 
L 475.200103 331.851905 
z
" clip-path="url(#pd20e9bd723)" style="fill: #1f77b4"/>
   </g>
   <g id="patch_33">
    <path d="M 488.999072 416.95 
L 500.038247 416.95 
L 500.038247 331.851905 
L 488.999072 331.851905 
z
" clip-path="url(#pd20e9bd723)" style="fill: #1f77b4"/>
   </g>
   <g id="patch_34">
    <path d="M 502.798041 416.95 
L 513.837216 416.95 
L 513.837216 331.851905 
L 502.798041 331.851905 
z
" clip-path="url(#pd20e9bd723)" style="fill: #1f77b4"/>
   </g>
   <g id="patch_35">
    <path d="M 516.59701 416.95 
L 527.636186 416.95 
L 527.636186 331.851905 
L 516.59701 331.851905 
z
" clip-path="url(#pd20e9bd723)" style="fill: #1f77b4"/>
   </g>
   <g id="patch_36">
    <path d="M 530.395979 416.95 
L 541.435155 416.95 
L 541.435155 331.851905 
L 530.395979 331.851905 
z
" clip-path="url(#pd20e9bd723)" style="fill: #1f77b4"/>
   </g>
   <g id="patch_37">
    <path d="M 544.194948 416.95 
L 555.234124 416.95 
L 555.234124 331.851905 
L 544.194948 331.851905 
z
" clip-path="url(#pd20e9bd723)" style="fill: #1f77b4"/>
   </g>
   <g id="patch_38">
    <path d="M 557.993918 416.95 
L 569.033093 416.95 
L 569.033093 339.588095 
L 557.993918 339.588095 
z
" clip-path="url(#pd20e9bd723)" style="fill: #1f77b4"/>
   </g>
   <g id="patch_39">
    <path d="M 571.792887 416.95 
L 582.832062 416.95 
L 582.832062 339.588095 
L 571.792887 339.588095 
z
" clip-path="url(#pd20e9bd723)" style="fill: #1f77b4"/>
   </g>
   <g id="patch_40">
    <path d="M 585.591856 416.95 
L 596.631031 416.95 
L 596.631031 339.588095 
L 585.591856 339.588095 
z
" clip-path="url(#pd20e9bd723)" style="fill: #1f77b4"/>
   </g>
   <g id="patch_41">
    <path d="M 599.390825 416.95 
L 610.43 416.95 
L 610.43 339.588095 
L 599.390825 339.588095 
z
" clip-path="url(#pd20e9bd723)" style="fill: #1f77b4"/>
   </g>
   <g id="matplotlib.axis_1">
    <g id="xtick_1">
     <g id="line2d_1">
      <defs>
       <path id="ma1385aaa0b" d="M 0 0 
L 0 3.5 
" style="stroke: #000000; stroke-width: 0.8"/>
      </defs>
      <g>
       <use xlink:href="#ma1385aaa0b" x="80.549588" y="416.95" style="stroke: #000000; stroke-width: 0.8"/>
      </g>
     </g>
     <g id="text_1">
      <!-- FLG -->
      <g transform="translate(83.308963 443.021875) rotate(-90) scale(0.1 -0.1)">
       <defs>
        <path id="DejaVuSans-46" d="M 628 4666 
L 3309 4666 
L 3309 4134 
L 1259 4134 
L 1259 2759 
L 3109 2759 
L 3109 2228 
L 1259 2228 
L 1259 0 
L 628 0 
L 628 4666 
z
" transform="scale(0.015625)"/>
        <path id="DejaVuSans-4c" d="M 628 4666 
L 1259 4666 
L 1259 531 
L 3531 531 
L 3531 0 
L 628 0 
L 628 4666 
z
" transform="scale(0.015625)"/>
        <path id="DejaVuSans-47" d="M 3809 666 
L 3809 1919 
L 2778 1919 
L 2778 2438 
L 4434 2438 
L 4434 434 
Q 4069 175 3628 42 
Q 3188 -91 2688 -91 
Q 1594 -91 976 548 
Q 359 1188 359 2328 
Q 359 3472 976 4111 
Q 1594 4750 2688 4750 
Q 3144 4750 3555 4637 
Q 3966 4525 4313 4306 
L 4313 3634 
Q 3963 3931 3569 4081 
Q 3175 4231 2741 4231 
Q 1884 4231 1454 3753 
Q 1025 3275 1025 2328 
Q 1025 1384 1454 906 
Q 1884 428 2741 428 
Q 3075 428 3337 486 
Q 3600 544 3809 666 
z
" transform="scale(0.015625)"/>
       </defs>
       <use xlink:href="#DejaVuSans-46"/>
       <use xlink:href="#DejaVuSans-4c" x="57.519531"/>
       <use xlink:href="#DejaVuSans-47" x="113.232422"/>
      </g>
     </g>
    </g>
    <g id="xtick_2">
     <g id="line2d_2">
      <g>
       <use xlink:href="#ma1385aaa0b" x="94.348557" y="416.95" style="stroke: #000000; stroke-width: 0.8"/>
      </g>
     </g>
     <g id="text_2">
      <!-- AHNAK2 -->
      <g transform="translate(97.107932 465.553125) rotate(-90) scale(0.1 -0.1)">
       <defs>
        <path id="DejaVuSans-41" d="M 2188 4044 
L 1331 1722 
L 3047 1722 
L 2188 4044 
z
M 1831 4666 
L 2547 4666 
L 4325 0 
L 3669 0 
L 3244 1197 
L 1141 1197 
L 716 0 
L 50 0 
L 1831 4666 
z
" transform="scale(0.015625)"/>
        <path id="DejaVuSans-48" d="M 628 4666 
L 1259 4666 
L 1259 2753 
L 3553 2753 
L 3553 4666 
L 4184 4666 
L 4184 0 
L 3553 0 
L 3553 2222 
L 1259 2222 
L 1259 0 
L 628 0 
L 628 4666 
z
" transform="scale(0.015625)"/>
        <path id="DejaVuSans-4e" d="M 628 4666 
L 1478 4666 
L 3547 763 
L 3547 4666 
L 4159 4666 
L 4159 0 
L 3309 0 
L 1241 3903 
L 1241 0 
L 628 0 
L 628 4666 
z
" transform="scale(0.015625)"/>
        <path id="DejaVuSans-4b" d="M 628 4666 
L 1259 4666 
L 1259 2694 
L 3353 4666 
L 4166 4666 
L 1850 2491 
L 4331 0 
L 3500 0 
L 1259 2247 
L 1259 0 
L 628 0 
L 628 4666 
z
" transform="scale(0.015625)"/>
        <path id="DejaVuSans-32" d="M 1228 531 
L 3431 531 
L 3431 0 
L 469 0 
L 469 531 
Q 828 903 1448 1529 
Q 2069 2156 2228 2338 
Q 2531 2678 2651 2914 
Q 2772 3150 2772 3378 
Q 2772 3750 2511 3984 
Q 2250 4219 1831 4219 
Q 1534 4219 1204 4116 
Q 875 4013 500 3803 
L 500 4441 
Q 881 4594 1212 4672 
Q 1544 4750 1819 4750 
Q 2544 4750 2975 4387 
Q 3406 4025 3406 3419 
Q 3406 3131 3298 2873 
Q 3191 2616 2906 2266 
Q 2828 2175 2409 1742 
Q 1991 1309 1228 531 
z
" transform="scale(0.015625)"/>
       </defs>
       <use xlink:href="#DejaVuSans-41"/>
       <use xlink:href="#DejaVuSans-48" x="68.408203"/>
       <use xlink:href="#DejaVuSans-4e" x="143.603516"/>
       <use xlink:href="#DejaVuSans-41" x="218.408203"/>
       <use xlink:href="#DejaVuSans-4b" x="286.816406"/>
       <use xlink:href="#DejaVuSans-32" x="352.392578"/>
      </g>
     </g>
    </g>
    <g id="xtick_3">
     <g id="line2d_3">
      <g>
       <use xlink:href="#ma1385aaa0b" x="108.147526" y="416.95" style="stroke: #000000; stroke-width: 0.8"/>
      </g>
     </g>
     <g id="text_3">
      <!-- TTN -->
      <g transform="translate(110.906901 443.471875) rotate(-90) scale(0.1 -0.1)">
       <defs>
        <path id="DejaVuSans-54" d="M -19 4666 
L 3928 4666 
L 3928 4134 
L 2272 4134 
L 2272 0 
L 1638 0 
L 1638 4134 
L -19 4134 
L -19 4666 
z
" transform="scale(0.015625)"/>
       </defs>
       <use xlink:href="#DejaVuSans-54"/>
       <use xlink:href="#DejaVuSans-54" x="59.333984"/>
       <use xlink:href="#DejaVuSans-4e" x="120.417969"/>
      </g>
     </g>
    </g>
    <g id="xtick_4">
     <g id="line2d_4">
      <g>
       <use xlink:href="#ma1385aaa0b" x="121.946495" y="416.95" style="stroke: #000000; stroke-width: 0.8"/>
      </g>
     </g>
     <g id="text_4">
      <!-- EPPK1 -->
      <g transform="translate(124.70587 455.248437) rotate(-90) scale(0.1 -0.1)">
       <defs>
        <path id="DejaVuSans-45" d="M 628 4666 
L 3578 4666 
L 3578 4134 
L 1259 4134 
L 1259 2753 
L 3481 2753 
L 3481 2222 
L 1259 2222 
L 1259 531 
L 3634 531 
L 3634 0 
L 628 0 
L 628 4666 
z
" transform="scale(0.015625)"/>
        <path id="DejaVuSans-50" d="M 1259 4147 
L 1259 2394 
L 2053 2394 
Q 2494 2394 2734 2622 
Q 2975 2850 2975 3272 
Q 2975 3691 2734 3919 
Q 2494 4147 2053 4147 
L 1259 4147 
z
M 628 4666 
L 2053 4666 
Q 2838 4666 3239 4311 
Q 3641 3956 3641 3272 
Q 3641 2581 3239 2228 
Q 2838 1875 2053 1875 
L 1259 1875 
L 1259 0 
L 628 0 
L 628 4666 
z
" transform="scale(0.015625)"/>
        <path id="DejaVuSans-31" d="M 794 531 
L 1825 531 
L 1825 4091 
L 703 3866 
L 703 4441 
L 1819 4666 
L 2450 4666 
L 2450 531 
L 3481 531 
L 3481 0 
L 794 0 
L 794 531 
z
" transform="scale(0.015625)"/>
       </defs>
       <use xlink:href="#DejaVuSans-45"/>
       <use xlink:href="#DejaVuSans-50" x="63.183594"/>
       <use xlink:href="#DejaVuSans-50" x="123.486328"/>
       <use xlink:href="#DejaVuSans-4b" x="183.789062"/>
       <use xlink:href="#DejaVuSans-31" x="249.365234"/>
      </g>
     </g>
    </g>
    <g id="xtick_5">
     <g id="line2d_5">
      <g>
       <use xlink:href="#ma1385aaa0b" x="135.745464" y="416.95" style="stroke: #000000; stroke-width: 0.8"/>
      </g>
     </g>
     <g id="text_5">
      <!-- CHGB -->
      <g transform="translate(138.504839 453.0625) rotate(-90) scale(0.1 -0.1)">
       <defs>
        <path id="DejaVuSans-43" d="M 4122 4306 
L 4122 3641 
Q 3803 3938 3442 4084 
Q 3081 4231 2675 4231 
Q 1875 4231 1450 3742 
Q 1025 3253 1025 2328 
Q 1025 1406 1450 917 
Q 1875 428 2675 428 
Q 3081 428 3442 575 
Q 3803 722 4122 1019 
L 4122 359 
Q 3791 134 3420 21 
Q 3050 -91 2638 -91 
Q 1578 -91 968 557 
Q 359 1206 359 2328 
Q 359 3453 968 4101 
Q 1578 4750 2638 4750 
Q 3056 4750 3426 4639 
Q 3797 4528 4122 4306 
z
" transform="scale(0.015625)"/>
        <path id="DejaVuSans-42" d="M 1259 2228 
L 1259 519 
L 2272 519 
Q 2781 519 3026 730 
Q 3272 941 3272 1375 
Q 3272 1813 3026 2020 
Q 2781 2228 2272 2228 
L 1259 2228 
z
M 1259 4147 
L 1259 2741 
L 2194 2741 
Q 2656 2741 2882 2914 
Q 3109 3088 3109 3444 
Q 3109 3797 2882 3972 
Q 2656 4147 2194 4147 
L 1259 4147 
z
M 628 4666 
L 2241 4666 
Q 2963 4666 3353 4366 
Q 3744 4066 3744 3513 
Q 3744 3084 3544 2831 
Q 3344 2578 2956 2516 
Q 3422 2416 3680 2098 
Q 3938 1781 3938 1306 
Q 3938 681 3513 340 
Q 3088 0 2303 0 
L 628 0 
L 628 4666 
z
" transform="scale(0.015625)"/>
       </defs>
       <use xlink:href="#DejaVuSans-43"/>
       <use xlink:href="#DejaVuSans-48" x="69.824219"/>
       <use xlink:href="#DejaVuSans-47" x="145.019531"/>
       <use xlink:href="#DejaVuSans-42" x="222.509766"/>
      </g>
     </g>
    </g>
    <g id="xtick_6">
     <g id="line2d_6">
      <g>
       <use xlink:href="#ma1385aaa0b" x="149.544433" y="416.95" style="stroke: #000000; stroke-width: 0.8"/>
      </g>
     </g>
     <g id="text_6">
      <!-- PLEC -->
      <g transform="translate(152.303808 448.853125) rotate(-90) scale(0.1 -0.1)">
       <use xlink:href="#DejaVuSans-50"/>
       <use xlink:href="#DejaVuSans-4c" x="60.302734"/>
       <use xlink:href="#DejaVuSans-45" x="116.015625"/>
       <use xlink:href="#DejaVuSans-43" x="179.199219"/>
      </g>
     </g>
    </g>
    <g id="xtick_7">
     <g id="line2d_7">
      <g>
       <use xlink:href="#ma1385aaa0b" x="163.343402" y="416.95" style="stroke: #000000; stroke-width: 0.8"/>
      </g>
     </g>
     <g id="text_7">
      <!-- PLIN4 -->
      <g transform="translate(166.102777 452.345312) rotate(-90) scale(0.1 -0.1)">
       <defs>
        <path id="DejaVuSans-49" d="M 628 4666 
L 1259 4666 
L 1259 0 
L 628 0 
L 628 4666 
z
" transform="scale(0.015625)"/>
        <path id="DejaVuSans-34" d="M 2419 4116 
L 825 1625 
L 2419 1625 
L 2419 4116 
z
M 2253 4666 
L 3047 4666 
L 3047 1625 
L 3713 1625 
L 3713 1100 
L 3047 1100 
L 3047 0 
L 2419 0 
L 2419 1100 
L 313 1100 
L 313 1709 
L 2253 4666 
z
" transform="scale(0.015625)"/>
       </defs>
       <use xlink:href="#DejaVuSans-50"/>
       <use xlink:href="#DejaVuSans-4c" x="60.302734"/>
       <use xlink:href="#DejaVuSans-49" x="116.015625"/>
       <use xlink:href="#DejaVuSans-4e" x="145.507812"/>
       <use xlink:href="#DejaVuSans-34" x="220.3125"/>
      </g>
     </g>
    </g>
    <g id="xtick_8">
     <g id="line2d_8">
      <g>
       <use xlink:href="#ma1385aaa0b" x="177.142371" y="416.95" style="stroke: #000000; stroke-width: 0.8"/>
      </g>
     </g>
     <g id="text_8">
      <!-- MUC5AC -->
      <g transform="translate(179.901746 466.890625) rotate(-90) scale(0.1 -0.1)">
       <defs>
        <path id="DejaVuSans-4d" d="M 628 4666 
L 1569 4666 
L 2759 1491 
L 3956 4666 
L 4897 4666 
L 4897 0 
L 4281 0 
L 4281 4097 
L 3078 897 
L 2444 897 
L 1241 4097 
L 1241 0 
L 628 0 
L 628 4666 
z
" transform="scale(0.015625)"/>
        <path id="DejaVuSans-55" d="M 556 4666 
L 1191 4666 
L 1191 1831 
Q 1191 1081 1462 751 
Q 1734 422 2344 422 
Q 2950 422 3222 751 
Q 3494 1081 3494 1831 
L 3494 4666 
L 4128 4666 
L 4128 1753 
Q 4128 841 3676 375 
Q 3225 -91 2344 -91 
Q 1459 -91 1007 375 
Q 556 841 556 1753 
L 556 4666 
z
" transform="scale(0.015625)"/>
        <path id="DejaVuSans-35" d="M 691 4666 
L 3169 4666 
L 3169 4134 
L 1269 4134 
L 1269 2991 
Q 1406 3038 1543 3061 
Q 1681 3084 1819 3084 
Q 2600 3084 3056 2656 
Q 3513 2228 3513 1497 
Q 3513 744 3044 326 
Q 2575 -91 1722 -91 
Q 1428 -91 1123 -41 
Q 819 9 494 109 
L 494 744 
Q 775 591 1075 516 
Q 1375 441 1709 441 
Q 2250 441 2565 725 
Q 2881 1009 2881 1497 
Q 2881 1984 2565 2268 
Q 2250 2553 1709 2553 
Q 1456 2553 1204 2497 
Q 953 2441 691 2322 
L 691 4666 
z
" transform="scale(0.015625)"/>
       </defs>
       <use xlink:href="#DejaVuSans-4d"/>
       <use xlink:href="#DejaVuSans-55" x="86.279297"/>
       <use xlink:href="#DejaVuSans-43" x="159.472656"/>
       <use xlink:href="#DejaVuSans-35" x="229.296875"/>
       <use xlink:href="#DejaVuSans-41" x="292.919922"/>
       <use xlink:href="#DejaVuSans-43" x="359.578125"/>
      </g>
     </g>
    </g>
    <g id="xtick_9">
     <g id="line2d_9">
      <g>
       <use xlink:href="#ma1385aaa0b" x="190.94134" y="416.95" style="stroke: #000000; stroke-width: 0.8"/>
      </g>
     </g>
     <g id="text_9">
      <!-- AHNAK -->
      <g transform="translate(193.700715 459.190625) rotate(-90) scale(0.1 -0.1)">
       <use xlink:href="#DejaVuSans-41"/>
       <use xlink:href="#DejaVuSans-48" x="68.408203"/>
       <use xlink:href="#DejaVuSans-4e" x="143.603516"/>
       <use xlink:href="#DejaVuSans-41" x="218.408203"/>
       <use xlink:href="#DejaVuSans-4b" x="286.816406"/>
      </g>
     </g>
    </g>
    <g id="xtick_10">
     <g id="line2d_10">
      <g>
       <use xlink:href="#ma1385aaa0b" x="204.740309" y="416.95" style="stroke: #000000; stroke-width: 0.8"/>
      </g>
     </g>
     <g id="text_10">
      <!-- RRBP1 -->
      <g transform="translate(207.499684 457.1) rotate(-90) scale(0.1 -0.1)">
       <defs>
        <path id="DejaVuSans-52" d="M 2841 2188 
Q 3044 2119 3236 1894 
Q 3428 1669 3622 1275 
L 4263 0 
L 3584 0 
L 2988 1197 
Q 2756 1666 2539 1819 
Q 2322 1972 1947 1972 
L 1259 1972 
L 1259 0 
L 628 0 
L 628 4666 
L 2053 4666 
Q 2853 4666 3247 4331 
Q 3641 3997 3641 3322 
Q 3641 2881 3436 2590 
Q 3231 2300 2841 2188 
z
M 1259 4147 
L 1259 2491 
L 2053 2491 
Q 2509 2491 2742 2702 
Q 2975 2913 2975 3322 
Q 2975 3731 2742 3939 
Q 2509 4147 2053 4147 
L 1259 4147 
z
" transform="scale(0.015625)"/>
       </defs>
       <use xlink:href="#DejaVuSans-52"/>
       <use xlink:href="#DejaVuSans-52" x="69.482422"/>
       <use xlink:href="#DejaVuSans-42" x="138.964844"/>
       <use xlink:href="#DejaVuSans-50" x="207.568359"/>
       <use xlink:href="#DejaVuSans-31" x="267.871094"/>
      </g>
     </g>
    </g>
    <g id="xtick_11">
     <g id="line2d_11">
      <g>
       <use xlink:href="#ma1385aaa0b" x="218.539278" y="416.95" style="stroke: #000000; stroke-width: 0.8"/>
      </g>
     </g>
     <g id="text_11">
      <!-- HSPG2 -->
      <g transform="translate(221.298653 457.959375) rotate(-90) scale(0.1 -0.1)">
       <defs>
        <path id="DejaVuSans-53" d="M 3425 4513 
L 3425 3897 
Q 3066 4069 2747 4153 
Q 2428 4238 2131 4238 
Q 1616 4238 1336 4038 
Q 1056 3838 1056 3469 
Q 1056 3159 1242 3001 
Q 1428 2844 1947 2747 
L 2328 2669 
Q 3034 2534 3370 2195 
Q 3706 1856 3706 1288 
Q 3706 609 3251 259 
Q 2797 -91 1919 -91 
Q 1588 -91 1214 -16 
Q 841 59 441 206 
L 441 856 
Q 825 641 1194 531 
Q 1563 422 1919 422 
Q 2459 422 2753 634 
Q 3047 847 3047 1241 
Q 3047 1584 2836 1778 
Q 2625 1972 2144 2069 
L 1759 2144 
Q 1053 2284 737 2584 
Q 422 2884 422 3419 
Q 422 4038 858 4394 
Q 1294 4750 2059 4750 
Q 2388 4750 2728 4690 
Q 3069 4631 3425 4513 
z
" transform="scale(0.015625)"/>
       </defs>
       <use xlink:href="#DejaVuSans-48"/>
       <use xlink:href="#DejaVuSans-53" x="75.195312"/>
       <use xlink:href="#DejaVuSans-50" x="138.671875"/>
       <use xlink:href="#DejaVuSans-47" x="198.974609"/>
       <use xlink:href="#DejaVuSans-32" x="276.464844"/>
      </g>
     </g>
    </g>
    <g id="xtick_12">
     <g id="line2d_12">
      <g>
       <use xlink:href="#ma1385aaa0b" x="232.338247" y="416.95" style="stroke: #000000; stroke-width: 0.8"/>
      </g>
     </g>
     <g id="text_12">
      <!-- HLA-B -->
      <g transform="translate(235.097622 453.989062) rotate(-90) scale(0.1 -0.1)">
       <defs>
        <path id="DejaVuSans-2d" d="M 313 2009 
L 1997 2009 
L 1997 1497 
L 313 1497 
L 313 2009 
z
" transform="scale(0.015625)"/>
       </defs>
       <use xlink:href="#DejaVuSans-48"/>
       <use xlink:href="#DejaVuSans-4c" x="75.195312"/>
       <use xlink:href="#DejaVuSans-41" x="133.158203"/>
       <use xlink:href="#DejaVuSans-2d" x="199.316406"/>
       <use xlink:href="#DejaVuSans-42" x="231.775391"/>
      </g>
     </g>
    </g>
    <g id="xtick_13">
     <g id="line2d_13">
      <g>
       <use xlink:href="#ma1385aaa0b" x="246.137216" y="416.95" style="stroke: #000000; stroke-width: 0.8"/>
      </g>
     </g>
     <g id="text_13">
      <!-- SYNE2 -->
      <g transform="translate(248.896591 456.56875) rotate(-90) scale(0.1 -0.1)">
       <defs>
        <path id="DejaVuSans-59" d="M -13 4666 
L 666 4666 
L 1959 2747 
L 3244 4666 
L 3922 4666 
L 2272 2222 
L 2272 0 
L 1638 0 
L 1638 2222 
L -13 4666 
z
" transform="scale(0.015625)"/>
       </defs>
       <use xlink:href="#DejaVuSans-53"/>
       <use xlink:href="#DejaVuSans-59" x="63.476562"/>
       <use xlink:href="#DejaVuSans-4e" x="124.560547"/>
       <use xlink:href="#DejaVuSans-45" x="199.365234"/>
       <use xlink:href="#DejaVuSans-32" x="262.548828"/>
      </g>
     </g>
    </g>
    <g id="xtick_14">
     <g id="line2d_14">
      <g>
       <use xlink:href="#ma1385aaa0b" x="259.936186" y="416.95" style="stroke: #000000; stroke-width: 0.8"/>
      </g>
     </g>
     <g id="text_14">
      <!-- TG -->
      <g transform="translate(262.695561 437.80625) rotate(-90) scale(0.1 -0.1)">
       <use xlink:href="#DejaVuSans-54"/>
       <use xlink:href="#DejaVuSans-47" x="61.083984"/>
      </g>
     </g>
    </g>
    <g id="xtick_15">
     <g id="line2d_15">
      <g>
       <use xlink:href="#ma1385aaa0b" x="273.735155" y="416.95" style="stroke: #000000; stroke-width: 0.8"/>
      </g>
     </g>
     <g id="text_15">
      <!-- IGHG3 -->
      <g transform="translate(276.49453 456.279687) rotate(-90) scale(0.1 -0.1)">
       <defs>
        <path id="DejaVuSans-33" d="M 2597 2516 
Q 3050 2419 3304 2112 
Q 3559 1806 3559 1356 
Q 3559 666 3084 287 
Q 2609 -91 1734 -91 
Q 1441 -91 1130 -33 
Q 819 25 488 141 
L 488 750 
Q 750 597 1062 519 
Q 1375 441 1716 441 
Q 2309 441 2620 675 
Q 2931 909 2931 1356 
Q 2931 1769 2642 2001 
Q 2353 2234 1838 2234 
L 1294 2234 
L 1294 2753 
L 1863 2753 
Q 2328 2753 2575 2939 
Q 2822 3125 2822 3475 
Q 2822 3834 2567 4026 
Q 2313 4219 1838 4219 
Q 1578 4219 1281 4162 
Q 984 4106 628 3988 
L 628 4550 
Q 988 4650 1302 4700 
Q 1616 4750 1894 4750 
Q 2613 4750 3031 4423 
Q 3450 4097 3450 3541 
Q 3450 3153 3228 2886 
Q 3006 2619 2597 2516 
z
" transform="scale(0.015625)"/>
       </defs>
       <use xlink:href="#DejaVuSans-49"/>
       <use xlink:href="#DejaVuSans-47" x="29.492188"/>
       <use xlink:href="#DejaVuSans-48" x="106.982422"/>
       <use xlink:href="#DejaVuSans-47" x="182.177734"/>
       <use xlink:href="#DejaVuSans-33" x="259.667969"/>
      </g>
     </g>
    </g>
    <g id="xtick_16">
     <g id="line2d_16">
      <g>
       <use xlink:href="#ma1385aaa0b" x="287.534124" y="416.95" style="stroke: #000000; stroke-width: 0.8"/>
      </g>
     </g>
     <g id="text_16">
      <!-- AKAP12 -->
      <g transform="translate(290.293499 462.76875) rotate(-90) scale(0.1 -0.1)">
       <use xlink:href="#DejaVuSans-41"/>
       <use xlink:href="#DejaVuSans-4b" x="68.408203"/>
       <use xlink:href="#DejaVuSans-41" x="132.234375"/>
       <use xlink:href="#DejaVuSans-50" x="200.642578"/>
       <use xlink:href="#DejaVuSans-31" x="260.945312"/>
       <use xlink:href="#DejaVuSans-32" x="324.568359"/>
      </g>
     </g>
    </g>
    <g id="xtick_17">
     <g id="line2d_17">
      <g>
       <use xlink:href="#ma1385aaa0b" x="301.333093" y="416.95" style="stroke: #000000; stroke-width: 0.8"/>
      </g>
     </g>
     <g id="text_17">
      <!-- LAMA5 -->
      <g transform="translate(304.092468 458.41875) rotate(-90) scale(0.1 -0.1)">
       <use xlink:href="#DejaVuSans-4c"/>
       <use xlink:href="#DejaVuSans-41" x="57.962891"/>
       <use xlink:href="#DejaVuSans-4d" x="126.371094"/>
       <use xlink:href="#DejaVuSans-41" x="212.650391"/>
       <use xlink:href="#DejaVuSans-35" x="281.058594"/>
      </g>
     </g>
    </g>
    <g id="xtick_18">
     <g id="line2d_18">
      <g>
       <use xlink:href="#ma1385aaa0b" x="315.132062" y="416.95" style="stroke: #000000; stroke-width: 0.8"/>
      </g>
     </g>
     <g id="text_18">
      <!-- HLA-C -->
      <g transform="translate(317.891437 454.473437) rotate(-90) scale(0.1 -0.1)">
       <use xlink:href="#DejaVuSans-48"/>
       <use xlink:href="#DejaVuSans-4c" x="75.195312"/>
       <use xlink:href="#DejaVuSans-41" x="133.158203"/>
       <use xlink:href="#DejaVuSans-2d" x="199.316406"/>
       <use xlink:href="#DejaVuSans-43" x="235.400391"/>
      </g>
     </g>
    </g>
    <g id="xtick_19">
     <g id="line2d_19">
      <g>
       <use xlink:href="#ma1385aaa0b" x="328.931031" y="416.95" style="stroke: #000000; stroke-width: 0.8"/>
      </g>
     </g>
     <g id="text_19">
      <!-- PARP4 -->
      <g transform="translate(331.690406 455.523438) rotate(-90) scale(0.1 -0.1)">
       <use xlink:href="#DejaVuSans-50"/>
       <use xlink:href="#DejaVuSans-41" x="53.927734"/>
       <use xlink:href="#DejaVuSans-52" x="122.335938"/>
       <use xlink:href="#DejaVuSans-50" x="191.818359"/>
       <use xlink:href="#DejaVuSans-34" x="252.121094"/>
      </g>
     </g>
    </g>
    <g id="xtick_20">
     <g id="line2d_20">
      <g>
       <use xlink:href="#ma1385aaa0b" x="342.73" y="416.95" style="stroke: #000000; stroke-width: 0.8"/>
      </g>
     </g>
     <g id="text_20">
      <!-- OBSCN -->
      <g transform="translate(345.489375 459.320312) rotate(-90) scale(0.1 -0.1)">
       <defs>
        <path id="DejaVuSans-4f" d="M 2522 4238 
Q 1834 4238 1429 3725 
Q 1025 3213 1025 2328 
Q 1025 1447 1429 934 
Q 1834 422 2522 422 
Q 3209 422 3611 934 
Q 4013 1447 4013 2328 
Q 4013 3213 3611 3725 
Q 3209 4238 2522 4238 
z
M 2522 4750 
Q 3503 4750 4090 4092 
Q 4678 3434 4678 2328 
Q 4678 1225 4090 567 
Q 3503 -91 2522 -91 
Q 1538 -91 948 565 
Q 359 1222 359 2328 
Q 359 3434 948 4092 
Q 1538 4750 2522 4750 
z
" transform="scale(0.015625)"/>
       </defs>
       <use xlink:href="#DejaVuSans-4f"/>
       <use xlink:href="#DejaVuSans-42" x="78.710938"/>
       <use xlink:href="#DejaVuSans-53" x="145.564453"/>
       <use xlink:href="#DejaVuSans-43" x="209.041016"/>
       <use xlink:href="#DejaVuSans-4e" x="278.865234"/>
      </g>
     </g>
    </g>
    <g id="xtick_21">
     <g id="line2d_21">
      <g>
       <use xlink:href="#ma1385aaa0b" x="356.528969" y="416.95" style="stroke: #000000; stroke-width: 0.8"/>
      </g>
     </g>
     <g id="text_21">
      <!-- FCGBP -->
      <g transform="translate(359.288344 457.323437) rotate(-90) scale(0.1 -0.1)">
       <use xlink:href="#DejaVuSans-46"/>
       <use xlink:href="#DejaVuSans-43" x="57.519531"/>
       <use xlink:href="#DejaVuSans-47" x="127.34375"/>
       <use xlink:href="#DejaVuSans-42" x="204.833984"/>
       <use xlink:href="#DejaVuSans-50" x="273.4375"/>
      </g>
     </g>
    </g>
    <g id="xtick_22">
     <g id="line2d_22">
      <g>
       <use xlink:href="#ma1385aaa0b" x="370.327938" y="416.95" style="stroke: #000000; stroke-width: 0.8"/>
      </g>
     </g>
     <g id="text_22">
      <!-- SYNM -->
      <g transform="translate(373.087313 452.515625) rotate(-90) scale(0.1 -0.1)">
       <use xlink:href="#DejaVuSans-53"/>
       <use xlink:href="#DejaVuSans-59" x="63.476562"/>
       <use xlink:href="#DejaVuSans-4e" x="124.560547"/>
       <use xlink:href="#DejaVuSans-4d" x="199.365234"/>
      </g>
     </g>
    </g>
    <g id="xtick_23">
     <g id="line2d_23">
      <g>
       <use xlink:href="#ma1385aaa0b" x="384.126907" y="416.95" style="stroke: #000000; stroke-width: 0.8"/>
      </g>
     </g>
     <g id="text_23">
      <!-- NEB -->
      <g transform="translate(386.886282 444.610937) rotate(-90) scale(0.1 -0.1)">
       <use xlink:href="#DejaVuSans-4e"/>
       <use xlink:href="#DejaVuSans-45" x="74.804688"/>
       <use xlink:href="#DejaVuSans-42" x="137.988281"/>
      </g>
     </g>
    </g>
    <g id="xtick_24">
     <g id="line2d_24">
      <g>
       <use xlink:href="#ma1385aaa0b" x="397.925876" y="416.95" style="stroke: #000000; stroke-width: 0.8"/>
      </g>
     </g>
     <g id="text_24">
      <!-- MYOM3 -->
      <g transform="translate(400.685251 460.998437) rotate(-90) scale(0.1 -0.1)">
       <use xlink:href="#DejaVuSans-4d"/>
       <use xlink:href="#DejaVuSans-59" x="86.279297"/>
       <use xlink:href="#DejaVuSans-4f" x="141.863281"/>
       <use xlink:href="#DejaVuSans-4d" x="220.574219"/>
       <use xlink:href="#DejaVuSans-33" x="306.853516"/>
      </g>
     </g>
    </g>
    <g id="xtick_25">
     <g id="line2d_25">
      <g>
       <use xlink:href="#ma1385aaa0b" x="411.724845" y="416.95" style="stroke: #000000; stroke-width: 0.8"/>
      </g>
     </g>
     <g id="text_25">
      <!-- RPL14 -->
      <g transform="translate(414.48422 455.225) rotate(-90) scale(0.1 -0.1)">
       <use xlink:href="#DejaVuSans-52"/>
       <use xlink:href="#DejaVuSans-50" x="69.482422"/>
       <use xlink:href="#DejaVuSans-4c" x="129.785156"/>
       <use xlink:href="#DejaVuSans-31" x="185.498047"/>
       <use xlink:href="#DejaVuSans-34" x="249.121094"/>
      </g>
     </g>
    </g>
    <g id="xtick_26">
     <g id="line2d_26">
      <g>
       <use xlink:href="#ma1385aaa0b" x="425.523814" y="416.95" style="stroke: #000000; stroke-width: 0.8"/>
      </g>
     </g>
     <g id="text_26">
      <!-- SMTN -->
      <g transform="translate(428.283189 452.515625) rotate(-90) scale(0.1 -0.1)">
       <use xlink:href="#DejaVuSans-53"/>
       <use xlink:href="#DejaVuSans-4d" x="63.476562"/>
       <use xlink:href="#DejaVuSans-54" x="149.755859"/>
       <use xlink:href="#DejaVuSans-4e" x="210.839844"/>
      </g>
     </g>
    </g>
    <g id="xtick_27">
     <g id="line2d_27">
      <g>
       <use xlink:href="#ma1385aaa0b" x="439.322784" y="416.95" style="stroke: #000000; stroke-width: 0.8"/>
      </g>
     </g>
     <g id="text_27">
      <!-- NRAP -->
      <g transform="translate(442.082159 450.85) rotate(-90) scale(0.1 -0.1)">
       <use xlink:href="#DejaVuSans-4e"/>
       <use xlink:href="#DejaVuSans-52" x="74.804688"/>
       <use xlink:href="#DejaVuSans-41" x="140.287109"/>
       <use xlink:href="#DejaVuSans-50" x="208.695312"/>
      </g>
     </g>
    </g>
    <g id="xtick_28">
     <g id="line2d_28">
      <g>
       <use xlink:href="#ma1385aaa0b" x="453.121753" y="416.95" style="stroke: #000000; stroke-width: 0.8"/>
      </g>
     </g>
     <g id="text_28">
      <!-- HLA-DRB5 -->
      <g transform="translate(455.881128 475.3625) rotate(-90) scale(0.1 -0.1)">
       <defs>
        <path id="DejaVuSans-44" d="M 1259 4147 
L 1259 519 
L 2022 519 
Q 2988 519 3436 956 
Q 3884 1394 3884 2338 
Q 3884 3275 3436 3711 
Q 2988 4147 2022 4147 
L 1259 4147 
z
M 628 4666 
L 1925 4666 
Q 3281 4666 3915 4102 
Q 4550 3538 4550 2338 
Q 4550 1131 3912 565 
Q 3275 0 1925 0 
L 628 0 
L 628 4666 
z
" transform="scale(0.015625)"/>
       </defs>
       <use xlink:href="#DejaVuSans-48"/>
       <use xlink:href="#DejaVuSans-4c" x="75.195312"/>
       <use xlink:href="#DejaVuSans-41" x="133.158203"/>
       <use xlink:href="#DejaVuSans-2d" x="199.316406"/>
       <use xlink:href="#DejaVuSans-44" x="235.400391"/>
       <use xlink:href="#DejaVuSans-52" x="312.402344"/>
       <use xlink:href="#DejaVuSans-42" x="381.884766"/>
       <use xlink:href="#DejaVuSans-35" x="450.488281"/>
      </g>
     </g>
    </g>
    <g id="xtick_29">
     <g id="line2d_29">
      <g>
       <use xlink:href="#ma1385aaa0b" x="466.920722" y="416.95" style="stroke: #000000; stroke-width: 0.8"/>
      </g>
     </g>
     <g id="text_29">
      <!-- TNS1 -->
      <g transform="translate(469.680097 450.25) rotate(-90) scale(0.1 -0.1)">
       <use xlink:href="#DejaVuSans-54"/>
       <use xlink:href="#DejaVuSans-4e" x="61.083984"/>
       <use xlink:href="#DejaVuSans-53" x="135.888672"/>
       <use xlink:href="#DejaVuSans-31" x="199.365234"/>
      </g>
     </g>
    </g>
    <g id="xtick_30">
     <g id="line2d_30">
      <g>
       <use xlink:href="#ma1385aaa0b" x="480.719691" y="416.95" style="stroke: #000000; stroke-width: 0.8"/>
      </g>
     </g>
     <g id="text_30">
      <!-- HLA-DRB1 -->
      <g transform="translate(483.479066 475.3625) rotate(-90) scale(0.1 -0.1)">
       <use xlink:href="#DejaVuSans-48"/>
       <use xlink:href="#DejaVuSans-4c" x="75.195312"/>
       <use xlink:href="#DejaVuSans-41" x="133.158203"/>
       <use xlink:href="#DejaVuSans-2d" x="199.316406"/>
       <use xlink:href="#DejaVuSans-44" x="235.400391"/>
       <use xlink:href="#DejaVuSans-52" x="312.402344"/>
       <use xlink:href="#DejaVuSans-42" x="381.884766"/>
       <use xlink:href="#DejaVuSans-31" x="450.488281"/>
      </g>
     </g>
    </g>
    <g id="xtick_31">
     <g id="line2d_31">
      <g>
       <use xlink:href="#ma1385aaa0b" x="494.51866" y="416.95" style="stroke: #000000; stroke-width: 0.8"/>
      </g>
     </g>
     <g id="text_31">
      <!-- SYNE1 -->
      <g transform="translate(497.278035 456.56875) rotate(-90) scale(0.1 -0.1)">
       <use xlink:href="#DejaVuSans-53"/>
       <use xlink:href="#DejaVuSans-59" x="63.476562"/>
       <use xlink:href="#DejaVuSans-4e" x="124.560547"/>
       <use xlink:href="#DejaVuSans-45" x="199.365234"/>
       <use xlink:href="#DejaVuSans-31" x="262.548828"/>
      </g>
     </g>
    </g>
    <g id="xtick_32">
     <g id="line2d_32">
      <g>
       <use xlink:href="#ma1385aaa0b" x="508.317629" y="416.95" style="stroke: #000000; stroke-width: 0.8"/>
      </g>
     </g>
     <g id="text_32">
      <!-- PRUNE2 -->
      <g transform="translate(511.077004 464.409375) rotate(-90) scale(0.1 -0.1)">
       <use xlink:href="#DejaVuSans-50"/>
       <use xlink:href="#DejaVuSans-52" x="60.302734"/>
       <use xlink:href="#DejaVuSans-55" x="129.785156"/>
       <use xlink:href="#DejaVuSans-4e" x="202.978516"/>
       <use xlink:href="#DejaVuSans-45" x="277.783203"/>
       <use xlink:href="#DejaVuSans-32" x="340.966797"/>
      </g>
     </g>
    </g>
    <g id="xtick_33">
     <g id="line2d_33">
      <g>
       <use xlink:href="#ma1385aaa0b" x="522.116598" y="416.95" style="stroke: #000000; stroke-width: 0.8"/>
      </g>
     </g>
     <g id="text_33">
      <!-- C8A -->
      <g transform="translate(524.875973 444.135937) rotate(-90) scale(0.1 -0.1)">
       <defs>
        <path id="DejaVuSans-38" d="M 2034 2216 
Q 1584 2216 1326 1975 
Q 1069 1734 1069 1313 
Q 1069 891 1326 650 
Q 1584 409 2034 409 
Q 2484 409 2743 651 
Q 3003 894 3003 1313 
Q 3003 1734 2745 1975 
Q 2488 2216 2034 2216 
z
M 1403 2484 
Q 997 2584 770 2862 
Q 544 3141 544 3541 
Q 544 4100 942 4425 
Q 1341 4750 2034 4750 
Q 2731 4750 3128 4425 
Q 3525 4100 3525 3541 
Q 3525 3141 3298 2862 
Q 3072 2584 2669 2484 
Q 3125 2378 3379 2068 
Q 3634 1759 3634 1313 
Q 3634 634 3220 271 
Q 2806 -91 2034 -91 
Q 1263 -91 848 271 
Q 434 634 434 1313 
Q 434 1759 690 2068 
Q 947 2378 1403 2484 
z
M 1172 3481 
Q 1172 3119 1398 2916 
Q 1625 2713 2034 2713 
Q 2441 2713 2670 2916 
Q 2900 3119 2900 3481 
Q 2900 3844 2670 4047 
Q 2441 4250 2034 4250 
Q 1625 4250 1398 4047 
Q 1172 3844 1172 3481 
z
" transform="scale(0.015625)"/>
       </defs>
       <use xlink:href="#DejaVuSans-43"/>
       <use xlink:href="#DejaVuSans-38" x="69.824219"/>
       <use xlink:href="#DejaVuSans-41" x="133.447266"/>
      </g>
     </g>
    </g>
    <g id="xtick_34">
     <g id="line2d_34">
      <g>
       <use xlink:href="#ma1385aaa0b" x="535.915567" y="416.95" style="stroke: #000000; stroke-width: 0.8"/>
      </g>
     </g>
     <g id="text_34">
      <!-- CD99 -->
      <g transform="translate(538.674942 451.357812) rotate(-90) scale(0.1 -0.1)">
       <defs>
        <path id="DejaVuSans-39" d="M 703 97 
L 703 672 
Q 941 559 1184 500 
Q 1428 441 1663 441 
Q 2288 441 2617 861 
Q 2947 1281 2994 2138 
Q 2813 1869 2534 1725 
Q 2256 1581 1919 1581 
Q 1219 1581 811 2004 
Q 403 2428 403 3163 
Q 403 3881 828 4315 
Q 1253 4750 1959 4750 
Q 2769 4750 3195 4129 
Q 3622 3509 3622 2328 
Q 3622 1225 3098 567 
Q 2575 -91 1691 -91 
Q 1453 -91 1209 -44 
Q 966 3 703 97 
z
M 1959 2075 
Q 2384 2075 2632 2365 
Q 2881 2656 2881 3163 
Q 2881 3666 2632 3958 
Q 2384 4250 1959 4250 
Q 1534 4250 1286 3958 
Q 1038 3666 1038 3163 
Q 1038 2656 1286 2365 
Q 1534 2075 1959 2075 
z
" transform="scale(0.015625)"/>
       </defs>
       <use xlink:href="#DejaVuSans-43"/>
       <use xlink:href="#DejaVuSans-44" x="69.824219"/>
       <use xlink:href="#DejaVuSans-39" x="146.826172"/>
       <use xlink:href="#DejaVuSans-39" x="210.449219"/>
      </g>
     </g>
    </g>
    <g id="xtick_35">
     <g id="line2d_35">
      <g>
       <use xlink:href="#ma1385aaa0b" x="549.714536" y="416.95" style="stroke: #000000; stroke-width: 0.8"/>
      </g>
     </g>
     <g id="text_35">
      <!-- SYNPO2 -->
      <g transform="translate(552.473911 464.151562) rotate(-90) scale(0.1 -0.1)">
       <use xlink:href="#DejaVuSans-53"/>
       <use xlink:href="#DejaVuSans-59" x="63.476562"/>
       <use xlink:href="#DejaVuSans-4e" x="124.560547"/>
       <use xlink:href="#DejaVuSans-50" x="199.365234"/>
       <use xlink:href="#DejaVuSans-4f" x="259.667969"/>
       <use xlink:href="#DejaVuSans-32" x="338.378906"/>
      </g>
     </g>
    </g>
    <g id="xtick_36">
     <g id="line2d_36">
      <g>
       <use xlink:href="#ma1385aaa0b" x="563.513505" y="416.95" style="stroke: #000000; stroke-width: 0.8"/>
      </g>
     </g>
     <g id="text_36">
      <!-- COL6A2 -->
      <g transform="translate(566.27288 463.942187) rotate(-90) scale(0.1 -0.1)">
       <defs>
        <path id="DejaVuSans-36" d="M 2113 2584 
Q 1688 2584 1439 2293 
Q 1191 2003 1191 1497 
Q 1191 994 1439 701 
Q 1688 409 2113 409 
Q 2538 409 2786 701 
Q 3034 994 3034 1497 
Q 3034 2003 2786 2293 
Q 2538 2584 2113 2584 
z
M 3366 4563 
L 3366 3988 
Q 3128 4100 2886 4159 
Q 2644 4219 2406 4219 
Q 1781 4219 1451 3797 
Q 1122 3375 1075 2522 
Q 1259 2794 1537 2939 
Q 1816 3084 2150 3084 
Q 2853 3084 3261 2657 
Q 3669 2231 3669 1497 
Q 3669 778 3244 343 
Q 2819 -91 2113 -91 
Q 1303 -91 875 529 
Q 447 1150 447 2328 
Q 447 3434 972 4092 
Q 1497 4750 2381 4750 
Q 2619 4750 2861 4703 
Q 3103 4656 3366 4563 
z
" transform="scale(0.015625)"/>
       </defs>
       <use xlink:href="#DejaVuSans-43"/>
       <use xlink:href="#DejaVuSans-4f" x="69.824219"/>
       <use xlink:href="#DejaVuSans-4c" x="148.535156"/>
       <use xlink:href="#DejaVuSans-36" x="204.248047"/>
       <use xlink:href="#DejaVuSans-41" x="267.871094"/>
       <use xlink:href="#DejaVuSans-32" x="336.279297"/>
      </g>
     </g>
    </g>
    <g id="xtick_37">
     <g id="line2d_37">
      <g>
       <use xlink:href="#ma1385aaa0b" x="577.312474" y="416.95" style="stroke: #000000; stroke-width: 0.8"/>
      </g>
     </g>
     <g id="text_37">
      <!-- TNC -->
      <g transform="translate(580.071849 444.521875) rotate(-90) scale(0.1 -0.1)">
       <use xlink:href="#DejaVuSans-54"/>
       <use xlink:href="#DejaVuSans-4e" x="61.083984"/>
       <use xlink:href="#DejaVuSans-43" x="135.888672"/>
      </g>
     </g>
    </g>
    <g id="xtick_38">
     <g id="line2d_38">
      <g>
       <use xlink:href="#ma1385aaa0b" x="591.111443" y="416.95" style="stroke: #000000; stroke-width: 0.8"/>
      </g>
     </g>
     <g id="text_38">
      <!-- TPSAB1 -->
      <g transform="translate(593.870818 462.6875) rotate(-90) scale(0.1 -0.1)">
       <use xlink:href="#DejaVuSans-54"/>
       <use xlink:href="#DejaVuSans-50" x="61.083984"/>
       <use xlink:href="#DejaVuSans-53" x="121.386719"/>
       <use xlink:href="#DejaVuSans-41" x="186.738281"/>
       <use xlink:href="#DejaVuSans-42" x="255.146484"/>
       <use xlink:href="#DejaVuSans-31" x="323.75"/>
      </g>
     </g>
    </g>
    <g id="xtick_39">
     <g id="line2d_39">
      <g>
       <use xlink:href="#ma1385aaa0b" x="604.910412" y="416.95" style="stroke: #000000; stroke-width: 0.8"/>
      </g>
     </g>
     <g id="text_39">
      <!-- LAMA2 -->
      <g transform="translate(607.669787 458.41875) rotate(-90) scale(0.1 -0.1)">
       <use xlink:href="#DejaVuSans-4c"/>
       <use xlink:href="#DejaVuSans-41" x="57.962891"/>
       <use xlink:href="#DejaVuSans-4d" x="126.371094"/>
       <use xlink:href="#DejaVuSans-41" x="212.650391"/>
       <use xlink:href="#DejaVuSans-32" x="281.058594"/>
      </g>
     </g>
    </g>
    <g id="text_40">
     <!-- Gene Symbol -->
     <g transform="translate(295.953594 490.000312) scale(0.14 -0.14)">
      <defs>
       <path id="DejaVuSans-65" d="M 3597 1894 
L 3597 1613 
L 953 1613 
Q 991 1019 1311 708 
Q 1631 397 2203 397 
Q 2534 397 2845 478 
Q 3156 559 3463 722 
L 3463 178 
Q 3153 47 2828 -22 
Q 2503 -91 2169 -91 
Q 1331 -91 842 396 
Q 353 884 353 1716 
Q 353 2575 817 3079 
Q 1281 3584 2069 3584 
Q 2775 3584 3186 3129 
Q 3597 2675 3597 1894 
z
M 3022 2063 
Q 3016 2534 2758 2815 
Q 2500 3097 2075 3097 
Q 1594 3097 1305 2825 
Q 1016 2553 972 2059 
L 3022 2063 
z
" transform="scale(0.015625)"/>
       <path id="DejaVuSans-6e" d="M 3513 2113 
L 3513 0 
L 2938 0 
L 2938 2094 
Q 2938 2591 2744 2837 
Q 2550 3084 2163 3084 
Q 1697 3084 1428 2787 
Q 1159 2491 1159 1978 
L 1159 0 
L 581 0 
L 581 3500 
L 1159 3500 
L 1159 2956 
Q 1366 3272 1645 3428 
Q 1925 3584 2291 3584 
Q 2894 3584 3203 3211 
Q 3513 2838 3513 2113 
z
" transform="scale(0.015625)"/>
       <path id="DejaVuSans-20" transform="scale(0.015625)"/>
       <path id="DejaVuSans-79" d="M 2059 -325 
Q 1816 -950 1584 -1140 
Q 1353 -1331 966 -1331 
L 506 -1331 
L 506 -850 
L 844 -850 
Q 1081 -850 1212 -737 
Q 1344 -625 1503 -206 
L 1606 56 
L 191 3500 
L 800 3500 
L 1894 763 
L 2988 3500 
L 3597 3500 
L 2059 -325 
z
" transform="scale(0.015625)"/>
       <path id="DejaVuSans-6d" d="M 3328 2828 
Q 3544 3216 3844 3400 
Q 4144 3584 4550 3584 
Q 5097 3584 5394 3201 
Q 5691 2819 5691 2113 
L 5691 0 
L 5113 0 
L 5113 2094 
Q 5113 2597 4934 2840 
Q 4756 3084 4391 3084 
Q 3944 3084 3684 2787 
Q 3425 2491 3425 1978 
L 3425 0 
L 2847 0 
L 2847 2094 
Q 2847 2600 2669 2842 
Q 2491 3084 2119 3084 
Q 1678 3084 1418 2786 
Q 1159 2488 1159 1978 
L 1159 0 
L 581 0 
L 581 3500 
L 1159 3500 
L 1159 2956 
Q 1356 3278 1631 3431 
Q 1906 3584 2284 3584 
Q 2666 3584 2933 3390 
Q 3200 3197 3328 2828 
z
" transform="scale(0.015625)"/>
       <path id="DejaVuSans-62" d="M 3116 1747 
Q 3116 2381 2855 2742 
Q 2594 3103 2138 3103 
Q 1681 3103 1420 2742 
Q 1159 2381 1159 1747 
Q 1159 1113 1420 752 
Q 1681 391 2138 391 
Q 2594 391 2855 752 
Q 3116 1113 3116 1747 
z
M 1159 2969 
Q 1341 3281 1617 3432 
Q 1894 3584 2278 3584 
Q 2916 3584 3314 3078 
Q 3713 2572 3713 1747 
Q 3713 922 3314 415 
Q 2916 -91 2278 -91 
Q 1894 -91 1617 61 
Q 1341 213 1159 525 
L 1159 0 
L 581 0 
L 581 4863 
L 1159 4863 
L 1159 2969 
z
" transform="scale(0.015625)"/>
       <path id="DejaVuSans-6f" d="M 1959 3097 
Q 1497 3097 1228 2736 
Q 959 2375 959 1747 
Q 959 1119 1226 758 
Q 1494 397 1959 397 
Q 2419 397 2687 759 
Q 2956 1122 2956 1747 
Q 2956 2369 2687 2733 
Q 2419 3097 1959 3097 
z
M 1959 3584 
Q 2709 3584 3137 3096 
Q 3566 2609 3566 1747 
Q 3566 888 3137 398 
Q 2709 -91 1959 -91 
Q 1206 -91 779 398 
Q 353 888 353 1747 
Q 353 2609 779 3096 
Q 1206 3584 1959 3584 
z
" transform="scale(0.015625)"/>
       <path id="DejaVuSans-6c" d="M 603 4863 
L 1178 4863 
L 1178 0 
L 603 0 
L 603 4863 
z
" transform="scale(0.015625)"/>
      </defs>
      <use xlink:href="#DejaVuSans-47"/>
      <use xlink:href="#DejaVuSans-65" x="77.490234"/>
      <use xlink:href="#DejaVuSans-6e" x="139.013672"/>
      <use xlink:href="#DejaVuSans-65" x="202.392578"/>
      <use xlink:href="#DejaVuSans-20" x="263.916016"/>
      <use xlink:href="#DejaVuSans-53" x="295.703125"/>
      <use xlink:href="#DejaVuSans-79" x="359.179688"/>
      <use xlink:href="#DejaVuSans-6d" x="418.359375"/>
      <use xlink:href="#DejaVuSans-62" x="515.771484"/>
      <use xlink:href="#DejaVuSans-6f" x="579.248047"/>
      <use xlink:href="#DejaVuSans-6c" x="640.429688"/>
     </g>
    </g>
   </g>
   <g id="matplotlib.axis_2">
    <g id="ytick_1">
     <g id="line2d_40">
      <defs>
       <path id="m1c93583d04" d="M 0 0 
L -3.5 0 
" style="stroke: #000000; stroke-width: 0.8"/>
      </defs>
      <g>
       <use xlink:href="#m1c93583d04" x="48.26" y="416.95" style="stroke: #000000; stroke-width: 0.8"/>
      </g>
     </g>
     <g id="text_41">
      <!-- 0 -->
      <g transform="translate(34.8975 420.749219) scale(0.1 -0.1)">
       <defs>
        <path id="DejaVuSans-30" d="M 2034 4250 
Q 1547 4250 1301 3770 
Q 1056 3291 1056 2328 
Q 1056 1369 1301 889 
Q 1547 409 2034 409 
Q 2525 409 2770 889 
Q 3016 1369 3016 2328 
Q 3016 3291 2770 3770 
Q 2525 4250 2034 4250 
z
M 2034 4750 
Q 2819 4750 3233 4129 
Q 3647 3509 3647 2328 
Q 3647 1150 3233 529 
Q 2819 -91 2034 -91 
Q 1250 -91 836 529 
Q 422 1150 422 2328 
Q 422 3509 836 4129 
Q 1250 4750 2034 4750 
z
" transform="scale(0.015625)"/>
       </defs>
       <use xlink:href="#DejaVuSans-30"/>
      </g>
     </g>
    </g>
    <g id="ytick_2">
     <g id="line2d_41">
      <g>
       <use xlink:href="#m1c93583d04" x="48.26" y="339.588095" style="stroke: #000000; stroke-width: 0.8"/>
      </g>
     </g>
     <g id="text_42">
      <!-- 10 -->
      <g transform="translate(28.535 343.387314) scale(0.1 -0.1)">
       <use xlink:href="#DejaVuSans-31"/>
       <use xlink:href="#DejaVuSans-30" x="63.623047"/>
      </g>
     </g>
    </g>
    <g id="ytick_3">
     <g id="line2d_42">
      <g>
       <use xlink:href="#m1c93583d04" x="48.26" y="262.22619" style="stroke: #000000; stroke-width: 0.8"/>
      </g>
     </g>
     <g id="text_43">
      <!-- 20 -->
      <g transform="translate(28.535 266.025409) scale(0.1 -0.1)">
       <use xlink:href="#DejaVuSans-32"/>
       <use xlink:href="#DejaVuSans-30" x="63.623047"/>
      </g>
     </g>
    </g>
    <g id="ytick_4">
     <g id="line2d_43">
      <g>
       <use xlink:href="#m1c93583d04" x="48.26" y="184.864286" style="stroke: #000000; stroke-width: 0.8"/>
      </g>
     </g>
     <g id="text_44">
      <!-- 30 -->
      <g transform="translate(28.535 188.663504) scale(0.1 -0.1)">
       <use xlink:href="#DejaVuSans-33"/>
       <use xlink:href="#DejaVuSans-30" x="63.623047"/>
      </g>
     </g>
    </g>
    <g id="ytick_5">
     <g id="line2d_44">
      <g>
       <use xlink:href="#m1c93583d04" x="48.26" y="107.502381" style="stroke: #000000; stroke-width: 0.8"/>
      </g>
     </g>
     <g id="text_45">
      <!-- 40 -->
      <g transform="translate(28.535 111.3016) scale(0.1 -0.1)">
       <use xlink:href="#DejaVuSans-34"/>
       <use xlink:href="#DejaVuSans-30" x="63.623047"/>
      </g>
     </g>
    </g>
    <g id="ytick_6">
     <g id="line2d_45">
      <g>
       <use xlink:href="#m1c93583d04" x="48.26" y="30.140476" style="stroke: #000000; stroke-width: 0.8"/>
      </g>
     </g>
     <g id="text_46">
      <!-- 50 -->
      <g transform="translate(28.535 33.939695) scale(0.1 -0.1)">
       <use xlink:href="#DejaVuSans-35"/>
       <use xlink:href="#DejaVuSans-30" x="63.623047"/>
      </g>
     </g>
    </g>
    <g id="text_47">
     <!-- Number of GCA Peptides -->
     <g transform="translate(21.623438 300.321719) rotate(-90) scale(0.14 -0.14)">
      <defs>
       <path id="DejaVuSans-75" d="M 544 1381 
L 544 3500 
L 1119 3500 
L 1119 1403 
Q 1119 906 1312 657 
Q 1506 409 1894 409 
Q 2359 409 2629 706 
Q 2900 1003 2900 1516 
L 2900 3500 
L 3475 3500 
L 3475 0 
L 2900 0 
L 2900 538 
Q 2691 219 2414 64 
Q 2138 -91 1772 -91 
Q 1169 -91 856 284 
Q 544 659 544 1381 
z
M 1991 3584 
L 1991 3584 
z
" transform="scale(0.015625)"/>
       <path id="DejaVuSans-72" d="M 2631 2963 
Q 2534 3019 2420 3045 
Q 2306 3072 2169 3072 
Q 1681 3072 1420 2755 
Q 1159 2438 1159 1844 
L 1159 0 
L 581 0 
L 581 3500 
L 1159 3500 
L 1159 2956 
Q 1341 3275 1631 3429 
Q 1922 3584 2338 3584 
Q 2397 3584 2469 3576 
Q 2541 3569 2628 3553 
L 2631 2963 
z
" transform="scale(0.015625)"/>
       <path id="DejaVuSans-66" d="M 2375 4863 
L 2375 4384 
L 1825 4384 
Q 1516 4384 1395 4259 
Q 1275 4134 1275 3809 
L 1275 3500 
L 2222 3500 
L 2222 3053 
L 1275 3053 
L 1275 0 
L 697 0 
L 697 3053 
L 147 3053 
L 147 3500 
L 697 3500 
L 697 3744 
Q 697 4328 969 4595 
Q 1241 4863 1831 4863 
L 2375 4863 
z
" transform="scale(0.015625)"/>
       <path id="DejaVuSans-70" d="M 1159 525 
L 1159 -1331 
L 581 -1331 
L 581 3500 
L 1159 3500 
L 1159 2969 
Q 1341 3281 1617 3432 
Q 1894 3584 2278 3584 
Q 2916 3584 3314 3078 
Q 3713 2572 3713 1747 
Q 3713 922 3314 415 
Q 2916 -91 2278 -91 
Q 1894 -91 1617 61 
Q 1341 213 1159 525 
z
M 3116 1747 
Q 3116 2381 2855 2742 
Q 2594 3103 2138 3103 
Q 1681 3103 1420 2742 
Q 1159 2381 1159 1747 
Q 1159 1113 1420 752 
Q 1681 391 2138 391 
Q 2594 391 2855 752 
Q 3116 1113 3116 1747 
z
" transform="scale(0.015625)"/>
       <path id="DejaVuSans-74" d="M 1172 4494 
L 1172 3500 
L 2356 3500 
L 2356 3053 
L 1172 3053 
L 1172 1153 
Q 1172 725 1289 603 
Q 1406 481 1766 481 
L 2356 481 
L 2356 0 
L 1766 0 
Q 1100 0 847 248 
Q 594 497 594 1153 
L 594 3053 
L 172 3053 
L 172 3500 
L 594 3500 
L 594 4494 
L 1172 4494 
z
" transform="scale(0.015625)"/>
       <path id="DejaVuSans-69" d="M 603 3500 
L 1178 3500 
L 1178 0 
L 603 0 
L 603 3500 
z
M 603 4863 
L 1178 4863 
L 1178 4134 
L 603 4134 
L 603 4863 
z
" transform="scale(0.015625)"/>
       <path id="DejaVuSans-64" d="M 2906 2969 
L 2906 4863 
L 3481 4863 
L 3481 0 
L 2906 0 
L 2906 525 
Q 2725 213 2448 61 
Q 2172 -91 1784 -91 
Q 1150 -91 751 415 
Q 353 922 353 1747 
Q 353 2572 751 3078 
Q 1150 3584 1784 3584 
Q 2172 3584 2448 3432 
Q 2725 3281 2906 2969 
z
M 947 1747 
Q 947 1113 1208 752 
Q 1469 391 1925 391 
Q 2381 391 2643 752 
Q 2906 1113 2906 1747 
Q 2906 2381 2643 2742 
Q 2381 3103 1925 3103 
Q 1469 3103 1208 2742 
Q 947 2381 947 1747 
z
" transform="scale(0.015625)"/>
       <path id="DejaVuSans-73" d="M 2834 3397 
L 2834 2853 
Q 2591 2978 2328 3040 
Q 2066 3103 1784 3103 
Q 1356 3103 1142 2972 
Q 928 2841 928 2578 
Q 928 2378 1081 2264 
Q 1234 2150 1697 2047 
L 1894 2003 
Q 2506 1872 2764 1633 
Q 3022 1394 3022 966 
Q 3022 478 2636 193 
Q 2250 -91 1575 -91 
Q 1294 -91 989 -36 
Q 684 19 347 128 
L 347 722 
Q 666 556 975 473 
Q 1284 391 1588 391 
Q 1994 391 2212 530 
Q 2431 669 2431 922 
Q 2431 1156 2273 1281 
Q 2116 1406 1581 1522 
L 1381 1569 
Q 847 1681 609 1914 
Q 372 2147 372 2553 
Q 372 3047 722 3315 
Q 1072 3584 1716 3584 
Q 2034 3584 2315 3537 
Q 2597 3491 2834 3397 
z
" transform="scale(0.015625)"/>
      </defs>
      <use xlink:href="#DejaVuSans-4e"/>
      <use xlink:href="#DejaVuSans-75" x="74.804688"/>
      <use xlink:href="#DejaVuSans-6d" x="138.183594"/>
      <use xlink:href="#DejaVuSans-62" x="235.595703"/>
      <use xlink:href="#DejaVuSans-65" x="299.072266"/>
      <use xlink:href="#DejaVuSans-72" x="360.595703"/>
      <use xlink:href="#DejaVuSans-20" x="401.708984"/>
      <use xlink:href="#DejaVuSans-6f" x="433.496094"/>
      <use xlink:href="#DejaVuSans-66" x="494.677734"/>
      <use xlink:href="#DejaVuSans-20" x="529.882812"/>
      <use xlink:href="#DejaVuSans-47" x="561.669922"/>
      <use xlink:href="#DejaVuSans-43" x="639.160156"/>
      <use xlink:href="#DejaVuSans-41" x="708.984375"/>
      <use xlink:href="#DejaVuSans-20" x="777.392578"/>
      <use xlink:href="#DejaVuSans-50" x="809.179688"/>
      <use xlink:href="#DejaVuSans-65" x="865.857422"/>
      <use xlink:href="#DejaVuSans-70" x="927.380859"/>
      <use xlink:href="#DejaVuSans-74" x="990.857422"/>
      <use xlink:href="#DejaVuSans-69" x="1030.066406"/>
      <use xlink:href="#DejaVuSans-64" x="1057.849609"/>
      <use xlink:href="#DejaVuSans-65" x="1121.326172"/>
      <use xlink:href="#DejaVuSans-73" x="1182.849609"/>
     </g>
    </g>
   </g>
   <g id="patch_42">
    <path d="M 48.26 416.95 
L 48.26 10.8 
" style="fill: none; stroke: #000000; stroke-width: 0.8; stroke-linejoin: miter; stroke-linecap: square"/>
   </g>
   <g id="patch_43">
    <path d="M 637.2 416.95 
L 637.2 10.8 
" style="fill: none; stroke: #000000; stroke-width: 0.8; stroke-linejoin: miter; stroke-linecap: square"/>
   </g>
   <g id="patch_44">
    <path d="M 48.26 416.95 
L 637.2 416.95 
" style="fill: none; stroke: #000000; stroke-width: 0.8; stroke-linejoin: miter; stroke-linecap: square"/>
   </g>
   <g id="patch_45">
    <path d="M 48.26 10.8 
L 637.2 10.8 
" style="fill: none; stroke: #000000; stroke-width: 0.8; stroke-linejoin: miter; stroke-linecap: square"/>
   </g>
   <g id="text_48">
    <!-- 50 -->
    <g transform="translate(74.187088 28.060789) scale(0.1 -0.1)">
     <use xlink:href="#DejaVuSans-35"/>
     <use xlink:href="#DejaVuSans-30" x="63.623047"/>
    </g>
   </g>
   <g id="text_49">
    <!-- 45 -->
    <g transform="translate(87.986057 66.741741) scale(0.1 -0.1)">
     <use xlink:href="#DejaVuSans-34"/>
     <use xlink:href="#DejaVuSans-35" x="63.623047"/>
    </g>
   </g>
   <g id="text_50">
    <!-- 41 -->
    <g transform="translate(101.785026 97.686503) scale(0.1 -0.1)">
     <use xlink:href="#DejaVuSans-34"/>
     <use xlink:href="#DejaVuSans-31" x="63.623047"/>
    </g>
   </g>
   <g id="text_51">
    <!-- 28 -->
    <g transform="translate(115.583995 198.256979) scale(0.1 -0.1)">
     <use xlink:href="#DejaVuSans-32"/>
     <use xlink:href="#DejaVuSans-38" x="63.623047"/>
    </g>
   </g>
   <g id="text_52">
    <!-- 26 -->
    <g transform="translate(129.382964 213.72936) scale(0.1 -0.1)">
     <use xlink:href="#DejaVuSans-32"/>
     <use xlink:href="#DejaVuSans-36" x="63.623047"/>
    </g>
   </g>
   <g id="text_53">
    <!-- 23 -->
    <g transform="translate(143.181933 236.937932) scale(0.1 -0.1)">
     <use xlink:href="#DejaVuSans-32"/>
     <use xlink:href="#DejaVuSans-33" x="63.623047"/>
    </g>
   </g>
   <g id="text_54">
    <!-- 23 -->
    <g transform="translate(156.980902 236.937932) scale(0.1 -0.1)">
     <use xlink:href="#DejaVuSans-32"/>
     <use xlink:href="#DejaVuSans-33" x="63.623047"/>
    </g>
   </g>
   <g id="text_55">
    <!-- 21 -->
    <g transform="translate(170.779871 252.410312) scale(0.1 -0.1)">
     <use xlink:href="#DejaVuSans-32"/>
     <use xlink:href="#DejaVuSans-31" x="63.623047"/>
    </g>
   </g>
   <g id="text_56">
    <!-- 20 -->
    <g transform="translate(184.57884 260.146503) scale(0.1 -0.1)">
     <use xlink:href="#DejaVuSans-32"/>
     <use xlink:href="#DejaVuSans-30" x="63.623047"/>
    </g>
   </g>
   <g id="text_57">
    <!-- 19 -->
    <g transform="translate(198.377809 267.882693) scale(0.1 -0.1)">
     <use xlink:href="#DejaVuSans-31"/>
     <use xlink:href="#DejaVuSans-39" x="63.623047"/>
    </g>
   </g>
   <g id="text_58">
    <!-- 19 -->
    <g transform="translate(212.176778 267.882693) scale(0.1 -0.1)">
     <use xlink:href="#DejaVuSans-31"/>
     <use xlink:href="#DejaVuSans-39" x="63.623047"/>
    </g>
   </g>
   <g id="text_59">
    <!-- 18 -->
    <g transform="translate(225.975747 275.618884) scale(0.1 -0.1)">
     <use xlink:href="#DejaVuSans-31"/>
     <use xlink:href="#DejaVuSans-38" x="63.623047"/>
    </g>
   </g>
   <g id="text_60">
    <!-- 18 -->
    <g transform="translate(239.774716 275.618884) scale(0.1 -0.1)">
     <use xlink:href="#DejaVuSans-31"/>
     <use xlink:href="#DejaVuSans-38" x="63.623047"/>
    </g>
   </g>
   <g id="text_61">
    <!-- 17 -->
    <g transform="translate(253.573686 283.355074) scale(0.1 -0.1)">
     <defs>
      <path id="DejaVuSans-37" d="M 525 4666 
L 3525 4666 
L 3525 4397 
L 1831 0 
L 1172 0 
L 2766 4134 
L 525 4134 
L 525 4666 
z
" transform="scale(0.015625)"/>
     </defs>
     <use xlink:href="#DejaVuSans-31"/>
     <use xlink:href="#DejaVuSans-37" x="63.623047"/>
    </g>
   </g>
   <g id="text_62">
    <!-- 16 -->
    <g transform="translate(267.372655 291.091265) scale(0.1 -0.1)">
     <use xlink:href="#DejaVuSans-31"/>
     <use xlink:href="#DejaVuSans-36" x="63.623047"/>
    </g>
   </g>
   <g id="text_63">
    <!-- 15 -->
    <g transform="translate(281.171624 298.827455) scale(0.1 -0.1)">
     <use xlink:href="#DejaVuSans-31"/>
     <use xlink:href="#DejaVuSans-35" x="63.623047"/>
    </g>
   </g>
   <g id="text_64">
    <!-- 15 -->
    <g transform="translate(294.970593 298.827455) scale(0.1 -0.1)">
     <use xlink:href="#DejaVuSans-31"/>
     <use xlink:href="#DejaVuSans-35" x="63.623047"/>
    </g>
   </g>
   <g id="text_65">
    <!-- 14 -->
    <g transform="translate(308.769562 306.563646) scale(0.1 -0.1)">
     <use xlink:href="#DejaVuSans-31"/>
     <use xlink:href="#DejaVuSans-34" x="63.623047"/>
    </g>
   </g>
   <g id="text_66">
    <!-- 14 -->
    <g transform="translate(322.568531 306.563646) scale(0.1 -0.1)">
     <use xlink:href="#DejaVuSans-31"/>
     <use xlink:href="#DejaVuSans-34" x="63.623047"/>
    </g>
   </g>
   <g id="text_67">
    <!-- 14 -->
    <g transform="translate(336.3675 306.563646) scale(0.1 -0.1)">
     <use xlink:href="#DejaVuSans-31"/>
     <use xlink:href="#DejaVuSans-34" x="63.623047"/>
    </g>
   </g>
   <g id="text_68">
    <!-- 13 -->
    <g transform="translate(350.166469 314.299836) scale(0.1 -0.1)">
     <use xlink:href="#DejaVuSans-31"/>
     <use xlink:href="#DejaVuSans-33" x="63.623047"/>
    </g>
   </g>
   <g id="text_69">
    <!-- 13 -->
    <g transform="translate(363.965438 314.299836) scale(0.1 -0.1)">
     <use xlink:href="#DejaVuSans-31"/>
     <use xlink:href="#DejaVuSans-33" x="63.623047"/>
    </g>
   </g>
   <g id="text_70">
    <!-- 12 -->
    <g transform="translate(377.764407 322.036027) scale(0.1 -0.1)">
     <use xlink:href="#DejaVuSans-31"/>
     <use xlink:href="#DejaVuSans-32" x="63.623047"/>
    </g>
   </g>
   <g id="text_71">
    <!-- 12 -->
    <g transform="translate(391.563376 322.036027) scale(0.1 -0.1)">
     <use xlink:href="#DejaVuSans-31"/>
     <use xlink:href="#DejaVuSans-32" x="63.623047"/>
    </g>
   </g>
   <g id="text_72">
    <!-- 12 -->
    <g transform="translate(405.362345 322.036027) scale(0.1 -0.1)">
     <use xlink:href="#DejaVuSans-31"/>
     <use xlink:href="#DejaVuSans-32" x="63.623047"/>
    </g>
   </g>
   <g id="text_73">
    <!-- 12 -->
    <g transform="translate(419.161314 322.036027) scale(0.1 -0.1)">
     <use xlink:href="#DejaVuSans-31"/>
     <use xlink:href="#DejaVuSans-32" x="63.623047"/>
    </g>
   </g>
   <g id="text_74">
    <!-- 12 -->
    <g transform="translate(432.960284 322.036027) scale(0.1 -0.1)">
     <use xlink:href="#DejaVuSans-31"/>
     <use xlink:href="#DejaVuSans-32" x="63.623047"/>
    </g>
   </g>
   <g id="text_75">
    <!-- 12 -->
    <g transform="translate(446.759253 322.036027) scale(0.1 -0.1)">
     <use xlink:href="#DejaVuSans-31"/>
     <use xlink:href="#DejaVuSans-32" x="63.623047"/>
    </g>
   </g>
   <g id="text_76">
    <!-- 12 -->
    <g transform="translate(460.558222 322.036027) scale(0.1 -0.1)">
     <use xlink:href="#DejaVuSans-31"/>
     <use xlink:href="#DejaVuSans-32" x="63.623047"/>
    </g>
   </g>
   <g id="text_77">
    <!-- 11 -->
    <g transform="translate(474.357191 329.772217) scale(0.1 -0.1)">
     <use xlink:href="#DejaVuSans-31"/>
     <use xlink:href="#DejaVuSans-31" x="63.623047"/>
    </g>
   </g>
   <g id="text_78">
    <!-- 11 -->
    <g transform="translate(488.15616 329.772217) scale(0.1 -0.1)">
     <use xlink:href="#DejaVuSans-31"/>
     <use xlink:href="#DejaVuSans-31" x="63.623047"/>
    </g>
   </g>
   <g id="text_79">
    <!-- 11 -->
    <g transform="translate(501.955129 329.772217) scale(0.1 -0.1)">
     <use xlink:href="#DejaVuSans-31"/>
     <use xlink:href="#DejaVuSans-31" x="63.623047"/>
    </g>
   </g>
   <g id="text_80">
    <!-- 11 -->
    <g transform="translate(515.754098 329.772217) scale(0.1 -0.1)">
     <use xlink:href="#DejaVuSans-31"/>
     <use xlink:href="#DejaVuSans-31" x="63.623047"/>
    </g>
   </g>
   <g id="text_81">
    <!-- 11 -->
    <g transform="translate(529.553067 329.772217) scale(0.1 -0.1)">
     <use xlink:href="#DejaVuSans-31"/>
     <use xlink:href="#DejaVuSans-31" x="63.623047"/>
    </g>
   </g>
   <g id="text_82">
    <!-- 11 -->
    <g transform="translate(543.352036 329.772217) scale(0.1 -0.1)">
     <use xlink:href="#DejaVuSans-31"/>
     <use xlink:href="#DejaVuSans-31" x="63.623047"/>
    </g>
   </g>
   <g id="text_83">
    <!-- 10 -->
    <g transform="translate(557.151005 337.508408) scale(0.1 -0.1)">
     <use xlink:href="#DejaVuSans-31"/>
     <use xlink:href="#DejaVuSans-30" x="63.623047"/>
    </g>
   </g>
   <g id="text_84">
    <!-- 10 -->
    <g transform="translate(570.949974 337.508408) scale(0.1 -0.1)">
     <use xlink:href="#DejaVuSans-31"/>
     <use xlink:href="#DejaVuSans-30" x="63.623047"/>
    </g>
   </g>
   <g id="text_85">
    <!-- 10 -->
    <g transform="translate(584.748943 337.508408) scale(0.1 -0.1)">
     <use xlink:href="#DejaVuSans-31"/>
     <use xlink:href="#DejaVuSans-30" x="63.623047"/>
    </g>
   </g>
   <g id="text_86">
    <!-- 10 -->
    <g transform="translate(598.547912 337.508408) scale(0.1 -0.1)">
     <use xlink:href="#DejaVuSans-31"/>
     <use xlink:href="#DejaVuSans-30" x="63.623047"/>
    </g>
   </g>
  </g>
 </g>
 <defs>
  <clipPath id="pd20e9bd723">
   <rect x="48.26" y="10.8" width="588.94" height="406.15"/>
  </clipPath>
 </defs>
</svg>
