<?xml version="1.0" encoding="utf-8" standalone="no"?>
<!DOCTYPE svg PUBLIC "-//W3C//DTD SVG 1.1//EN"
  "http://www.w3.org/Graphics/SVG/1.1/DTD/svg11.dtd">
<svg xmlns:xlink="http://www.w3.org/1999/xlink" width="460.8pt" height="345.6pt" viewBox="0 0 460.8 345.6" xmlns="http://www.w3.org/2000/svg" version="1.1">
 <metadata>
  <rdf:RDF xmlns:dc="http://purl.org/dc/elements/1.1/" xmlns:cc="http://creativecommons.org/ns#" xmlns:rdf="http://www.w3.org/1999/02/22-rdf-syntax-ns#">
   <cc:Work>
    <dc:type rdf:resource="http://purl.org/dc/dcmitype/StillImage"/>
    <dc:date>2023-12-11T22:48:00.370714</dc:date>
    <dc:format>image/svg+xml</dc:format>
    <dc:creator>
     <cc:Agent>
      <dc:title>Matplotlib v3.7.1, https://matplotlib.org/</dc:title>
     </cc:Agent>
    </dc:creator>
   </cc:Work>
  </rdf:RDF>
 </metadata>
 <defs>
  <style type="text/css">*{stroke-linejoin: round; stroke-linecap: butt}</style>
 </defs>
 <g id="figure_1">
  <g id="patch_1">
   <path d="M 0 345.6 
L 460.8 345.6 
L 460.8 0 
L 0 0 
z
" style="fill: #ffffff"/>
  </g>
  <g id="axes_1">
   <g id="patch_2">
    <path d="M 306.601458 260.885488 
C 290.77498 272.062834 272.176272 278.677299 252.846171 280.003075 
C 233.51607 281.328851 214.18845 277.315607 196.984129 268.403714 
C 179.779808 259.491821 165.351955 246.019623 155.283738 229.465425 
C 145.21552 212.911226 139.889182 193.903513 139.889182 174.528 
C 139.889182 155.152487 145.21552 136.144774 155.283738 119.590575 
C 165.351955 103.036377 179.779808 89.564179 196.984129 80.652286 
C 214.18845 71.740393 233.51607 67.727149 252.846171 69.052925 
C 272.176272 70.378701 290.77498 76.993166 306.601458 88.170512 
C 290.151774 74.318661 270.081728 65.451071 248.764373 62.616235 
C 227.447018 59.781399 205.757004 63.095629 186.258923 72.167055 
C 166.760843 81.238482 150.254702 95.694905 138.692161 113.827019 
C 127.12962 131.959133 120.98509 153.022979 120.98509 174.528 
C 120.98509 196.033021 127.12962 217.096867 138.692161 235.228981 
C 150.254702 253.361095 166.760843 267.817518 186.258923 276.888945 
C 205.757004 285.960371 227.447018 289.274601 248.764373 286.439765 
C 270.081728 283.604929 290.151774 274.737339 306.601458 260.885488 
" clip-path="url(#p8ccda42b6f)" style="fill: #ff0000; opacity: 0.4"/>
   </g>
   <g id="patch_3">
    <path d="M 306.601458 88.170512 
C 319.18587 98.767519 329.303142 111.988352 336.243006 126.904862 
C 343.18287 141.821372 346.779034 158.076131 346.779034 174.528 
C 346.779034 190.979869 343.18287 207.234628 336.243006 222.151138 
C 329.303142 237.067648 319.18587 250.288481 306.601458 260.885488 
C 320.424674 251.122932 331.703905 238.182573 339.48776 223.155917 
C 347.271615 208.129262 351.33491 191.451025 351.33491 174.528 
C 351.33491 157.604975 347.271615 140.926738 339.48776 125.900083 
C 331.703905 110.873427 320.424674 97.933068 306.601458 88.170512 
" clip-path="url(#p8ccda42b6f)" style="fill: #008000; opacity: 0.4"/>
   </g>
   <g id="patch_4">
    <path d="M 306.601458 260.885488 
C 319.18587 250.288481 329.303142 237.067648 336.243006 222.151138 
C 343.18287 207.234628 346.779034 190.979869 346.779034 174.528 
C 346.779034 158.076131 343.18287 141.821372 336.243006 126.904862 
C 329.303142 111.988352 319.18587 98.767519 306.601458 88.170512 
C 290.77498 76.993166 272.176272 70.378701 252.846171 69.052925 
C 233.51607 67.727149 214.18845 71.740393 196.984129 80.652286 
C 179.779808 89.564179 165.351955 103.036377 155.283738 119.590575 
C 145.21552 136.144774 139.889182 155.152487 139.889182 174.528 
C 139.889182 193.903513 145.21552 212.911226 155.283738 229.465425 
C 165.351955 246.019623 179.779808 259.491821 196.984129 268.403714 
C 214.18845 277.315607 233.51607 281.328851 252.846171 280.003075 
C 272.176272 278.677299 290.77498 272.062834 306.601458 260.885488 
" clip-path="url(#p8ccda42b6f)" style="fill: #b25900; opacity: 0.4"/>
   </g>
   <g id="text_1">
    <!-- GCA -->
    <g transform="translate(119.651198 171.688469) scale(0.1 -0.1)">
     <defs>
      <path id="DejaVuSans-47" d="M 3809 666 
L 3809 1919 
L 2778 1919 
L 2778 2438 
L 4434 2438 
L 4434 434 
Q 4069 175 3628 42 
Q 3188 -91 2688 -91 
Q 1594 -91 976 548 
Q 359 1188 359 2328 
Q 359 3472 976 4111 
Q 1594 4750 2688 4750 
Q 3144 4750 3555 4637 
Q 3966 4525 4313 4306 
L 4313 3634 
Q 3963 3931 3569 4081 
Q 3175 4231 2741 4231 
Q 1884 4231 1454 3753 
Q 1025 3275 1025 2328 
Q 1025 1384 1454 906 
Q 1884 428 2741 428 
Q 3075 428 3337 486 
Q 3600 544 3809 666 
z
" transform="scale(0.015625)"/>
      <path id="DejaVuSans-43" d="M 4122 4306 
L 4122 3641 
Q 3803 3938 3442 4084 
Q 3081 4231 2675 4231 
Q 1875 4231 1450 3742 
Q 1025 3253 1025 2328 
Q 1025 1406 1450 917 
Q 1875 428 2675 428 
Q 3081 428 3442 575 
Q 3803 722 4122 1019 
L 4122 359 
Q 3791 134 3420 21 
Q 3050 -91 2638 -91 
Q 1578 -91 968 557 
Q 359 1206 359 2328 
Q 359 3453 968 4101 
Q 1578 4750 2638 4750 
Q 3056 4750 3426 4639 
Q 3797 4528 4122 4306 
z
" transform="scale(0.015625)"/>
      <path id="DejaVuSans-41" d="M 2188 4044 
L 1331 1722 
L 3047 1722 
L 2188 4044 
z
M 1831 4666 
L 2547 4666 
L 4325 0 
L 3669 0 
L 3244 1197 
L 1141 1197 
L 716 0 
L 50 0 
L 1831 4666 
z
" transform="scale(0.015625)"/>
     </defs>
     <use xlink:href="#DejaVuSans-47"/>
     <use xlink:href="#DejaVuSans-43" x="77.490234"/>
     <use xlink:href="#DejaVuSans-41" x="147.314453"/>
    </g>
    <!-- (123142) -->
    <g transform="translate(107.448073 182.886281) scale(0.1 -0.1)">
     <defs>
      <path id="DejaVuSans-28" d="M 1984 4856 
Q 1566 4138 1362 3434 
Q 1159 2731 1159 2009 
Q 1159 1288 1364 580 
Q 1569 -128 1984 -844 
L 1484 -844 
Q 1016 -109 783 600 
Q 550 1309 550 2009 
Q 550 2706 781 3412 
Q 1013 4119 1484 4856 
L 1984 4856 
z
" transform="scale(0.015625)"/>
      <path id="DejaVuSans-31" d="M 794 531 
L 1825 531 
L 1825 4091 
L 703 3866 
L 703 4441 
L 1819 4666 
L 2450 4666 
L 2450 531 
L 3481 531 
L 3481 0 
L 794 0 
L 794 531 
z
" transform="scale(0.015625)"/>
      <path id="DejaVuSans-32" d="M 1228 531 
L 3431 531 
L 3431 0 
L 469 0 
L 469 531 
Q 828 903 1448 1529 
Q 2069 2156 2228 2338 
Q 2531 2678 2651 2914 
Q 2772 3150 2772 3378 
Q 2772 3750 2511 3984 
Q 2250 4219 1831 4219 
Q 1534 4219 1204 4116 
Q 875 4013 500 3803 
L 500 4441 
Q 881 4594 1212 4672 
Q 1544 4750 1819 4750 
Q 2544 4750 2975 4387 
Q 3406 4025 3406 3419 
Q 3406 3131 3298 2873 
Q 3191 2616 2906 2266 
Q 2828 2175 2409 1742 
Q 1991 1309 1228 531 
z
" transform="scale(0.015625)"/>
      <path id="DejaVuSans-33" d="M 2597 2516 
Q 3050 2419 3304 2112 
Q 3559 1806 3559 1356 
Q 3559 666 3084 287 
Q 2609 -91 1734 -91 
Q 1441 -91 1130 -33 
Q 819 25 488 141 
L 488 750 
Q 750 597 1062 519 
Q 1375 441 1716 441 
Q 2309 441 2620 675 
Q 2931 909 2931 1356 
Q 2931 1769 2642 2001 
Q 2353 2234 1838 2234 
L 1294 2234 
L 1294 2753 
L 1863 2753 
Q 2328 2753 2575 2939 
Q 2822 3125 2822 3475 
Q 2822 3834 2567 4026 
Q 2313 4219 1838 4219 
Q 1578 4219 1281 4162 
Q 984 4106 628 3988 
L 628 4550 
Q 988 4650 1302 4700 
Q 1616 4750 1894 4750 
Q 2613 4750 3031 4423 
Q 3450 4097 3450 3541 
Q 3450 3153 3228 2886 
Q 3006 2619 2597 2516 
z
" transform="scale(0.015625)"/>
      <path id="DejaVuSans-34" d="M 2419 4116 
L 825 1625 
L 2419 1625 
L 2419 4116 
z
M 2253 4666 
L 3047 4666 
L 3047 1625 
L 3713 1625 
L 3713 1100 
L 3047 1100 
L 3047 0 
L 2419 0 
L 2419 1100 
L 313 1100 
L 313 1709 
L 2253 4666 
z
" transform="scale(0.015625)"/>
      <path id="DejaVuSans-29" d="M 513 4856 
L 1013 4856 
Q 1481 4119 1714 3412 
Q 1947 2706 1947 2009 
Q 1947 1309 1714 600 
Q 1481 -109 1013 -844 
L 513 -844 
Q 928 -128 1133 580 
Q 1338 1288 1338 2009 
Q 1338 2731 1133 3434 
Q 928 4138 513 4856 
z
" transform="scale(0.015625)"/>
     </defs>
     <use xlink:href="#DejaVuSans-28"/>
     <use xlink:href="#DejaVuSans-31" x="39.013672"/>
     <use xlink:href="#DejaVuSans-32" x="102.636719"/>
     <use xlink:href="#DejaVuSans-33" x="166.259766"/>
     <use xlink:href="#DejaVuSans-31" x="229.882812"/>
     <use xlink:href="#DejaVuSans-34" x="293.505859"/>
     <use xlink:href="#DejaVuSans-32" x="357.128906"/>
     <use xlink:href="#DejaVuSans-29" x="420.751953"/>
    </g>
   </g>
   <g id="text_2">
    <!-- GRCh38 -->
    <g transform="translate(328.935878 171.688469) scale(0.1 -0.1)">
     <defs>
      <path id="DejaVuSans-52" d="M 2841 2188 
Q 3044 2119 3236 1894 
Q 3428 1669 3622 1275 
L 4263 0 
L 3584 0 
L 2988 1197 
Q 2756 1666 2539 1819 
Q 2322 1972 1947 1972 
L 1259 1972 
L 1259 0 
L 628 0 
L 628 4666 
L 2053 4666 
Q 2853 4666 3247 4331 
Q 3641 3997 3641 3322 
Q 3641 2881 3436 2590 
Q 3231 2300 2841 2188 
z
M 1259 4147 
L 1259 2491 
L 2053 2491 
Q 2509 2491 2742 2702 
Q 2975 2913 2975 3322 
Q 2975 3731 2742 3939 
Q 2509 4147 2053 4147 
L 1259 4147 
z
" transform="scale(0.015625)"/>
      <path id="DejaVuSans-68" d="M 3513 2113 
L 3513 0 
L 2938 0 
L 2938 2094 
Q 2938 2591 2744 2837 
Q 2550 3084 2163 3084 
Q 1697 3084 1428 2787 
Q 1159 2491 1159 1978 
L 1159 0 
L 581 0 
L 581 4863 
L 1159 4863 
L 1159 2956 
Q 1366 3272 1645 3428 
Q 1925 3584 2291 3584 
Q 2894 3584 3203 3211 
Q 3513 2838 3513 2113 
z
" transform="scale(0.015625)"/>
      <path id="DejaVuSans-38" d="M 2034 2216 
Q 1584 2216 1326 1975 
Q 1069 1734 1069 1313 
Q 1069 891 1326 650 
Q 1584 409 2034 409 
Q 2484 409 2743 651 
Q 3003 894 3003 1313 
Q 3003 1734 2745 1975 
Q 2488 2216 2034 2216 
z
M 1403 2484 
Q 997 2584 770 2862 
Q 544 3141 544 3541 
Q 544 4100 942 4425 
Q 1341 4750 2034 4750 
Q 2731 4750 3128 4425 
Q 3525 4100 3525 3541 
Q 3525 3141 3298 2862 
Q 3072 2584 2669 2484 
Q 3125 2378 3379 2068 
Q 3634 1759 3634 1313 
Q 3634 634 3220 271 
Q 2806 -91 2034 -91 
Q 1263 -91 848 271 
Q 434 634 434 1313 
Q 434 1759 690 2068 
Q 947 2378 1403 2484 
z
M 1172 3481 
Q 1172 3119 1398 2916 
Q 1625 2713 2034 2713 
Q 2441 2713 2670 2916 
Q 2900 3119 2900 3481 
Q 2900 3844 2670 4047 
Q 2441 4250 2034 4250 
Q 1625 4250 1398 4047 
Q 1172 3844 1172 3481 
z
" transform="scale(0.015625)"/>
     </defs>
     <use xlink:href="#DejaVuSans-47"/>
     <use xlink:href="#DejaVuSans-52" x="77.490234"/>
     <use xlink:href="#DejaVuSans-43" x="141.972656"/>
     <use xlink:href="#DejaVuSans-68" x="211.796875"/>
     <use xlink:href="#DejaVuSans-33" x="275.175781"/>
     <use xlink:href="#DejaVuSans-38" x="338.798828"/>
    </g>
    <!-- (13303) -->
    <g transform="translate(329.24916 182.886281) scale(0.1 -0.1)">
     <defs>
      <path id="DejaVuSans-30" d="M 2034 4250 
Q 1547 4250 1301 3770 
Q 1056 3291 1056 2328 
Q 1056 1369 1301 889 
Q 1547 409 2034 409 
Q 2525 409 2770 889 
Q 3016 1369 3016 2328 
Q 3016 3291 2770 3770 
Q 2525 4250 2034 4250 
z
M 2034 4750 
Q 2819 4750 3233 4129 
Q 3647 3509 3647 2328 
Q 3647 1150 3233 529 
Q 2819 -91 2034 -91 
Q 1250 -91 836 529 
Q 422 1150 422 2328 
Q 422 3509 836 4129 
Q 1250 4750 2034 4750 
z
" transform="scale(0.015625)"/>
     </defs>
     <use xlink:href="#DejaVuSans-28"/>
     <use xlink:href="#DejaVuSans-31" x="39.013672"/>
     <use xlink:href="#DejaVuSans-33" x="102.636719"/>
     <use xlink:href="#DejaVuSans-33" x="166.259766"/>
     <use xlink:href="#DejaVuSans-30" x="229.882812"/>
     <use xlink:href="#DejaVuSans-33" x="293.505859"/>
     <use xlink:href="#DejaVuSans-29" x="357.128906"/>
    </g>
   </g>
   <g id="text_3">
    <!-- GCA and GRCh38 -->
    <g transform="translate(199.84192 171.688469) scale(0.1 -0.1)">
     <defs>
      <path id="DejaVuSans-20" transform="scale(0.015625)"/>
      <path id="DejaVuSans-61" d="M 2194 1759 
Q 1497 1759 1228 1600 
Q 959 1441 959 1056 
Q 959 750 1161 570 
Q 1363 391 1709 391 
Q 2188 391 2477 730 
Q 2766 1069 2766 1631 
L 2766 1759 
L 2194 1759 
z
M 3341 1997 
L 3341 0 
L 2766 0 
L 2766 531 
Q 2569 213 2275 61 
Q 1981 -91 1556 -91 
Q 1019 -91 701 211 
Q 384 513 384 1019 
Q 384 1609 779 1909 
Q 1175 2209 1959 2209 
L 2766 2209 
L 2766 2266 
Q 2766 2663 2505 2880 
Q 2244 3097 1772 3097 
Q 1472 3097 1187 3025 
Q 903 2953 641 2809 
L 641 3341 
Q 956 3463 1253 3523 
Q 1550 3584 1831 3584 
Q 2591 3584 2966 3190 
Q 3341 2797 3341 1997 
z
" transform="scale(0.015625)"/>
      <path id="DejaVuSans-6e" d="M 3513 2113 
L 3513 0 
L 2938 0 
L 2938 2094 
Q 2938 2591 2744 2837 
Q 2550 3084 2163 3084 
Q 1697 3084 1428 2787 
Q 1159 2491 1159 1978 
L 1159 0 
L 581 0 
L 581 3500 
L 1159 3500 
L 1159 2956 
Q 1366 3272 1645 3428 
Q 1925 3584 2291 3584 
Q 2894 3584 3203 3211 
Q 3513 2838 3513 2113 
z
" transform="scale(0.015625)"/>
      <path id="DejaVuSans-64" d="M 2906 2969 
L 2906 4863 
L 3481 4863 
L 3481 0 
L 2906 0 
L 2906 525 
Q 2725 213 2448 61 
Q 2172 -91 1784 -91 
Q 1150 -91 751 415 
Q 353 922 353 1747 
Q 353 2572 751 3078 
Q 1150 3584 1784 3584 
Q 2172 3584 2448 3432 
Q 2725 3281 2906 2969 
z
M 947 1747 
Q 947 1113 1208 752 
Q 1469 391 1925 391 
Q 2381 391 2643 752 
Q 2906 1113 2906 1747 
Q 2906 2381 2643 2742 
Q 2381 3103 1925 3103 
Q 1469 3103 1208 2742 
Q 947 2381 947 1747 
z
" transform="scale(0.015625)"/>
     </defs>
     <use xlink:href="#DejaVuSans-47"/>
     <use xlink:href="#DejaVuSans-43" x="77.490234"/>
     <use xlink:href="#DejaVuSans-41" x="147.314453"/>
     <use xlink:href="#DejaVuSans-20" x="215.722656"/>
     <use xlink:href="#DejaVuSans-61" x="247.509766"/>
     <use xlink:href="#DejaVuSans-6e" x="308.789062"/>
     <use xlink:href="#DejaVuSans-64" x="372.167969"/>
     <use xlink:href="#DejaVuSans-20" x="435.644531"/>
     <use xlink:href="#DejaVuSans-47" x="467.431641"/>
     <use xlink:href="#DejaVuSans-52" x="544.921875"/>
     <use xlink:href="#DejaVuSans-43" x="609.404297"/>
     <use xlink:href="#DejaVuSans-68" x="679.228516"/>
     <use xlink:href="#DejaVuSans-33" x="742.607422"/>
     <use xlink:href="#DejaVuSans-38" x="806.230469"/>
    </g>
    <!-- (769472) -->
    <g transform="translate(220.345045 182.886281) scale(0.1 -0.1)">
     <defs>
      <path id="DejaVuSans-37" d="M 525 4666 
L 3525 4666 
L 3525 4397 
L 1831 0 
L 1172 0 
L 2766 4134 
L 525 4134 
L 525 4666 
z
" transform="scale(0.015625)"/>
      <path id="DejaVuSans-36" d="M 2113 2584 
Q 1688 2584 1439 2293 
Q 1191 2003 1191 1497 
Q 1191 994 1439 701 
Q 1688 409 2113 409 
Q 2538 409 2786 701 
Q 3034 994 3034 1497 
Q 3034 2003 2786 2293 
Q 2538 2584 2113 2584 
z
M 3366 4563 
L 3366 3988 
Q 3128 4100 2886 4159 
Q 2644 4219 2406 4219 
Q 1781 4219 1451 3797 
Q 1122 3375 1075 2522 
Q 1259 2794 1537 2939 
Q 1816 3084 2150 3084 
Q 2853 3084 3261 2657 
Q 3669 2231 3669 1497 
Q 3669 778 3244 343 
Q 2819 -91 2113 -91 
Q 1303 -91 875 529 
Q 447 1150 447 2328 
Q 447 3434 972 4092 
Q 1497 4750 2381 4750 
Q 2619 4750 2861 4703 
Q 3103 4656 3366 4563 
z
" transform="scale(0.015625)"/>
      <path id="DejaVuSans-39" d="M 703 97 
L 703 672 
Q 941 559 1184 500 
Q 1428 441 1663 441 
Q 2288 441 2617 861 
Q 2947 1281 2994 2138 
Q 2813 1869 2534 1725 
Q 2256 1581 1919 1581 
Q 1219 1581 811 2004 
Q 403 2428 403 3163 
Q 403 3881 828 4315 
Q 1253 4750 1959 4750 
Q 2769 4750 3195 4129 
Q 3622 3509 3622 2328 
Q 3622 1225 3098 567 
Q 2575 -91 1691 -91 
Q 1453 -91 1209 -44 
Q 966 3 703 97 
z
M 1959 2075 
Q 2384 2075 2632 2365 
Q 2881 2656 2881 3163 
Q 2881 3666 2632 3958 
Q 2384 4250 1959 4250 
Q 1534 4250 1286 3958 
Q 1038 3666 1038 3163 
Q 1038 2656 1286 2365 
Q 1534 2075 1959 2075 
z
" transform="scale(0.015625)"/>
     </defs>
     <use xlink:href="#DejaVuSans-28"/>
     <use xlink:href="#DejaVuSans-37" x="39.013672"/>
     <use xlink:href="#DejaVuSans-36" x="102.636719"/>
     <use xlink:href="#DejaVuSans-39" x="166.259766"/>
     <use xlink:href="#DejaVuSans-34" x="229.882812"/>
     <use xlink:href="#DejaVuSans-37" x="293.505859"/>
     <use xlink:href="#DejaVuSans-32" x="357.128906"/>
     <use xlink:href="#DejaVuSans-29" x="420.751953"/>
    </g>
   </g>
   <g id="text_4">
    <!-- GCA -->
    <g transform="translate(207.995812 307.474089) scale(0.12 -0.12)">
     <use xlink:href="#DejaVuSans-47"/>
     <use xlink:href="#DejaVuSans-43" x="77.490234"/>
     <use xlink:href="#DejaVuSans-41" x="147.314453"/>
    </g>
   </g>
   <g id="text_5">
    <!-- GRCh38 -->
    <g transform="translate(245.612046 300.299981) scale(0.12 -0.12)">
     <use xlink:href="#DejaVuSans-47"/>
     <use xlink:href="#DejaVuSans-52" x="77.490234"/>
     <use xlink:href="#DejaVuSans-43" x="141.972656"/>
     <use xlink:href="#DejaVuSans-68" x="211.796875"/>
     <use xlink:href="#DejaVuSans-33" x="275.175781"/>
     <use xlink:href="#DejaVuSans-38" x="338.798828"/>
    </g>
   </g>
  </g>
 </g>
 <defs>
  <clipPath id="p8ccda42b6f">
   <rect x="100.826062" y="41.472" width="270.667877" height="266.112"/>
  </clipPath>
 </defs>
</svg>
