<?xml version="1.0" encoding="utf-8" standalone="no"?>
<!DOCTYPE svg PUBLIC "-//W3C//DTD SVG 1.1//EN"
  "http://www.w3.org/Graphics/SVG/1.1/DTD/svg11.dtd">
<svg xmlns:xlink="http://www.w3.org/1999/xlink" width="460.8pt" height="345.6pt" viewBox="0 0 460.8 345.6" xmlns="http://www.w3.org/2000/svg" version="1.1">
 <metadata>
  <rdf:RDF xmlns:dc="http://purl.org/dc/elements/1.1/" xmlns:cc="http://creativecommons.org/ns#" xmlns:rdf="http://www.w3.org/1999/02/22-rdf-syntax-ns#">
   <cc:Work>
    <dc:type rdf:resource="http://purl.org/dc/dcmitype/StillImage"/>
    <dc:date>2024-05-10T15:07:37.161129</dc:date>
    <dc:format>image/svg+xml</dc:format>
    <dc:creator>
     <cc:Agent>
      <dc:title>Matplotlib v3.7.3, https://matplotlib.org/</dc:title>
     </cc:Agent>
    </dc:creator>
   </cc:Work>
  </rdf:RDF>
 </metadata>
 <defs>
  <style type="text/css">*{stroke-linejoin: round; stroke-linecap: butt}</style>
 </defs>
 <g id="figure_1">
  <g id="patch_1">
   <path d="M 0 345.6 
L 460.8 345.6 
L 460.8 0 
L 0 0 
z
" style="fill: #ffffff"/>
  </g>
  <g id="axes_1">
   <g id="patch_2">
    <path d="M 327.452514 227.39447 
C 318.075271 233.085205 307.350624 236.179832 296.38318 236.359613 
C 285.415737 236.539394 274.595423 233.797937 265.036701 228.417605 
C 255.477979 223.037273 247.52069 215.209353 241.984413 205.740099 
C 236.448136 196.270845 233.529703 185.496917 233.529703 174.528 
C 233.529703 163.559083 236.448136 152.785155 241.984413 143.315901 
C 247.52069 133.846647 255.477979 126.018727 265.036701 120.638395 
C 274.595423 115.258063 285.415737 112.516606 296.38318 112.696387 
C 307.350624 112.876168 318.075271 115.970795 327.452514 121.66153 
C 321.593928 110.625113 313.941324 100.638926 304.808095 92.11193 
C 295.674866 83.584934 285.187414 76.635141 273.775227 71.547162 
C 262.363041 66.459183 250.184062 63.303436 237.73705 62.209156 
C 225.290039 61.114875 212.747261 62.097207 200.622373 65.115921 
C 188.497486 68.134636 176.958295 73.147954 166.477362 79.950569 
C 155.996429 86.753184 146.718806 95.250948 139.024437 105.095856 
C 131.330068 114.940764 125.32544 125.996565 121.25646 137.810494 
C 117.187479 149.624424 115.110459 162.03298 115.110459 174.528 
C 115.110459 187.02302 117.187479 199.431576 121.25646 211.245506 
C 125.32544 223.059435 131.330068 234.115236 139.024437 243.960144 
C 146.718806 253.805052 155.996429 262.302816 166.477362 269.105431 
C 176.958295 275.908046 188.497486 280.921364 200.622373 283.940079 
C 212.747261 286.958793 225.290039 287.941125 237.73705 286.846844 
C 250.184062 285.752564 262.363041 282.596817 273.775227 277.508838 
C 285.187414 272.420859 295.674866 265.471066 304.808095 256.94407 
C 313.941324 248.417074 321.593928 238.430887 327.452514 227.39447 
" clip-path="url(#pec0a8bfd68)" style="fill: #ff0000; opacity: 0.4"/>
   </g>
   <g id="patch_3">
    <path d="M 327.452514 121.66153 
C 336.094833 137.941952 340.614596 156.095914 340.614596 174.528 
C 340.614596 192.960086 336.094833 211.114048 327.452514 227.39447 
C 336.536068 221.881965 344.047403 214.120271 349.259227 204.860921 
C 354.471051 195.601571 357.209541 185.153379 357.209541 174.528 
C 357.209541 163.902621 354.471051 153.454429 349.259227 144.195079 
C 344.047403 134.935729 336.536068 127.174035 327.452514 121.66153 
" clip-path="url(#pec0a8bfd68)" style="fill: #008000; opacity: 0.4"/>
   </g>
   <g id="patch_4">
    <path d="M 327.452514 227.39447 
C 336.094833 211.114048 340.614596 192.960086 340.614596 174.528 
C 340.614596 156.095914 336.094833 137.941952 327.452514 121.66153 
C 318.075271 115.970795 307.350624 112.876168 296.38318 112.696387 
C 285.415737 112.516606 274.595423 115.258063 265.036701 120.638395 
C 255.477979 126.018727 247.52069 133.846647 241.984413 143.315901 
C 236.448136 152.785155 233.529703 163.559083 233.529703 174.528 
C 233.529703 185.496917 236.448136 196.270845 241.984413 205.740099 
C 247.52069 215.209353 255.477979 223.037273 265.036701 228.417605 
C 274.595423 233.797937 285.415737 236.539394 296.38318 236.359613 
C 307.350624 236.179832 318.075271 233.085205 327.452514 227.39447 
" clip-path="url(#pec0a8bfd68)" style="fill: #b25900; opacity: 0.4"/>
   </g>
   <g id="text_1">
    <!-- GCA -->
    <g transform="translate(163.534143 171.688469) scale(0.1 -0.1)">
     <defs>
      <path id="DejaVuSans-47" d="M 3809 666 
L 3809 1919 
L 2778 1919 
L 2778 2438 
L 4434 2438 
L 4434 434 
Q 4069 175 3628 42 
Q 3188 -91 2688 -91 
Q 1594 -91 976 548 
Q 359 1188 359 2328 
Q 359 3472 976 4111 
Q 1594 4750 2688 4750 
Q 3144 4750 3555 4637 
Q 3966 4525 4313 4306 
L 4313 3634 
Q 3963 3931 3569 4081 
Q 3175 4231 2741 4231 
Q 1884 4231 1454 3753 
Q 1025 3275 1025 2328 
Q 1025 1384 1454 906 
Q 1884 428 2741 428 
Q 3075 428 3337 486 
Q 3600 544 3809 666 
z
" transform="scale(0.015625)"/>
      <path id="DejaVuSans-43" d="M 4122 4306 
L 4122 3641 
Q 3803 3938 3442 4084 
Q 3081 4231 2675 4231 
Q 1875 4231 1450 3742 
Q 1025 3253 1025 2328 
Q 1025 1406 1450 917 
Q 1875 428 2675 428 
Q 3081 428 3442 575 
Q 3803 722 4122 1019 
L 4122 359 
Q 3791 134 3420 21 
Q 3050 -91 2638 -91 
Q 1578 -91 968 557 
Q 359 1206 359 2328 
Q 359 3453 968 4101 
Q 1578 4750 2638 4750 
Q 3056 4750 3426 4639 
Q 3797 4528 4122 4306 
z
" transform="scale(0.015625)"/>
      <path id="DejaVuSans-41" d="M 2188 4044 
L 1331 1722 
L 3047 1722 
L 2188 4044 
z
M 1831 4666 
L 2547 4666 
L 4325 0 
L 3669 0 
L 3244 1197 
L 1141 1197 
L 716 0 
L 50 0 
L 1831 4666 
z
" transform="scale(0.015625)"/>
     </defs>
     <use xlink:href="#DejaVuSans-47"/>
     <use xlink:href="#DejaVuSans-43" x="77.490234"/>
     <use xlink:href="#DejaVuSans-41" x="147.314453"/>
    </g>
    <!-- (233746) -->
    <g transform="translate(151.331018 182.886281) scale(0.1 -0.1)">
     <defs>
      <path id="DejaVuSans-28" d="M 1984 4856 
Q 1566 4138 1362 3434 
Q 1159 2731 1159 2009 
Q 1159 1288 1364 580 
Q 1569 -128 1984 -844 
L 1484 -844 
Q 1016 -109 783 600 
Q 550 1309 550 2009 
Q 550 2706 781 3412 
Q 1013 4119 1484 4856 
L 1984 4856 
z
" transform="scale(0.015625)"/>
      <path id="DejaVuSans-32" d="M 1228 531 
L 3431 531 
L 3431 0 
L 469 0 
L 469 531 
Q 828 903 1448 1529 
Q 2069 2156 2228 2338 
Q 2531 2678 2651 2914 
Q 2772 3150 2772 3378 
Q 2772 3750 2511 3984 
Q 2250 4219 1831 4219 
Q 1534 4219 1204 4116 
Q 875 4013 500 3803 
L 500 4441 
Q 881 4594 1212 4672 
Q 1544 4750 1819 4750 
Q 2544 4750 2975 4387 
Q 3406 4025 3406 3419 
Q 3406 3131 3298 2873 
Q 3191 2616 2906 2266 
Q 2828 2175 2409 1742 
Q 1991 1309 1228 531 
z
" transform="scale(0.015625)"/>
      <path id="DejaVuSans-33" d="M 2597 2516 
Q 3050 2419 3304 2112 
Q 3559 1806 3559 1356 
Q 3559 666 3084 287 
Q 2609 -91 1734 -91 
Q 1441 -91 1130 -33 
Q 819 25 488 141 
L 488 750 
Q 750 597 1062 519 
Q 1375 441 1716 441 
Q 2309 441 2620 675 
Q 2931 909 2931 1356 
Q 2931 1769 2642 2001 
Q 2353 2234 1838 2234 
L 1294 2234 
L 1294 2753 
L 1863 2753 
Q 2328 2753 2575 2939 
Q 2822 3125 2822 3475 
Q 2822 3834 2567 4026 
Q 2313 4219 1838 4219 
Q 1578 4219 1281 4162 
Q 984 4106 628 3988 
L 628 4550 
Q 988 4650 1302 4700 
Q 1616 4750 1894 4750 
Q 2613 4750 3031 4423 
Q 3450 4097 3450 3541 
Q 3450 3153 3228 2886 
Q 3006 2619 2597 2516 
z
" transform="scale(0.015625)"/>
      <path id="DejaVuSans-37" d="M 525 4666 
L 3525 4666 
L 3525 4397 
L 1831 0 
L 1172 0 
L 2766 4134 
L 525 4134 
L 525 4666 
z
" transform="scale(0.015625)"/>
      <path id="DejaVuSans-34" d="M 2419 4116 
L 825 1625 
L 2419 1625 
L 2419 4116 
z
M 2253 4666 
L 3047 4666 
L 3047 1625 
L 3713 1625 
L 3713 1100 
L 3047 1100 
L 3047 0 
L 2419 0 
L 2419 1100 
L 313 1100 
L 313 1709 
L 2253 4666 
z
" transform="scale(0.015625)"/>
      <path id="DejaVuSans-36" d="M 2113 2584 
Q 1688 2584 1439 2293 
Q 1191 2003 1191 1497 
Q 1191 994 1439 701 
Q 1688 409 2113 409 
Q 2538 409 2786 701 
Q 3034 994 3034 1497 
Q 3034 2003 2786 2293 
Q 2538 2584 2113 2584 
z
M 3366 4563 
L 3366 3988 
Q 3128 4100 2886 4159 
Q 2644 4219 2406 4219 
Q 1781 4219 1451 3797 
Q 1122 3375 1075 2522 
Q 1259 2794 1537 2939 
Q 1816 3084 2150 3084 
Q 2853 3084 3261 2657 
Q 3669 2231 3669 1497 
Q 3669 778 3244 343 
Q 2819 -91 2113 -91 
Q 1303 -91 875 529 
Q 447 1150 447 2328 
Q 447 3434 972 4092 
Q 1497 4750 2381 4750 
Q 2619 4750 2861 4703 
Q 3103 4656 3366 4563 
z
" transform="scale(0.015625)"/>
      <path id="DejaVuSans-29" d="M 513 4856 
L 1013 4856 
Q 1481 4119 1714 3412 
Q 1947 2706 1947 2009 
Q 1947 1309 1714 600 
Q 1481 -109 1013 -844 
L 513 -844 
Q 928 -128 1133 580 
Q 1338 1288 1338 2009 
Q 1338 2731 1133 3434 
Q 928 4138 513 4856 
z
" transform="scale(0.015625)"/>
     </defs>
     <use xlink:href="#DejaVuSans-28"/>
     <use xlink:href="#DejaVuSans-32" x="39.013672"/>
     <use xlink:href="#DejaVuSans-33" x="102.636719"/>
     <use xlink:href="#DejaVuSans-33" x="166.259766"/>
     <use xlink:href="#DejaVuSans-37" x="229.882812"/>
     <use xlink:href="#DejaVuSans-34" x="293.505859"/>
     <use xlink:href="#DejaVuSans-36" x="357.128906"/>
     <use xlink:href="#DejaVuSans-29" x="420.751953"/>
    </g>
   </g>
   <g id="text_2">
    <!-- GRCh38 -->
    <g transform="translate(328.790975 171.688469) scale(0.1 -0.1)">
     <defs>
      <path id="DejaVuSans-52" d="M 2841 2188 
Q 3044 2119 3236 1894 
Q 3428 1669 3622 1275 
L 4263 0 
L 3584 0 
L 2988 1197 
Q 2756 1666 2539 1819 
Q 2322 1972 1947 1972 
L 1259 1972 
L 1259 0 
L 628 0 
L 628 4666 
L 2053 4666 
Q 2853 4666 3247 4331 
Q 3641 3997 3641 3322 
Q 3641 2881 3436 2590 
Q 3231 2300 2841 2188 
z
M 1259 4147 
L 1259 2491 
L 2053 2491 
Q 2509 2491 2742 2702 
Q 2975 2913 2975 3322 
Q 2975 3731 2742 3939 
Q 2509 4147 2053 4147 
L 1259 4147 
z
" transform="scale(0.015625)"/>
      <path id="DejaVuSans-68" d="M 3513 2113 
L 3513 0 
L 2938 0 
L 2938 2094 
Q 2938 2591 2744 2837 
Q 2550 3084 2163 3084 
Q 1697 3084 1428 2787 
Q 1159 2491 1159 1978 
L 1159 0 
L 581 0 
L 581 4863 
L 1159 4863 
L 1159 2956 
Q 1366 3272 1645 3428 
Q 1925 3584 2291 3584 
Q 2894 3584 3203 3211 
Q 3513 2838 3513 2113 
z
" transform="scale(0.015625)"/>
      <path id="DejaVuSans-38" d="M 2034 2216 
Q 1584 2216 1326 1975 
Q 1069 1734 1069 1313 
Q 1069 891 1326 650 
Q 1584 409 2034 409 
Q 2484 409 2743 651 
Q 3003 894 3003 1313 
Q 3003 1734 2745 1975 
Q 2488 2216 2034 2216 
z
M 1403 2484 
Q 997 2584 770 2862 
Q 544 3141 544 3541 
Q 544 4100 942 4425 
Q 1341 4750 2034 4750 
Q 2731 4750 3128 4425 
Q 3525 4100 3525 3541 
Q 3525 3141 3298 2862 
Q 3072 2584 2669 2484 
Q 3125 2378 3379 2068 
Q 3634 1759 3634 1313 
Q 3634 634 3220 271 
Q 2806 -91 2034 -91 
Q 1263 -91 848 271 
Q 434 634 434 1313 
Q 434 1759 690 2068 
Q 947 2378 1403 2484 
z
M 1172 3481 
Q 1172 3119 1398 2916 
Q 1625 2713 2034 2713 
Q 2441 2713 2670 2916 
Q 2900 3119 2900 3481 
Q 2900 3844 2670 4047 
Q 2441 4250 2034 4250 
Q 1625 4250 1398 4047 
Q 1172 3844 1172 3481 
z
" transform="scale(0.015625)"/>
     </defs>
     <use xlink:href="#DejaVuSans-47"/>
     <use xlink:href="#DejaVuSans-52" x="77.490234"/>
     <use xlink:href="#DejaVuSans-43" x="141.972656"/>
     <use xlink:href="#DejaVuSans-68" x="211.796875"/>
     <use xlink:href="#DejaVuSans-33" x="275.175781"/>
     <use xlink:href="#DejaVuSans-38" x="338.798828"/>
    </g>
    <!-- (10289) -->
    <g transform="translate(329.104256 182.886281) scale(0.1 -0.1)">
     <defs>
      <path id="DejaVuSans-31" d="M 794 531 
L 1825 531 
L 1825 4091 
L 703 3866 
L 703 4441 
L 1819 4666 
L 2450 4666 
L 2450 531 
L 3481 531 
L 3481 0 
L 794 0 
L 794 531 
z
" transform="scale(0.015625)"/>
      <path id="DejaVuSans-30" d="M 2034 4250 
Q 1547 4250 1301 3770 
Q 1056 3291 1056 2328 
Q 1056 1369 1301 889 
Q 1547 409 2034 409 
Q 2525 409 2770 889 
Q 3016 1369 3016 2328 
Q 3016 3291 2770 3770 
Q 2525 4250 2034 4250 
z
M 2034 4750 
Q 2819 4750 3233 4129 
Q 3647 3509 3647 2328 
Q 3647 1150 3233 529 
Q 2819 -91 2034 -91 
Q 1250 -91 836 529 
Q 422 1150 422 2328 
Q 422 3509 836 4129 
Q 1250 4750 2034 4750 
z
" transform="scale(0.015625)"/>
      <path id="DejaVuSans-39" d="M 703 97 
L 703 672 
Q 941 559 1184 500 
Q 1428 441 1663 441 
Q 2288 441 2617 861 
Q 2947 1281 2994 2138 
Q 2813 1869 2534 1725 
Q 2256 1581 1919 1581 
Q 1219 1581 811 2004 
Q 403 2428 403 3163 
Q 403 3881 828 4315 
Q 1253 4750 1959 4750 
Q 2769 4750 3195 4129 
Q 3622 3509 3622 2328 
Q 3622 1225 3098 567 
Q 2575 -91 1691 -91 
Q 1453 -91 1209 -44 
Q 966 3 703 97 
z
M 1959 2075 
Q 2384 2075 2632 2365 
Q 2881 2656 2881 3163 
Q 2881 3666 2632 3958 
Q 2384 4250 1959 4250 
Q 1534 4250 1286 3958 
Q 1038 3666 1038 3163 
Q 1038 2656 1286 2365 
Q 1534 2075 1959 2075 
z
" transform="scale(0.015625)"/>
     </defs>
     <use xlink:href="#DejaVuSans-28"/>
     <use xlink:href="#DejaVuSans-31" x="39.013672"/>
     <use xlink:href="#DejaVuSans-30" x="102.636719"/>
     <use xlink:href="#DejaVuSans-32" x="166.259766"/>
     <use xlink:href="#DejaVuSans-38" x="229.882812"/>
     <use xlink:href="#DejaVuSans-39" x="293.505859"/>
     <use xlink:href="#DejaVuSans-29" x="357.128906"/>
    </g>
   </g>
   <g id="text_3">
    <!-- 85847 -->
    <g transform="translate(271.165899 177.287375) scale(0.1 -0.1)">
     <defs>
      <path id="DejaVuSans-35" d="M 691 4666 
L 3169 4666 
L 3169 4134 
L 1269 4134 
L 1269 2991 
Q 1406 3038 1543 3061 
Q 1681 3084 1819 3084 
Q 2600 3084 3056 2656 
Q 3513 2228 3513 1497 
Q 3513 744 3044 326 
Q 2575 -91 1722 -91 
Q 1428 -91 1123 -41 
Q 819 9 494 109 
L 494 744 
Q 775 591 1075 516 
Q 1375 441 1709 441 
Q 2250 441 2565 725 
Q 2881 1009 2881 1497 
Q 2881 1984 2565 2268 
Q 2250 2553 1709 2553 
Q 1456 2553 1204 2497 
Q 953 2441 691 2322 
L 691 4666 
z
" transform="scale(0.015625)"/>
     </defs>
     <use xlink:href="#DejaVuSans-38"/>
     <use xlink:href="#DejaVuSans-35" x="63.623047"/>
     <use xlink:href="#DejaVuSans-38" x="127.246094"/>
     <use xlink:href="#DejaVuSans-34" x="190.869141"/>
     <use xlink:href="#DejaVuSans-37" x="254.492188"/>
    </g>
   </g>
   <g id="text_4">
    <!-- GCA -->
    <g transform="translate(201.976278 305.127793) scale(0.12 -0.12)">
     <use xlink:href="#DejaVuSans-47"/>
     <use xlink:href="#DejaVuSans-43" x="77.490234"/>
     <use xlink:href="#DejaVuSans-41" x="147.314453"/>
    </g>
   </g>
   <g id="text_5">
    <!-- GRCh38 -->
    <g transform="translate(295.369622 254.215644) scale(0.12 -0.12)">
     <use xlink:href="#DejaVuSans-47"/>
     <use xlink:href="#DejaVuSans-52" x="77.490234"/>
     <use xlink:href="#DejaVuSans-43" x="141.972656"/>
     <use xlink:href="#DejaVuSans-68" x="211.796875"/>
     <use xlink:href="#DejaVuSans-33" x="275.175781"/>
     <use xlink:href="#DejaVuSans-38" x="338.798828"/>
    </g>
   </g>
  </g>
 </g>
 <defs>
  <clipPath id="pec0a8bfd68">
   <rect x="94.806528" y="41.472" width="282.706945" height="266.112"/>
  </clipPath>
 </defs>
</svg>
