<?xml version="1.0" encoding="utf-8" standalone="no"?>
<!DOCTYPE svg PUBLIC "-//W3C//DTD SVG 1.1//EN"
  "http://www.w3.org/Graphics/SVG/1.1/DTD/svg11.dtd">
<svg xmlns:xlink="http://www.w3.org/1999/xlink" width="1152pt" height="576pt" viewBox="0 0 1152 576" xmlns="http://www.w3.org/2000/svg" version="1.1">
 <metadata>
  <rdf:RDF xmlns:dc="http://purl.org/dc/elements/1.1/" xmlns:cc="http://creativecommons.org/ns#" xmlns:rdf="http://www.w3.org/1999/02/22-rdf-syntax-ns#">
   <cc:Work>
    <dc:type rdf:resource="http://purl.org/dc/dcmitype/StillImage"/>
    <dc:date>2024-02-27T11:05:04.103299</dc:date>
    <dc:format>image/svg+xml</dc:format>
    <dc:creator>
     <cc:Agent>
      <dc:title>Matplotlib v3.8.0, https://matplotlib.org/</dc:title>
     </cc:Agent>
    </dc:creator>
   </cc:Work>
  </rdf:RDF>
 </metadata>
 <defs>
  <style type="text/css">*{stroke-linejoin: round; stroke-linecap: butt}</style>
 </defs>
 <g id="figure_1">
  <g id="patch_1">
   <path d="M 0 576 
L 1152 576 
L 1152 0 
L 0 0 
z
" style="fill: #ffffff"/>
  </g>
  <g id="axes_1">
   <g id="patch_2">
    <path d="M 144 512.64 
L 1036.8 512.64 
L 1036.8 69.12 
L 144 69.12 
z
" style="fill: #ffffff"/>
   </g>
   <g id="matplotlib.axis_1">
    <g id="xtick_1">
     <g id="text_1">
      <!-- GRCh38 -->
      <g style="fill: #262626" transform="translate(194.254687 528.758125) scale(0.12 -0.12)">
       <defs>
        <path id="DejaVuSans-47" d="M 3809 666 
L 3809 1919 
L 2778 1919 
L 2778 2438 
L 4434 2438 
L 4434 434 
Q 4069 175 3628 42 
Q 3188 -91 2688 -91 
Q 1594 -91 976 548 
Q 359 1188 359 2328 
Q 359 3472 976 4111 
Q 1594 4750 2688 4750 
Q 3144 4750 3555 4637 
Q 3966 4525 4313 4306 
L 4313 3634 
Q 3963 3931 3569 4081 
Q 3175 4231 2741 4231 
Q 1884 4231 1454 3753 
Q 1025 3275 1025 2328 
Q 1025 1384 1454 906 
Q 1884 428 2741 428 
Q 3075 428 3337 486 
Q 3600 544 3809 666 
z
" transform="scale(0.015625)"/>
        <path id="DejaVuSans-52" d="M 2841 2188 
Q 3044 2119 3236 1894 
Q 3428 1669 3622 1275 
L 4263 0 
L 3584 0 
L 2988 1197 
Q 2756 1666 2539 1819 
Q 2322 1972 1947 1972 
L 1259 1972 
L 1259 0 
L 628 0 
L 628 4666 
L 2053 4666 
Q 2853 4666 3247 4331 
Q 3641 3997 3641 3322 
Q 3641 2881 3436 2590 
Q 3231 2300 2841 2188 
z
M 1259 4147 
L 1259 2491 
L 2053 2491 
Q 2509 2491 2742 2702 
Q 2975 2913 2975 3322 
Q 2975 3731 2742 3939 
Q 2509 4147 2053 4147 
L 1259 4147 
z
" transform="scale(0.015625)"/>
        <path id="DejaVuSans-43" d="M 4122 4306 
L 4122 3641 
Q 3803 3938 3442 4084 
Q 3081 4231 2675 4231 
Q 1875 4231 1450 3742 
Q 1025 3253 1025 2328 
Q 1025 1406 1450 917 
Q 1875 428 2675 428 
Q 3081 428 3442 575 
Q 3803 722 4122 1019 
L 4122 359 
Q 3791 134 3420 21 
Q 3050 -91 2638 -91 
Q 1578 -91 968 557 
Q 359 1206 359 2328 
Q 359 3453 968 4101 
Q 1578 4750 2638 4750 
Q 3056 4750 3426 4639 
Q 3797 4528 4122 4306 
z
" transform="scale(0.015625)"/>
        <path id="DejaVuSans-68" d="M 3513 2113 
L 3513 0 
L 2938 0 
L 2938 2094 
Q 2938 2591 2744 2837 
Q 2550 3084 2163 3084 
Q 1697 3084 1428 2787 
Q 1159 2491 1159 1978 
L 1159 0 
L 581 0 
L 581 4863 
L 1159 4863 
L 1159 2956 
Q 1366 3272 1645 3428 
Q 1925 3584 2291 3584 
Q 2894 3584 3203 3211 
Q 3513 2838 3513 2113 
z
" transform="scale(0.015625)"/>
        <path id="DejaVuSans-33" d="M 2597 2516 
Q 3050 2419 3304 2112 
Q 3559 1806 3559 1356 
Q 3559 666 3084 287 
Q 2609 -91 1734 -91 
Q 1441 -91 1130 -33 
Q 819 25 488 141 
L 488 750 
Q 750 597 1062 519 
Q 1375 441 1716 441 
Q 2309 441 2620 675 
Q 2931 909 2931 1356 
Q 2931 1769 2642 2001 
Q 2353 2234 1838 2234 
L 1294 2234 
L 1294 2753 
L 1863 2753 
Q 2328 2753 2575 2939 
Q 2822 3125 2822 3475 
Q 2822 3834 2567 4026 
Q 2313 4219 1838 4219 
Q 1578 4219 1281 4162 
Q 984 4106 628 3988 
L 628 4550 
Q 988 4650 1302 4700 
Q 1616 4750 1894 4750 
Q 2613 4750 3031 4423 
Q 3450 4097 3450 3541 
Q 3450 3153 3228 2886 
Q 3006 2619 2597 2516 
z
" transform="scale(0.015625)"/>
        <path id="DejaVuSans-38" d="M 2034 2216 
Q 1584 2216 1326 1975 
Q 1069 1734 1069 1313 
Q 1069 891 1326 650 
Q 1584 409 2034 409 
Q 2484 409 2743 651 
Q 3003 894 3003 1313 
Q 3003 1734 2745 1975 
Q 2488 2216 2034 2216 
z
M 1403 2484 
Q 997 2584 770 2862 
Q 544 3141 544 3541 
Q 544 4100 942 4425 
Q 1341 4750 2034 4750 
Q 2731 4750 3128 4425 
Q 3525 4100 3525 3541 
Q 3525 3141 3298 2862 
Q 3072 2584 2669 2484 
Q 3125 2378 3379 2068 
Q 3634 1759 3634 1313 
Q 3634 634 3220 271 
Q 2806 -91 2034 -91 
Q 1263 -91 848 271 
Q 434 634 434 1313 
Q 434 1759 690 2068 
Q 947 2378 1403 2484 
z
M 1172 3481 
Q 1172 3119 1398 2916 
Q 1625 2713 2034 2713 
Q 2441 2713 2670 2916 
Q 2900 3119 2900 3481 
Q 2900 3844 2670 4047 
Q 2441 4250 2034 4250 
Q 1625 4250 1398 4047 
Q 1172 3844 1172 3481 
z
" transform="scale(0.015625)"/>
       </defs>
       <use xlink:href="#DejaVuSans-47"/>
       <use xlink:href="#DejaVuSans-52" x="77.490234"/>
       <use xlink:href="#DejaVuSans-43" x="141.972656"/>
       <use xlink:href="#DejaVuSans-68" x="211.796875"/>
       <use xlink:href="#DejaVuSans-33" x="275.175781"/>
       <use xlink:href="#DejaVuSans-38" x="338.798828"/>
      </g>
     </g>
    </g>
    <g id="xtick_2">
     <g id="text_2">
      <!-- CONTAMINANT -->
      <g style="fill: #262626" transform="translate(322.800937 528.758125) scale(0.12 -0.12)">
       <defs>
        <path id="DejaVuSans-4f" d="M 2522 4238 
Q 1834 4238 1429 3725 
Q 1025 3213 1025 2328 
Q 1025 1447 1429 934 
Q 1834 422 2522 422 
Q 3209 422 3611 934 
Q 4013 1447 4013 2328 
Q 4013 3213 3611 3725 
Q 3209 4238 2522 4238 
z
M 2522 4750 
Q 3503 4750 4090 4092 
Q 4678 3434 4678 2328 
Q 4678 1225 4090 567 
Q 3503 -91 2522 -91 
Q 1538 -91 948 565 
Q 359 1222 359 2328 
Q 359 3434 948 4092 
Q 1538 4750 2522 4750 
z
" transform="scale(0.015625)"/>
        <path id="DejaVuSans-4e" d="M 628 4666 
L 1478 4666 
L 3547 763 
L 3547 4666 
L 4159 4666 
L 4159 0 
L 3309 0 
L 1241 3903 
L 1241 0 
L 628 0 
L 628 4666 
z
" transform="scale(0.015625)"/>
        <path id="DejaVuSans-54" d="M -19 4666 
L 3928 4666 
L 3928 4134 
L 2272 4134 
L 2272 0 
L 1638 0 
L 1638 4134 
L -19 4134 
L -19 4666 
z
" transform="scale(0.015625)"/>
        <path id="DejaVuSans-41" d="M 2188 4044 
L 1331 1722 
L 3047 1722 
L 2188 4044 
z
M 1831 4666 
L 2547 4666 
L 4325 0 
L 3669 0 
L 3244 1197 
L 1141 1197 
L 716 0 
L 50 0 
L 1831 4666 
z
" transform="scale(0.015625)"/>
        <path id="DejaVuSans-4d" d="M 628 4666 
L 1569 4666 
L 2759 1491 
L 3956 4666 
L 4897 4666 
L 4897 0 
L 4281 0 
L 4281 4097 
L 3078 897 
L 2444 897 
L 1241 4097 
L 1241 0 
L 628 0 
L 628 4666 
z
" transform="scale(0.015625)"/>
        <path id="DejaVuSans-49" d="M 628 4666 
L 1259 4666 
L 1259 0 
L 628 0 
L 628 4666 
z
" transform="scale(0.015625)"/>
       </defs>
       <use xlink:href="#DejaVuSans-43"/>
       <use xlink:href="#DejaVuSans-4f" x="69.824219"/>
       <use xlink:href="#DejaVuSans-4e" x="148.535156"/>
       <use xlink:href="#DejaVuSans-54" x="223.339844"/>
       <use xlink:href="#DejaVuSans-41" x="276.673828"/>
       <use xlink:href="#DejaVuSans-4d" x="345.082031"/>
       <use xlink:href="#DejaVuSans-49" x="431.361328"/>
       <use xlink:href="#DejaVuSans-4e" x="460.853516"/>
       <use xlink:href="#DejaVuSans-41" x="535.658203"/>
       <use xlink:href="#DejaVuSans-4e" x="604.066406"/>
       <use xlink:href="#DejaVuSans-54" x="678.871094"/>
      </g>
     </g>
    </g>
    <g id="xtick_3">
     <g id="text_3">
      <!-- GCA -->
      <g style="fill: #262626" transform="translate(503.056875 528.758125) scale(0.12 -0.12)">
       <use xlink:href="#DejaVuSans-47"/>
       <use xlink:href="#DejaVuSans-43" x="77.490234"/>
       <use xlink:href="#DejaVuSans-41" x="147.314453"/>
      </g>
     </g>
    </g>
    <g id="xtick_4">
     <g id="text_4">
      <!-- DECOY_GCA -->
      <g style="fill: #262626" transform="translate(628.198125 528.54625) scale(0.12 -0.12)">
       <defs>
        <path id="DejaVuSans-44" d="M 1259 4147 
L 1259 519 
L 2022 519 
Q 2988 519 3436 956 
Q 3884 1394 3884 2338 
Q 3884 3275 3436 3711 
Q 2988 4147 2022 4147 
L 1259 4147 
z
M 628 4666 
L 1925 4666 
Q 3281 4666 3915 4102 
Q 4550 3538 4550 2338 
Q 4550 1131 3912 565 
Q 3275 0 1925 0 
L 628 0 
L 628 4666 
z
" transform="scale(0.015625)"/>
        <path id="DejaVuSans-45" d="M 628 4666 
L 3578 4666 
L 3578 4134 
L 1259 4134 
L 1259 2753 
L 3481 2753 
L 3481 2222 
L 1259 2222 
L 1259 531 
L 3634 531 
L 3634 0 
L 628 0 
L 628 4666 
z
" transform="scale(0.015625)"/>
        <path id="DejaVuSans-59" d="M -13 4666 
L 666 4666 
L 1959 2747 
L 3244 4666 
L 3922 4666 
L 2272 2222 
L 2272 0 
L 1638 0 
L 1638 2222 
L -13 4666 
z
" transform="scale(0.015625)"/>
        <path id="DejaVuSans-5f" d="M 3263 -1063 
L 3263 -1509 
L -63 -1509 
L -63 -1063 
L 3263 -1063 
z
" transform="scale(0.015625)"/>
       </defs>
       <use xlink:href="#DejaVuSans-44"/>
       <use xlink:href="#DejaVuSans-45" x="77.001953"/>
       <use xlink:href="#DejaVuSans-43" x="140.185547"/>
       <use xlink:href="#DejaVuSans-4f" x="210.009766"/>
       <use xlink:href="#DejaVuSans-59" x="283.220703"/>
       <use xlink:href="#DejaVuSans-5f" x="344.304688"/>
       <use xlink:href="#DejaVuSans-47" x="394.304688"/>
       <use xlink:href="#DejaVuSans-43" x="471.794922"/>
       <use xlink:href="#DejaVuSans-41" x="541.619141"/>
      </g>
     </g>
    </g>
    <g id="xtick_5">
     <g id="text_5">
      <!-- DECOY_GRCh38 -->
      <g style="fill: #262626" transform="translate(765.795937 528.758125) scale(0.12 -0.12)">
       <use xlink:href="#DejaVuSans-44"/>
       <use xlink:href="#DejaVuSans-45" x="77.001953"/>
       <use xlink:href="#DejaVuSans-43" x="140.185547"/>
       <use xlink:href="#DejaVuSans-4f" x="210.009766"/>
       <use xlink:href="#DejaVuSans-59" x="283.220703"/>
       <use xlink:href="#DejaVuSans-5f" x="344.304688"/>
       <use xlink:href="#DejaVuSans-47" x="394.304688"/>
       <use xlink:href="#DejaVuSans-52" x="471.794922"/>
       <use xlink:href="#DejaVuSans-43" x="536.277344"/>
       <use xlink:href="#DejaVuSans-68" x="606.101562"/>
       <use xlink:href="#DejaVuSans-33" x="669.480469"/>
       <use xlink:href="#DejaVuSans-38" x="733.103516"/>
      </g>
     </g>
    </g>
    <g id="xtick_6">
     <g id="text_6">
      <!-- DECOY_CONTAMINANT -->
      <g style="fill: #262626" transform="translate(894.342187 528.54625) scale(0.12 -0.12)">
       <use xlink:href="#DejaVuSans-44"/>
       <use xlink:href="#DejaVuSans-45" x="77.001953"/>
       <use xlink:href="#DejaVuSans-43" x="140.185547"/>
       <use xlink:href="#DejaVuSans-4f" x="210.009766"/>
       <use xlink:href="#DejaVuSans-59" x="283.220703"/>
       <use xlink:href="#DejaVuSans-5f" x="344.304688"/>
       <use xlink:href="#DejaVuSans-43" x="394.304688"/>
       <use xlink:href="#DejaVuSans-4f" x="464.128906"/>
       <use xlink:href="#DejaVuSans-4e" x="542.839844"/>
       <use xlink:href="#DejaVuSans-54" x="617.644531"/>
       <use xlink:href="#DejaVuSans-41" x="670.978516"/>
       <use xlink:href="#DejaVuSans-4d" x="739.386719"/>
       <use xlink:href="#DejaVuSans-49" x="825.666016"/>
       <use xlink:href="#DejaVuSans-4e" x="855.158203"/>
       <use xlink:href="#DejaVuSans-41" x="929.962891"/>
       <use xlink:href="#DejaVuSans-4e" x="998.371094"/>
       <use xlink:href="#DejaVuSans-54" x="1073.175781"/>
      </g>
     </g>
    </g>
    <g id="text_7">
     <!-- prot_source -->
     <g style="fill: #262626" transform="translate(543.61875 547.3) scale(0.16 -0.16)">
      <defs>
       <path id="DejaVuSans-70" d="M 1159 525 
L 1159 -1331 
L 581 -1331 
L 581 3500 
L 1159 3500 
L 1159 2969 
Q 1341 3281 1617 3432 
Q 1894 3584 2278 3584 
Q 2916 3584 3314 3078 
Q 3713 2572 3713 1747 
Q 3713 922 3314 415 
Q 2916 -91 2278 -91 
Q 1894 -91 1617 61 
Q 1341 213 1159 525 
z
M 3116 1747 
Q 3116 2381 2855 2742 
Q 2594 3103 2138 3103 
Q 1681 3103 1420 2742 
Q 1159 2381 1159 1747 
Q 1159 1113 1420 752 
Q 1681 391 2138 391 
Q 2594 391 2855 752 
Q 3116 1113 3116 1747 
z
" transform="scale(0.015625)"/>
       <path id="DejaVuSans-72" d="M 2631 2963 
Q 2534 3019 2420 3045 
Q 2306 3072 2169 3072 
Q 1681 3072 1420 2755 
Q 1159 2438 1159 1844 
L 1159 0 
L 581 0 
L 581 3500 
L 1159 3500 
L 1159 2956 
Q 1341 3275 1631 3429 
Q 1922 3584 2338 3584 
Q 2397 3584 2469 3576 
Q 2541 3569 2628 3553 
L 2631 2963 
z
" transform="scale(0.015625)"/>
       <path id="DejaVuSans-6f" d="M 1959 3097 
Q 1497 3097 1228 2736 
Q 959 2375 959 1747 
Q 959 1119 1226 758 
Q 1494 397 1959 397 
Q 2419 397 2687 759 
Q 2956 1122 2956 1747 
Q 2956 2369 2687 2733 
Q 2419 3097 1959 3097 
z
M 1959 3584 
Q 2709 3584 3137 3096 
Q 3566 2609 3566 1747 
Q 3566 888 3137 398 
Q 2709 -91 1959 -91 
Q 1206 -91 779 398 
Q 353 888 353 1747 
Q 353 2609 779 3096 
Q 1206 3584 1959 3584 
z
" transform="scale(0.015625)"/>
       <path id="DejaVuSans-74" d="M 1172 4494 
L 1172 3500 
L 2356 3500 
L 2356 3053 
L 1172 3053 
L 1172 1153 
Q 1172 725 1289 603 
Q 1406 481 1766 481 
L 2356 481 
L 2356 0 
L 1766 0 
Q 1100 0 847 248 
Q 594 497 594 1153 
L 594 3053 
L 172 3053 
L 172 3500 
L 594 3500 
L 594 4494 
L 1172 4494 
z
" transform="scale(0.015625)"/>
       <path id="DejaVuSans-73" d="M 2834 3397 
L 2834 2853 
Q 2591 2978 2328 3040 
Q 2066 3103 1784 3103 
Q 1356 3103 1142 2972 
Q 928 2841 928 2578 
Q 928 2378 1081 2264 
Q 1234 2150 1697 2047 
L 1894 2003 
Q 2506 1872 2764 1633 
Q 3022 1394 3022 966 
Q 3022 478 2636 193 
Q 2250 -91 1575 -91 
Q 1294 -91 989 -36 
Q 684 19 347 128 
L 347 722 
Q 666 556 975 473 
Q 1284 391 1588 391 
Q 1994 391 2212 530 
Q 2431 669 2431 922 
Q 2431 1156 2273 1281 
Q 2116 1406 1581 1522 
L 1381 1569 
Q 847 1681 609 1914 
Q 372 2147 372 2553 
Q 372 3047 722 3315 
Q 1072 3584 1716 3584 
Q 2034 3584 2315 3537 
Q 2597 3491 2834 3397 
z
" transform="scale(0.015625)"/>
       <path id="DejaVuSans-75" d="M 544 1381 
L 544 3500 
L 1119 3500 
L 1119 1403 
Q 1119 906 1312 657 
Q 1506 409 1894 409 
Q 2359 409 2629 706 
Q 2900 1003 2900 1516 
L 2900 3500 
L 3475 3500 
L 3475 0 
L 2900 0 
L 2900 538 
Q 2691 219 2414 64 
Q 2138 -91 1772 -91 
Q 1169 -91 856 284 
Q 544 659 544 1381 
z
M 1991 3584 
L 1991 3584 
z
" transform="scale(0.015625)"/>
       <path id="DejaVuSans-63" d="M 3122 3366 
L 3122 2828 
Q 2878 2963 2633 3030 
Q 2388 3097 2138 3097 
Q 1578 3097 1268 2742 
Q 959 2388 959 1747 
Q 959 1106 1268 751 
Q 1578 397 2138 397 
Q 2388 397 2633 464 
Q 2878 531 3122 666 
L 3122 134 
Q 2881 22 2623 -34 
Q 2366 -91 2075 -91 
Q 1284 -91 818 406 
Q 353 903 353 1747 
Q 353 2603 823 3093 
Q 1294 3584 2113 3584 
Q 2378 3584 2631 3529 
Q 2884 3475 3122 3366 
z
" transform="scale(0.015625)"/>
       <path id="DejaVuSans-65" d="M 3597 1894 
L 3597 1613 
L 953 1613 
Q 991 1019 1311 708 
Q 1631 397 2203 397 
Q 2534 397 2845 478 
Q 3156 559 3463 722 
L 3463 178 
Q 3153 47 2828 -22 
Q 2503 -91 2169 -91 
Q 1331 -91 842 396 
Q 353 884 353 1716 
Q 353 2575 817 3079 
Q 1281 3584 2069 3584 
Q 2775 3584 3186 3129 
Q 3597 2675 3597 1894 
z
M 3022 2063 
Q 3016 2534 2758 2815 
Q 2500 3097 2075 3097 
Q 1594 3097 1305 2825 
Q 1016 2553 972 2059 
L 3022 2063 
z
" transform="scale(0.015625)"/>
      </defs>
      <use xlink:href="#DejaVuSans-70"/>
      <use xlink:href="#DejaVuSans-72" x="63.476562"/>
      <use xlink:href="#DejaVuSans-6f" x="102.339844"/>
      <use xlink:href="#DejaVuSans-74" x="163.521484"/>
      <use xlink:href="#DejaVuSans-5f" x="202.730469"/>
      <use xlink:href="#DejaVuSans-73" x="252.730469"/>
      <use xlink:href="#DejaVuSans-6f" x="304.830078"/>
      <use xlink:href="#DejaVuSans-75" x="366.011719"/>
      <use xlink:href="#DejaVuSans-72" x="429.390625"/>
      <use xlink:href="#DejaVuSans-63" x="468.253906"/>
      <use xlink:href="#DejaVuSans-65" x="523.234375"/>
     </g>
    </g>
   </g>
   <g id="matplotlib.axis_2">
    <g id="ytick_1">
     <g id="text_8">
      <!-- −0.002 -->
      <g style="fill: #262626" transform="translate(92.590625 512.123939) scale(0.12 -0.12)">
       <defs>
        <path id="DejaVuSans-2212" d="M 678 2272 
L 4684 2272 
L 4684 1741 
L 678 1741 
L 678 2272 
z
" transform="scale(0.015625)"/>
        <path id="DejaVuSans-30" d="M 2034 4250 
Q 1547 4250 1301 3770 
Q 1056 3291 1056 2328 
Q 1056 1369 1301 889 
Q 1547 409 2034 409 
Q 2525 409 2770 889 
Q 3016 1369 3016 2328 
Q 3016 3291 2770 3770 
Q 2525 4250 2034 4250 
z
M 2034 4750 
Q 2819 4750 3233 4129 
Q 3647 3509 3647 2328 
Q 3647 1150 3233 529 
Q 2819 -91 2034 -91 
Q 1250 -91 836 529 
Q 422 1150 422 2328 
Q 422 3509 836 4129 
Q 1250 4750 2034 4750 
z
" transform="scale(0.015625)"/>
        <path id="DejaVuSans-2e" d="M 684 794 
L 1344 794 
L 1344 0 
L 684 0 
L 684 794 
z
" transform="scale(0.015625)"/>
        <path id="DejaVuSans-32" d="M 1228 531 
L 3431 531 
L 3431 0 
L 469 0 
L 469 531 
Q 828 903 1448 1529 
Q 2069 2156 2228 2338 
Q 2531 2678 2651 2914 
Q 2772 3150 2772 3378 
Q 2772 3750 2511 3984 
Q 2250 4219 1831 4219 
Q 1534 4219 1204 4116 
Q 875 4013 500 3803 
L 500 4441 
Q 881 4594 1212 4672 
Q 1544 4750 1819 4750 
Q 2544 4750 2975 4387 
Q 3406 4025 3406 3419 
Q 3406 3131 3298 2873 
Q 3191 2616 2906 2266 
Q 2828 2175 2409 1742 
Q 1991 1309 1228 531 
z
" transform="scale(0.015625)"/>
       </defs>
       <use xlink:href="#DejaVuSans-2212"/>
       <use xlink:href="#DejaVuSans-30" x="83.789062"/>
       <use xlink:href="#DejaVuSans-2e" x="147.412109"/>
       <use xlink:href="#DejaVuSans-30" x="179.199219"/>
       <use xlink:href="#DejaVuSans-30" x="242.822266"/>
       <use xlink:href="#DejaVuSans-32" x="306.445312"/>
      </g>
     </g>
    </g>
    <g id="ytick_2">
     <g id="text_9">
      <!-- 0.000 -->
      <g style="fill: #262626" transform="translate(102.64625 453.700994) scale(0.12 -0.12)">
       <use xlink:href="#DejaVuSans-30"/>
       <use xlink:href="#DejaVuSans-2e" x="63.623047"/>
       <use xlink:href="#DejaVuSans-30" x="95.410156"/>
       <use xlink:href="#DejaVuSans-30" x="159.033203"/>
       <use xlink:href="#DejaVuSans-30" x="222.65625"/>
      </g>
     </g>
    </g>
    <g id="ytick_3">
     <g id="text_10">
      <!-- 0.002 -->
      <g style="fill: #262626" transform="translate(102.64625 395.278049) scale(0.12 -0.12)">
       <use xlink:href="#DejaVuSans-30"/>
       <use xlink:href="#DejaVuSans-2e" x="63.623047"/>
       <use xlink:href="#DejaVuSans-30" x="95.410156"/>
       <use xlink:href="#DejaVuSans-30" x="159.033203"/>
       <use xlink:href="#DejaVuSans-32" x="222.65625"/>
      </g>
     </g>
    </g>
    <g id="ytick_4">
     <g id="text_11">
      <!-- 0.004 -->
      <g style="fill: #262626" transform="translate(102.64625 336.855103) scale(0.12 -0.12)">
       <defs>
        <path id="DejaVuSans-34" d="M 2419 4116 
L 825 1625 
L 2419 1625 
L 2419 4116 
z
M 2253 4666 
L 3047 4666 
L 3047 1625 
L 3713 1625 
L 3713 1100 
L 3047 1100 
L 3047 0 
L 2419 0 
L 2419 1100 
L 313 1100 
L 313 1709 
L 2253 4666 
z
" transform="scale(0.015625)"/>
       </defs>
       <use xlink:href="#DejaVuSans-30"/>
       <use xlink:href="#DejaVuSans-2e" x="63.623047"/>
       <use xlink:href="#DejaVuSans-30" x="95.410156"/>
       <use xlink:href="#DejaVuSans-30" x="159.033203"/>
       <use xlink:href="#DejaVuSans-34" x="222.65625"/>
      </g>
     </g>
    </g>
    <g id="ytick_5">
     <g id="text_12">
      <!-- 0.006 -->
      <g style="fill: #262626" transform="translate(102.64625 278.432158) scale(0.12 -0.12)">
       <defs>
        <path id="DejaVuSans-36" d="M 2113 2584 
Q 1688 2584 1439 2293 
Q 1191 2003 1191 1497 
Q 1191 994 1439 701 
Q 1688 409 2113 409 
Q 2538 409 2786 701 
Q 3034 994 3034 1497 
Q 3034 2003 2786 2293 
Q 2538 2584 2113 2584 
z
M 3366 4563 
L 3366 3988 
Q 3128 4100 2886 4159 
Q 2644 4219 2406 4219 
Q 1781 4219 1451 3797 
Q 1122 3375 1075 2522 
Q 1259 2794 1537 2939 
Q 1816 3084 2150 3084 
Q 2853 3084 3261 2657 
Q 3669 2231 3669 1497 
Q 3669 778 3244 343 
Q 2819 -91 2113 -91 
Q 1303 -91 875 529 
Q 447 1150 447 2328 
Q 447 3434 972 4092 
Q 1497 4750 2381 4750 
Q 2619 4750 2861 4703 
Q 3103 4656 3366 4563 
z
" transform="scale(0.015625)"/>
       </defs>
       <use xlink:href="#DejaVuSans-30"/>
       <use xlink:href="#DejaVuSans-2e" x="63.623047"/>
       <use xlink:href="#DejaVuSans-30" x="95.410156"/>
       <use xlink:href="#DejaVuSans-30" x="159.033203"/>
       <use xlink:href="#DejaVuSans-36" x="222.65625"/>
      </g>
     </g>
    </g>
    <g id="ytick_6">
     <g id="text_13">
      <!-- 0.008 -->
      <g style="fill: #262626" transform="translate(102.64625 220.009212) scale(0.12 -0.12)">
       <use xlink:href="#DejaVuSans-30"/>
       <use xlink:href="#DejaVuSans-2e" x="63.623047"/>
       <use xlink:href="#DejaVuSans-30" x="95.410156"/>
       <use xlink:href="#DejaVuSans-30" x="159.033203"/>
       <use xlink:href="#DejaVuSans-38" x="222.65625"/>
      </g>
     </g>
    </g>
    <g id="ytick_7">
     <g id="text_14">
      <!-- 0.010 -->
      <g style="fill: #262626" transform="translate(102.64625 161.586267) scale(0.12 -0.12)">
       <defs>
        <path id="DejaVuSans-31" d="M 794 531 
L 1825 531 
L 1825 4091 
L 703 3866 
L 703 4441 
L 1819 4666 
L 2450 4666 
L 2450 531 
L 3481 531 
L 3481 0 
L 794 0 
L 794 531 
z
" transform="scale(0.015625)"/>
       </defs>
       <use xlink:href="#DejaVuSans-30"/>
       <use xlink:href="#DejaVuSans-2e" x="63.623047"/>
       <use xlink:href="#DejaVuSans-30" x="95.410156"/>
       <use xlink:href="#DejaVuSans-31" x="159.033203"/>
       <use xlink:href="#DejaVuSans-30" x="222.65625"/>
      </g>
     </g>
    </g>
    <g id="ytick_8">
     <g id="text_15">
      <!-- 0.012 -->
      <g style="fill: #262626" transform="translate(102.64625 103.163321) scale(0.12 -0.12)">
       <use xlink:href="#DejaVuSans-30"/>
       <use xlink:href="#DejaVuSans-2e" x="63.623047"/>
       <use xlink:href="#DejaVuSans-30" x="95.410156"/>
       <use xlink:href="#DejaVuSans-31" x="159.033203"/>
       <use xlink:href="#DejaVuSans-32" x="222.65625"/>
      </g>
     </g>
    </g>
    <g id="text_16">
     <!-- posterior_error_probability -->
     <g style="fill: #262626" transform="translate(84.818125 396.82) rotate(-90) scale(0.16 -0.16)">
      <defs>
       <path id="DejaVuSans-69" d="M 603 3500 
L 1178 3500 
L 1178 0 
L 603 0 
L 603 3500 
z
M 603 4863 
L 1178 4863 
L 1178 4134 
L 603 4134 
L 603 4863 
z
" transform="scale(0.015625)"/>
       <path id="DejaVuSans-62" d="M 3116 1747 
Q 3116 2381 2855 2742 
Q 2594 3103 2138 3103 
Q 1681 3103 1420 2742 
Q 1159 2381 1159 1747 
Q 1159 1113 1420 752 
Q 1681 391 2138 391 
Q 2594 391 2855 752 
Q 3116 1113 3116 1747 
z
M 1159 2969 
Q 1341 3281 1617 3432 
Q 1894 3584 2278 3584 
Q 2916 3584 3314 3078 
Q 3713 2572 3713 1747 
Q 3713 922 3314 415 
Q 2916 -91 2278 -91 
Q 1894 -91 1617 61 
Q 1341 213 1159 525 
L 1159 0 
L 581 0 
L 581 4863 
L 1159 4863 
L 1159 2969 
z
" transform="scale(0.015625)"/>
       <path id="DejaVuSans-61" d="M 2194 1759 
Q 1497 1759 1228 1600 
Q 959 1441 959 1056 
Q 959 750 1161 570 
Q 1363 391 1709 391 
Q 2188 391 2477 730 
Q 2766 1069 2766 1631 
L 2766 1759 
L 2194 1759 
z
M 3341 1997 
L 3341 0 
L 2766 0 
L 2766 531 
Q 2569 213 2275 61 
Q 1981 -91 1556 -91 
Q 1019 -91 701 211 
Q 384 513 384 1019 
Q 384 1609 779 1909 
Q 1175 2209 1959 2209 
L 2766 2209 
L 2766 2266 
Q 2766 2663 2505 2880 
Q 2244 3097 1772 3097 
Q 1472 3097 1187 3025 
Q 903 2953 641 2809 
L 641 3341 
Q 956 3463 1253 3523 
Q 1550 3584 1831 3584 
Q 2591 3584 2966 3190 
Q 3341 2797 3341 1997 
z
" transform="scale(0.015625)"/>
       <path id="DejaVuSans-6c" d="M 603 4863 
L 1178 4863 
L 1178 0 
L 603 0 
L 603 4863 
z
" transform="scale(0.015625)"/>
       <path id="DejaVuSans-79" d="M 2059 -325 
Q 1816 -950 1584 -1140 
Q 1353 -1331 966 -1331 
L 506 -1331 
L 506 -850 
L 844 -850 
Q 1081 -850 1212 -737 
Q 1344 -625 1503 -206 
L 1606 56 
L 191 3500 
L 800 3500 
L 1894 763 
L 2988 3500 
L 3597 3500 
L 2059 -325 
z
" transform="scale(0.015625)"/>
      </defs>
      <use xlink:href="#DejaVuSans-70"/>
      <use xlink:href="#DejaVuSans-6f" x="63.476562"/>
      <use xlink:href="#DejaVuSans-73" x="124.658203"/>
      <use xlink:href="#DejaVuSans-74" x="176.757812"/>
      <use xlink:href="#DejaVuSans-65" x="215.966797"/>
      <use xlink:href="#DejaVuSans-72" x="277.490234"/>
      <use xlink:href="#DejaVuSans-69" x="318.603516"/>
      <use xlink:href="#DejaVuSans-6f" x="346.386719"/>
      <use xlink:href="#DejaVuSans-72" x="407.568359"/>
      <use xlink:href="#DejaVuSans-5f" x="448.681641"/>
      <use xlink:href="#DejaVuSans-65" x="498.681641"/>
      <use xlink:href="#DejaVuSans-72" x="560.205078"/>
      <use xlink:href="#DejaVuSans-72" x="599.568359"/>
      <use xlink:href="#DejaVuSans-6f" x="638.431641"/>
      <use xlink:href="#DejaVuSans-72" x="699.613281"/>
      <use xlink:href="#DejaVuSans-5f" x="740.726562"/>
      <use xlink:href="#DejaVuSans-70" x="790.726562"/>
      <use xlink:href="#DejaVuSans-72" x="854.203125"/>
      <use xlink:href="#DejaVuSans-6f" x="893.066406"/>
      <use xlink:href="#DejaVuSans-62" x="954.248047"/>
      <use xlink:href="#DejaVuSans-61" x="1017.724609"/>
      <use xlink:href="#DejaVuSans-62" x="1079.003906"/>
      <use xlink:href="#DejaVuSans-69" x="1142.480469"/>
      <use xlink:href="#DejaVuSans-6c" x="1170.263672"/>
      <use xlink:href="#DejaVuSans-69" x="1198.046875"/>
      <use xlink:href="#DejaVuSans-74" x="1225.830078"/>
      <use xlink:href="#DejaVuSans-79" x="1265.039062"/>
     </g>
    </g>
   </g>
   <g id="PolyCollection_1">
    <defs>
     <path id="mda52fb362e" d="M 223.854695 -123.597393 
L 212.945305 -123.597393 
L 173.76 -126.613916 
L 201.790087 -129.630439 
L 215.309797 -132.646962 
L 216.579277 -135.663485 
L 217.081712 -138.680008 
L 217.370518 -141.696532 
L 217.5591 -144.713055 
L 217.687257 -147.729578 
L 217.778433 -150.746101 
L 217.853637 -153.762624 
L 217.91144 -156.779147 
L 217.958071 -159.79567 
L 217.998288 -162.812193 
L 218.031691 -165.828716 
L 218.060606 -168.845239 
L 218.084382 -171.861762 
L 218.106475 -174.878286 
L 218.12445 -177.894809 
L 218.139726 -180.911332 
L 218.154468 -183.927855 
L 218.167471 -186.944378 
L 218.179113 -189.960901 
L 218.189557 -192.977424 
L 218.200302 -195.993947 
L 218.209593 -199.01047 
L 218.216724 -202.026993 
L 218.224198 -205.043516 
L 218.231955 -208.06004 
L 218.237797 -211.076563 
L 218.242682 -214.093086 
L 218.249153 -217.109609 
L 218.254854 -220.126132 
L 218.259617 -223.142655 
L 218.264975 -226.159178 
L 218.269238 -229.175701 
L 218.272983 -232.192224 
L 218.276391 -235.208747 
L 218.280215 -238.22527 
L 218.283815 -241.241794 
L 218.286473 -244.258317 
L 218.288648 -247.27484 
L 218.291277 -250.291363 
L 218.294649 -253.307886 
L 218.296531 -256.324409 
L 218.298957 -259.340932 
L 218.301789 -262.357455 
L 218.304559 -265.373978 
L 218.30703 -268.390501 
L 218.309486 -271.407024 
L 218.311048 -274.423548 
L 218.312888 -277.440071 
L 218.31456 -280.456594 
L 218.316138 -283.473117 
L 218.317581 -286.48964 
L 218.318743 -289.506163 
L 218.321532 -292.522686 
L 218.322918 -295.539209 
L 218.323548 -298.555732 
L 218.325669 -301.572255 
L 218.326239 -304.588779 
L 218.326989 -307.605302 
L 218.329276 -310.621825 
L 218.330104 -313.638348 
L 218.331495 -316.654871 
L 218.33178 -319.671394 
L 218.333613 -322.687917 
L 218.334725 -325.70444 
L 218.335603 -328.720963 
L 218.336865 -331.737486 
L 218.338261 -334.754009 
L 218.338989 -337.770533 
L 218.339681 -340.787056 
L 218.341124 -343.803579 
L 218.341558 -346.820102 
L 218.34223 -349.836625 
L 218.343349 -352.853148 
L 218.344026 -355.869671 
L 218.344293 -358.886194 
L 218.344421 -361.902717 
L 218.344984 -364.91924 
L 218.346769 -367.935763 
L 218.347731 -370.952287 
L 218.348193 -373.96881 
L 218.348552 -376.985333 
L 218.348919 -380.001856 
L 218.349645 -383.018379 
L 218.350539 -386.034902 
L 218.350868 -389.051425 
L 218.352445 -392.067948 
L 218.352422 -395.084471 
L 218.351948 -398.100994 
L 218.352672 -401.117517 
L 218.354934 -404.134041 
L 218.355385 -407.150564 
L 218.355973 -410.167087 
L 218.355807 -413.18361 
L 218.357248 -416.200133 
L 218.380681 -419.216656 
L 218.399016 -422.233179 
L 218.400984 -422.233179 
L 218.400984 -422.233179 
L 218.419319 -419.216656 
L 218.442752 -416.200133 
L 218.444193 -413.18361 
L 218.444027 -410.167087 
L 218.444615 -407.150564 
L 218.445066 -404.134041 
L 218.447328 -401.117517 
L 218.448052 -398.100994 
L 218.447578 -395.084471 
L 218.447555 -392.067948 
L 218.449132 -389.051425 
L 218.449461 -386.034902 
L 218.450355 -383.018379 
L 218.451081 -380.001856 
L 218.451448 -376.985333 
L 218.451807 -373.96881 
L 218.452269 -370.952287 
L 218.453231 -367.935763 
L 218.455016 -364.91924 
L 218.455579 -361.902717 
L 218.455707 -358.886194 
L 218.455974 -355.869671 
L 218.456651 -352.853148 
L 218.45777 -349.836625 
L 218.458442 -346.820102 
L 218.458876 -343.803579 
L 218.460319 -340.787056 
L 218.461011 -337.770533 
L 218.461739 -334.754009 
L 218.463135 -331.737486 
L 218.464397 -328.720963 
L 218.465275 -325.70444 
L 218.466387 -322.687917 
L 218.46822 -319.671394 
L 218.468505 -316.654871 
L 218.469896 -313.638348 
L 218.470724 -310.621825 
L 218.473011 -307.605302 
L 218.473761 -304.588779 
L 218.474331 -301.572255 
L 218.476452 -298.555732 
L 218.477082 -295.539209 
L 218.478468 -292.522686 
L 218.481257 -289.506163 
L 218.482419 -286.48964 
L 218.483862 -283.473117 
L 218.48544 -280.456594 
L 218.487112 -277.440071 
L 218.488952 -274.423548 
L 218.490514 -271.407024 
L 218.49297 -268.390501 
L 218.495441 -265.373978 
L 218.498211 -262.357455 
L 218.501043 -259.340932 
L 218.503469 -256.324409 
L 218.505351 -253.307886 
L 218.508723 -250.291363 
L 218.511352 -247.27484 
L 218.513527 -244.258317 
L 218.516185 -241.241794 
L 218.519785 -238.22527 
L 218.523609 -235.208747 
L 218.527017 -232.192224 
L 218.530762 -229.175701 
L 218.535025 -226.159178 
L 218.540383 -223.142655 
L 218.545146 -220.126132 
L 218.550847 -217.109609 
L 218.557318 -214.093086 
L 218.562203 -211.076563 
L 218.568045 -208.06004 
L 218.575802 -205.043516 
L 218.583276 -202.026993 
L 218.590407 -199.01047 
L 218.599698 -195.993947 
L 218.610443 -192.977424 
L 218.620887 -189.960901 
L 218.632529 -186.944378 
L 218.645532 -183.927855 
L 218.660274 -180.911332 
L 218.67555 -177.894809 
L 218.693525 -174.878286 
L 218.715618 -171.861762 
L 218.739394 -168.845239 
L 218.768309 -165.828716 
L 218.801712 -162.812193 
L 218.841929 -159.79567 
L 218.88856 -156.779147 
L 218.946363 -153.762624 
L 219.021567 -150.746101 
L 219.112743 -147.729578 
L 219.2409 -144.713055 
L 219.429482 -141.696532 
L 219.718288 -138.680008 
L 220.220723 -135.663485 
L 221.490203 -132.646962 
L 235.009913 -129.630439 
L 263.04 -126.613916 
L 223.854695 -123.597393 
z
" style="stroke: #5a5a5a; stroke-width: 1.25"/>
    </defs>
    <g clip-path="url(#p41011769b4)">
     <use xlink:href="#mda52fb362e" x="0" y="576" style="fill: #7891b5; stroke: #5a5a5a; stroke-width: 1.25"/>
    </g>
   </g>
   <g id="PolyCollection_2">
    <defs>
     <path id="mc32ea3a7d5" d="M 372.61745 -120.622961 
L 361.78255 -120.622961 
L 342.214173 -123.699529 
L 322.56 -126.776098 
L 334.927589 -129.852666 
L 355.852913 -132.929235 
L 363.433707 -136.005803 
L 364.990672 -139.082371 
L 365.520054 -142.15894 
L 365.826732 -145.235508 
L 366.034126 -148.312076 
L 366.186912 -151.388645 
L 366.307932 -154.465213 
L 366.405137 -157.541781 
L 366.485383 -160.61835 
L 366.547941 -163.694918 
L 366.599279 -166.771487 
L 366.647389 -169.848055 
L 366.68706 -172.924623 
L 366.721402 -176.001192 
L 366.754129 -179.07776 
L 366.778623 -182.154328 
L 366.795975 -185.230897 
L 366.818485 -188.307465 
L 366.844041 -191.384033 
L 366.864053 -194.460602 
L 366.878803 -197.53717 
L 366.891964 -200.613739 
L 366.900522 -203.690307 
L 366.904535 -206.766875 
L 366.91765 -209.843444 
L 366.934592 -212.920012 
L 366.942202 -215.99658 
L 366.943301 -219.073149 
L 366.948827 -222.149717 
L 366.960406 -225.226286 
L 366.969104 -228.302854 
L 366.97569 -231.379422 
L 366.984534 -234.455991 
L 366.992372 -237.532559 
L 366.996696 -240.609127 
L 367.000298 -243.685696 
L 367.005655 -246.762264 
L 367.010701 -249.838832 
L 367.014991 -252.915401 
L 367.019072 -255.991969 
L 367.022375 -259.068538 
L 367.025424 -262.145106 
L 367.030832 -265.221674 
L 367.03669 -268.298243 
L 367.042165 -271.374811 
L 367.045773 -274.451379 
L 367.047764 -277.527948 
L 367.050429 -280.604516 
L 367.052263 -283.681084 
L 367.052985 -286.757653 
L 367.056192 -289.834221 
L 367.062884 -292.91079 
L 367.068784 -295.987358 
L 367.072102 -299.063926 
L 367.074236 -302.140495 
L 367.07461 -305.217063 
L 367.07438 -308.293631 
L 367.076591 -311.3702 
L 367.080741 -314.446768 
L 367.084245 -317.523336 
L 367.086291 -320.599905 
L 367.086342 -323.676473 
L 367.087118 -326.753042 
L 367.088748 -329.82961 
L 367.089294 -332.906178 
L 367.090194 -335.982747 
L 367.091738 -339.059315 
L 367.094929 -342.135883 
L 367.099713 -345.212452 
L 367.102791 -348.28902 
L 367.102698 -351.365589 
L 367.100924 -354.442157 
L 367.10012 -357.518725 
L 367.101998 -360.595294 
L 367.106329 -363.671862 
L 367.110211 -366.74843 
L 367.110742 -369.824999 
L 367.109129 -372.901567 
L 367.108353 -375.978135 
L 367.108473 -379.054704 
L 367.10832 -382.131272 
L 367.108917 -385.207841 
L 367.112104 -388.284409 
L 367.114803 -391.360977 
L 367.114837 -394.437546 
L 367.114571 -397.514114 
L 367.115516 -400.590682 
L 367.116765 -403.667251 
L 367.117757 -406.743819 
L 367.118387 -409.820387 
L 367.121901 -412.896956 
L 367.135096 -415.973524 
L 367.161784 -419.050093 
L 367.187609 -422.126661 
L 367.19814 -425.203229 
L 367.20186 -425.203229 
L 367.20186 -425.203229 
L 367.212391 -422.126661 
L 367.238216 -419.050093 
L 367.264904 -415.973524 
L 367.278099 -412.896956 
L 367.281613 -409.820387 
L 367.282243 -406.743819 
L 367.283235 -403.667251 
L 367.284484 -400.590682 
L 367.285429 -397.514114 
L 367.285163 -394.437546 
L 367.285197 -391.360977 
L 367.287896 -388.284409 
L 367.291083 -385.207841 
L 367.29168 -382.131272 
L 367.291527 -379.054704 
L 367.291647 -375.978135 
L 367.290871 -372.901567 
L 367.289258 -369.824999 
L 367.289789 -366.74843 
L 367.293671 -363.671862 
L 367.298002 -360.595294 
L 367.29988 -357.518725 
L 367.299076 -354.442157 
L 367.297302 -351.365589 
L 367.297209 -348.28902 
L 367.300287 -345.212452 
L 367.305071 -342.135883 
L 367.308262 -339.059315 
L 367.309806 -335.982747 
L 367.310706 -332.906178 
L 367.311252 -329.82961 
L 367.312882 -326.753042 
L 367.313658 -323.676473 
L 367.313709 -320.599905 
L 367.315755 -317.523336 
L 367.319259 -314.446768 
L 367.323409 -311.3702 
L 367.32562 -308.293631 
L 367.32539 -305.217063 
L 367.325764 -302.140495 
L 367.327898 -299.063926 
L 367.331216 -295.987358 
L 367.337116 -292.91079 
L 367.343808 -289.834221 
L 367.347015 -286.757653 
L 367.347737 -283.681084 
L 367.349571 -280.604516 
L 367.352236 -277.527948 
L 367.354227 -274.451379 
L 367.357835 -271.374811 
L 367.36331 -268.298243 
L 367.369168 -265.221674 
L 367.374576 -262.145106 
L 367.377625 -259.068538 
L 367.380928 -255.991969 
L 367.385009 -252.915401 
L 367.389299 -249.838832 
L 367.394345 -246.762264 
L 367.399702 -243.685696 
L 367.403304 -240.609127 
L 367.407628 -237.532559 
L 367.415466 -234.455991 
L 367.42431 -231.379422 
L 367.430896 -228.302854 
L 367.439594 -225.226286 
L 367.451173 -222.149717 
L 367.456699 -219.073149 
L 367.457798 -215.99658 
L 367.465408 -212.920012 
L 367.48235 -209.843444 
L 367.495465 -206.766875 
L 367.499478 -203.690307 
L 367.508036 -200.613739 
L 367.521197 -197.53717 
L 367.535947 -194.460602 
L 367.555959 -191.384033 
L 367.581515 -188.307465 
L 367.604025 -185.230897 
L 367.621377 -182.154328 
L 367.645871 -179.07776 
L 367.678598 -176.001192 
L 367.71294 -172.924623 
L 367.752611 -169.848055 
L 367.800721 -166.771487 
L 367.852059 -163.694918 
L 367.914617 -160.61835 
L 367.994863 -157.541781 
L 368.092068 -154.465213 
L 368.213088 -151.388645 
L 368.365874 -148.312076 
L 368.573268 -145.235508 
L 368.879946 -142.15894 
L 369.409328 -139.082371 
L 370.966293 -136.005803 
L 378.547087 -132.929235 
L 399.472411 -129.852666 
L 411.84 -126.776098 
L 392.185827 -123.699529 
L 372.61745 -120.622961 
z
" style="stroke: #5a5a5a; stroke-width: 1.25"/>
    </defs>
    <g clip-path="url(#p41011769b4)">
     <use xlink:href="#mc32ea3a7d5" x="0" y="576" style="fill: #aeb9cb; stroke: #5a5a5a; stroke-width: 1.25"/>
    </g>
   </g>
   <g id="PolyCollection_3">
    <defs>
     <path id="m0a14a8ad1b" d="M 521.468156 -116.679376 
L 510.531844 -116.679376 
L 499.984624 -119.835545 
L 483.811265 -122.991714 
L 471.36 -126.147883 
L 472.780873 -129.304052 
L 485.966882 -132.460221 
L 499.926221 -135.616389 
L 508.184846 -138.772558 
L 511.595432 -141.928727 
L 512.846075 -145.084896 
L 513.413071 -148.241065 
L 513.768852 -151.397234 
L 514.031229 -154.553403 
L 514.233304 -157.709572 
L 514.395655 -160.865741 
L 514.533694 -164.021909 
L 514.651425 -167.178078 
L 514.747951 -170.334247 
L 514.825709 -173.490416 
L 514.889633 -176.646585 
L 514.946536 -179.802754 
L 515.003659 -182.958923 
L 515.061283 -186.115092 
L 515.112761 -189.27126 
L 515.155867 -192.427429 
L 515.19587 -195.583598 
L 515.234563 -198.739767 
L 515.265229 -201.895936 
L 515.282102 -205.052105 
L 515.288591 -208.208274 
L 515.294542 -211.364443 
L 515.308025 -214.520612 
L 515.33008 -217.67678 
L 515.357335 -220.832949 
L 515.386107 -223.989118 
L 515.411924 -227.145287 
L 515.430806 -230.301456 
L 515.442812 -233.457625 
L 515.451493 -236.613794 
L 515.460401 -239.769963 
L 515.471083 -242.926131 
L 515.484507 -246.0823 
L 515.503056 -249.238469 
L 515.527669 -252.394638 
L 515.553012 -255.550807 
L 515.5703 -258.706976 
L 515.57695 -261.863145 
L 515.579164 -265.019314 
L 515.583092 -268.175483 
L 515.588789 -271.331651 
L 515.594342 -274.48782 
L 515.599558 -277.643989 
L 515.604895 -280.800158 
L 515.611894 -283.956327 
L 515.622736 -287.112496 
L 515.635439 -290.268665 
L 515.643776 -293.424834 
L 515.645794 -296.581002 
L 515.647168 -299.737171 
L 515.653403 -302.89334 
L 515.663851 -306.049509 
L 515.67388 -309.205678 
L 515.679537 -312.361847 
L 515.680737 -315.518016 
L 515.680537 -318.674185 
L 515.681104 -321.830354 
L 515.682073 -324.986522 
L 515.682311 -328.142691 
L 515.68107 -331.29886 
L 515.678325 -334.455029 
L 515.676237 -337.611198 
L 515.678755 -340.767367 
L 515.687035 -343.923536 
L 515.69763 -347.079705 
L 515.706664 -350.235873 
L 515.713174 -353.392042 
L 515.7186 -356.548211 
L 515.724671 -359.70438 
L 515.73154 -362.860549 
L 515.736918 -366.016718 
L 515.737325 -369.172887 
L 515.732358 -372.329056 
L 515.727047 -375.485225 
L 515.727451 -378.641393 
L 515.734864 -381.797562 
L 515.745196 -384.953731 
L 515.752546 -388.1099 
L 515.75393 -391.266069 
L 515.751733 -394.422238 
L 515.750703 -397.578407 
L 515.753459 -400.734576 
L 515.759819 -403.890744 
L 515.768471 -407.046913 
L 515.779621 -410.203082 
L 515.799144 -413.359251 
L 515.836471 -416.51542 
L 515.890488 -419.671589 
L 515.943535 -422.827758 
L 515.978523 -425.983927 
L 515.994127 -429.140096 
L 516.005873 -429.140096 
L 516.005873 -429.140096 
L 516.021477 -425.983927 
L 516.056465 -422.827758 
L 516.109512 -419.671589 
L 516.163529 -416.51542 
L 516.200856 -413.359251 
L 516.220379 -410.203082 
L 516.231529 -407.046913 
L 516.240181 -403.890744 
L 516.246541 -400.734576 
L 516.249297 -397.578407 
L 516.248267 -394.422238 
L 516.24607 -391.266069 
L 516.247454 -388.1099 
L 516.254804 -384.953731 
L 516.265136 -381.797562 
L 516.272549 -378.641393 
L 516.272953 -375.485225 
L 516.267642 -372.329056 
L 516.262675 -369.172887 
L 516.263082 -366.016718 
L 516.26846 -362.860549 
L 516.275329 -359.70438 
L 516.2814 -356.548211 
L 516.286826 -353.392042 
L 516.293336 -350.235873 
L 516.30237 -347.079705 
L 516.312965 -343.923536 
L 516.321245 -340.767367 
L 516.323763 -337.611198 
L 516.321675 -334.455029 
L 516.31893 -331.29886 
L 516.317689 -328.142691 
L 516.317927 -324.986522 
L 516.318896 -321.830354 
L 516.319463 -318.674185 
L 516.319263 -315.518016 
L 516.320463 -312.361847 
L 516.32612 -309.205678 
L 516.336149 -306.049509 
L 516.346597 -302.89334 
L 516.352832 -299.737171 
L 516.354206 -296.581002 
L 516.356224 -293.424834 
L 516.364561 -290.268665 
L 516.377264 -287.112496 
L 516.388106 -283.956327 
L 516.395105 -280.800158 
L 516.400442 -277.643989 
L 516.405658 -274.48782 
L 516.411211 -271.331651 
L 516.416908 -268.175483 
L 516.420836 -265.019314 
L 516.42305 -261.863145 
L 516.4297 -258.706976 
L 516.446988 -255.550807 
L 516.472331 -252.394638 
L 516.496944 -249.238469 
L 516.515493 -246.0823 
L 516.528917 -242.926131 
L 516.539599 -239.769963 
L 516.548507 -236.613794 
L 516.557188 -233.457625 
L 516.569194 -230.301456 
L 516.588076 -227.145287 
L 516.613893 -223.989118 
L 516.642665 -220.832949 
L 516.66992 -217.67678 
L 516.691975 -214.520612 
L 516.705458 -211.364443 
L 516.711409 -208.208274 
L 516.717898 -205.052105 
L 516.734771 -201.895936 
L 516.765437 -198.739767 
L 516.80413 -195.583598 
L 516.844133 -192.427429 
L 516.887239 -189.27126 
L 516.938717 -186.115092 
L 516.996341 -182.958923 
L 517.053464 -179.802754 
L 517.110367 -176.646585 
L 517.174291 -173.490416 
L 517.252049 -170.334247 
L 517.348575 -167.178078 
L 517.466306 -164.021909 
L 517.604345 -160.865741 
L 517.766696 -157.709572 
L 517.968771 -154.553403 
L 518.231148 -151.397234 
L 518.586929 -148.241065 
L 519.153925 -145.084896 
L 520.404568 -141.928727 
L 523.815154 -138.772558 
L 532.073779 -135.616389 
L 546.033118 -132.460221 
L 559.219127 -129.304052 
L 560.64 -126.147883 
L 548.188735 -122.991714 
L 532.015376 -119.835545 
L 521.468156 -116.679376 
z
" style="stroke: #5a5a5a; stroke-width: 1.25"/>
    </defs>
    <g clip-path="url(#p41011769b4)">
     <use xlink:href="#m0a14a8ad1b" x="0" y="576" style="fill: #e5e5ea; stroke: #5a5a5a; stroke-width: 1.25"/>
    </g>
   </g>
   <g id="PolyCollection_4">
    <defs>
     <path id="mad14b2087e" d="M 665.574923 -98.310506 
L 664.025077 -98.310506 
L 663.443781 -101.837687 
L 662.545851 -105.364867 
L 661.237416 -108.892048 
L 659.438183 -112.419228 
L 657.102371 -115.946409 
L 654.238022 -119.473589 
L 650.918225 -123.000769 
L 647.279158 -126.52795 
L 643.503545 -130.05513 
L 639.792952 -133.582311 
L 636.336121 -137.109491 
L 633.281622 -140.636672 
L 630.721079 -144.163852 
L 628.685298 -147.691033 
L 627.151607 -151.218213 
L 626.058229 -154.745393 
L 625.321044 -158.272574 
L 624.849121 -161.799754 
L 624.556868 -165.326935 
L 624.37199 -168.854115 
L 624.239212 -172.381296 
L 624.120264 -175.908476 
L 623.991065 -179.435657 
L 623.837353 -182.962837 
L 623.650208 -186.490017 
L 623.422768 -190.017198 
L 623.148982 -193.544378 
L 622.824617 -197.071559 
L 622.450012 -200.598739 
L 622.033426 -204.12592 
L 621.593472 -207.6531 
L 621.159138 -211.180281 
L 620.766481 -214.707461 
L 620.452165 -218.234641 
L 620.245291 -221.761822 
L 620.16 -225.289002 
L 620.191531 -228.816183 
L 620.31762 -232.343363 
L 620.505338 -235.870544 
L 620.721397 -239.397724 
L 620.942322 -242.924905 
L 621.160713 -246.452085 
L 621.385115 -249.979265 
L 621.633559 -253.506446 
L 621.923324 -257.033626 
L 622.260864 -260.560807 
L 622.635498 -264.087987 
L 623.018777 -267.615168 
L 623.369351 -271.142348 
L 623.641675 -274.669529 
L 623.796238 -278.196709 
L 623.809026 -281.723889 
L 623.67802 -285.25107 
L 623.424813 -288.77825 
L 623.090267 -292.305431 
L 622.724874 -295.832611 
L 622.376682 -299.359792 
L 622.081083 -302.886972 
L 621.856258 -306.414153 
L 621.705452 -309.941333 
L 621.623837 -313.468513 
L 621.605475 -316.995694 
L 621.646298 -320.522874 
L 621.741805 -324.050055 
L 621.881629 -327.577235 
L 622.045127 -331.104416 
L 622.201563 -334.631596 
L 622.315767 -338.158777 
L 622.357206 -341.685957 
L 622.308737 -345.213138 
L 622.171784 -348.740318 
L 621.96656 -352.267498 
L 621.727902 -355.794679 
L 621.498443 -359.321859 
L 621.320864 -362.84904 
L 621.230592 -366.37622 
L 621.250109 -369.903401 
L 621.386233 -373.430581 
L 621.631892 -376.957762 
L 621.973448 -380.484942 
L 622.403134 -384.012122 
L 622.933957 -387.539303 
L 623.612333 -391.066483 
L 624.52278 -394.593664 
L 625.780067 -398.120844 
L 627.507497 -401.648025 
L 629.804752 -405.175205 
L 632.713437 -408.702386 
L 636.191118 -412.229566 
L 640.103654 -415.756746 
L 644.24059 -419.283927 
L 648.350878 -422.811107 
L 652.189106 -426.338288 
L 655.558818 -429.865468 
L 658.341043 -433.392649 
L 660.501975 -436.919829 
L 662.081138 -440.44701 
L 663.167101 -443.97419 
L 663.869935 -447.50137 
L 665.730065 -447.50137 
L 665.730065 -447.50137 
L 666.432899 -443.97419 
L 667.518862 -440.44701 
L 669.098025 -436.919829 
L 671.258957 -433.392649 
L 674.041182 -429.865468 
L 677.410894 -426.338288 
L 681.249122 -422.811107 
L 685.35941 -419.283927 
L 689.496346 -415.756746 
L 693.408882 -412.229566 
L 696.886563 -408.702386 
L 699.795248 -405.175205 
L 702.092503 -401.648025 
L 703.819933 -398.120844 
L 705.07722 -394.593664 
L 705.987667 -391.066483 
L 706.666043 -387.539303 
L 707.196866 -384.012122 
L 707.626552 -380.484942 
L 707.968108 -376.957762 
L 708.213767 -373.430581 
L 708.349891 -369.903401 
L 708.369408 -366.37622 
L 708.279136 -362.84904 
L 708.101557 -359.321859 
L 707.872098 -355.794679 
L 707.63344 -352.267498 
L 707.428216 -348.740318 
L 707.291263 -345.213138 
L 707.242794 -341.685957 
L 707.284233 -338.158777 
L 707.398437 -334.631596 
L 707.554873 -331.104416 
L 707.718371 -327.577235 
L 707.858195 -324.050055 
L 707.953702 -320.522874 
L 707.994525 -316.995694 
L 707.976163 -313.468513 
L 707.894548 -309.941333 
L 707.743742 -306.414153 
L 707.518917 -302.886972 
L 707.223318 -299.359792 
L 706.875126 -295.832611 
L 706.509733 -292.305431 
L 706.175187 -288.77825 
L 705.92198 -285.25107 
L 705.790974 -281.723889 
L 705.803762 -278.196709 
L 705.958325 -274.669529 
L 706.230649 -271.142348 
L 706.581223 -267.615168 
L 706.964502 -264.087987 
L 707.339136 -260.560807 
L 707.676676 -257.033626 
L 707.966441 -253.506446 
L 708.214885 -249.979265 
L 708.439287 -246.452085 
L 708.657678 -242.924905 
L 708.878603 -239.397724 
L 709.094662 -235.870544 
L 709.28238 -232.343363 
L 709.408469 -228.816183 
L 709.44 -225.289002 
L 709.354709 -221.761822 
L 709.147835 -218.234641 
L 708.833519 -214.707461 
L 708.440862 -211.180281 
L 708.006528 -207.6531 
L 707.566574 -204.12592 
L 707.149988 -200.598739 
L 706.775383 -197.071559 
L 706.451018 -193.544378 
L 706.177232 -190.017198 
L 705.949792 -186.490017 
L 705.762647 -182.962837 
L 705.608935 -179.435657 
L 705.479736 -175.908476 
L 705.360788 -172.381296 
L 705.22801 -168.854115 
L 705.043132 -165.326935 
L 704.750879 -161.799754 
L 704.278956 -158.272574 
L 703.541771 -154.745393 
L 702.448393 -151.218213 
L 700.914702 -147.691033 
L 698.878921 -144.163852 
L 696.318378 -140.636672 
L 693.263879 -137.109491 
L 689.807048 -133.582311 
L 686.096455 -130.05513 
L 682.320842 -126.52795 
L 678.681775 -123.000769 
L 675.361978 -119.473589 
L 672.497629 -115.946409 
L 670.161817 -112.419228 
L 668.362584 -108.892048 
L 667.054149 -105.364867 
L 666.156219 -101.837687 
L 665.574923 -98.310506 
z
" style="stroke: #5a5a5a; stroke-width: 1.25"/>
    </defs>
    <g clip-path="url(#p41011769b4)">
     <use xlink:href="#mad14b2087e" x="0" y="576" style="fill: #efe1e0; stroke: #5a5a5a; stroke-width: 1.25"/>
    </g>
   </g>
   <g id="PolyCollection_5">
    <defs>
     <path id="mad853b122c" d="M 814.415801 -93.079442 
L 812.784199 -93.079442 
L 812.249374 -96.711854 
L 811.450548 -100.344267 
L 810.309706 -103.97668 
L 808.751973 -107.609093 
L 806.718656 -111.241506 
L 804.181833 -114.873919 
L 801.157307 -118.506332 
L 797.712323 -122.138745 
L 793.964912 -125.771158 
L 790.073531 -129.403571 
L 786.218042 -133.035984 
L 782.575596 -136.668397 
L 779.296548 -140.30081 
L 776.485683 -143.933223 
L 774.19265 -147.565636 
L 772.413085 -151.198049 
L 771.099231 -154.830462 
L 770.176832 -158.462875 
L 769.563988 -162.095288 
L 769.187831 -165.727701 
L 768.995819 -169.360114 
L 768.96 -172.992527 
L 769.074213 -176.62494 
L 769.345751 -180.257353 
L 769.784066 -183.889766 
L 770.389657 -187.522179 
L 771.145943 -191.154592 
L 772.016067 -194.787005 
L 772.945122 -198.419418 
L 773.866936 -202.051831 
L 774.713515 -205.684244 
L 775.424869 -209.316657 
L 775.957173 -212.94907 
L 776.287898 -216.581483 
L 776.417391 -220.213896 
L 776.367072 -223.846309 
L 776.174992 -227.478722 
L 775.889714 -231.111135 
L 775.563559 -234.743547 
L 775.246194 -238.37596 
L 774.979301 -242.008373 
L 774.792873 -245.640786 
L 774.703365 -249.273199 
L 774.713694 -252.905612 
L 774.814825 -256.538025 
L 774.988524 -260.170438 
L 775.210734 -263.802851 
L 775.455008 -267.435264 
L 775.695475 -271.067677 
L 775.909023 -274.70009 
L 776.076594 -278.332503 
L 776.183766 -281.964916 
L 776.220962 -285.597329 
L 776.183613 -289.229742 
L 776.072445 -292.862155 
L 775.8938 -296.494568 
L 775.659694 -300.126981 
L 775.387223 -303.759394 
L 775.097095 -307.391807 
L 774.811254 -311.02422 
L 774.549948 -314.656633 
L 774.328781 -318.289046 
L 774.156481 -321.921459 
L 774.034045 -325.553872 
L 773.955633 -329.186285 
L 773.91117 -332.818698 
L 773.890048 -336.451111 
L 773.884874 -340.083524 
L 773.894128 -343.715937 
L 773.92284 -347.34835 
L 773.981112 -350.980763 
L 774.0811 -354.613176 
L 774.233647 -358.245589 
L 774.445904 -361.878002 
L 774.720846 -365.510415 
L 775.058891 -369.142828 
L 775.461085 -372.77524 
L 775.932947 -376.407653 
L 776.487979 -380.040066 
L 777.150094 -383.672479 
L 777.954394 -387.304892 
L 778.94579 -390.937305 
L 780.174959 -394.569718 
L 781.691334 -398.202131 
L 783.533453 -401.834544 
L 785.71802 -405.466957 
L 788.230081 -409.09937 
L 791.017298 -412.731783 
L 793.990787 -416.364196 
L 797.033524 -419.996609 
L 800.015137 -423.629022 
L 802.809953 -427.261435 
L 805.314114 -430.893848 
L 807.457916 -434.526261 
L 809.210999 -438.158674 
L 810.580139 -441.791087 
L 811.601281 -445.4235 
L 812.328561 -449.055913 
L 812.823204 -452.688326 
L 814.376796 -452.688326 
L 814.376796 -452.688326 
L 814.871439 -449.055913 
L 815.598719 -445.4235 
L 816.619861 -441.791087 
L 817.989001 -438.158674 
L 819.742084 -434.526261 
L 821.885886 -430.893848 
L 824.390047 -427.261435 
L 827.184863 -423.629022 
L 830.166476 -419.996609 
L 833.209213 -416.364196 
L 836.182702 -412.731783 
L 838.969919 -409.09937 
L 841.48198 -405.466957 
L 843.666547 -401.834544 
L 845.508666 -398.202131 
L 847.025041 -394.569718 
L 848.25421 -390.937305 
L 849.245606 -387.304892 
L 850.049906 -383.672479 
L 850.712021 -380.040066 
L 851.267053 -376.407653 
L 851.738915 -372.77524 
L 852.141109 -369.142828 
L 852.479154 -365.510415 
L 852.754096 -361.878002 
L 852.966353 -358.245589 
L 853.1189 -354.613176 
L 853.218888 -350.980763 
L 853.27716 -347.34835 
L 853.305872 -343.715937 
L 853.315126 -340.083524 
L 853.309952 -336.451111 
L 853.28883 -332.818698 
L 853.244367 -329.186285 
L 853.165955 -325.553872 
L 853.043519 -321.921459 
L 852.871219 -318.289046 
L 852.650052 -314.656633 
L 852.388746 -311.02422 
L 852.102905 -307.391807 
L 851.812777 -303.759394 
L 851.540306 -300.126981 
L 851.3062 -296.494568 
L 851.127555 -292.862155 
L 851.016387 -289.229742 
L 850.979038 -285.597329 
L 851.016234 -281.964916 
L 851.123406 -278.332503 
L 851.290977 -274.70009 
L 851.504525 -271.067677 
L 851.744992 -267.435264 
L 851.989266 -263.802851 
L 852.211476 -260.170438 
L 852.385175 -256.538025 
L 852.486306 -252.905612 
L 852.496635 -249.273199 
L 852.407127 -245.640786 
L 852.220699 -242.008373 
L 851.953806 -238.37596 
L 851.636441 -234.743547 
L 851.310286 -231.111135 
L 851.025008 -227.478722 
L 850.832928 -223.846309 
L 850.782609 -220.213896 
L 850.912102 -216.581483 
L 851.242827 -212.94907 
L 851.775131 -209.316657 
L 852.486485 -205.684244 
L 853.333064 -202.051831 
L 854.254878 -198.419418 
L 855.183933 -194.787005 
L 856.054057 -191.154592 
L 856.810343 -187.522179 
L 857.415934 -183.889766 
L 857.854249 -180.257353 
L 858.125787 -176.62494 
L 858.24 -172.992527 
L 858.204181 -169.360114 
L 858.012169 -165.727701 
L 857.636012 -162.095288 
L 857.023168 -158.462875 
L 856.100769 -154.830462 
L 854.786915 -151.198049 
L 853.00735 -147.565636 
L 850.714317 -143.933223 
L 847.903452 -140.30081 
L 844.624404 -136.668397 
L 840.981958 -133.035984 
L 837.126469 -129.403571 
L 833.235088 -125.771158 
L 829.487677 -122.138745 
L 826.042693 -118.506332 
L 823.018167 -114.873919 
L 820.481344 -111.241506 
L 818.448027 -107.609093 
L 816.890294 -103.97668 
L 815.749452 -100.344267 
L 814.950626 -96.711854 
L 814.415801 -93.079442 
z
" style="stroke: #5a5a5a; stroke-width: 1.25"/>
    </defs>
    <g clip-path="url(#p41011769b4)">
     <use xlink:href="#mad853b122c" x="0" y="576" style="fill: #d2acaa; stroke: #5a5a5a; stroke-width: 1.25"/>
    </g>
   </g>
   <g id="PolyCollection_6">
    <defs>
     <path id="m841dc386d9" d="M 963.07502 -83.52 
L 961.72498 -83.52 
L 961.525833 -87.592727 
L 961.282615 -91.665455 
L 960.990082 -95.738182 
L 960.643583 -99.810909 
L 960.23941 -103.883636 
L 959.775143 -107.956364 
L 959.249961 -112.029091 
L 958.664882 -116.101818 
L 958.022905 -120.174545 
L 957.329017 -124.247273 
L 956.590053 -128.32 
L 955.814397 -132.392727 
L 955.011547 -136.465455 
L 954.191547 -140.538182 
L 953.364352 -144.610909 
L 952.53917 -148.683636 
L 951.723835 -152.756364 
L 950.924283 -156.829091 
L 950.144181 -160.901818 
L 949.384741 -164.974545 
L 948.644757 -169.047273 
L 947.920847 -173.12 
L 947.207892 -177.192727 
L 946.499619 -181.265455 
L 945.789274 -185.338182 
L 945.070321 -189.410909 
L 944.337085 -193.483636 
L 943.585296 -197.556364 
L 942.812462 -201.629091 
L 942.018056 -205.701818 
L 941.203489 -209.774545 
L 940.371898 -213.847273 
L 939.52775 -217.92 
L 938.676334 -221.992727 
L 937.823168 -226.065455 
L 936.973403 -230.138182 
L 936.13126 -234.210909 
L 935.299571 -238.283636 
L 934.47945 -242.356364 
L 933.670144 -246.429091 
L 932.86906 -250.501818 
L 932.071999 -254.574545 
L 931.273555 -258.647273 
L 930.467691 -262.72 
L 929.648416 -266.792727 
L 928.810551 -270.865455 
L 927.95049 -274.938182 
L 927.06692 -279.010909 
L 926.161399 -283.083636 
L 925.238764 -287.156364 
L 924.307282 -291.229091 
L 923.378536 -295.301818 
L 922.467012 -299.374545 
L 921.589426 -303.447273 
L 920.763823 -307.52 
L 920.008529 -311.592727 
L 919.341048 -315.665455 
L 918.777014 -319.738182 
L 918.329298 -323.810909 
L 918.007359 -327.883636 
L 917.816923 -331.956364 
L 917.76 -336.029091 
L 917.83525 -340.101818 
L 918.038654 -344.174545 
L 918.364402 -348.247273 
L 918.805901 -352.32 
L 919.356786 -356.392727 
L 920.011803 -360.465455 
L 920.767474 -364.538182 
L 921.622449 -368.610909 
L 922.577512 -372.683636 
L 923.635223 -376.756364 
L 924.799242 -380.829091 
L 926.073403 -384.901818 
L 927.46064 -388.974545 
L 928.961883 -393.047273 
L 930.575054 -397.12 
L 932.294268 -401.192727 
L 934.109332 -405.265455 
L 936.005611 -409.338182 
L 937.964271 -413.410909 
L 939.96289 -417.483636 
L 941.976377 -421.556364 
L 943.978122 -425.629091 
L 945.941277 -429.701818 
L 947.84004 -433.774545 
L 949.65086 -437.847273 
L 951.353458 -441.92 
L 952.93159 -445.992727 
L 954.373528 -450.065455 
L 955.672231 -454.138182 
L 956.825225 -458.210909 
L 957.834245 -462.283636 
L 958.70467 -466.356364 
L 959.444831 -470.429091 
L 960.065262 -474.501818 
L 960.577933 -478.574545 
L 960.995541 -482.647273 
L 961.330885 -486.72 
L 963.469115 -486.72 
L 963.469115 -486.72 
L 963.804459 -482.647273 
L 964.222067 -478.574545 
L 964.734738 -474.501818 
L 965.355169 -470.429091 
L 966.09533 -466.356364 
L 966.965755 -462.283636 
L 967.974775 -458.210909 
L 969.127769 -454.138182 
L 970.426472 -450.065455 
L 971.86841 -445.992727 
L 973.446542 -441.92 
L 975.14914 -437.847273 
L 976.95996 -433.774545 
L 978.858723 -429.701818 
L 980.821878 -425.629091 
L 982.823623 -421.556364 
L 984.83711 -417.483636 
L 986.835729 -413.410909 
L 988.794389 -409.338182 
L 990.690668 -405.265455 
L 992.505732 -401.192727 
L 994.224946 -397.12 
L 995.838117 -393.047273 
L 997.33936 -388.974545 
L 998.726597 -384.901818 
L 1000.000758 -380.829091 
L 1001.164777 -376.756364 
L 1002.222488 -372.683636 
L 1003.177551 -368.610909 
L 1004.032526 -364.538182 
L 1004.788197 -360.465455 
L 1005.443214 -356.392727 
L 1005.994099 -352.32 
L 1006.435598 -348.247273 
L 1006.761346 -344.174545 
L 1006.96475 -340.101818 
L 1007.04 -336.029091 
L 1006.983077 -331.956364 
L 1006.792641 -327.883636 
L 1006.470702 -323.810909 
L 1006.022986 -319.738182 
L 1005.458952 -315.665455 
L 1004.791471 -311.592727 
L 1004.036177 -307.52 
L 1003.210574 -303.447273 
L 1002.332988 -299.374545 
L 1001.421464 -295.301818 
L 1000.492718 -291.229091 
L 999.561236 -287.156364 
L 998.638601 -283.083636 
L 997.73308 -279.010909 
L 996.84951 -274.938182 
L 995.989449 -270.865455 
L 995.151584 -266.792727 
L 994.332309 -262.72 
L 993.526445 -258.647273 
L 992.728001 -254.574545 
L 991.93094 -250.501818 
L 991.129856 -246.429091 
L 990.32055 -242.356364 
L 989.500429 -238.283636 
L 988.66874 -234.210909 
L 987.826597 -230.138182 
L 986.976832 -226.065455 
L 986.123666 -221.992727 
L 985.27225 -217.92 
L 984.428102 -213.847273 
L 983.596511 -209.774545 
L 982.781944 -205.701818 
L 981.987538 -201.629091 
L 981.214704 -197.556364 
L 980.462915 -193.483636 
L 979.729679 -189.410909 
L 979.010726 -185.338182 
L 978.300381 -181.265455 
L 977.592108 -177.192727 
L 976.879153 -173.12 
L 976.155243 -169.047273 
L 975.415259 -164.974545 
L 974.655819 -160.901818 
L 973.875717 -156.829091 
L 973.076165 -152.756364 
L 972.26083 -148.683636 
L 971.435648 -144.610909 
L 970.608453 -140.538182 
L 969.788453 -136.465455 
L 968.985603 -132.392727 
L 968.209947 -128.32 
L 967.470983 -124.247273 
L 966.777095 -120.174545 
L 966.135118 -116.101818 
L 965.550039 -112.029091 
L 965.024857 -107.956364 
L 964.56059 -103.883636 
L 964.156417 -99.810909 
L 963.809918 -95.738182 
L 963.517385 -91.665455 
L 963.274167 -87.592727 
L 963.07502 -83.52 
z
" style="stroke: #5a5a5a; stroke-width: 1.25"/>
    </defs>
    <g clip-path="url(#p41011769b4)">
     <use xlink:href="#m841dc386d9" x="0" y="576" style="fill: #b77977; stroke: #5a5a5a; stroke-width: 1.25"/>
    </g>
   </g>
   <g id="line2d_1">
    <path d="M 218.4 449.141931 
L 218.4 441.352488 
" clip-path="url(#p41011769b4)" style="fill: none; stroke: #5a5a5a; stroke-width: 1.875; stroke-linecap: round"/>
   </g>
   <g id="line2d_2">
    <path d="M 218.4 449.141776 
L 218.4 446.026061 
" clip-path="url(#p41011769b4)" style="fill: none; stroke: #5a5a5a; stroke-width: 5.625; stroke-linecap: round"/>
   </g>
   <g id="line2d_3">
    <path d="M 218.4 449.093802 
" clip-path="url(#p41011769b4)" style="fill: none; stroke: #5a5a5a; stroke-width: 1.5; stroke-linecap: round"/>
    <defs>
     <path id="m0482ffe962" d="M 2.34375 0 
L -2.34375 -0 
" style="stroke: #ffffff; stroke-width: 1.125"/>
    </defs>
    <g clip-path="url(#p41011769b4)">
     <use xlink:href="#m0482ffe962" x="218.4" y="449.093802" style="fill: #ffffff; stroke: #ffffff; stroke-width: 1.125"/>
    </g>
   </g>
   <g id="line2d_4">
    <path d="M 367.2 449.141931 
L 367.2 442.875399 
" clip-path="url(#p41011769b4)" style="fill: none; stroke: #5a5a5a; stroke-width: 1.875; stroke-linecap: round"/>
   </g>
   <g id="line2d_5">
    <path d="M 367.2 449.141877 
L 367.2 446.635039 
" clip-path="url(#p41011769b4)" style="fill: none; stroke: #5a5a5a; stroke-width: 5.625; stroke-linecap: round"/>
   </g>
   <g id="line2d_6">
    <path d="M 367.2 449.112587 
" clip-path="url(#p41011769b4)" style="fill: none; stroke: #5a5a5a; stroke-width: 1.5; stroke-linecap: round"/>
    <g clip-path="url(#p41011769b4)">
     <use xlink:href="#m0482ffe962" x="367.2" y="449.112587" style="fill: #ffffff; stroke: #ffffff; stroke-width: 1.125"/>
    </g>
   </g>
   <g id="line2d_7">
    <path d="M 516 449.141931 
L 516 429.277283 
" clip-path="url(#p41011769b4)" style="fill: none; stroke: #5a5a5a; stroke-width: 1.875; stroke-linecap: round"/>
   </g>
   <g id="line2d_8">
    <path d="M 516 449.141689 
L 516 441.195476 
" clip-path="url(#p41011769b4)" style="fill: none; stroke: #5a5a5a; stroke-width: 5.625; stroke-linecap: round"/>
   </g>
   <g id="line2d_9">
    <path d="M 516 449.040511 
" clip-path="url(#p41011769b4)" style="fill: none; stroke: #5a5a5a; stroke-width: 1.5; stroke-linecap: round"/>
    <g clip-path="url(#p41011769b4)">
     <use xlink:href="#m0482ffe962" x="516" y="449.040511" style="fill: #ffffff; stroke: #ffffff; stroke-width: 1.125"/>
    </g>
   </g>
   <g id="line2d_10">
    <path d="M 664.8 449.141931 
L 664.8 157.046192 
" clip-path="url(#p41011769b4)" style="fill: none; stroke: #5a5a5a; stroke-width: 1.875; stroke-linecap: round"/>
   </g>
   <g id="line2d_11">
    <path d="M 664.8 371.800176 
L 664.8 228.262302 
" clip-path="url(#p41011769b4)" style="fill: none; stroke: #5a5a5a; stroke-width: 5.625; stroke-linecap: round"/>
   </g>
   <g id="line2d_12">
    <path d="M 664.8 301.461871 
" clip-path="url(#p41011769b4)" style="fill: none; stroke: #5a5a5a; stroke-width: 1.5; stroke-linecap: round"/>
    <g clip-path="url(#p41011769b4)">
     <use xlink:href="#m0482ffe962" x="664.8" y="301.461871" style="fill: #ffffff; stroke: #ffffff; stroke-width: 1.125"/>
    </g>
   </g>
   <g id="line2d_13">
    <path d="M 813.6 449.141931 
L 813.6 157.090301 
" clip-path="url(#p41011769b4)" style="fill: none; stroke: #5a5a5a; stroke-width: 1.875; stroke-linecap: round"/>
   </g>
   <g id="line2d_14">
    <path d="M 813.6 384.466928 
L 813.6 233.847827 
" clip-path="url(#p41011769b4)" style="fill: none; stroke: #5a5a5a; stroke-width: 5.625; stroke-linecap: round"/>
   </g>
   <g id="line2d_15">
    <path d="M 813.6 309.198821 
" clip-path="url(#p41011769b4)" style="fill: none; stroke: #5a5a5a; stroke-width: 1.5; stroke-linecap: round"/>
    <g clip-path="url(#p41011769b4)">
     <use xlink:href="#m0482ffe962" x="813.6" y="309.198821" style="fill: #ffffff; stroke: #ffffff; stroke-width: 1.125"/>
    </g>
   </g>
   <g id="line2d_16">
    <path d="M 962.4 424.485959 
L 962.4 157.274041 
" clip-path="url(#p41011769b4)" style="fill: none; stroke: #5a5a5a; stroke-width: 1.875; stroke-linecap: round"/>
   </g>
   <g id="line2d_17">
    <path d="M 962.4 317.194732 
L 962.4 212.664909 
" clip-path="url(#p41011769b4)" style="fill: none; stroke: #5a5a5a; stroke-width: 5.625; stroke-linecap: round"/>
   </g>
   <g id="line2d_18">
    <path d="M 962.4 257.543006 
" clip-path="url(#p41011769b4)" style="fill: none; stroke: #5a5a5a; stroke-width: 1.5; stroke-linecap: round"/>
    <g clip-path="url(#p41011769b4)">
     <use xlink:href="#m0482ffe962" x="962.4" y="257.543006" style="fill: #ffffff; stroke: #ffffff; stroke-width: 1.125"/>
    </g>
   </g>
   <g id="patch_3">
    <path d="M 144 512.64 
L 144 69.12 
" style="fill: none; stroke: #cccccc; stroke-width: 0.8; stroke-linejoin: miter; stroke-linecap: square"/>
   </g>
   <g id="patch_4">
    <path d="M 1036.8 512.64 
L 1036.8 69.12 
" style="fill: none; stroke: #cccccc; stroke-width: 0.8; stroke-linejoin: miter; stroke-linecap: square"/>
   </g>
   <g id="patch_5">
    <path d="M 144 512.64 
L 1036.8 512.64 
" style="fill: none; stroke: #cccccc; stroke-width: 0.8; stroke-linejoin: miter; stroke-linecap: square"/>
   </g>
   <g id="patch_6">
    <path d="M 144 69.12 
L 1036.8 69.12 
" style="fill: none; stroke: #cccccc; stroke-width: 0.8; stroke-linejoin: miter; stroke-linecap: square"/>
   </g>
   <g id="text_17">
    <!-- Count: 13696791 -->
    <g style="fill: #262626" transform="translate(166.11375 66.897453) scale(0.12 -0.12)">
     <defs>
      <path id="DejaVuSans-6e" d="M 3513 2113 
L 3513 0 
L 2938 0 
L 2938 2094 
Q 2938 2591 2744 2837 
Q 2550 3084 2163 3084 
Q 1697 3084 1428 2787 
Q 1159 2491 1159 1978 
L 1159 0 
L 581 0 
L 581 3500 
L 1159 3500 
L 1159 2956 
Q 1366 3272 1645 3428 
Q 1925 3584 2291 3584 
Q 2894 3584 3203 3211 
Q 3513 2838 3513 2113 
z
" transform="scale(0.015625)"/>
      <path id="DejaVuSans-3a" d="M 750 794 
L 1409 794 
L 1409 0 
L 750 0 
L 750 794 
z
M 750 3309 
L 1409 3309 
L 1409 2516 
L 750 2516 
L 750 3309 
z
" transform="scale(0.015625)"/>
      <path id="DejaVuSans-20" transform="scale(0.015625)"/>
      <path id="DejaVuSans-39" d="M 703 97 
L 703 672 
Q 941 559 1184 500 
Q 1428 441 1663 441 
Q 2288 441 2617 861 
Q 2947 1281 2994 2138 
Q 2813 1869 2534 1725 
Q 2256 1581 1919 1581 
Q 1219 1581 811 2004 
Q 403 2428 403 3163 
Q 403 3881 828 4315 
Q 1253 4750 1959 4750 
Q 2769 4750 3195 4129 
Q 3622 3509 3622 2328 
Q 3622 1225 3098 567 
Q 2575 -91 1691 -91 
Q 1453 -91 1209 -44 
Q 966 3 703 97 
z
M 1959 2075 
Q 2384 2075 2632 2365 
Q 2881 2656 2881 3163 
Q 2881 3666 2632 3958 
Q 2384 4250 1959 4250 
Q 1534 4250 1286 3958 
Q 1038 3666 1038 3163 
Q 1038 2656 1286 2365 
Q 1534 2075 1959 2075 
z
" transform="scale(0.015625)"/>
      <path id="DejaVuSans-37" d="M 525 4666 
L 3525 4666 
L 3525 4397 
L 1831 0 
L 1172 0 
L 2766 4134 
L 525 4134 
L 525 4666 
z
" transform="scale(0.015625)"/>
     </defs>
     <use xlink:href="#DejaVuSans-43"/>
     <use xlink:href="#DejaVuSans-6f" x="69.824219"/>
     <use xlink:href="#DejaVuSans-75" x="131.005859"/>
     <use xlink:href="#DejaVuSans-6e" x="194.384766"/>
     <use xlink:href="#DejaVuSans-74" x="257.763672"/>
     <use xlink:href="#DejaVuSans-3a" x="296.972656"/>
     <use xlink:href="#DejaVuSans-20" x="330.664062"/>
     <use xlink:href="#DejaVuSans-31" x="362.451172"/>
     <use xlink:href="#DejaVuSans-33" x="426.074219"/>
     <use xlink:href="#DejaVuSans-36" x="489.697266"/>
     <use xlink:href="#DejaVuSans-39" x="553.320312"/>
     <use xlink:href="#DejaVuSans-36" x="616.943359"/>
     <use xlink:href="#DejaVuSans-37" x="680.566406"/>
     <use xlink:href="#DejaVuSans-39" x="744.189453"/>
     <use xlink:href="#DejaVuSans-31" x="807.8125"/>
    </g>
   </g>
   <g id="text_18">
    <!-- Count: 542514 -->
    <g style="fill: #262626" transform="translate(322.54875 66.897453) scale(0.12 -0.12)">
     <defs>
      <path id="DejaVuSans-35" d="M 691 4666 
L 3169 4666 
L 3169 4134 
L 1269 4134 
L 1269 2991 
Q 1406 3038 1543 3061 
Q 1681 3084 1819 3084 
Q 2600 3084 3056 2656 
Q 3513 2228 3513 1497 
Q 3513 744 3044 326 
Q 2575 -91 1722 -91 
Q 1428 -91 1123 -41 
Q 819 9 494 109 
L 494 744 
Q 775 591 1075 516 
Q 1375 441 1709 441 
Q 2250 441 2565 725 
Q 2881 1009 2881 1497 
Q 2881 1984 2565 2268 
Q 2250 2553 1709 2553 
Q 1456 2553 1204 2497 
Q 953 2441 691 2322 
L 691 4666 
z
" transform="scale(0.015625)"/>
     </defs>
     <use xlink:href="#DejaVuSans-43"/>
     <use xlink:href="#DejaVuSans-6f" x="69.824219"/>
     <use xlink:href="#DejaVuSans-75" x="131.005859"/>
     <use xlink:href="#DejaVuSans-6e" x="194.384766"/>
     <use xlink:href="#DejaVuSans-74" x="257.763672"/>
     <use xlink:href="#DejaVuSans-3a" x="296.972656"/>
     <use xlink:href="#DejaVuSans-20" x="330.664062"/>
     <use xlink:href="#DejaVuSans-35" x="362.451172"/>
     <use xlink:href="#DejaVuSans-34" x="426.074219"/>
     <use xlink:href="#DejaVuSans-32" x="489.697266"/>
     <use xlink:href="#DejaVuSans-35" x="553.320312"/>
     <use xlink:href="#DejaVuSans-31" x="616.943359"/>
     <use xlink:href="#DejaVuSans-34" x="680.566406"/>
    </g>
   </g>
   <g id="text_19">
    <!-- Count: 128909 -->
    <g style="fill: #262626" transform="translate(471.34875 66.897453) scale(0.12 -0.12)">
     <use xlink:href="#DejaVuSans-43"/>
     <use xlink:href="#DejaVuSans-6f" x="69.824219"/>
     <use xlink:href="#DejaVuSans-75" x="131.005859"/>
     <use xlink:href="#DejaVuSans-6e" x="194.384766"/>
     <use xlink:href="#DejaVuSans-74" x="257.763672"/>
     <use xlink:href="#DejaVuSans-3a" x="296.972656"/>
     <use xlink:href="#DejaVuSans-20" x="330.664062"/>
     <use xlink:href="#DejaVuSans-31" x="362.451172"/>
     <use xlink:href="#DejaVuSans-32" x="426.074219"/>
     <use xlink:href="#DejaVuSans-38" x="489.697266"/>
     <use xlink:href="#DejaVuSans-39" x="553.320312"/>
     <use xlink:href="#DejaVuSans-30" x="616.943359"/>
     <use xlink:href="#DejaVuSans-39" x="680.566406"/>
    </g>
   </g>
   <g id="text_20">
    <!-- Count: 6711 -->
    <g style="fill: #262626" transform="translate(627.78375 66.897453) scale(0.12 -0.12)">
     <use xlink:href="#DejaVuSans-43"/>
     <use xlink:href="#DejaVuSans-6f" x="69.824219"/>
     <use xlink:href="#DejaVuSans-75" x="131.005859"/>
     <use xlink:href="#DejaVuSans-6e" x="194.384766"/>
     <use xlink:href="#DejaVuSans-74" x="257.763672"/>
     <use xlink:href="#DejaVuSans-3a" x="296.972656"/>
     <use xlink:href="#DejaVuSans-20" x="330.664062"/>
     <use xlink:href="#DejaVuSans-36" x="362.451172"/>
     <use xlink:href="#DejaVuSans-37" x="426.074219"/>
     <use xlink:href="#DejaVuSans-31" x="489.697266"/>
     <use xlink:href="#DejaVuSans-31" x="553.320312"/>
    </g>
   </g>
   <g id="text_21">
    <!-- Count: 3148 -->
    <g style="fill: #262626" transform="translate(776.58375 66.897453) scale(0.12 -0.12)">
     <use xlink:href="#DejaVuSans-43"/>
     <use xlink:href="#DejaVuSans-6f" x="69.824219"/>
     <use xlink:href="#DejaVuSans-75" x="131.005859"/>
     <use xlink:href="#DejaVuSans-6e" x="194.384766"/>
     <use xlink:href="#DejaVuSans-74" x="257.763672"/>
     <use xlink:href="#DejaVuSans-3a" x="296.972656"/>
     <use xlink:href="#DejaVuSans-20" x="330.664062"/>
     <use xlink:href="#DejaVuSans-33" x="362.451172"/>
     <use xlink:href="#DejaVuSans-31" x="426.074219"/>
     <use xlink:href="#DejaVuSans-34" x="489.697266"/>
     <use xlink:href="#DejaVuSans-38" x="553.320312"/>
    </g>
   </g>
   <g id="text_22">
    <!-- Count: 46 -->
    <g style="fill: #262626" transform="translate(933.01875 66.897453) scale(0.12 -0.12)">
     <use xlink:href="#DejaVuSans-43"/>
     <use xlink:href="#DejaVuSans-6f" x="69.824219"/>
     <use xlink:href="#DejaVuSans-75" x="131.005859"/>
     <use xlink:href="#DejaVuSans-6e" x="194.384766"/>
     <use xlink:href="#DejaVuSans-74" x="257.763672"/>
     <use xlink:href="#DejaVuSans-3a" x="296.972656"/>
     <use xlink:href="#DejaVuSans-20" x="330.664062"/>
     <use xlink:href="#DejaVuSans-34" x="362.451172"/>
     <use xlink:href="#DejaVuSans-36" x="426.074219"/>
    </g>
   </g>
  </g>
 </g>
 <defs>
  <clipPath id="p41011769b4">
   <rect x="144" y="69.12" width="892.8" height="443.52"/>
  </clipPath>
 </defs>
</svg>
