<?xml version="1.0" encoding="utf-8" standalone="no"?>
<!DOCTYPE svg PUBLIC "-//W3C//DTD SVG 1.1//EN"
  "http://www.w3.org/Graphics/SVG/1.1/DTD/svg11.dtd">
<svg xmlns:xlink="http://www.w3.org/1999/xlink" width="1152pt" height="576pt" viewBox="0 0 1152 576" xmlns="http://www.w3.org/2000/svg" version="1.1">
 <metadata>
  <rdf:RDF xmlns:dc="http://purl.org/dc/elements/1.1/" xmlns:cc="http://creativecommons.org/ns#" xmlns:rdf="http://www.w3.org/1999/02/22-rdf-syntax-ns#">
   <cc:Work>
    <dc:type rdf:resource="http://purl.org/dc/dcmitype/StillImage"/>
    <dc:date>2024-04-22T11:16:40.855048</dc:date>
    <dc:format>image/svg+xml</dc:format>
    <dc:creator>
     <cc:Agent>
      <dc:title>Matplotlib v3.5.3, https://matplotlib.org/</dc:title>
     </cc:Agent>
    </dc:creator>
   </cc:Work>
  </rdf:RDF>
 </metadata>
 <defs>
  <style type="text/css">*{stroke-linejoin: round; stroke-linecap: butt}</style>
 </defs>
 <g id="figure_1">
  <g id="patch_1">
   <path d="M 0 576 
L 1152 576 
L 1152 0 
L 0 0 
L 0 576 
z
" style="fill: none"/>
  </g>
  <g id="axes_1">
   <g id="patch_2">
    <path d="M 144 504 
L 1036.8 504 
L 1036.8 69.12 
L 144 69.12 
z
" style="fill: #ffffff"/>
   </g>
   <g id="matplotlib.axis_1">
    <g id="xtick_1">
     <g id="text_1">
      <!-- GRCh38 -->
      <g style="fill: #262626" transform="translate(195.057187 519.589375)scale(0.12 -0.12)">
       <defs>
        <path id="ArialMT-47" d="M 2638 1797 
L 2638 2334 
L 4578 2338 
L 4578 638 
Q 4131 281 3656 101 
Q 3181 -78 2681 -78 
Q 2006 -78 1454 211 
Q 903 500 622 1047 
Q 341 1594 341 2269 
Q 341 2938 620 3517 
Q 900 4097 1425 4378 
Q 1950 4659 2634 4659 
Q 3131 4659 3532 4498 
Q 3934 4338 4162 4050 
Q 4391 3763 4509 3300 
L 3963 3150 
Q 3859 3500 3706 3700 
Q 3553 3900 3268 4020 
Q 2984 4141 2638 4141 
Q 2222 4141 1919 4014 
Q 1616 3888 1430 3681 
Q 1244 3475 1141 3228 
Q 966 2803 966 2306 
Q 966 1694 1177 1281 
Q 1388 869 1791 669 
Q 2194 469 2647 469 
Q 3041 469 3416 620 
Q 3791 772 3984 944 
L 3984 1797 
L 2638 1797 
z
" transform="scale(0.015625)"/>
        <path id="ArialMT-52" d="M 503 0 
L 503 4581 
L 2534 4581 
Q 3147 4581 3465 4457 
Q 3784 4334 3975 4021 
Q 4166 3709 4166 3331 
Q 4166 2844 3850 2509 
Q 3534 2175 2875 2084 
Q 3116 1969 3241 1856 
Q 3506 1613 3744 1247 
L 4541 0 
L 3778 0 
L 3172 953 
Q 2906 1366 2734 1584 
Q 2563 1803 2427 1890 
Q 2291 1978 2150 2013 
Q 2047 2034 1813 2034 
L 1109 2034 
L 1109 0 
L 503 0 
z
M 1109 2559 
L 2413 2559 
Q 2828 2559 3062 2645 
Q 3297 2731 3419 2920 
Q 3541 3109 3541 3331 
Q 3541 3656 3305 3865 
Q 3069 4075 2559 4075 
L 1109 4075 
L 1109 2559 
z
" transform="scale(0.015625)"/>
        <path id="ArialMT-43" d="M 3763 1606 
L 4369 1453 
Q 4178 706 3683 314 
Q 3188 -78 2472 -78 
Q 1731 -78 1267 223 
Q 803 525 561 1097 
Q 319 1669 319 2325 
Q 319 3041 592 3573 
Q 866 4106 1370 4382 
Q 1875 4659 2481 4659 
Q 3169 4659 3637 4309 
Q 4106 3959 4291 3325 
L 3694 3184 
Q 3534 3684 3231 3912 
Q 2928 4141 2469 4141 
Q 1941 4141 1586 3887 
Q 1231 3634 1087 3207 
Q 944 2781 944 2328 
Q 944 1744 1114 1308 
Q 1284 872 1643 656 
Q 2003 441 2422 441 
Q 2931 441 3284 734 
Q 3638 1028 3763 1606 
z
" transform="scale(0.015625)"/>
        <path id="ArialMT-68" d="M 422 0 
L 422 4581 
L 984 4581 
L 984 2938 
Q 1378 3394 1978 3394 
Q 2347 3394 2619 3248 
Q 2891 3103 3008 2847 
Q 3125 2591 3125 2103 
L 3125 0 
L 2563 0 
L 2563 2103 
Q 2563 2525 2380 2717 
Q 2197 2909 1863 2909 
Q 1613 2909 1392 2779 
Q 1172 2650 1078 2428 
Q 984 2206 984 1816 
L 984 0 
L 422 0 
z
" transform="scale(0.015625)"/>
        <path id="ArialMT-33" d="M 269 1209 
L 831 1284 
Q 928 806 1161 595 
Q 1394 384 1728 384 
Q 2125 384 2398 659 
Q 2672 934 2672 1341 
Q 2672 1728 2419 1979 
Q 2166 2231 1775 2231 
Q 1616 2231 1378 2169 
L 1441 2663 
Q 1497 2656 1531 2656 
Q 1891 2656 2178 2843 
Q 2466 3031 2466 3422 
Q 2466 3731 2256 3934 
Q 2047 4138 1716 4138 
Q 1388 4138 1169 3931 
Q 950 3725 888 3313 
L 325 3413 
Q 428 3978 793 4289 
Q 1159 4600 1703 4600 
Q 2078 4600 2393 4439 
Q 2709 4278 2876 4000 
Q 3044 3722 3044 3409 
Q 3044 3113 2884 2869 
Q 2725 2625 2413 2481 
Q 2819 2388 3044 2092 
Q 3269 1797 3269 1353 
Q 3269 753 2831 336 
Q 2394 -81 1725 -81 
Q 1122 -81 723 278 
Q 325 638 269 1209 
z
" transform="scale(0.015625)"/>
        <path id="ArialMT-38" d="M 1131 2484 
Q 781 2613 612 2850 
Q 444 3088 444 3419 
Q 444 3919 803 4259 
Q 1163 4600 1759 4600 
Q 2359 4600 2725 4251 
Q 3091 3903 3091 3403 
Q 3091 3084 2923 2848 
Q 2756 2613 2416 2484 
Q 2838 2347 3058 2040 
Q 3278 1734 3278 1309 
Q 3278 722 2862 322 
Q 2447 -78 1769 -78 
Q 1091 -78 675 323 
Q 259 725 259 1325 
Q 259 1772 486 2073 
Q 713 2375 1131 2484 
z
M 1019 3438 
Q 1019 3113 1228 2906 
Q 1438 2700 1772 2700 
Q 2097 2700 2305 2904 
Q 2513 3109 2513 3406 
Q 2513 3716 2298 3927 
Q 2084 4138 1766 4138 
Q 1444 4138 1231 3931 
Q 1019 3725 1019 3438 
z
M 838 1322 
Q 838 1081 952 856 
Q 1066 631 1291 507 
Q 1516 384 1775 384 
Q 2178 384 2440 643 
Q 2703 903 2703 1303 
Q 2703 1709 2433 1975 
Q 2163 2241 1756 2241 
Q 1359 2241 1098 1978 
Q 838 1716 838 1322 
z
" transform="scale(0.015625)"/>
       </defs>
       <use xlink:href="#ArialMT-47"/>
       <use xlink:href="#ArialMT-52" x="77.783203"/>
       <use xlink:href="#ArialMT-43" x="150"/>
       <use xlink:href="#ArialMT-68" x="222.216797"/>
       <use xlink:href="#ArialMT-33" x="277.832031"/>
       <use xlink:href="#ArialMT-38" x="333.447266"/>
      </g>
     </g>
    </g>
    <g id="xtick_2">
     <g id="text_2">
      <!-- CONTAMINANT -->
      <g style="fill: #262626" transform="translate(323.644687 519.589375)scale(0.12 -0.12)">
       <defs>
        <path id="ArialMT-4f" d="M 309 2231 
Q 309 3372 921 4017 
Q 1534 4663 2503 4663 
Q 3138 4663 3647 4359 
Q 4156 4056 4423 3514 
Q 4691 2972 4691 2284 
Q 4691 1588 4409 1038 
Q 4128 488 3612 205 
Q 3097 -78 2500 -78 
Q 1853 -78 1343 234 
Q 834 547 571 1087 
Q 309 1628 309 2231 
z
M 934 2222 
Q 934 1394 1379 917 
Q 1825 441 2497 441 
Q 3181 441 3623 922 
Q 4066 1403 4066 2288 
Q 4066 2847 3877 3264 
Q 3688 3681 3323 3911 
Q 2959 4141 2506 4141 
Q 1863 4141 1398 3698 
Q 934 3256 934 2222 
z
" transform="scale(0.015625)"/>
        <path id="ArialMT-4e" d="M 488 0 
L 488 4581 
L 1109 4581 
L 3516 984 
L 3516 4581 
L 4097 4581 
L 4097 0 
L 3475 0 
L 1069 3600 
L 1069 0 
L 488 0 
z
" transform="scale(0.015625)"/>
        <path id="ArialMT-54" d="M 1659 0 
L 1659 4041 
L 150 4041 
L 150 4581 
L 3781 4581 
L 3781 4041 
L 2266 4041 
L 2266 0 
L 1659 0 
z
" transform="scale(0.015625)"/>
        <path id="ArialMT-41" d="M -9 0 
L 1750 4581 
L 2403 4581 
L 4278 0 
L 3588 0 
L 3053 1388 
L 1138 1388 
L 634 0 
L -9 0 
z
M 1313 1881 
L 2866 1881 
L 2388 3150 
Q 2169 3728 2063 4100 
Q 1975 3659 1816 3225 
L 1313 1881 
z
" transform="scale(0.015625)"/>
        <path id="ArialMT-4d" d="M 475 0 
L 475 4581 
L 1388 4581 
L 2472 1338 
Q 2622 884 2691 659 
Q 2769 909 2934 1394 
L 4031 4581 
L 4847 4581 
L 4847 0 
L 4263 0 
L 4263 3834 
L 2931 0 
L 2384 0 
L 1059 3900 
L 1059 0 
L 475 0 
z
" transform="scale(0.015625)"/>
        <path id="ArialMT-49" d="M 597 0 
L 597 4581 
L 1203 4581 
L 1203 0 
L 597 0 
z
" transform="scale(0.015625)"/>
       </defs>
       <use xlink:href="#ArialMT-43"/>
       <use xlink:href="#ArialMT-4f" x="72.216797"/>
       <use xlink:href="#ArialMT-4e" x="150"/>
       <use xlink:href="#ArialMT-54" x="222.216797"/>
       <use xlink:href="#ArialMT-41" x="275.925781"/>
       <use xlink:href="#ArialMT-4d" x="342.625"/>
       <use xlink:href="#ArialMT-49" x="425.925781"/>
       <use xlink:href="#ArialMT-4e" x="453.708984"/>
       <use xlink:href="#ArialMT-41" x="525.925781"/>
       <use xlink:href="#ArialMT-4e" x="592.625"/>
       <use xlink:href="#ArialMT-54" x="664.841797"/>
      </g>
     </g>
    </g>
    <g id="xtick_3">
     <g id="text_3">
      <!-- GCA -->
      <g style="fill: #262626" transform="translate(502.997813 519.589375)scale(0.12 -0.12)">
       <use xlink:href="#ArialMT-47"/>
       <use xlink:href="#ArialMT-43" x="77.783203"/>
       <use xlink:href="#ArialMT-41" x="150"/>
      </g>
     </g>
    </g>
    <g id="xtick_4">
     <g id="text_4">
      <!-- DECOY_GCA -->
      <g style="fill: #262626" transform="translate(627.12375 519.743125)scale(0.12 -0.12)">
       <defs>
        <path id="ArialMT-44" d="M 494 0 
L 494 4581 
L 2072 4581 
Q 2606 4581 2888 4516 
Q 3281 4425 3559 4188 
Q 3922 3881 4101 3404 
Q 4281 2928 4281 2316 
Q 4281 1794 4159 1391 
Q 4038 988 3847 723 
Q 3656 459 3429 307 
Q 3203 156 2883 78 
Q 2563 0 2147 0 
L 494 0 
z
M 1100 541 
L 2078 541 
Q 2531 541 2789 625 
Q 3047 709 3200 863 
Q 3416 1078 3536 1442 
Q 3656 1806 3656 2325 
Q 3656 3044 3420 3430 
Q 3184 3816 2847 3947 
Q 2603 4041 2063 4041 
L 1100 4041 
L 1100 541 
z
" transform="scale(0.015625)"/>
        <path id="ArialMT-45" d="M 506 0 
L 506 4581 
L 3819 4581 
L 3819 4041 
L 1113 4041 
L 1113 2638 
L 3647 2638 
L 3647 2100 
L 1113 2100 
L 1113 541 
L 3925 541 
L 3925 0 
L 506 0 
z
" transform="scale(0.015625)"/>
        <path id="ArialMT-59" d="M 1784 0 
L 1784 1941 
L 19 4581 
L 756 4581 
L 1659 3200 
Q 1909 2813 2125 2425 
Q 2331 2784 2625 3234 
L 3513 4581 
L 4219 4581 
L 2391 1941 
L 2391 0 
L 1784 0 
z
" transform="scale(0.015625)"/>
        <path id="ArialMT-5f" d="M -97 -1272 
L -97 -866 
L 3631 -866 
L 3631 -1272 
L -97 -1272 
z
" transform="scale(0.015625)"/>
       </defs>
       <use xlink:href="#ArialMT-44"/>
       <use xlink:href="#ArialMT-45" x="72.216797"/>
       <use xlink:href="#ArialMT-43" x="138.916016"/>
       <use xlink:href="#ArialMT-4f" x="211.132812"/>
       <use xlink:href="#ArialMT-59" x="288.916016"/>
       <use xlink:href="#ArialMT-5f" x="355.615234"/>
       <use xlink:href="#ArialMT-47" x="411.230469"/>
       <use xlink:href="#ArialMT-43" x="489.013672"/>
       <use xlink:href="#ArialMT-41" x="561.230469"/>
      </g>
     </g>
    </g>
    <g id="xtick_5">
     <g id="text_5">
      <!-- DECOY_GRCh38 -->
      <g style="fill: #262626" transform="translate(765.583125 519.743125)scale(0.12 -0.12)">
       <use xlink:href="#ArialMT-44"/>
       <use xlink:href="#ArialMT-45" x="72.216797"/>
       <use xlink:href="#ArialMT-43" x="138.916016"/>
       <use xlink:href="#ArialMT-4f" x="211.132812"/>
       <use xlink:href="#ArialMT-59" x="288.916016"/>
       <use xlink:href="#ArialMT-5f" x="355.615234"/>
       <use xlink:href="#ArialMT-47" x="411.230469"/>
       <use xlink:href="#ArialMT-52" x="489.013672"/>
       <use xlink:href="#ArialMT-43" x="561.230469"/>
       <use xlink:href="#ArialMT-68" x="633.447266"/>
       <use xlink:href="#ArialMT-33" x="689.0625"/>
       <use xlink:href="#ArialMT-38" x="744.677734"/>
      </g>
     </g>
    </g>
    <g id="xtick_6">
     <g id="text_6">
      <!-- DECOY_CONTAMINANT -->
      <g style="fill: #262626" transform="translate(894.170625 519.743125)scale(0.12 -0.12)">
       <use xlink:href="#ArialMT-44"/>
       <use xlink:href="#ArialMT-45" x="72.216797"/>
       <use xlink:href="#ArialMT-43" x="138.916016"/>
       <use xlink:href="#ArialMT-4f" x="211.132812"/>
       <use xlink:href="#ArialMT-59" x="288.916016"/>
       <use xlink:href="#ArialMT-5f" x="355.615234"/>
       <use xlink:href="#ArialMT-43" x="411.230469"/>
       <use xlink:href="#ArialMT-4f" x="483.447266"/>
       <use xlink:href="#ArialMT-4e" x="561.230469"/>
       <use xlink:href="#ArialMT-54" x="633.447266"/>
       <use xlink:href="#ArialMT-41" x="687.15625"/>
       <use xlink:href="#ArialMT-4d" x="753.855469"/>
       <use xlink:href="#ArialMT-49" x="837.15625"/>
       <use xlink:href="#ArialMT-4e" x="864.939453"/>
       <use xlink:href="#ArialMT-41" x="937.15625"/>
       <use xlink:href="#ArialMT-4e" x="1003.855469"/>
       <use xlink:href="#ArialMT-54" x="1076.072266"/>
      </g>
     </g>
    </g>
    <g id="text_7">
     <!-- prot_source -->
     <g style="fill: #262626" transform="translate(548.1575 537.580625)scale(0.16 -0.16)">
      <defs>
       <path id="ArialMT-70" d="M 422 -1272 
L 422 3319 
L 934 3319 
L 934 2888 
Q 1116 3141 1344 3267 
Q 1572 3394 1897 3394 
Q 2322 3394 2647 3175 
Q 2972 2956 3137 2557 
Q 3303 2159 3303 1684 
Q 3303 1175 3120 767 
Q 2938 359 2589 142 
Q 2241 -75 1856 -75 
Q 1575 -75 1351 44 
Q 1128 163 984 344 
L 984 -1272 
L 422 -1272 
z
M 931 1641 
Q 931 1000 1190 694 
Q 1450 388 1819 388 
Q 2194 388 2461 705 
Q 2728 1022 2728 1688 
Q 2728 2322 2467 2637 
Q 2206 2953 1844 2953 
Q 1484 2953 1207 2617 
Q 931 2281 931 1641 
z
" transform="scale(0.015625)"/>
       <path id="ArialMT-72" d="M 416 0 
L 416 3319 
L 922 3319 
L 922 2816 
Q 1116 3169 1280 3281 
Q 1444 3394 1641 3394 
Q 1925 3394 2219 3213 
L 2025 2691 
Q 1819 2813 1613 2813 
Q 1428 2813 1281 2702 
Q 1134 2591 1072 2394 
Q 978 2094 978 1738 
L 978 0 
L 416 0 
z
" transform="scale(0.015625)"/>
       <path id="ArialMT-6f" d="M 213 1659 
Q 213 2581 725 3025 
Q 1153 3394 1769 3394 
Q 2453 3394 2887 2945 
Q 3322 2497 3322 1706 
Q 3322 1066 3130 698 
Q 2938 331 2570 128 
Q 2203 -75 1769 -75 
Q 1072 -75 642 372 
Q 213 819 213 1659 
z
M 791 1659 
Q 791 1022 1069 705 
Q 1347 388 1769 388 
Q 2188 388 2466 706 
Q 2744 1025 2744 1678 
Q 2744 2294 2464 2611 
Q 2184 2928 1769 2928 
Q 1347 2928 1069 2612 
Q 791 2297 791 1659 
z
" transform="scale(0.015625)"/>
       <path id="ArialMT-74" d="M 1650 503 
L 1731 6 
Q 1494 -44 1306 -44 
Q 1000 -44 831 53 
Q 663 150 594 308 
Q 525 466 525 972 
L 525 2881 
L 113 2881 
L 113 3319 
L 525 3319 
L 525 4141 
L 1084 4478 
L 1084 3319 
L 1650 3319 
L 1650 2881 
L 1084 2881 
L 1084 941 
Q 1084 700 1114 631 
Q 1144 563 1211 522 
Q 1278 481 1403 481 
Q 1497 481 1650 503 
z
" transform="scale(0.015625)"/>
       <path id="ArialMT-73" d="M 197 991 
L 753 1078 
Q 800 744 1014 566 
Q 1228 388 1613 388 
Q 2000 388 2187 545 
Q 2375 703 2375 916 
Q 2375 1106 2209 1216 
Q 2094 1291 1634 1406 
Q 1016 1563 777 1677 
Q 538 1791 414 1992 
Q 291 2194 291 2438 
Q 291 2659 392 2848 
Q 494 3038 669 3163 
Q 800 3259 1026 3326 
Q 1253 3394 1513 3394 
Q 1903 3394 2198 3281 
Q 2494 3169 2634 2976 
Q 2775 2784 2828 2463 
L 2278 2388 
Q 2241 2644 2061 2787 
Q 1881 2931 1553 2931 
Q 1166 2931 1000 2803 
Q 834 2675 834 2503 
Q 834 2394 903 2306 
Q 972 2216 1119 2156 
Q 1203 2125 1616 2013 
Q 2213 1853 2448 1751 
Q 2684 1650 2818 1456 
Q 2953 1263 2953 975 
Q 2953 694 2789 445 
Q 2625 197 2315 61 
Q 2006 -75 1616 -75 
Q 969 -75 630 194 
Q 291 463 197 991 
z
" transform="scale(0.015625)"/>
       <path id="ArialMT-75" d="M 2597 0 
L 2597 488 
Q 2209 -75 1544 -75 
Q 1250 -75 995 37 
Q 741 150 617 320 
Q 494 491 444 738 
Q 409 903 409 1263 
L 409 3319 
L 972 3319 
L 972 1478 
Q 972 1038 1006 884 
Q 1059 663 1231 536 
Q 1403 409 1656 409 
Q 1909 409 2131 539 
Q 2353 669 2445 892 
Q 2538 1116 2538 1541 
L 2538 3319 
L 3100 3319 
L 3100 0 
L 2597 0 
z
" transform="scale(0.015625)"/>
       <path id="ArialMT-63" d="M 2588 1216 
L 3141 1144 
Q 3050 572 2676 248 
Q 2303 -75 1759 -75 
Q 1078 -75 664 370 
Q 250 816 250 1647 
Q 250 2184 428 2587 
Q 606 2991 970 3192 
Q 1334 3394 1763 3394 
Q 2303 3394 2647 3120 
Q 2991 2847 3088 2344 
L 2541 2259 
Q 2463 2594 2264 2762 
Q 2066 2931 1784 2931 
Q 1359 2931 1093 2626 
Q 828 2322 828 1663 
Q 828 994 1084 691 
Q 1341 388 1753 388 
Q 2084 388 2306 591 
Q 2528 794 2588 1216 
z
" transform="scale(0.015625)"/>
       <path id="ArialMT-65" d="M 2694 1069 
L 3275 997 
Q 3138 488 2766 206 
Q 2394 -75 1816 -75 
Q 1088 -75 661 373 
Q 234 822 234 1631 
Q 234 2469 665 2931 
Q 1097 3394 1784 3394 
Q 2450 3394 2872 2941 
Q 3294 2488 3294 1666 
Q 3294 1616 3291 1516 
L 816 1516 
Q 847 969 1125 678 
Q 1403 388 1819 388 
Q 2128 388 2347 550 
Q 2566 713 2694 1069 
z
M 847 1978 
L 2700 1978 
Q 2663 2397 2488 2606 
Q 2219 2931 1791 2931 
Q 1403 2931 1139 2672 
Q 875 2413 847 1978 
z
" transform="scale(0.015625)"/>
      </defs>
      <use xlink:href="#ArialMT-70"/>
      <use xlink:href="#ArialMT-72" x="55.615234"/>
      <use xlink:href="#ArialMT-6f" x="88.916016"/>
      <use xlink:href="#ArialMT-74" x="144.53125"/>
      <use xlink:href="#ArialMT-5f" x="172.314453"/>
      <use xlink:href="#ArialMT-73" x="227.929688"/>
      <use xlink:href="#ArialMT-6f" x="277.929688"/>
      <use xlink:href="#ArialMT-75" x="333.544922"/>
      <use xlink:href="#ArialMT-72" x="389.160156"/>
      <use xlink:href="#ArialMT-63" x="422.460938"/>
      <use xlink:href="#ArialMT-65" x="472.460938"/>
     </g>
    </g>
   </g>
   <g id="matplotlib.axis_2">
    <g id="ytick_1">
     <g id="text_8">
      <!-- −0.002 -->
      <g style="fill: #262626" transform="translate(99.965 503.31843)scale(0.12 -0.12)">
       <defs>
        <path id="ArialMT-2212" d="M 3381 1997 
L 356 1997 
L 356 2522 
L 3381 2522 
L 3381 1997 
z
" transform="scale(0.015625)"/>
        <path id="ArialMT-30" d="M 266 2259 
Q 266 3072 433 3567 
Q 600 4063 929 4331 
Q 1259 4600 1759 4600 
Q 2128 4600 2406 4451 
Q 2684 4303 2865 4023 
Q 3047 3744 3150 3342 
Q 3253 2941 3253 2259 
Q 3253 1453 3087 958 
Q 2922 463 2592 192 
Q 2263 -78 1759 -78 
Q 1097 -78 719 397 
Q 266 969 266 2259 
z
M 844 2259 
Q 844 1131 1108 757 
Q 1372 384 1759 384 
Q 2147 384 2411 759 
Q 2675 1134 2675 2259 
Q 2675 3391 2411 3762 
Q 2147 4134 1753 4134 
Q 1366 4134 1134 3806 
Q 844 3388 844 2259 
z
" transform="scale(0.015625)"/>
        <path id="ArialMT-2e" d="M 581 0 
L 581 641 
L 1222 641 
L 1222 0 
L 581 0 
z
" transform="scale(0.015625)"/>
        <path id="ArialMT-32" d="M 3222 541 
L 3222 0 
L 194 0 
Q 188 203 259 391 
Q 375 700 629 1000 
Q 884 1300 1366 1694 
Q 2113 2306 2375 2664 
Q 2638 3022 2638 3341 
Q 2638 3675 2398 3904 
Q 2159 4134 1775 4134 
Q 1369 4134 1125 3890 
Q 881 3647 878 3216 
L 300 3275 
Q 359 3922 746 4261 
Q 1134 4600 1788 4600 
Q 2447 4600 2831 4234 
Q 3216 3869 3216 3328 
Q 3216 3053 3103 2787 
Q 2991 2522 2730 2228 
Q 2469 1934 1863 1422 
Q 1356 997 1212 845 
Q 1069 694 975 541 
L 3222 541 
z
" transform="scale(0.015625)"/>
       </defs>
       <use xlink:href="#ArialMT-2212"/>
       <use xlink:href="#ArialMT-30" x="58.398438"/>
       <use xlink:href="#ArialMT-2e" x="114.013672"/>
       <use xlink:href="#ArialMT-30" x="141.796875"/>
       <use xlink:href="#ArialMT-30" x="197.412109"/>
       <use xlink:href="#ArialMT-32" x="253.027344"/>
      </g>
     </g>
    </g>
    <g id="ytick_2">
     <g id="text_9">
      <!-- 0.000 -->
      <g style="fill: #262626" transform="translate(106.97375 446.033594)scale(0.12 -0.12)">
       <use xlink:href="#ArialMT-30"/>
       <use xlink:href="#ArialMT-2e" x="55.615234"/>
       <use xlink:href="#ArialMT-30" x="83.398438"/>
       <use xlink:href="#ArialMT-30" x="139.013672"/>
       <use xlink:href="#ArialMT-30" x="194.628906"/>
      </g>
     </g>
    </g>
    <g id="ytick_3">
     <g id="text_10">
      <!-- 0.002 -->
      <g style="fill: #262626" transform="translate(106.97375 388.748758)scale(0.12 -0.12)">
       <use xlink:href="#ArialMT-30"/>
       <use xlink:href="#ArialMT-2e" x="55.615234"/>
       <use xlink:href="#ArialMT-30" x="83.398438"/>
       <use xlink:href="#ArialMT-30" x="139.013672"/>
       <use xlink:href="#ArialMT-32" x="194.628906"/>
      </g>
     </g>
    </g>
    <g id="ytick_4">
     <g id="text_11">
      <!-- 0.004 -->
      <g style="fill: #262626" transform="translate(106.97375 331.463922)scale(0.12 -0.12)">
       <defs>
        <path id="ArialMT-34" d="M 2069 0 
L 2069 1097 
L 81 1097 
L 81 1613 
L 2172 4581 
L 2631 4581 
L 2631 1613 
L 3250 1613 
L 3250 1097 
L 2631 1097 
L 2631 0 
L 2069 0 
z
M 2069 1613 
L 2069 3678 
L 634 1613 
L 2069 1613 
z
" transform="scale(0.015625)"/>
       </defs>
       <use xlink:href="#ArialMT-30"/>
       <use xlink:href="#ArialMT-2e" x="55.615234"/>
       <use xlink:href="#ArialMT-30" x="83.398438"/>
       <use xlink:href="#ArialMT-30" x="139.013672"/>
       <use xlink:href="#ArialMT-34" x="194.628906"/>
      </g>
     </g>
    </g>
    <g id="ytick_5">
     <g id="text_12">
      <!-- 0.006 -->
      <g style="fill: #262626" transform="translate(106.97375 274.179086)scale(0.12 -0.12)">
       <defs>
        <path id="ArialMT-36" d="M 3184 3459 
L 2625 3416 
Q 2550 3747 2413 3897 
Q 2184 4138 1850 4138 
Q 1581 4138 1378 3988 
Q 1113 3794 959 3422 
Q 806 3050 800 2363 
Q 1003 2672 1297 2822 
Q 1591 2972 1913 2972 
Q 2475 2972 2870 2558 
Q 3266 2144 3266 1488 
Q 3266 1056 3080 686 
Q 2894 316 2569 119 
Q 2244 -78 1831 -78 
Q 1128 -78 684 439 
Q 241 956 241 2144 
Q 241 3472 731 4075 
Q 1159 4600 1884 4600 
Q 2425 4600 2770 4297 
Q 3116 3994 3184 3459 
z
M 888 1484 
Q 888 1194 1011 928 
Q 1134 663 1356 523 
Q 1578 384 1822 384 
Q 2178 384 2434 671 
Q 2691 959 2691 1453 
Q 2691 1928 2437 2201 
Q 2184 2475 1800 2475 
Q 1419 2475 1153 2201 
Q 888 1928 888 1484 
z
" transform="scale(0.015625)"/>
       </defs>
       <use xlink:href="#ArialMT-30"/>
       <use xlink:href="#ArialMT-2e" x="55.615234"/>
       <use xlink:href="#ArialMT-30" x="83.398438"/>
       <use xlink:href="#ArialMT-30" x="139.013672"/>
       <use xlink:href="#ArialMT-36" x="194.628906"/>
      </g>
     </g>
    </g>
    <g id="ytick_6">
     <g id="text_13">
      <!-- 0.008 -->
      <g style="fill: #262626" transform="translate(106.97375 216.89425)scale(0.12 -0.12)">
       <use xlink:href="#ArialMT-30"/>
       <use xlink:href="#ArialMT-2e" x="55.615234"/>
       <use xlink:href="#ArialMT-30" x="83.398438"/>
       <use xlink:href="#ArialMT-30" x="139.013672"/>
       <use xlink:href="#ArialMT-38" x="194.628906"/>
      </g>
     </g>
    </g>
    <g id="ytick_7">
     <g id="text_14">
      <!-- 0.010 -->
      <g style="fill: #262626" transform="translate(106.97375 159.609414)scale(0.12 -0.12)">
       <defs>
        <path id="ArialMT-31" d="M 2384 0 
L 1822 0 
L 1822 3584 
Q 1619 3391 1289 3197 
Q 959 3003 697 2906 
L 697 3450 
Q 1169 3672 1522 3987 
Q 1875 4303 2022 4600 
L 2384 4600 
L 2384 0 
z
" transform="scale(0.015625)"/>
       </defs>
       <use xlink:href="#ArialMT-30"/>
       <use xlink:href="#ArialMT-2e" x="55.615234"/>
       <use xlink:href="#ArialMT-30" x="83.398438"/>
       <use xlink:href="#ArialMT-31" x="139.013672"/>
       <use xlink:href="#ArialMT-30" x="194.628906"/>
      </g>
     </g>
    </g>
    <g id="ytick_8">
     <g id="text_15">
      <!-- 0.012 -->
      <g style="fill: #262626" transform="translate(106.97375 102.324578)scale(0.12 -0.12)">
       <use xlink:href="#ArialMT-30"/>
       <use xlink:href="#ArialMT-2e" x="55.615234"/>
       <use xlink:href="#ArialMT-30" x="83.398438"/>
       <use xlink:href="#ArialMT-31" x="139.013672"/>
       <use xlink:href="#ArialMT-32" x="194.628906"/>
      </g>
     </g>
    </g>
    <g id="text_16">
     <!-- posterior_error_probability -->
     <g style="fill: #262626" transform="translate(92.5975 379.93125)rotate(-90)scale(0.16 -0.16)">
      <defs>
       <path id="ArialMT-69" d="M 425 3934 
L 425 4581 
L 988 4581 
L 988 3934 
L 425 3934 
z
M 425 0 
L 425 3319 
L 988 3319 
L 988 0 
L 425 0 
z
" transform="scale(0.015625)"/>
       <path id="ArialMT-62" d="M 941 0 
L 419 0 
L 419 4581 
L 981 4581 
L 981 2947 
Q 1338 3394 1891 3394 
Q 2197 3394 2470 3270 
Q 2744 3147 2920 2923 
Q 3097 2700 3197 2384 
Q 3297 2069 3297 1709 
Q 3297 856 2875 390 
Q 2453 -75 1863 -75 
Q 1275 -75 941 416 
L 941 0 
z
M 934 1684 
Q 934 1088 1097 822 
Q 1363 388 1816 388 
Q 2184 388 2453 708 
Q 2722 1028 2722 1663 
Q 2722 2313 2464 2622 
Q 2206 2931 1841 2931 
Q 1472 2931 1203 2611 
Q 934 2291 934 1684 
z
" transform="scale(0.015625)"/>
       <path id="ArialMT-61" d="M 2588 409 
Q 2275 144 1986 34 
Q 1697 -75 1366 -75 
Q 819 -75 525 192 
Q 231 459 231 875 
Q 231 1119 342 1320 
Q 453 1522 633 1644 
Q 813 1766 1038 1828 
Q 1203 1872 1538 1913 
Q 2219 1994 2541 2106 
Q 2544 2222 2544 2253 
Q 2544 2597 2384 2738 
Q 2169 2928 1744 2928 
Q 1347 2928 1158 2789 
Q 969 2650 878 2297 
L 328 2372 
Q 403 2725 575 2942 
Q 747 3159 1072 3276 
Q 1397 3394 1825 3394 
Q 2250 3394 2515 3294 
Q 2781 3194 2906 3042 
Q 3031 2891 3081 2659 
Q 3109 2516 3109 2141 
L 3109 1391 
Q 3109 606 3145 398 
Q 3181 191 3288 0 
L 2700 0 
Q 2613 175 2588 409 
z
M 2541 1666 
Q 2234 1541 1622 1453 
Q 1275 1403 1131 1340 
Q 988 1278 909 1158 
Q 831 1038 831 891 
Q 831 666 1001 516 
Q 1172 366 1500 366 
Q 1825 366 2078 508 
Q 2331 650 2450 897 
Q 2541 1088 2541 1459 
L 2541 1666 
z
" transform="scale(0.015625)"/>
       <path id="ArialMT-6c" d="M 409 0 
L 409 4581 
L 972 4581 
L 972 0 
L 409 0 
z
" transform="scale(0.015625)"/>
       <path id="ArialMT-79" d="M 397 -1278 
L 334 -750 
Q 519 -800 656 -800 
Q 844 -800 956 -737 
Q 1069 -675 1141 -563 
Q 1194 -478 1313 -144 
Q 1328 -97 1363 -6 
L 103 3319 
L 709 3319 
L 1400 1397 
Q 1534 1031 1641 628 
Q 1738 1016 1872 1384 
L 2581 3319 
L 3144 3319 
L 1881 -56 
Q 1678 -603 1566 -809 
Q 1416 -1088 1222 -1217 
Q 1028 -1347 759 -1347 
Q 597 -1347 397 -1278 
z
" transform="scale(0.015625)"/>
      </defs>
      <use xlink:href="#ArialMT-70"/>
      <use xlink:href="#ArialMT-6f" x="55.615234"/>
      <use xlink:href="#ArialMT-73" x="111.230469"/>
      <use xlink:href="#ArialMT-74" x="161.230469"/>
      <use xlink:href="#ArialMT-65" x="189.013672"/>
      <use xlink:href="#ArialMT-72" x="244.628906"/>
      <use xlink:href="#ArialMT-69" x="277.929688"/>
      <use xlink:href="#ArialMT-6f" x="300.146484"/>
      <use xlink:href="#ArialMT-72" x="355.761719"/>
      <use xlink:href="#ArialMT-5f" x="389.0625"/>
      <use xlink:href="#ArialMT-65" x="444.677734"/>
      <use xlink:href="#ArialMT-72" x="500.292969"/>
      <use xlink:href="#ArialMT-72" x="533.59375"/>
      <use xlink:href="#ArialMT-6f" x="566.894531"/>
      <use xlink:href="#ArialMT-72" x="622.509766"/>
      <use xlink:href="#ArialMT-5f" x="655.810547"/>
      <use xlink:href="#ArialMT-70" x="711.425781"/>
      <use xlink:href="#ArialMT-72" x="767.041016"/>
      <use xlink:href="#ArialMT-6f" x="800.341797"/>
      <use xlink:href="#ArialMT-62" x="855.957031"/>
      <use xlink:href="#ArialMT-61" x="911.572266"/>
      <use xlink:href="#ArialMT-62" x="967.1875"/>
      <use xlink:href="#ArialMT-69" x="1022.802734"/>
      <use xlink:href="#ArialMT-6c" x="1045.019531"/>
      <use xlink:href="#ArialMT-69" x="1067.236328"/>
      <use xlink:href="#ArialMT-74" x="1089.453125"/>
      <use xlink:href="#ArialMT-79" x="1117.236328"/>
     </g>
    </g>
   </g>
   <g id="PolyCollection_1">
    <defs>
     <path id="me20c60fce5" d="M 223.854695 -131.063937 
L 212.945305 -131.063937 
L 173.76 -134.021697 
L 201.790083 -136.979456 
L 215.309797 -139.937216 
L 216.579277 -142.894976 
L 217.081712 -145.852735 
L 217.370518 -148.810495 
L 217.5591 -151.768255 
L 217.687257 -154.726014 
L 217.778433 -157.683774 
L 217.853637 -160.641534 
L 217.91144 -163.599293 
L 217.958071 -166.557053 
L 217.998288 -169.514813 
L 218.031691 -172.472572 
L 218.060606 -175.430332 
L 218.084382 -178.388092 
L 218.106475 -181.345851 
L 218.12445 -184.303611 
L 218.139725 -187.261371 
L 218.154468 -190.21913 
L 218.167471 -193.17689 
L 218.179113 -196.13465 
L 218.189557 -199.092409 
L 218.200302 -202.050169 
L 218.209593 -205.007929 
L 218.216724 -207.965688 
L 218.224198 -210.923448 
L 218.231955 -213.881208 
L 218.237797 -216.838967 
L 218.242682 -219.796727 
L 218.249153 -222.754487 
L 218.254854 -225.712246 
L 218.259617 -228.670006 
L 218.264975 -231.627765 
L 218.269238 -234.585525 
L 218.272983 -237.543285 
L 218.276391 -240.501044 
L 218.280215 -243.458804 
L 218.283815 -246.416564 
L 218.286473 -249.374323 
L 218.288648 -252.332083 
L 218.291277 -255.289843 
L 218.294649 -258.247602 
L 218.29653 -261.205362 
L 218.298957 -264.163122 
L 218.301789 -267.120881 
L 218.304559 -270.078641 
L 218.30703 -273.036401 
L 218.309486 -275.99416 
L 218.311048 -278.95192 
L 218.312888 -281.90968 
L 218.31456 -284.867439 
L 218.316138 -287.825199 
L 218.317581 -290.782959 
L 218.318743 -293.740718 
L 218.321531 -296.698478 
L 218.322918 -299.656238 
L 218.323548 -302.613997 
L 218.325669 -305.571757 
L 218.326239 -308.529517 
L 218.326989 -311.487276 
L 218.329276 -314.445036 
L 218.330104 -317.402796 
L 218.331495 -320.360555 
L 218.33178 -323.318315 
L 218.333613 -326.276075 
L 218.334725 -329.233834 
L 218.335603 -332.191594 
L 218.336865 -335.149354 
L 218.338261 -338.107113 
L 218.338989 -341.064873 
L 218.339681 -344.022633 
L 218.341124 -346.980392 
L 218.341558 -349.938152 
L 218.34223 -352.895912 
L 218.343349 -355.853671 
L 218.344026 -358.811431 
L 218.344293 -361.76919 
L 218.344421 -364.72695 
L 218.344984 -367.68471 
L 218.346769 -370.642469 
L 218.347731 -373.600229 
L 218.348193 -376.557989 
L 218.348552 -379.515748 
L 218.348919 -382.473508 
L 218.349645 -385.431268 
L 218.350539 -388.389027 
L 218.350868 -391.346787 
L 218.352445 -394.304547 
L 218.352422 -397.262306 
L 218.351948 -400.220066 
L 218.352672 -403.177826 
L 218.354934 -406.135585 
L 218.355385 -409.093345 
L 218.355973 -412.051105 
L 218.355807 -415.008864 
L 218.357248 -417.966624 
L 218.380681 -420.924384 
L 218.399016 -423.882143 
L 218.400984 -423.882143 
L 218.400984 -423.882143 
L 218.419319 -420.924384 
L 218.442752 -417.966624 
L 218.444193 -415.008864 
L 218.444027 -412.051105 
L 218.444615 -409.093345 
L 218.445066 -406.135585 
L 218.447328 -403.177826 
L 218.448052 -400.220066 
L 218.447578 -397.262306 
L 218.447555 -394.304547 
L 218.449132 -391.346787 
L 218.449461 -388.389027 
L 218.450355 -385.431268 
L 218.451081 -382.473508 
L 218.451448 -379.515748 
L 218.451807 -376.557989 
L 218.452269 -373.600229 
L 218.453231 -370.642469 
L 218.455016 -367.68471 
L 218.455579 -364.72695 
L 218.455707 -361.76919 
L 218.455974 -358.811431 
L 218.456651 -355.853671 
L 218.45777 -352.895912 
L 218.458442 -349.938152 
L 218.458876 -346.980392 
L 218.460319 -344.022633 
L 218.461011 -341.064873 
L 218.461739 -338.107113 
L 218.463135 -335.149354 
L 218.464397 -332.191594 
L 218.465275 -329.233834 
L 218.466387 -326.276075 
L 218.46822 -323.318315 
L 218.468505 -320.360555 
L 218.469896 -317.402796 
L 218.470724 -314.445036 
L 218.473011 -311.487276 
L 218.473761 -308.529517 
L 218.474331 -305.571757 
L 218.476452 -302.613997 
L 218.477082 -299.656238 
L 218.478469 -296.698478 
L 218.481257 -293.740718 
L 218.482419 -290.782959 
L 218.483862 -287.825199 
L 218.48544 -284.867439 
L 218.487112 -281.90968 
L 218.488952 -278.95192 
L 218.490514 -275.99416 
L 218.49297 -273.036401 
L 218.495441 -270.078641 
L 218.498211 -267.120881 
L 218.501043 -264.163122 
L 218.50347 -261.205362 
L 218.505351 -258.247602 
L 218.508723 -255.289843 
L 218.511352 -252.332083 
L 218.513527 -249.374323 
L 218.516185 -246.416564 
L 218.519785 -243.458804 
L 218.523609 -240.501044 
L 218.527017 -237.543285 
L 218.530762 -234.585525 
L 218.535025 -231.627765 
L 218.540383 -228.670006 
L 218.545146 -225.712246 
L 218.550847 -222.754487 
L 218.557318 -219.796727 
L 218.562203 -216.838967 
L 218.568045 -213.881208 
L 218.575802 -210.923448 
L 218.583276 -207.965688 
L 218.590407 -205.007929 
L 218.599698 -202.050169 
L 218.610443 -199.092409 
L 218.620887 -196.13465 
L 218.632529 -193.17689 
L 218.645532 -190.21913 
L 218.660275 -187.261371 
L 218.67555 -184.303611 
L 218.693525 -181.345851 
L 218.715618 -178.388092 
L 218.739394 -175.430332 
L 218.768309 -172.472572 
L 218.801712 -169.514813 
L 218.841929 -166.557053 
L 218.88856 -163.599293 
L 218.946363 -160.641534 
L 219.021567 -157.683774 
L 219.112743 -154.726014 
L 219.2409 -151.768255 
L 219.429482 -148.810495 
L 219.718288 -145.852735 
L 220.220723 -142.894976 
L 221.490203 -139.937216 
L 235.009917 -136.979456 
L 263.04 -134.021697 
L 223.854695 -131.063937 
z
" style="stroke: #5a5a5a; stroke-width: 1.5"/>
    </defs>
    <g clip-path="url(#p1a6c96e3a3)">
     <use xlink:href="#me20c60fce5" x="0" y="576" style="fill: #7891b5; stroke: #5a5a5a; stroke-width: 1.5"/>
    </g>
   </g>
   <g id="PolyCollection_2">
    <defs>
     <path id="ma26d47fa95" d="M 370.307876 -128.147449 
L 364.092124 -128.147449 
L 352.866162 -131.164084 
L 341.590981 -134.180719 
L 348.686004 -137.197354 
L 360.690417 -140.21399 
L 365.039358 -143.230625 
L 365.932556 -146.24726 
L 366.236251 -149.263895 
L 366.412185 -152.280531 
L 366.531163 -155.297166 
L 366.618813 -158.313801 
L 366.68824 -161.330436 
L 366.744004 -164.347071 
L 366.790039 -167.363707 
L 366.825928 -170.380342 
L 366.855379 -173.396977 
L 366.882979 -176.413612 
L 366.905737 -179.430248 
L 366.925438 -182.446883 
L 366.944213 -185.463518 
L 366.958265 -188.480153 
L 366.968219 -191.496788 
L 366.981133 -194.513424 
L 366.995794 -197.530059 
L 367.007274 -200.546694 
L 367.015736 -203.563329 
L 367.023287 -206.579964 
L 367.028196 -209.5966 
L 367.030498 -212.613235 
L 367.038022 -215.62987 
L 367.047741 -218.646505 
L 367.052107 -221.663141 
L 367.052737 -224.679776 
L 367.055907 -227.696411 
L 367.06255 -230.713046 
L 367.06754 -233.729681 
L 367.071318 -236.746317 
L 367.076392 -239.762952 
L 367.080888 -242.779587 
L 367.083369 -245.796222 
L 367.085435 -248.812857 
L 367.088508 -251.829493 
L 367.091403 -254.846128 
L 367.093864 -257.862763 
L 367.096206 -260.879398 
L 367.0981 -263.896034 
L 367.09985 -266.912669 
L 367.102952 -269.929304 
L 367.106312 -272.945939 
L 367.109454 -275.962574 
L 367.111523 -278.97921 
L 367.112665 -281.995845 
L 367.114194 -285.01248 
L 367.115247 -288.029115 
L 367.115661 -291.04575 
L 367.117501 -294.062386 
L 367.121339 -297.079021 
L 367.124724 -300.095656 
L 367.126628 -303.112291 
L 367.127852 -306.128927 
L 367.128066 -309.145562 
L 367.127934 -312.162197 
L 367.129203 -315.178832 
L 367.131584 -318.195467 
L 367.133594 -321.212103 
L 367.134768 -324.228738 
L 367.134797 -327.245373 
L 367.135242 -330.262008 
L 367.136177 -333.278644 
L 367.136491 -336.295279 
L 367.137006 -339.311914 
L 367.137892 -342.328549 
L 367.139723 -345.345184 
L 367.142467 -348.36182 
L 367.144233 -351.378455 
L 367.14418 -354.39509 
L 367.143162 -357.411725 
L 367.142701 -360.42836 
L 367.143778 -363.444996 
L 367.146263 -366.461631 
L 367.14849 -369.478266 
L 367.148795 -372.494901 
L 367.147869 -375.511537 
L 367.147424 -378.528172 
L 367.147493 -381.544807 
L 367.147405 -384.561442 
L 367.147748 -387.578077 
L 367.149576 -390.594713 
L 367.151124 -393.611348 
L 367.151144 -396.627983 
L 367.150991 -399.644618 
L 367.151533 -402.661253 
L 367.15225 -405.677889 
L 367.152819 -408.694524 
L 367.15318 -411.711159 
L 367.155196 -414.727794 
L 367.162766 -417.74443 
L 367.178076 -420.761065 
L 367.192891 -423.7777 
L 367.198933 -426.794335 
L 367.201067 -426.794335 
L 367.201067 -426.794335 
L 367.207109 -423.7777 
L 367.221924 -420.761065 
L 367.237234 -417.74443 
L 367.244804 -414.727794 
L 367.24682 -411.711159 
L 367.247181 -408.694524 
L 367.24775 -405.677889 
L 367.248467 -402.661253 
L 367.249009 -399.644618 
L 367.248856 -396.627983 
L 367.248876 -393.611348 
L 367.250424 -390.594713 
L 367.252252 -387.578077 
L 367.252595 -384.561442 
L 367.252507 -381.544807 
L 367.252576 -378.528172 
L 367.252131 -375.511537 
L 367.251205 -372.494901 
L 367.25151 -369.478266 
L 367.253737 -366.461631 
L 367.256222 -363.444996 
L 367.257299 -360.42836 
L 367.256838 -357.411725 
L 367.25582 -354.39509 
L 367.255767 -351.378455 
L 367.257533 -348.36182 
L 367.260277 -345.345184 
L 367.262108 -342.328549 
L 367.262994 -339.311914 
L 367.263509 -336.295279 
L 367.263823 -333.278644 
L 367.264758 -330.262008 
L 367.265203 -327.245373 
L 367.265232 -324.228738 
L 367.266406 -321.212103 
L 367.268416 -318.195467 
L 367.270797 -315.178832 
L 367.272066 -312.162197 
L 367.271934 -309.145562 
L 367.272148 -306.128927 
L 367.273372 -303.112291 
L 367.275276 -300.095656 
L 367.278661 -297.079021 
L 367.282499 -294.062386 
L 367.284339 -291.04575 
L 367.284753 -288.029115 
L 367.285806 -285.01248 
L 367.287335 -281.995845 
L 367.288477 -278.97921 
L 367.290546 -275.962574 
L 367.293688 -272.945939 
L 367.297048 -269.929304 
L 367.30015 -266.912669 
L 367.3019 -263.896034 
L 367.303794 -260.879398 
L 367.306136 -257.862763 
L 367.308597 -254.846128 
L 367.311492 -251.829493 
L 367.314565 -248.812857 
L 367.316631 -245.796222 
L 367.319112 -242.779587 
L 367.323608 -239.762952 
L 367.328682 -236.746317 
L 367.33246 -233.729681 
L 367.33745 -230.713046 
L 367.344093 -227.696411 
L 367.347263 -224.679776 
L 367.347893 -221.663141 
L 367.352259 -218.646505 
L 367.361978 -215.62987 
L 367.369502 -212.613235 
L 367.371804 -209.5966 
L 367.376713 -206.579964 
L 367.384264 -203.563329 
L 367.392726 -200.546694 
L 367.404206 -197.530059 
L 367.418867 -194.513424 
L 367.431781 -191.496788 
L 367.441735 -188.480153 
L 367.455787 -185.463518 
L 367.474562 -182.446883 
L 367.494263 -179.430248 
L 367.517021 -176.413612 
L 367.544621 -173.396977 
L 367.574072 -170.380342 
L 367.609961 -167.363707 
L 367.655996 -164.347071 
L 367.71176 -161.330436 
L 367.781187 -158.313801 
L 367.868837 -155.297166 
L 367.987815 -152.280531 
L 368.163749 -149.263895 
L 368.467444 -146.24726 
L 369.360642 -143.230625 
L 373.709583 -140.21399 
L 385.713996 -137.197354 
L 392.809019 -134.180719 
L 381.533838 -131.164084 
L 370.307876 -128.147449 
z
" style="stroke: #5a5a5a; stroke-width: 1.5"/>
    </defs>
    <g clip-path="url(#p1a6c96e3a3)">
     <use xlink:href="#ma26d47fa95" x="0" y="576" style="fill: #aeb9cb; stroke: #5a5a5a; stroke-width: 1.5"/>
    </g>
   </g>
   <g id="PolyCollection_3">
    <defs>
     <path id="m5a8feddf2c" d="M 517.788366 -124.280735 
L 514.211634 -124.280735 
L 510.762137 -127.375419 
L 505.472602 -130.470103 
L 501.400433 -133.564787 
L 501.865221 -136.659471 
L 506.177782 -139.754155 
L 510.743181 -142.848839 
L 513.444121 -145.943524 
L 514.55952 -149.038208 
L 514.968528 -152.132892 
L 515.153959 -155.227576 
L 515.270314 -158.32226 
L 515.356123 -161.416944 
L 515.422211 -164.511628 
L 515.475307 -167.606312 
L 515.520452 -170.700996 
L 515.558955 -173.795681 
L 515.590523 -176.890365 
L 515.615954 -179.985049 
L 515.636859 -183.079733 
L 515.655469 -186.174417 
L 515.674151 -189.269101 
L 515.692997 -192.363785 
L 515.709833 -195.458469 
L 515.72393 -198.553153 
L 515.737013 -201.647838 
L 515.749667 -204.742522 
L 515.759696 -207.837206 
L 515.765215 -210.93189 
L 515.767337 -214.026574 
L 515.769283 -217.121258 
L 515.773693 -220.215942 
L 515.780906 -223.310626 
L 515.789819 -226.40531 
L 515.799229 -229.499994 
L 515.807672 -232.594679 
L 515.813848 -235.689363 
L 515.817774 -238.784047 
L 515.820613 -241.878731 
L 515.823527 -244.973415 
L 515.82702 -248.068099 
L 515.83141 -251.162783 
L 515.837477 -254.257467 
L 515.845526 -257.352151 
L 515.853814 -260.446836 
L 515.859468 -263.54152 
L 515.861643 -266.636204 
L 515.862367 -269.730888 
L 515.863652 -272.825572 
L 515.865515 -275.920256 
L 515.867331 -279.01494 
L 515.869037 -282.109624 
L 515.870783 -285.204308 
L 515.873072 -288.298993 
L 515.876617 -291.393677 
L 515.880772 -294.488361 
L 515.883498 -297.583045 
L 515.884159 -300.677729 
L 515.884608 -303.772413 
L 515.886647 -306.867097 
L 515.890064 -309.961781 
L 515.893344 -313.056465 
L 515.895194 -316.151149 
L 515.895587 -319.245834 
L 515.895521 -322.340518 
L 515.895706 -325.435202 
L 515.896023 -328.529886 
L 515.896101 -331.62457 
L 515.895695 -334.719254 
L 515.894798 -337.813938 
L 515.894115 -340.908622 
L 515.894938 -344.003306 
L 515.897646 -347.097991 
L 515.901111 -350.192675 
L 515.904066 -353.287359 
L 515.906195 -356.382043 
L 515.907969 -359.476727 
L 515.909955 -362.571411 
L 515.912201 -365.666095 
L 515.91396 -368.760779 
L 515.914093 -371.855463 
L 515.912469 -374.950148 
L 515.910732 -378.044832 
L 515.910864 -381.139516 
L 515.913288 -384.2342 
L 515.916667 -387.328884 
L 515.919071 -390.423568 
L 515.919524 -393.518252 
L 515.918805 -396.612936 
L 515.918469 -399.70762 
L 515.91937 -402.802304 
L 515.92145 -405.896989 
L 515.924279 -408.991673 
L 515.927926 -412.086357 
L 515.934311 -415.181041 
L 515.946518 -418.275725 
L 515.964184 -421.370409 
L 515.981533 -424.465093 
L 515.992976 -427.559777 
L 515.998079 -430.654461 
L 516.001921 -430.654461 
L 516.001921 -430.654461 
L 516.007024 -427.559777 
L 516.018467 -424.465093 
L 516.035816 -421.370409 
L 516.053482 -418.275725 
L 516.065689 -415.181041 
L 516.072074 -412.086357 
L 516.075721 -408.991673 
L 516.07855 -405.896989 
L 516.08063 -402.802304 
L 516.081531 -399.70762 
L 516.081195 -396.612936 
L 516.080476 -393.518252 
L 516.080929 -390.423568 
L 516.083333 -387.328884 
L 516.086712 -384.2342 
L 516.089136 -381.139516 
L 516.089268 -378.044832 
L 516.087531 -374.950148 
L 516.085907 -371.855463 
L 516.08604 -368.760779 
L 516.087799 -365.666095 
L 516.090045 -362.571411 
L 516.092031 -359.476727 
L 516.093805 -356.382043 
L 516.095934 -353.287359 
L 516.098889 -350.192675 
L 516.102354 -347.097991 
L 516.105062 -344.003306 
L 516.105885 -340.908622 
L 516.105202 -337.813938 
L 516.104305 -334.719254 
L 516.103899 -331.62457 
L 516.103977 -328.529886 
L 516.104294 -325.435202 
L 516.104479 -322.340518 
L 516.104413 -319.245834 
L 516.104806 -316.151149 
L 516.106656 -313.056465 
L 516.109936 -309.961781 
L 516.113353 -306.867097 
L 516.115392 -303.772413 
L 516.115841 -300.677729 
L 516.116502 -297.583045 
L 516.119228 -294.488361 
L 516.123383 -291.393677 
L 516.126928 -288.298993 
L 516.129217 -285.204308 
L 516.130963 -282.109624 
L 516.132669 -279.01494 
L 516.134485 -275.920256 
L 516.136348 -272.825572 
L 516.137633 -269.730888 
L 516.138357 -266.636204 
L 516.140532 -263.54152 
L 516.146186 -260.446836 
L 516.154474 -257.352151 
L 516.162523 -254.257467 
L 516.16859 -251.162783 
L 516.17298 -248.068099 
L 516.176473 -244.973415 
L 516.179387 -241.878731 
L 516.182226 -238.784047 
L 516.186152 -235.689363 
L 516.192328 -232.594679 
L 516.200771 -229.499994 
L 516.210181 -226.40531 
L 516.219094 -223.310626 
L 516.226307 -220.215942 
L 516.230717 -217.121258 
L 516.232663 -214.026574 
L 516.234785 -210.93189 
L 516.240304 -207.837206 
L 516.250333 -204.742522 
L 516.262987 -201.647838 
L 516.27607 -198.553153 
L 516.290167 -195.458469 
L 516.307003 -192.363785 
L 516.325849 -189.269101 
L 516.344531 -186.174417 
L 516.363141 -183.079733 
L 516.384046 -179.985049 
L 516.409477 -176.890365 
L 516.441045 -173.795681 
L 516.479548 -170.700996 
L 516.524693 -167.606312 
L 516.577789 -164.511628 
L 516.643877 -161.416944 
L 516.729686 -158.32226 
L 516.846041 -155.227576 
L 517.031472 -152.132892 
L 517.44048 -149.038208 
L 518.555879 -145.943524 
L 521.256819 -142.848839 
L 525.822218 -139.754155 
L 530.134779 -136.659471 
L 530.599567 -133.564787 
L 526.527398 -130.470103 
L 521.237863 -127.375419 
L 517.788366 -124.280735 
z
" style="stroke: #5a5a5a; stroke-width: 1.5"/>
    </defs>
    <g clip-path="url(#p1a6c96e3a3)">
     <use xlink:href="#m5a8feddf2c" x="0" y="576" style="fill: #e5e5ea; stroke: #5a5a5a; stroke-width: 1.5"/>
    </g>
   </g>
   <g id="PolyCollection_4">
    <defs>
     <path id="mc57a83281a" d="M 664.816576 -106.269652 
L 664.783424 -106.269652 
L 664.770989 -109.728121 
L 664.751781 -113.186591 
L 664.723793 -116.64506 
L 664.685305 -120.103529 
L 664.63534 -123.561998 
L 664.574068 -127.020467 
L 664.503054 -130.478936 
L 664.425211 -133.937405 
L 664.344446 -137.395875 
L 664.265073 -140.854344 
L 664.191127 -144.312813 
L 664.125789 -147.771282 
L 664.071016 -151.229751 
L 664.027468 -154.68822 
L 663.994661 -158.146689 
L 663.971272 -161.605158 
L 663.955503 -165.063628 
L 663.945408 -168.522097 
L 663.939157 -171.980566 
L 663.935202 -175.439035 
L 663.932362 -178.897504 
L 663.929817 -182.355973 
L 663.927054 -185.814442 
L 663.923766 -189.272912 
L 663.919762 -192.731381 
L 663.914897 -196.18985 
L 663.909041 -199.648319 
L 663.902102 -203.106788 
L 663.894089 -206.565257 
L 663.885178 -210.023726 
L 663.875767 -213.482196 
L 663.866476 -216.940665 
L 663.858076 -220.399134 
L 663.851353 -223.857603 
L 663.846928 -227.316072 
L 663.845103 -230.774541 
L 663.845778 -234.23301 
L 663.848475 -237.69148 
L 663.85249 -241.149949 
L 663.857112 -244.608418 
L 663.861838 -248.066887 
L 663.866509 -251.525356 
L 663.87131 -254.983825 
L 663.876624 -258.442294 
L 663.882823 -261.900764 
L 663.890043 -265.359233 
L 663.898057 -268.817702 
L 663.906255 -272.276171 
L 663.913755 -275.73464 
L 663.91958 -279.193109 
L 663.922886 -282.651578 
L 663.92316 -286.110047 
L 663.920357 -289.568517 
L 663.914941 -293.026986 
L 663.907785 -296.485455 
L 663.899968 -299.943924 
L 663.89252 -303.402393 
L 663.886197 -306.860862 
L 663.881388 -310.319331 
L 663.878162 -313.777801 
L 663.876416 -317.23627 
L 663.876023 -320.694739 
L 663.876897 -324.153208 
L 663.87894 -327.611677 
L 663.881931 -331.070146 
L 663.885428 -334.528615 
L 663.888774 -337.987085 
L 663.891217 -341.445554 
L 663.892104 -344.904023 
L 663.891067 -348.362492 
L 663.888137 -351.820961 
L 663.883747 -355.27943 
L 663.878642 -358.737899 
L 663.873734 -362.196369 
L 663.869935 -365.654838 
L 663.868004 -369.113307 
L 663.868422 -372.571776 
L 663.871334 -376.030245 
L 663.876588 -379.488714 
L 663.883895 -382.947183 
L 663.893086 -386.405652 
L 663.904441 -389.864122 
L 663.918952 -393.322591 
L 663.938428 -396.78106 
L 663.965322 -400.239529 
L 664.002274 -403.697998 
L 664.051415 -407.156467 
L 664.113634 -410.614936 
L 664.188026 -414.073406 
L 664.271719 -417.531875 
L 664.360212 -420.990344 
L 664.448136 -424.448813 
L 664.53024 -427.907282 
L 664.602321 -431.365751 
L 664.661836 -434.82422 
L 664.708061 -438.28269 
L 664.741841 -441.741159 
L 664.765071 -445.199628 
L 664.780105 -448.658097 
L 664.819895 -448.658097 
L 664.819895 -448.658097 
L 664.834929 -445.199628 
L 664.858159 -441.741159 
L 664.891939 -438.28269 
L 664.938164 -434.82422 
L 664.997679 -431.365751 
L 665.06976 -427.907282 
L 665.151864 -424.448813 
L 665.239788 -420.990344 
L 665.328281 -417.531875 
L 665.411974 -414.073406 
L 665.486366 -410.614936 
L 665.548585 -407.156467 
L 665.597726 -403.697998 
L 665.634678 -400.239529 
L 665.661572 -396.78106 
L 665.681048 -393.322591 
L 665.695559 -389.864122 
L 665.706914 -386.405652 
L 665.716105 -382.947183 
L 665.723412 -379.488714 
L 665.728666 -376.030245 
L 665.731578 -372.571776 
L 665.731996 -369.113307 
L 665.730065 -365.654838 
L 665.726266 -362.196369 
L 665.721358 -358.737899 
L 665.716253 -355.27943 
L 665.711863 -351.820961 
L 665.708933 -348.362492 
L 665.707896 -344.904023 
L 665.708783 -341.445554 
L 665.711226 -337.987085 
L 665.714572 -334.528615 
L 665.718069 -331.070146 
L 665.72106 -327.611677 
L 665.723103 -324.153208 
L 665.723977 -320.694739 
L 665.723584 -317.23627 
L 665.721838 -313.777801 
L 665.718612 -310.319331 
L 665.713803 -306.860862 
L 665.70748 -303.402393 
L 665.700032 -299.943924 
L 665.692215 -296.485455 
L 665.685059 -293.026986 
L 665.679643 -289.568517 
L 665.67684 -286.110047 
L 665.677114 -282.651578 
L 665.68042 -279.193109 
L 665.686245 -275.73464 
L 665.693745 -272.276171 
L 665.701943 -268.817702 
L 665.709957 -265.359233 
L 665.717177 -261.900764 
L 665.723376 -258.442294 
L 665.72869 -254.983825 
L 665.733491 -251.525356 
L 665.738162 -248.066887 
L 665.742888 -244.608418 
L 665.74751 -241.149949 
L 665.751525 -237.69148 
L 665.754222 -234.23301 
L 665.754897 -230.774541 
L 665.753072 -227.316072 
L 665.748647 -223.857603 
L 665.741924 -220.399134 
L 665.733524 -216.940665 
L 665.724233 -213.482196 
L 665.714822 -210.023726 
L 665.705911 -206.565257 
L 665.697898 -203.106788 
L 665.690959 -199.648319 
L 665.685103 -196.18985 
L 665.680238 -192.731381 
L 665.676234 -189.272912 
L 665.672946 -185.814442 
L 665.670183 -182.355973 
L 665.667638 -178.897504 
L 665.664798 -175.439035 
L 665.660843 -171.980566 
L 665.654592 -168.522097 
L 665.644497 -165.063628 
L 665.628728 -161.605158 
L 665.605339 -158.146689 
L 665.572532 -154.68822 
L 665.528984 -151.229751 
L 665.474211 -147.771282 
L 665.408873 -144.312813 
L 665.334927 -140.854344 
L 665.255554 -137.395875 
L 665.174789 -133.937405 
L 665.096946 -130.478936 
L 665.025932 -127.020467 
L 664.96466 -123.561998 
L 664.914695 -120.103529 
L 664.876207 -116.64506 
L 664.848219 -113.186591 
L 664.829011 -109.728121 
L 664.816576 -106.269652 
z
" style="stroke: #5a5a5a; stroke-width: 1.5"/>
    </defs>
    <g clip-path="url(#p1a6c96e3a3)">
     <use xlink:href="#mc57a83281a" x="0" y="576" style="fill: #efe1e0; stroke: #5a5a5a; stroke-width: 1.5"/>
    </g>
   </g>
   <g id="PolyCollection_5">
    <defs>
     <path id="mb0e35af317" d="M 813.618612 -101.140491 
L 813.581388 -101.140491 
L 813.569187 -104.702143 
L 813.550962 -108.263795 
L 813.524934 -111.825446 
L 813.489396 -115.387098 
L 813.443007 -118.94875 
L 813.385132 -122.510401 
L 813.316129 -126.072053 
L 813.237535 -129.633705 
L 813.15204 -133.195356 
L 813.063262 -136.757008 
L 812.975302 -140.31866 
L 812.892202 -143.880312 
L 812.817393 -147.441963 
L 812.753265 -151.003615 
L 812.700951 -154.565267 
L 812.660352 -158.126918 
L 812.630377 -161.68857 
L 812.609334 -165.250222 
L 812.595352 -168.811873 
L 812.58677 -172.373525 
L 812.58239 -175.935177 
L 812.581573 -179.496828 
L 812.584178 -183.05848 
L 812.590373 -186.620132 
L 812.600373 -190.181783 
L 812.614189 -193.743435 
L 812.631443 -197.305087 
L 812.651294 -200.866738 
L 812.67249 -204.42839 
L 812.693521 -207.990042 
L 812.712835 -211.551693 
L 812.729064 -215.113345 
L 812.741208 -218.674997 
L 812.748753 -222.236649 
L 812.751707 -225.7983 
L 812.750559 -229.359952 
L 812.746177 -232.921604 
L 812.739669 -236.483255 
L 812.732228 -240.044907 
L 812.724987 -243.606559 
L 812.718898 -247.16821 
L 812.714645 -250.729862 
L 812.712603 -254.291514 
L 812.712839 -257.853165 
L 812.715146 -261.414817 
L 812.719109 -264.976469 
L 812.724178 -268.53812 
L 812.729751 -272.099772 
L 812.735237 -275.661424 
L 812.740109 -279.223075 
L 812.743932 -282.784727 
L 812.746377 -286.346379 
L 812.747226 -289.90803 
L 812.746374 -293.469682 
L 812.743838 -297.031334 
L 812.739762 -300.592986 
L 812.734421 -304.154637 
L 812.728205 -307.716289 
L 812.721586 -311.277941 
L 812.715064 -314.839592 
L 812.709103 -318.401244 
L 812.704057 -321.962896 
L 812.700126 -325.524547 
L 812.697333 -329.086199 
L 812.695544 -332.647851 
L 812.69453 -336.209502 
L 812.694048 -339.771154 
L 812.69393 -343.332806 
L 812.694141 -346.894457 
L 812.694796 -350.456109 
L 812.696125 -354.017761 
L 812.698407 -357.579412 
L 812.701887 -361.141064 
L 812.706729 -364.702716 
L 812.713002 -368.264367 
L 812.720714 -371.826019 
L 812.72989 -375.387671 
L 812.740655 -378.949323 
L 812.753318 -382.510974 
L 812.768423 -386.072626 
L 812.786773 -389.634278 
L 812.809391 -393.195929 
L 812.837433 -396.757581 
L 812.872028 -400.319233 
L 812.914055 -403.880884 
L 812.963894 -407.442536 
L 813.021205 -411.004188 
L 813.084793 -414.565839 
L 813.152631 -418.127491 
L 813.222049 -421.689143 
L 813.290072 -425.250794 
L 813.353833 -428.812446 
L 813.410964 -432.374098 
L 813.459873 -435.935749 
L 813.499868 -439.497401 
L 813.531104 -443.059053 
L 813.554401 -446.620704 
L 813.570993 -450.182356 
L 813.582278 -453.744008 
L 813.617722 -453.744008 
L 813.617722 -453.744008 
L 813.629007 -450.182356 
L 813.645599 -446.620704 
L 813.668896 -443.059053 
L 813.700132 -439.497401 
L 813.740127 -435.935749 
L 813.789036 -432.374098 
L 813.846167 -428.812446 
L 813.909928 -425.250794 
L 813.977951 -421.689143 
L 814.047369 -418.127491 
L 814.115207 -414.565839 
L 814.178795 -411.004188 
L 814.236106 -407.442536 
L 814.285945 -403.880884 
L 814.327972 -400.319233 
L 814.362567 -396.757581 
L 814.390609 -393.195929 
L 814.413227 -389.634278 
L 814.431577 -386.072626 
L 814.446682 -382.510974 
L 814.459345 -378.949323 
L 814.47011 -375.387671 
L 814.479286 -371.826019 
L 814.486998 -368.264367 
L 814.493271 -364.702716 
L 814.498113 -361.141064 
L 814.501593 -357.579412 
L 814.503875 -354.017761 
L 814.505204 -350.456109 
L 814.505859 -346.894457 
L 814.50607 -343.332806 
L 814.505952 -339.771154 
L 814.50547 -336.209502 
L 814.504456 -332.647851 
L 814.502667 -329.086199 
L 814.499874 -325.524547 
L 814.495943 -321.962896 
L 814.490897 -318.401244 
L 814.484936 -314.839592 
L 814.478414 -311.277941 
L 814.471795 -307.716289 
L 814.465579 -304.154637 
L 814.460238 -300.592986 
L 814.456162 -297.031334 
L 814.453626 -293.469682 
L 814.452774 -289.90803 
L 814.453623 -286.346379 
L 814.456068 -282.784727 
L 814.459891 -279.223075 
L 814.464763 -275.661424 
L 814.470249 -272.099772 
L 814.475822 -268.53812 
L 814.480891 -264.976469 
L 814.484854 -261.414817 
L 814.487161 -257.853165 
L 814.487397 -254.291514 
L 814.485355 -250.729862 
L 814.481102 -247.16821 
L 814.475013 -243.606559 
L 814.467772 -240.044907 
L 814.460331 -236.483255 
L 814.453823 -232.921604 
L 814.449441 -229.359952 
L 814.448293 -225.7983 
L 814.451247 -222.236649 
L 814.458792 -218.674997 
L 814.470936 -215.113345 
L 814.487165 -211.551693 
L 814.506479 -207.990042 
L 814.52751 -204.42839 
L 814.548706 -200.866738 
L 814.568557 -197.305087 
L 814.585811 -193.743435 
L 814.599627 -190.181783 
L 814.609627 -186.620132 
L 814.615822 -183.05848 
L 814.618427 -179.496828 
L 814.61761 -175.935177 
L 814.61323 -172.373525 
L 814.604648 -168.811873 
L 814.590666 -165.250222 
L 814.569623 -161.68857 
L 814.539648 -158.126918 
L 814.499049 -154.565267 
L 814.446735 -151.003615 
L 814.382607 -147.441963 
L 814.307798 -143.880312 
L 814.224698 -140.31866 
L 814.136738 -136.757008 
L 814.04796 -133.195356 
L 813.962465 -129.633705 
L 813.883871 -126.072053 
L 813.814868 -122.510401 
L 813.756993 -118.94875 
L 813.710604 -115.387098 
L 813.675066 -111.825446 
L 813.649038 -108.263795 
L 813.630813 -104.702143 
L 813.618612 -101.140491 
z
" style="stroke: #5a5a5a; stroke-width: 1.5"/>
    </defs>
    <g clip-path="url(#p1a6c96e3a3)">
     <use xlink:href="#mb0e35af317" x="0" y="576" style="fill: #d2acaa; stroke: #5a5a5a; stroke-width: 1.5"/>
    </g>
   </g>
   <g id="PolyCollection_6">
    <defs>
     <path id="mb6015437c9" d="M 962.419283 -91.767273 
L 962.380717 -91.767273 
L 962.375028 -95.760661 
L 962.36808 -99.75405 
L 962.359723 -103.747438 
L 962.349825 -107.740826 
L 962.338279 -111.734215 
L 962.325017 -115.727603 
L 962.310014 -119.720992 
L 962.2933 -123.71438 
L 962.274961 -127.707769 
L 962.255139 -131.701157 
L 962.23403 -135.694545 
L 962.211872 -139.687934 
L 962.188937 -143.681322 
L 962.165512 -147.674711 
L 962.141882 -151.668099 
L 962.11831 -155.661488 
L 962.095018 -159.654876 
L 962.072178 -163.648264 
L 962.049893 -167.641653 
L 962.028198 -171.635041 
L 962.00706 -175.62843 
L 961.98638 -179.621818 
L 961.966013 -183.615207 
L 961.94578 -187.608595 
L 961.925488 -191.601983 
L 961.90495 -195.595372 
L 961.884004 -199.58876 
L 961.862528 -203.582149 
L 961.840451 -207.575537 
L 961.817757 -211.568926 
L 961.794488 -215.562314 
L 961.770732 -219.555702 
L 961.746618 -223.549091 
L 961.722296 -227.542479 
L 961.697924 -231.535868 
L 961.673649 -235.529256 
L 961.649592 -239.522645 
L 961.625833 -243.516033 
L 961.602405 -247.509421 
L 961.579286 -251.50281 
L 961.556402 -255.496198 
L 961.533632 -259.489587 
L 961.510824 -263.482975 
L 961.487803 -267.476364 
L 961.464399 -271.469752 
L 961.440464 -275.46314 
L 961.415895 -279.456529 
L 961.390654 -283.449917 
L 961.364787 -287.443306 
L 961.33843 -291.436694 
L 961.311821 -295.430083 
L 961.28529 -299.423471 
L 961.259251 -303.41686 
L 961.234181 -307.410248 
L 961.210596 -311.403636 
L 961.18902 -315.397025 
L 961.169952 -319.390413 
L 961.15384 -323.383802 
L 961.14105 -327.37719 
L 961.131854 -331.370579 
L 961.126413 -335.363967 
L 961.124787 -339.357355 
L 961.126937 -343.350744 
L 961.132748 -347.344132 
L 961.142053 -351.337521 
L 961.154665 -355.330909 
L 961.170402 -359.324298 
L 961.189114 -363.317686 
L 961.210701 -367.311074 
L 961.235124 -371.304463 
L 961.262407 -375.297851 
L 961.292622 -379.29124 
L 961.325874 -383.284628 
L 961.362273 -387.278017 
L 961.401902 -391.271405 
L 961.444787 -395.264793 
L 961.49087 -399.258182 
L 961.539982 -403.25157 
L 961.591832 -407.244959 
L 961.646002 -411.238347 
L 961.701955 -415.231736 
L 961.759048 -419.225124 
L 961.816567 -423.218512 
L 961.87375 -427.211901 
L 961.92983 -431.205289 
L 961.984072 -435.198678 
L 962.035801 -439.192066 
L 962.084438 -443.185455 
L 962.12952 -447.178843 
L 962.170711 -451.172231 
L 962.207811 -455.16562 
L 962.240748 -459.159008 
L 962.269572 -463.152397 
L 962.294437 -467.145785 
L 962.315581 -471.139174 
L 962.333305 -475.132562 
L 962.34795 -479.12595 
L 962.359879 -483.119339 
L 962.369459 -487.112727 
L 962.430541 -487.112727 
L 962.430541 -487.112727 
L 962.440121 -483.119339 
L 962.45205 -479.12595 
L 962.466695 -475.132562 
L 962.484419 -471.139174 
L 962.505563 -467.145785 
L 962.530428 -463.152397 
L 962.559252 -459.159008 
L 962.592189 -455.16562 
L 962.629289 -451.172231 
L 962.67048 -447.178843 
L 962.715562 -443.185455 
L 962.764199 -439.192066 
L 962.815928 -435.198678 
L 962.87017 -431.205289 
L 962.92625 -427.211901 
L 962.983433 -423.218512 
L 963.040952 -419.225124 
L 963.098045 -415.231736 
L 963.153998 -411.238347 
L 963.208168 -407.244959 
L 963.260018 -403.25157 
L 963.30913 -399.258182 
L 963.355213 -395.264793 
L 963.398098 -391.271405 
L 963.437727 -387.278017 
L 963.474126 -383.284628 
L 963.507378 -379.29124 
L 963.537593 -375.297851 
L 963.564876 -371.304463 
L 963.589299 -367.311074 
L 963.610886 -363.317686 
L 963.629598 -359.324298 
L 963.645335 -355.330909 
L 963.657947 -351.337521 
L 963.667252 -347.344132 
L 963.673063 -343.350744 
L 963.675213 -339.357355 
L 963.673587 -335.363967 
L 963.668146 -331.370579 
L 963.65895 -327.37719 
L 963.64616 -323.383802 
L 963.630048 -319.390413 
L 963.61098 -315.397025 
L 963.589404 -311.403636 
L 963.565819 -307.410248 
L 963.540749 -303.41686 
L 963.51471 -299.423471 
L 963.488179 -295.430083 
L 963.46157 -291.436694 
L 963.435213 -287.443306 
L 963.409346 -283.449917 
L 963.384105 -279.456529 
L 963.359536 -275.46314 
L 963.335601 -271.469752 
L 963.312197 -267.476364 
L 963.289176 -263.482975 
L 963.266368 -259.489587 
L 963.243598 -255.496198 
L 963.220714 -251.50281 
L 963.197595 -247.509421 
L 963.174167 -243.516033 
L 963.150408 -239.522645 
L 963.126351 -235.529256 
L 963.102076 -231.535868 
L 963.077704 -227.542479 
L 963.053382 -223.549091 
L 963.029268 -219.555702 
L 963.005512 -215.562314 
L 962.982243 -211.568926 
L 962.959549 -207.575537 
L 962.937472 -203.582149 
L 962.915996 -199.58876 
L 962.89505 -195.595372 
L 962.874512 -191.601983 
L 962.85422 -187.608595 
L 962.833987 -183.615207 
L 962.81362 -179.621818 
L 962.79294 -175.62843 
L 962.771802 -171.635041 
L 962.750107 -167.641653 
L 962.727822 -163.648264 
L 962.704982 -159.654876 
L 962.68169 -155.661488 
L 962.658118 -151.668099 
L 962.634488 -147.674711 
L 962.611063 -143.681322 
L 962.588128 -139.687934 
L 962.56597 -135.694545 
L 962.544861 -131.701157 
L 962.525039 -127.707769 
L 962.5067 -123.71438 
L 962.489986 -119.720992 
L 962.474983 -115.727603 
L 962.461721 -111.734215 
L 962.450175 -107.740826 
L 962.440277 -103.747438 
L 962.43192 -99.75405 
L 962.424972 -95.760661 
L 962.419283 -91.767273 
z
" style="stroke: #5a5a5a; stroke-width: 1.5"/>
    </defs>
    <g clip-path="url(#p1a6c96e3a3)">
     <use xlink:href="#mb6015437c9" x="0" y="576" style="fill: #b77977; stroke: #5a5a5a; stroke-width: 1.5"/>
    </g>
   </g>
   <g id="line2d_1">
    <path d="M 218.4 441.738907 
L 218.4 434.101206 
" clip-path="url(#p1a6c96e3a3)" style="fill: none; stroke: #5a5a5a; stroke-width: 1.5; stroke-linecap: round"/>
   </g>
   <g id="line2d_2">
    <path d="M 218.4 441.738755 
L 218.4 438.683735 
" clip-path="url(#p1a6c96e3a3)" style="fill: none; stroke: #5a5a5a; stroke-width: 4.5; stroke-linecap: round"/>
   </g>
   <g id="line2d_3">
    <path d="M 367.2 441.738907 
L 367.2 435.594449 
" clip-path="url(#p1a6c96e3a3)" style="fill: none; stroke: #5a5a5a; stroke-width: 1.5; stroke-linecap: round"/>
   </g>
   <g id="line2d_4">
    <path d="M 367.2 441.738853 
L 367.2 439.28085 
" clip-path="url(#p1a6c96e3a3)" style="fill: none; stroke: #5a5a5a; stroke-width: 4.5; stroke-linecap: round"/>
   </g>
   <g id="line2d_5">
    <path d="M 516 441.738907 
L 516 422.261232 
" clip-path="url(#p1a6c96e3a3)" style="fill: none; stroke: #5a5a5a; stroke-width: 1.5; stroke-linecap: round"/>
   </g>
   <g id="line2d_6">
    <path d="M 516 441.738669 
L 516 433.947274 
" clip-path="url(#p1a6c96e3a3)" style="fill: none; stroke: #5a5a5a; stroke-width: 4.5; stroke-linecap: round"/>
   </g>
   <g id="line2d_7">
    <path d="M 664.8 441.738907 
L 664.8 155.333344 
" clip-path="url(#p1a6c96e3a3)" style="fill: none; stroke: #5a5a5a; stroke-width: 1.5; stroke-linecap: round"/>
   </g>
   <g id="line2d_8">
    <path d="M 664.8 365.903809 
L 664.8 225.162127 
" clip-path="url(#p1a6c96e3a3)" style="fill: none; stroke: #5a5a5a; stroke-width: 4.5; stroke-linecap: round"/>
   </g>
   <g id="line2d_9">
    <path d="M 813.6 441.738907 
L 813.6 155.376594 
" clip-path="url(#p1a6c96e3a3)" style="fill: none; stroke: #5a5a5a; stroke-width: 1.5; stroke-linecap: round"/>
   </g>
   <g id="line2d_10">
    <path d="M 813.6 378.323806 
L 813.6 230.638844 
" clip-path="url(#p1a6c96e3a3)" style="fill: none; stroke: #5a5a5a; stroke-width: 4.5; stroke-linecap: round"/>
   </g>
   <g id="line2d_11">
    <path d="M 962.4 417.563245 
L 962.4 155.556755 
" clip-path="url(#p1a6c96e3a3)" style="fill: none; stroke: #5a5a5a; stroke-width: 1.5; stroke-linecap: round"/>
   </g>
   <g id="line2d_12">
    <path d="M 962.4 312.362107 
L 962.4 209.868579 
" clip-path="url(#p1a6c96e3a3)" style="fill: none; stroke: #5a5a5a; stroke-width: 4.5; stroke-linecap: round"/>
   </g>
   <g id="patch_3">
    <path d="M 144 504 
L 144 69.12 
" style="fill: none; stroke: #cccccc; stroke-width: 0.8; stroke-linejoin: miter; stroke-linecap: square"/>
   </g>
   <g id="patch_4">
    <path d="M 1036.8 504 
L 1036.8 69.12 
" style="fill: none; stroke: #cccccc; stroke-width: 0.8; stroke-linejoin: miter; stroke-linecap: square"/>
   </g>
   <g id="patch_5">
    <path d="M 144 504 
L 1036.8 504 
" style="fill: none; stroke: #cccccc; stroke-width: 0.8; stroke-linejoin: miter; stroke-linecap: square"/>
   </g>
   <g id="patch_6">
    <path d="M 144 69.12 
L 1036.8 69.12 
" style="fill: none; stroke: #cccccc; stroke-width: 0.8; stroke-linejoin: miter; stroke-linecap: square"/>
   </g>
   <g id="PathCollection_1">
    <defs>
     <path id="m55d6d685d8" d="M 0 1.5 
C 0.397805 1.5 0.77937 1.341951 1.06066 1.06066 
C 1.341951 0.77937 1.5 0.397805 1.5 0 
C 1.5 -0.397805 1.341951 -0.77937 1.06066 -1.06066 
C 0.77937 -1.341951 0.397805 -1.5 0 -1.5 
C -0.397805 -1.5 -0.77937 -1.341951 -1.06066 -1.06066 
C -1.341951 -0.77937 -1.5 -0.397805 -1.5 0 
C -1.5 0.397805 -1.341951 0.77937 -1.06066 1.06066 
C -0.77937 1.341951 -0.397805 1.5 0 1.5 
z
" style="stroke: #5a5a5a"/>
    </defs>
    <g clip-path="url(#p1a6c96e3a3)">
     <use xlink:href="#m55d6d685d8" x="218.4" y="441.691715" style="fill: #ffffff; stroke: #5a5a5a"/>
    </g>
   </g>
   <g id="PathCollection_2">
    <g clip-path="url(#p1a6c96e3a3)">
     <use xlink:href="#m55d6d685d8" x="367.2" y="441.710134" style="fill: #ffffff; stroke: #5a5a5a"/>
    </g>
   </g>
   <g id="PathCollection_3">
    <g clip-path="url(#p1a6c96e3a3)">
     <use xlink:href="#m55d6d685d8" x="516" y="441.639462" style="fill: #ffffff; stroke: #5a5a5a"/>
    </g>
   </g>
   <g id="PathCollection_4">
    <g clip-path="url(#p1a6c96e3a3)">
     <use xlink:href="#m55d6d685d8" x="664.8" y="296.93573" style="fill: #ffffff; stroke: #5a5a5a"/>
    </g>
   </g>
   <g id="PathCollection_5">
    <g clip-path="url(#p1a6c96e3a3)">
     <use xlink:href="#m55d6d685d8" x="813.6" y="304.521961" style="fill: #ffffff; stroke: #5a5a5a"/>
    </g>
   </g>
   <g id="PathCollection_6">
    <g clip-path="url(#p1a6c96e3a3)">
     <use xlink:href="#m55d6d685d8" x="962.4" y="253.872428" style="fill: #ffffff; stroke: #5a5a5a"/>
    </g>
   </g>
   <g id="text_17">
    <!-- Count: 13696790 -->
    <g style="fill: #262626" transform="translate(172.364062 67.002759)scale(0.12 -0.12)">
     <defs>
      <path id="ArialMT-6e" d="M 422 0 
L 422 3319 
L 928 3319 
L 928 2847 
Q 1294 3394 1984 3394 
Q 2284 3394 2536 3286 
Q 2788 3178 2913 3003 
Q 3038 2828 3088 2588 
Q 3119 2431 3119 2041 
L 3119 0 
L 2556 0 
L 2556 2019 
Q 2556 2363 2490 2533 
Q 2425 2703 2258 2804 
Q 2091 2906 1866 2906 
Q 1506 2906 1245 2678 
Q 984 2450 984 1813 
L 984 0 
L 422 0 
z
" transform="scale(0.015625)"/>
      <path id="ArialMT-3a" d="M 578 2678 
L 578 3319 
L 1219 3319 
L 1219 2678 
L 578 2678 
z
M 578 0 
L 578 641 
L 1219 641 
L 1219 0 
L 578 0 
z
" transform="scale(0.015625)"/>
      <path id="ArialMT-20" transform="scale(0.015625)"/>
      <path id="ArialMT-39" d="M 350 1059 
L 891 1109 
Q 959 728 1153 556 
Q 1347 384 1650 384 
Q 1909 384 2104 503 
Q 2300 622 2425 820 
Q 2550 1019 2634 1356 
Q 2719 1694 2719 2044 
Q 2719 2081 2716 2156 
Q 2547 1888 2255 1720 
Q 1963 1553 1622 1553 
Q 1053 1553 659 1965 
Q 266 2378 266 3053 
Q 266 3750 677 4175 
Q 1088 4600 1706 4600 
Q 2153 4600 2523 4359 
Q 2894 4119 3086 3673 
Q 3278 3228 3278 2384 
Q 3278 1506 3087 986 
Q 2897 466 2520 194 
Q 2144 -78 1638 -78 
Q 1100 -78 759 220 
Q 419 519 350 1059 
z
M 2653 3081 
Q 2653 3566 2395 3850 
Q 2138 4134 1775 4134 
Q 1400 4134 1122 3828 
Q 844 3522 844 3034 
Q 844 2597 1108 2323 
Q 1372 2050 1759 2050 
Q 2150 2050 2401 2323 
Q 2653 2597 2653 3081 
z
" transform="scale(0.015625)"/>
      <path id="ArialMT-37" d="M 303 3981 
L 303 4522 
L 3269 4522 
L 3269 4084 
Q 2831 3619 2401 2847 
Q 1972 2075 1738 1259 
Q 1569 684 1522 0 
L 944 0 
Q 953 541 1156 1306 
Q 1359 2072 1739 2783 
Q 2119 3494 2547 3981 
L 303 3981 
z
" transform="scale(0.015625)"/>
     </defs>
     <use xlink:href="#ArialMT-43"/>
     <use xlink:href="#ArialMT-6f" x="72.216797"/>
     <use xlink:href="#ArialMT-75" x="127.832031"/>
     <use xlink:href="#ArialMT-6e" x="183.447266"/>
     <use xlink:href="#ArialMT-74" x="239.0625"/>
     <use xlink:href="#ArialMT-3a" x="266.845703"/>
     <use xlink:href="#ArialMT-20" x="294.628906"/>
     <use xlink:href="#ArialMT-31" x="322.412109"/>
     <use xlink:href="#ArialMT-33" x="378.027344"/>
     <use xlink:href="#ArialMT-36" x="433.642578"/>
     <use xlink:href="#ArialMT-39" x="489.257812"/>
     <use xlink:href="#ArialMT-36" x="544.873047"/>
     <use xlink:href="#ArialMT-37" x="600.488281"/>
     <use xlink:href="#ArialMT-39" x="656.103516"/>
     <use xlink:href="#ArialMT-30" x="711.71875"/>
    </g>
   </g>
   <g id="text_18">
    <!-- Count: 542514 -->
    <g style="fill: #262626" transform="translate(327.837187 67.002759)scale(0.12 -0.12)">
     <defs>
      <path id="ArialMT-35" d="M 266 1200 
L 856 1250 
Q 922 819 1161 601 
Q 1400 384 1738 384 
Q 2144 384 2425 690 
Q 2706 997 2706 1503 
Q 2706 1984 2436 2262 
Q 2166 2541 1728 2541 
Q 1456 2541 1237 2417 
Q 1019 2294 894 2097 
L 366 2166 
L 809 4519 
L 3088 4519 
L 3088 3981 
L 1259 3981 
L 1013 2750 
Q 1425 3038 1878 3038 
Q 2478 3038 2890 2622 
Q 3303 2206 3303 1553 
Q 3303 931 2941 478 
Q 2500 -78 1738 -78 
Q 1113 -78 717 272 
Q 322 622 266 1200 
z
" transform="scale(0.015625)"/>
     </defs>
     <use xlink:href="#ArialMT-43"/>
     <use xlink:href="#ArialMT-6f" x="72.216797"/>
     <use xlink:href="#ArialMT-75" x="127.832031"/>
     <use xlink:href="#ArialMT-6e" x="183.447266"/>
     <use xlink:href="#ArialMT-74" x="239.0625"/>
     <use xlink:href="#ArialMT-3a" x="266.845703"/>
     <use xlink:href="#ArialMT-20" x="294.628906"/>
     <use xlink:href="#ArialMT-35" x="322.412109"/>
     <use xlink:href="#ArialMT-34" x="378.027344"/>
     <use xlink:href="#ArialMT-32" x="433.642578"/>
     <use xlink:href="#ArialMT-35" x="489.257812"/>
     <use xlink:href="#ArialMT-31" x="544.873047"/>
     <use xlink:href="#ArialMT-34" x="600.488281"/>
    </g>
   </g>
   <g id="text_19">
    <!-- Count: 128910 -->
    <g style="fill: #262626" transform="translate(476.637187 67.002759)scale(0.12 -0.12)">
     <use xlink:href="#ArialMT-43"/>
     <use xlink:href="#ArialMT-6f" x="72.216797"/>
     <use xlink:href="#ArialMT-75" x="127.832031"/>
     <use xlink:href="#ArialMT-6e" x="183.447266"/>
     <use xlink:href="#ArialMT-74" x="239.0625"/>
     <use xlink:href="#ArialMT-3a" x="266.845703"/>
     <use xlink:href="#ArialMT-20" x="294.628906"/>
     <use xlink:href="#ArialMT-31" x="322.412109"/>
     <use xlink:href="#ArialMT-32" x="378.027344"/>
     <use xlink:href="#ArialMT-38" x="433.642578"/>
     <use xlink:href="#ArialMT-39" x="489.257812"/>
     <use xlink:href="#ArialMT-31" x="544.873047"/>
     <use xlink:href="#ArialMT-30" x="600.488281"/>
    </g>
   </g>
   <g id="text_20">
    <!-- Count: 6711 -->
    <g style="fill: #262626" transform="translate(632.552812 67.002759)scale(0.12 -0.12)">
     <use xlink:href="#ArialMT-43"/>
     <use xlink:href="#ArialMT-6f" x="72.216797"/>
     <use xlink:href="#ArialMT-75" x="127.832031"/>
     <use xlink:href="#ArialMT-6e" x="183.447266"/>
     <use xlink:href="#ArialMT-74" x="239.0625"/>
     <use xlink:href="#ArialMT-3a" x="266.845703"/>
     <use xlink:href="#ArialMT-20" x="294.628906"/>
     <use xlink:href="#ArialMT-36" x="322.412109"/>
     <use xlink:href="#ArialMT-37" x="378.027344"/>
     <use xlink:href="#ArialMT-31" x="433.642578"/>
     <use xlink:href="#ArialMT-31" x="481.882812"/>
    </g>
   </g>
   <g id="text_21">
    <!-- Count: 3148 -->
    <g style="fill: #262626" transform="translate(780.910312 67.002759)scale(0.12 -0.12)">
     <use xlink:href="#ArialMT-43"/>
     <use xlink:href="#ArialMT-6f" x="72.216797"/>
     <use xlink:href="#ArialMT-75" x="127.832031"/>
     <use xlink:href="#ArialMT-6e" x="183.447266"/>
     <use xlink:href="#ArialMT-74" x="239.0625"/>
     <use xlink:href="#ArialMT-3a" x="266.845703"/>
     <use xlink:href="#ArialMT-20" x="294.628906"/>
     <use xlink:href="#ArialMT-33" x="322.412109"/>
     <use xlink:href="#ArialMT-31" x="378.027344"/>
     <use xlink:href="#ArialMT-34" x="433.642578"/>
     <use xlink:href="#ArialMT-38" x="489.257812"/>
    </g>
   </g>
   <g id="text_22">
    <!-- Count: 46 -->
    <g style="fill: #262626" transform="translate(936.383437 67.002759)scale(0.12 -0.12)">
     <use xlink:href="#ArialMT-43"/>
     <use xlink:href="#ArialMT-6f" x="72.216797"/>
     <use xlink:href="#ArialMT-75" x="127.832031"/>
     <use xlink:href="#ArialMT-6e" x="183.447266"/>
     <use xlink:href="#ArialMT-74" x="239.0625"/>
     <use xlink:href="#ArialMT-3a" x="266.845703"/>
     <use xlink:href="#ArialMT-20" x="294.628906"/>
     <use xlink:href="#ArialMT-34" x="322.412109"/>
     <use xlink:href="#ArialMT-36" x="378.027344"/>
    </g>
   </g>
  </g>
 </g>
 <defs>
  <clipPath id="p1a6c96e3a3">
   <rect x="144" y="69.12" width="892.8" height="434.88"/>
  </clipPath>
 </defs>
</svg>
