<?xml version="1.0" encoding="utf-8" standalone="no"?>
<!DOCTYPE svg PUBLIC "-//W3C//DTD SVG 1.1//EN"
  "http://www.w3.org/Graphics/SVG/1.1/DTD/svg11.dtd">
<svg xmlns:xlink="http://www.w3.org/1999/xlink" width="1152pt" height="576pt" viewBox="0 0 1152 576" xmlns="http://www.w3.org/2000/svg" version="1.1">
 <metadata>
  <rdf:RDF xmlns:dc="http://purl.org/dc/elements/1.1/" xmlns:cc="http://creativecommons.org/ns#" xmlns:rdf="http://www.w3.org/1999/02/22-rdf-syntax-ns#">
   <cc:Work>
    <dc:type rdf:resource="http://purl.org/dc/dcmitype/StillImage"/>
    <dc:date>2024-04-23T08:46:45.460598</dc:date>
    <dc:format>image/svg+xml</dc:format>
    <dc:creator>
     <cc:Agent>
      <dc:title>Matplotlib v3.5.3, https://matplotlib.org/</dc:title>
     </cc:Agent>
    </dc:creator>
   </cc:Work>
  </rdf:RDF>
 </metadata>
 <defs>
  <style type="text/css">*{stroke-linejoin: round; stroke-linecap: butt}</style>
 </defs>
 <g id="figure_1">
  <g id="patch_1">
   <path d="M 0 576 
L 1152 576 
L 1152 0 
L 0 0 
z
" style="fill: #ffffff"/>
  </g>
  <g id="axes_1">
   <g id="patch_2">
    <path d="M 144 512.64 
L 1036.8 512.64 
L 1036.8 69.12 
L 144 69.12 
z
" style="fill: #ffffff"/>
   </g>
   <g id="matplotlib.axis_1">
    <g id="xtick_1">
     <g id="text_1">
      <!-- GRCh38 -->
      <g style="fill: #262626" transform="translate(195.057187 528.229375)scale(0.12 -0.12)">
       <defs>
        <path id="ArialMT-47" d="M 2638 1797 
L 2638 2334 
L 4578 2338 
L 4578 638 
Q 4131 281 3656 101 
Q 3181 -78 2681 -78 
Q 2006 -78 1454 211 
Q 903 500 622 1047 
Q 341 1594 341 2269 
Q 341 2938 620 3517 
Q 900 4097 1425 4378 
Q 1950 4659 2634 4659 
Q 3131 4659 3532 4498 
Q 3934 4338 4162 4050 
Q 4391 3763 4509 3300 
L 3963 3150 
Q 3859 3500 3706 3700 
Q 3553 3900 3268 4020 
Q 2984 4141 2638 4141 
Q 2222 4141 1919 4014 
Q 1616 3888 1430 3681 
Q 1244 3475 1141 3228 
Q 966 2803 966 2306 
Q 966 1694 1177 1281 
Q 1388 869 1791 669 
Q 2194 469 2647 469 
Q 3041 469 3416 620 
Q 3791 772 3984 944 
L 3984 1797 
L 2638 1797 
z
" transform="scale(0.015625)"/>
        <path id="ArialMT-52" d="M 503 0 
L 503 4581 
L 2534 4581 
Q 3147 4581 3465 4457 
Q 3784 4334 3975 4021 
Q 4166 3709 4166 3331 
Q 4166 2844 3850 2509 
Q 3534 2175 2875 2084 
Q 3116 1969 3241 1856 
Q 3506 1613 3744 1247 
L 4541 0 
L 3778 0 
L 3172 953 
Q 2906 1366 2734 1584 
Q 2563 1803 2427 1890 
Q 2291 1978 2150 2013 
Q 2047 2034 1813 2034 
L 1109 2034 
L 1109 0 
L 503 0 
z
M 1109 2559 
L 2413 2559 
Q 2828 2559 3062 2645 
Q 3297 2731 3419 2920 
Q 3541 3109 3541 3331 
Q 3541 3656 3305 3865 
Q 3069 4075 2559 4075 
L 1109 4075 
L 1109 2559 
z
" transform="scale(0.015625)"/>
        <path id="ArialMT-43" d="M 3763 1606 
L 4369 1453 
Q 4178 706 3683 314 
Q 3188 -78 2472 -78 
Q 1731 -78 1267 223 
Q 803 525 561 1097 
Q 319 1669 319 2325 
Q 319 3041 592 3573 
Q 866 4106 1370 4382 
Q 1875 4659 2481 4659 
Q 3169 4659 3637 4309 
Q 4106 3959 4291 3325 
L 3694 3184 
Q 3534 3684 3231 3912 
Q 2928 4141 2469 4141 
Q 1941 4141 1586 3887 
Q 1231 3634 1087 3207 
Q 944 2781 944 2328 
Q 944 1744 1114 1308 
Q 1284 872 1643 656 
Q 2003 441 2422 441 
Q 2931 441 3284 734 
Q 3638 1028 3763 1606 
z
" transform="scale(0.015625)"/>
        <path id="ArialMT-68" d="M 422 0 
L 422 4581 
L 984 4581 
L 984 2938 
Q 1378 3394 1978 3394 
Q 2347 3394 2619 3248 
Q 2891 3103 3008 2847 
Q 3125 2591 3125 2103 
L 3125 0 
L 2563 0 
L 2563 2103 
Q 2563 2525 2380 2717 
Q 2197 2909 1863 2909 
Q 1613 2909 1392 2779 
Q 1172 2650 1078 2428 
Q 984 2206 984 1816 
L 984 0 
L 422 0 
z
" transform="scale(0.015625)"/>
        <path id="ArialMT-33" d="M 269 1209 
L 831 1284 
Q 928 806 1161 595 
Q 1394 384 1728 384 
Q 2125 384 2398 659 
Q 2672 934 2672 1341 
Q 2672 1728 2419 1979 
Q 2166 2231 1775 2231 
Q 1616 2231 1378 2169 
L 1441 2663 
Q 1497 2656 1531 2656 
Q 1891 2656 2178 2843 
Q 2466 3031 2466 3422 
Q 2466 3731 2256 3934 
Q 2047 4138 1716 4138 
Q 1388 4138 1169 3931 
Q 950 3725 888 3313 
L 325 3413 
Q 428 3978 793 4289 
Q 1159 4600 1703 4600 
Q 2078 4600 2393 4439 
Q 2709 4278 2876 4000 
Q 3044 3722 3044 3409 
Q 3044 3113 2884 2869 
Q 2725 2625 2413 2481 
Q 2819 2388 3044 2092 
Q 3269 1797 3269 1353 
Q 3269 753 2831 336 
Q 2394 -81 1725 -81 
Q 1122 -81 723 278 
Q 325 638 269 1209 
z
" transform="scale(0.015625)"/>
        <path id="ArialMT-38" d="M 1131 2484 
Q 781 2613 612 2850 
Q 444 3088 444 3419 
Q 444 3919 803 4259 
Q 1163 4600 1759 4600 
Q 2359 4600 2725 4251 
Q 3091 3903 3091 3403 
Q 3091 3084 2923 2848 
Q 2756 2613 2416 2484 
Q 2838 2347 3058 2040 
Q 3278 1734 3278 1309 
Q 3278 722 2862 322 
Q 2447 -78 1769 -78 
Q 1091 -78 675 323 
Q 259 725 259 1325 
Q 259 1772 486 2073 
Q 713 2375 1131 2484 
z
M 1019 3438 
Q 1019 3113 1228 2906 
Q 1438 2700 1772 2700 
Q 2097 2700 2305 2904 
Q 2513 3109 2513 3406 
Q 2513 3716 2298 3927 
Q 2084 4138 1766 4138 
Q 1444 4138 1231 3931 
Q 1019 3725 1019 3438 
z
M 838 1322 
Q 838 1081 952 856 
Q 1066 631 1291 507 
Q 1516 384 1775 384 
Q 2178 384 2440 643 
Q 2703 903 2703 1303 
Q 2703 1709 2433 1975 
Q 2163 2241 1756 2241 
Q 1359 2241 1098 1978 
Q 838 1716 838 1322 
z
" transform="scale(0.015625)"/>
       </defs>
       <use xlink:href="#ArialMT-47"/>
       <use xlink:href="#ArialMT-52" x="77.783203"/>
       <use xlink:href="#ArialMT-43" x="150"/>
       <use xlink:href="#ArialMT-68" x="222.216797"/>
       <use xlink:href="#ArialMT-33" x="277.832031"/>
       <use xlink:href="#ArialMT-38" x="333.447266"/>
      </g>
     </g>
    </g>
    <g id="xtick_2">
     <g id="text_2">
      <!-- CONTAMINANT -->
      <g style="fill: #262626" transform="translate(323.644687 528.229375)scale(0.12 -0.12)">
       <defs>
        <path id="ArialMT-4f" d="M 309 2231 
Q 309 3372 921 4017 
Q 1534 4663 2503 4663 
Q 3138 4663 3647 4359 
Q 4156 4056 4423 3514 
Q 4691 2972 4691 2284 
Q 4691 1588 4409 1038 
Q 4128 488 3612 205 
Q 3097 -78 2500 -78 
Q 1853 -78 1343 234 
Q 834 547 571 1087 
Q 309 1628 309 2231 
z
M 934 2222 
Q 934 1394 1379 917 
Q 1825 441 2497 441 
Q 3181 441 3623 922 
Q 4066 1403 4066 2288 
Q 4066 2847 3877 3264 
Q 3688 3681 3323 3911 
Q 2959 4141 2506 4141 
Q 1863 4141 1398 3698 
Q 934 3256 934 2222 
z
" transform="scale(0.015625)"/>
        <path id="ArialMT-4e" d="M 488 0 
L 488 4581 
L 1109 4581 
L 3516 984 
L 3516 4581 
L 4097 4581 
L 4097 0 
L 3475 0 
L 1069 3600 
L 1069 0 
L 488 0 
z
" transform="scale(0.015625)"/>
        <path id="ArialMT-54" d="M 1659 0 
L 1659 4041 
L 150 4041 
L 150 4581 
L 3781 4581 
L 3781 4041 
L 2266 4041 
L 2266 0 
L 1659 0 
z
" transform="scale(0.015625)"/>
        <path id="ArialMT-41" d="M -9 0 
L 1750 4581 
L 2403 4581 
L 4278 0 
L 3588 0 
L 3053 1388 
L 1138 1388 
L 634 0 
L -9 0 
z
M 1313 1881 
L 2866 1881 
L 2388 3150 
Q 2169 3728 2063 4100 
Q 1975 3659 1816 3225 
L 1313 1881 
z
" transform="scale(0.015625)"/>
        <path id="ArialMT-4d" d="M 475 0 
L 475 4581 
L 1388 4581 
L 2472 1338 
Q 2622 884 2691 659 
Q 2769 909 2934 1394 
L 4031 4581 
L 4847 4581 
L 4847 0 
L 4263 0 
L 4263 3834 
L 2931 0 
L 2384 0 
L 1059 3900 
L 1059 0 
L 475 0 
z
" transform="scale(0.015625)"/>
        <path id="ArialMT-49" d="M 597 0 
L 597 4581 
L 1203 4581 
L 1203 0 
L 597 0 
z
" transform="scale(0.015625)"/>
       </defs>
       <use xlink:href="#ArialMT-43"/>
       <use xlink:href="#ArialMT-4f" x="72.216797"/>
       <use xlink:href="#ArialMT-4e" x="150"/>
       <use xlink:href="#ArialMT-54" x="222.216797"/>
       <use xlink:href="#ArialMT-41" x="275.925781"/>
       <use xlink:href="#ArialMT-4d" x="342.625"/>
       <use xlink:href="#ArialMT-49" x="425.925781"/>
       <use xlink:href="#ArialMT-4e" x="453.708984"/>
       <use xlink:href="#ArialMT-41" x="525.925781"/>
       <use xlink:href="#ArialMT-4e" x="592.625"/>
       <use xlink:href="#ArialMT-54" x="664.841797"/>
      </g>
     </g>
    </g>
    <g id="xtick_3">
     <g id="text_3">
      <!-- GCA -->
      <g style="fill: #262626" transform="translate(502.997813 528.229375)scale(0.12 -0.12)">
       <use xlink:href="#ArialMT-47"/>
       <use xlink:href="#ArialMT-43" x="77.783203"/>
       <use xlink:href="#ArialMT-41" x="150"/>
      </g>
     </g>
    </g>
    <g id="xtick_4">
     <g id="text_4">
      <!-- DECOY_GCA -->
      <g style="fill: #262626" transform="translate(627.12375 528.383125)scale(0.12 -0.12)">
       <defs>
        <path id="ArialMT-44" d="M 494 0 
L 494 4581 
L 2072 4581 
Q 2606 4581 2888 4516 
Q 3281 4425 3559 4188 
Q 3922 3881 4101 3404 
Q 4281 2928 4281 2316 
Q 4281 1794 4159 1391 
Q 4038 988 3847 723 
Q 3656 459 3429 307 
Q 3203 156 2883 78 
Q 2563 0 2147 0 
L 494 0 
z
M 1100 541 
L 2078 541 
Q 2531 541 2789 625 
Q 3047 709 3200 863 
Q 3416 1078 3536 1442 
Q 3656 1806 3656 2325 
Q 3656 3044 3420 3430 
Q 3184 3816 2847 3947 
Q 2603 4041 2063 4041 
L 1100 4041 
L 1100 541 
z
" transform="scale(0.015625)"/>
        <path id="ArialMT-45" d="M 506 0 
L 506 4581 
L 3819 4581 
L 3819 4041 
L 1113 4041 
L 1113 2638 
L 3647 2638 
L 3647 2100 
L 1113 2100 
L 1113 541 
L 3925 541 
L 3925 0 
L 506 0 
z
" transform="scale(0.015625)"/>
        <path id="ArialMT-59" d="M 1784 0 
L 1784 1941 
L 19 4581 
L 756 4581 
L 1659 3200 
Q 1909 2813 2125 2425 
Q 2331 2784 2625 3234 
L 3513 4581 
L 4219 4581 
L 2391 1941 
L 2391 0 
L 1784 0 
z
" transform="scale(0.015625)"/>
        <path id="ArialMT-5f" d="M -97 -1272 
L -97 -866 
L 3631 -866 
L 3631 -1272 
L -97 -1272 
z
" transform="scale(0.015625)"/>
       </defs>
       <use xlink:href="#ArialMT-44"/>
       <use xlink:href="#ArialMT-45" x="72.216797"/>
       <use xlink:href="#ArialMT-43" x="138.916016"/>
       <use xlink:href="#ArialMT-4f" x="211.132812"/>
       <use xlink:href="#ArialMT-59" x="288.916016"/>
       <use xlink:href="#ArialMT-5f" x="355.615234"/>
       <use xlink:href="#ArialMT-47" x="411.230469"/>
       <use xlink:href="#ArialMT-43" x="489.013672"/>
       <use xlink:href="#ArialMT-41" x="561.230469"/>
      </g>
     </g>
    </g>
    <g id="xtick_5">
     <g id="text_5">
      <!-- DECOY_GRCh38 -->
      <g style="fill: #262626" transform="translate(765.583125 528.383125)scale(0.12 -0.12)">
       <use xlink:href="#ArialMT-44"/>
       <use xlink:href="#ArialMT-45" x="72.216797"/>
       <use xlink:href="#ArialMT-43" x="138.916016"/>
       <use xlink:href="#ArialMT-4f" x="211.132812"/>
       <use xlink:href="#ArialMT-59" x="288.916016"/>
       <use xlink:href="#ArialMT-5f" x="355.615234"/>
       <use xlink:href="#ArialMT-47" x="411.230469"/>
       <use xlink:href="#ArialMT-52" x="489.013672"/>
       <use xlink:href="#ArialMT-43" x="561.230469"/>
       <use xlink:href="#ArialMT-68" x="633.447266"/>
       <use xlink:href="#ArialMT-33" x="689.0625"/>
       <use xlink:href="#ArialMT-38" x="744.677734"/>
      </g>
     </g>
    </g>
    <g id="xtick_6">
     <g id="text_6">
      <!-- DECOY_CONTAMINANT -->
      <g style="fill: #262626" transform="translate(894.170625 528.383125)scale(0.12 -0.12)">
       <use xlink:href="#ArialMT-44"/>
       <use xlink:href="#ArialMT-45" x="72.216797"/>
       <use xlink:href="#ArialMT-43" x="138.916016"/>
       <use xlink:href="#ArialMT-4f" x="211.132812"/>
       <use xlink:href="#ArialMT-59" x="288.916016"/>
       <use xlink:href="#ArialMT-5f" x="355.615234"/>
       <use xlink:href="#ArialMT-43" x="411.230469"/>
       <use xlink:href="#ArialMT-4f" x="483.447266"/>
       <use xlink:href="#ArialMT-4e" x="561.230469"/>
       <use xlink:href="#ArialMT-54" x="633.447266"/>
       <use xlink:href="#ArialMT-41" x="687.15625"/>
       <use xlink:href="#ArialMT-4d" x="753.855469"/>
       <use xlink:href="#ArialMT-49" x="837.15625"/>
       <use xlink:href="#ArialMT-4e" x="864.939453"/>
       <use xlink:href="#ArialMT-41" x="937.15625"/>
       <use xlink:href="#ArialMT-4e" x="1003.855469"/>
       <use xlink:href="#ArialMT-54" x="1076.072266"/>
      </g>
     </g>
    </g>
    <g id="text_7">
     <!-- prot_source -->
     <g style="fill: #262626" transform="translate(548.1575 546.220625)scale(0.16 -0.16)">
      <defs>
       <path id="ArialMT-70" d="M 422 -1272 
L 422 3319 
L 934 3319 
L 934 2888 
Q 1116 3141 1344 3267 
Q 1572 3394 1897 3394 
Q 2322 3394 2647 3175 
Q 2972 2956 3137 2557 
Q 3303 2159 3303 1684 
Q 3303 1175 3120 767 
Q 2938 359 2589 142 
Q 2241 -75 1856 -75 
Q 1575 -75 1351 44 
Q 1128 163 984 344 
L 984 -1272 
L 422 -1272 
z
M 931 1641 
Q 931 1000 1190 694 
Q 1450 388 1819 388 
Q 2194 388 2461 705 
Q 2728 1022 2728 1688 
Q 2728 2322 2467 2637 
Q 2206 2953 1844 2953 
Q 1484 2953 1207 2617 
Q 931 2281 931 1641 
z
" transform="scale(0.015625)"/>
       <path id="ArialMT-72" d="M 416 0 
L 416 3319 
L 922 3319 
L 922 2816 
Q 1116 3169 1280 3281 
Q 1444 3394 1641 3394 
Q 1925 3394 2219 3213 
L 2025 2691 
Q 1819 2813 1613 2813 
Q 1428 2813 1281 2702 
Q 1134 2591 1072 2394 
Q 978 2094 978 1738 
L 978 0 
L 416 0 
z
" transform="scale(0.015625)"/>
       <path id="ArialMT-6f" d="M 213 1659 
Q 213 2581 725 3025 
Q 1153 3394 1769 3394 
Q 2453 3394 2887 2945 
Q 3322 2497 3322 1706 
Q 3322 1066 3130 698 
Q 2938 331 2570 128 
Q 2203 -75 1769 -75 
Q 1072 -75 642 372 
Q 213 819 213 1659 
z
M 791 1659 
Q 791 1022 1069 705 
Q 1347 388 1769 388 
Q 2188 388 2466 706 
Q 2744 1025 2744 1678 
Q 2744 2294 2464 2611 
Q 2184 2928 1769 2928 
Q 1347 2928 1069 2612 
Q 791 2297 791 1659 
z
" transform="scale(0.015625)"/>
       <path id="ArialMT-74" d="M 1650 503 
L 1731 6 
Q 1494 -44 1306 -44 
Q 1000 -44 831 53 
Q 663 150 594 308 
Q 525 466 525 972 
L 525 2881 
L 113 2881 
L 113 3319 
L 525 3319 
L 525 4141 
L 1084 4478 
L 1084 3319 
L 1650 3319 
L 1650 2881 
L 1084 2881 
L 1084 941 
Q 1084 700 1114 631 
Q 1144 563 1211 522 
Q 1278 481 1403 481 
Q 1497 481 1650 503 
z
" transform="scale(0.015625)"/>
       <path id="ArialMT-73" d="M 197 991 
L 753 1078 
Q 800 744 1014 566 
Q 1228 388 1613 388 
Q 2000 388 2187 545 
Q 2375 703 2375 916 
Q 2375 1106 2209 1216 
Q 2094 1291 1634 1406 
Q 1016 1563 777 1677 
Q 538 1791 414 1992 
Q 291 2194 291 2438 
Q 291 2659 392 2848 
Q 494 3038 669 3163 
Q 800 3259 1026 3326 
Q 1253 3394 1513 3394 
Q 1903 3394 2198 3281 
Q 2494 3169 2634 2976 
Q 2775 2784 2828 2463 
L 2278 2388 
Q 2241 2644 2061 2787 
Q 1881 2931 1553 2931 
Q 1166 2931 1000 2803 
Q 834 2675 834 2503 
Q 834 2394 903 2306 
Q 972 2216 1119 2156 
Q 1203 2125 1616 2013 
Q 2213 1853 2448 1751 
Q 2684 1650 2818 1456 
Q 2953 1263 2953 975 
Q 2953 694 2789 445 
Q 2625 197 2315 61 
Q 2006 -75 1616 -75 
Q 969 -75 630 194 
Q 291 463 197 991 
z
" transform="scale(0.015625)"/>
       <path id="ArialMT-75" d="M 2597 0 
L 2597 488 
Q 2209 -75 1544 -75 
Q 1250 -75 995 37 
Q 741 150 617 320 
Q 494 491 444 738 
Q 409 903 409 1263 
L 409 3319 
L 972 3319 
L 972 1478 
Q 972 1038 1006 884 
Q 1059 663 1231 536 
Q 1403 409 1656 409 
Q 1909 409 2131 539 
Q 2353 669 2445 892 
Q 2538 1116 2538 1541 
L 2538 3319 
L 3100 3319 
L 3100 0 
L 2597 0 
z
" transform="scale(0.015625)"/>
       <path id="ArialMT-63" d="M 2588 1216 
L 3141 1144 
Q 3050 572 2676 248 
Q 2303 -75 1759 -75 
Q 1078 -75 664 370 
Q 250 816 250 1647 
Q 250 2184 428 2587 
Q 606 2991 970 3192 
Q 1334 3394 1763 3394 
Q 2303 3394 2647 3120 
Q 2991 2847 3088 2344 
L 2541 2259 
Q 2463 2594 2264 2762 
Q 2066 2931 1784 2931 
Q 1359 2931 1093 2626 
Q 828 2322 828 1663 
Q 828 994 1084 691 
Q 1341 388 1753 388 
Q 2084 388 2306 591 
Q 2528 794 2588 1216 
z
" transform="scale(0.015625)"/>
       <path id="ArialMT-65" d="M 2694 1069 
L 3275 997 
Q 3138 488 2766 206 
Q 2394 -75 1816 -75 
Q 1088 -75 661 373 
Q 234 822 234 1631 
Q 234 2469 665 2931 
Q 1097 3394 1784 3394 
Q 2450 3394 2872 2941 
Q 3294 2488 3294 1666 
Q 3294 1616 3291 1516 
L 816 1516 
Q 847 969 1125 678 
Q 1403 388 1819 388 
Q 2128 388 2347 550 
Q 2566 713 2694 1069 
z
M 847 1978 
L 2700 1978 
Q 2663 2397 2488 2606 
Q 2219 2931 1791 2931 
Q 1403 2931 1139 2672 
Q 875 2413 847 1978 
z
" transform="scale(0.015625)"/>
      </defs>
      <use xlink:href="#ArialMT-70"/>
      <use xlink:href="#ArialMT-72" x="55.615234"/>
      <use xlink:href="#ArialMT-6f" x="88.916016"/>
      <use xlink:href="#ArialMT-74" x="144.53125"/>
      <use xlink:href="#ArialMT-5f" x="172.314453"/>
      <use xlink:href="#ArialMT-73" x="227.929688"/>
      <use xlink:href="#ArialMT-6f" x="277.929688"/>
      <use xlink:href="#ArialMT-75" x="333.544922"/>
      <use xlink:href="#ArialMT-72" x="389.160156"/>
      <use xlink:href="#ArialMT-63" x="422.460938"/>
      <use xlink:href="#ArialMT-65" x="472.460938"/>
     </g>
    </g>
   </g>
   <g id="matplotlib.axis_2">
    <g id="ytick_1">
     <g id="text_8">
      <!-- −0.002 -->
      <g style="fill: #262626" transform="translate(99.965 511.859564)scale(0.12 -0.12)">
       <defs>
        <path id="ArialMT-2212" d="M 3381 1997 
L 356 1997 
L 356 2522 
L 3381 2522 
L 3381 1997 
z
" transform="scale(0.015625)"/>
        <path id="ArialMT-30" d="M 266 2259 
Q 266 3072 433 3567 
Q 600 4063 929 4331 
Q 1259 4600 1759 4600 
Q 2128 4600 2406 4451 
Q 2684 4303 2865 4023 
Q 3047 3744 3150 3342 
Q 3253 2941 3253 2259 
Q 3253 1453 3087 958 
Q 2922 463 2592 192 
Q 2263 -78 1759 -78 
Q 1097 -78 719 397 
Q 266 969 266 2259 
z
M 844 2259 
Q 844 1131 1108 757 
Q 1372 384 1759 384 
Q 2147 384 2411 759 
Q 2675 1134 2675 2259 
Q 2675 3391 2411 3762 
Q 2147 4134 1753 4134 
Q 1366 4134 1134 3806 
Q 844 3388 844 2259 
z
" transform="scale(0.015625)"/>
        <path id="ArialMT-2e" d="M 581 0 
L 581 641 
L 1222 641 
L 1222 0 
L 581 0 
z
" transform="scale(0.015625)"/>
        <path id="ArialMT-32" d="M 3222 541 
L 3222 0 
L 194 0 
Q 188 203 259 391 
Q 375 700 629 1000 
Q 884 1300 1366 1694 
Q 2113 2306 2375 2664 
Q 2638 3022 2638 3341 
Q 2638 3675 2398 3904 
Q 2159 4134 1775 4134 
Q 1369 4134 1125 3890 
Q 881 3647 878 3216 
L 300 3275 
Q 359 3922 746 4261 
Q 1134 4600 1788 4600 
Q 2447 4600 2831 4234 
Q 3216 3869 3216 3328 
Q 3216 3053 3103 2787 
Q 2991 2522 2730 2228 
Q 2469 1934 1863 1422 
Q 1356 997 1212 845 
Q 1069 694 975 541 
L 3222 541 
z
" transform="scale(0.015625)"/>
       </defs>
       <use xlink:href="#ArialMT-2212"/>
       <use xlink:href="#ArialMT-30" x="58.398438"/>
       <use xlink:href="#ArialMT-2e" x="114.013672"/>
       <use xlink:href="#ArialMT-30" x="141.796875"/>
       <use xlink:href="#ArialMT-30" x="197.412109"/>
       <use xlink:href="#ArialMT-32" x="253.027344"/>
      </g>
     </g>
    </g>
    <g id="ytick_2">
     <g id="text_9">
      <!-- 0.000 -->
      <g style="fill: #262626" transform="translate(106.97375 453.436619)scale(0.12 -0.12)">
       <use xlink:href="#ArialMT-30"/>
       <use xlink:href="#ArialMT-2e" x="55.615234"/>
       <use xlink:href="#ArialMT-30" x="83.398438"/>
       <use xlink:href="#ArialMT-30" x="139.013672"/>
       <use xlink:href="#ArialMT-30" x="194.628906"/>
      </g>
     </g>
    </g>
    <g id="ytick_3">
     <g id="text_10">
      <!-- 0.002 -->
      <g style="fill: #262626" transform="translate(106.97375 395.013674)scale(0.12 -0.12)">
       <use xlink:href="#ArialMT-30"/>
       <use xlink:href="#ArialMT-2e" x="55.615234"/>
       <use xlink:href="#ArialMT-30" x="83.398438"/>
       <use xlink:href="#ArialMT-30" x="139.013672"/>
       <use xlink:href="#ArialMT-32" x="194.628906"/>
      </g>
     </g>
    </g>
    <g id="ytick_4">
     <g id="text_11">
      <!-- 0.004 -->
      <g style="fill: #262626" transform="translate(106.97375 336.590728)scale(0.12 -0.12)">
       <defs>
        <path id="ArialMT-34" d="M 2069 0 
L 2069 1097 
L 81 1097 
L 81 1613 
L 2172 4581 
L 2631 4581 
L 2631 1613 
L 3250 1613 
L 3250 1097 
L 2631 1097 
L 2631 0 
L 2069 0 
z
M 2069 1613 
L 2069 3678 
L 634 1613 
L 2069 1613 
z
" transform="scale(0.015625)"/>
       </defs>
       <use xlink:href="#ArialMT-30"/>
       <use xlink:href="#ArialMT-2e" x="55.615234"/>
       <use xlink:href="#ArialMT-30" x="83.398438"/>
       <use xlink:href="#ArialMT-30" x="139.013672"/>
       <use xlink:href="#ArialMT-34" x="194.628906"/>
      </g>
     </g>
    </g>
    <g id="ytick_5">
     <g id="text_12">
      <!-- 0.006 -->
      <g style="fill: #262626" transform="translate(106.97375 278.167783)scale(0.12 -0.12)">
       <defs>
        <path id="ArialMT-36" d="M 3184 3459 
L 2625 3416 
Q 2550 3747 2413 3897 
Q 2184 4138 1850 4138 
Q 1581 4138 1378 3988 
Q 1113 3794 959 3422 
Q 806 3050 800 2363 
Q 1003 2672 1297 2822 
Q 1591 2972 1913 2972 
Q 2475 2972 2870 2558 
Q 3266 2144 3266 1488 
Q 3266 1056 3080 686 
Q 2894 316 2569 119 
Q 2244 -78 1831 -78 
Q 1128 -78 684 439 
Q 241 956 241 2144 
Q 241 3472 731 4075 
Q 1159 4600 1884 4600 
Q 2425 4600 2770 4297 
Q 3116 3994 3184 3459 
z
M 888 1484 
Q 888 1194 1011 928 
Q 1134 663 1356 523 
Q 1578 384 1822 384 
Q 2178 384 2434 671 
Q 2691 959 2691 1453 
Q 2691 1928 2437 2201 
Q 2184 2475 1800 2475 
Q 1419 2475 1153 2201 
Q 888 1928 888 1484 
z
" transform="scale(0.015625)"/>
       </defs>
       <use xlink:href="#ArialMT-30"/>
       <use xlink:href="#ArialMT-2e" x="55.615234"/>
       <use xlink:href="#ArialMT-30" x="83.398438"/>
       <use xlink:href="#ArialMT-30" x="139.013672"/>
       <use xlink:href="#ArialMT-36" x="194.628906"/>
      </g>
     </g>
    </g>
    <g id="ytick_6">
     <g id="text_13">
      <!-- 0.008 -->
      <g style="fill: #262626" transform="translate(106.97375 219.744837)scale(0.12 -0.12)">
       <use xlink:href="#ArialMT-30"/>
       <use xlink:href="#ArialMT-2e" x="55.615234"/>
       <use xlink:href="#ArialMT-30" x="83.398438"/>
       <use xlink:href="#ArialMT-30" x="139.013672"/>
       <use xlink:href="#ArialMT-38" x="194.628906"/>
      </g>
     </g>
    </g>
    <g id="ytick_7">
     <g id="text_14">
      <!-- 0.010 -->
      <g style="fill: #262626" transform="translate(106.97375 161.321892)scale(0.12 -0.12)">
       <defs>
        <path id="ArialMT-31" d="M 2384 0 
L 1822 0 
L 1822 3584 
Q 1619 3391 1289 3197 
Q 959 3003 697 2906 
L 697 3450 
Q 1169 3672 1522 3987 
Q 1875 4303 2022 4600 
L 2384 4600 
L 2384 0 
z
" transform="scale(0.015625)"/>
       </defs>
       <use xlink:href="#ArialMT-30"/>
       <use xlink:href="#ArialMT-2e" x="55.615234"/>
       <use xlink:href="#ArialMT-30" x="83.398438"/>
       <use xlink:href="#ArialMT-31" x="139.013672"/>
       <use xlink:href="#ArialMT-30" x="194.628906"/>
      </g>
     </g>
    </g>
    <g id="ytick_8">
     <g id="text_15">
      <!-- 0.012 -->
      <g style="fill: #262626" transform="translate(106.97375 102.898946)scale(0.12 -0.12)">
       <use xlink:href="#ArialMT-30"/>
       <use xlink:href="#ArialMT-2e" x="55.615234"/>
       <use xlink:href="#ArialMT-30" x="83.398438"/>
       <use xlink:href="#ArialMT-31" x="139.013672"/>
       <use xlink:href="#ArialMT-32" x="194.628906"/>
      </g>
     </g>
    </g>
    <g id="text_16">
     <!-- posterior_error_probability -->
     <g style="fill: #262626" transform="translate(92.5975 384.25125)rotate(-90)scale(0.16 -0.16)">
      <defs>
       <path id="ArialMT-69" d="M 425 3934 
L 425 4581 
L 988 4581 
L 988 3934 
L 425 3934 
z
M 425 0 
L 425 3319 
L 988 3319 
L 988 0 
L 425 0 
z
" transform="scale(0.015625)"/>
       <path id="ArialMT-62" d="M 941 0 
L 419 0 
L 419 4581 
L 981 4581 
L 981 2947 
Q 1338 3394 1891 3394 
Q 2197 3394 2470 3270 
Q 2744 3147 2920 2923 
Q 3097 2700 3197 2384 
Q 3297 2069 3297 1709 
Q 3297 856 2875 390 
Q 2453 -75 1863 -75 
Q 1275 -75 941 416 
L 941 0 
z
M 934 1684 
Q 934 1088 1097 822 
Q 1363 388 1816 388 
Q 2184 388 2453 708 
Q 2722 1028 2722 1663 
Q 2722 2313 2464 2622 
Q 2206 2931 1841 2931 
Q 1472 2931 1203 2611 
Q 934 2291 934 1684 
z
" transform="scale(0.015625)"/>
       <path id="ArialMT-61" d="M 2588 409 
Q 2275 144 1986 34 
Q 1697 -75 1366 -75 
Q 819 -75 525 192 
Q 231 459 231 875 
Q 231 1119 342 1320 
Q 453 1522 633 1644 
Q 813 1766 1038 1828 
Q 1203 1872 1538 1913 
Q 2219 1994 2541 2106 
Q 2544 2222 2544 2253 
Q 2544 2597 2384 2738 
Q 2169 2928 1744 2928 
Q 1347 2928 1158 2789 
Q 969 2650 878 2297 
L 328 2372 
Q 403 2725 575 2942 
Q 747 3159 1072 3276 
Q 1397 3394 1825 3394 
Q 2250 3394 2515 3294 
Q 2781 3194 2906 3042 
Q 3031 2891 3081 2659 
Q 3109 2516 3109 2141 
L 3109 1391 
Q 3109 606 3145 398 
Q 3181 191 3288 0 
L 2700 0 
Q 2613 175 2588 409 
z
M 2541 1666 
Q 2234 1541 1622 1453 
Q 1275 1403 1131 1340 
Q 988 1278 909 1158 
Q 831 1038 831 891 
Q 831 666 1001 516 
Q 1172 366 1500 366 
Q 1825 366 2078 508 
Q 2331 650 2450 897 
Q 2541 1088 2541 1459 
L 2541 1666 
z
" transform="scale(0.015625)"/>
       <path id="ArialMT-6c" d="M 409 0 
L 409 4581 
L 972 4581 
L 972 0 
L 409 0 
z
" transform="scale(0.015625)"/>
       <path id="ArialMT-79" d="M 397 -1278 
L 334 -750 
Q 519 -800 656 -800 
Q 844 -800 956 -737 
Q 1069 -675 1141 -563 
Q 1194 -478 1313 -144 
Q 1328 -97 1363 -6 
L 103 3319 
L 709 3319 
L 1400 1397 
Q 1534 1031 1641 628 
Q 1738 1016 1872 1384 
L 2581 3319 
L 3144 3319 
L 1881 -56 
Q 1678 -603 1566 -809 
Q 1416 -1088 1222 -1217 
Q 1028 -1347 759 -1347 
Q 597 -1347 397 -1278 
z
" transform="scale(0.015625)"/>
      </defs>
      <use xlink:href="#ArialMT-70"/>
      <use xlink:href="#ArialMT-6f" x="55.615234"/>
      <use xlink:href="#ArialMT-73" x="111.230469"/>
      <use xlink:href="#ArialMT-74" x="161.230469"/>
      <use xlink:href="#ArialMT-65" x="189.013672"/>
      <use xlink:href="#ArialMT-72" x="244.628906"/>
      <use xlink:href="#ArialMT-69" x="277.929688"/>
      <use xlink:href="#ArialMT-6f" x="300.146484"/>
      <use xlink:href="#ArialMT-72" x="355.761719"/>
      <use xlink:href="#ArialMT-5f" x="389.0625"/>
      <use xlink:href="#ArialMT-65" x="444.677734"/>
      <use xlink:href="#ArialMT-72" x="500.292969"/>
      <use xlink:href="#ArialMT-72" x="533.59375"/>
      <use xlink:href="#ArialMT-6f" x="566.894531"/>
      <use xlink:href="#ArialMT-72" x="622.509766"/>
      <use xlink:href="#ArialMT-5f" x="655.810547"/>
      <use xlink:href="#ArialMT-70" x="711.425781"/>
      <use xlink:href="#ArialMT-72" x="767.041016"/>
      <use xlink:href="#ArialMT-6f" x="800.341797"/>
      <use xlink:href="#ArialMT-62" x="855.957031"/>
      <use xlink:href="#ArialMT-61" x="911.572266"/>
      <use xlink:href="#ArialMT-62" x="967.1875"/>
      <use xlink:href="#ArialMT-69" x="1022.802734"/>
      <use xlink:href="#ArialMT-6c" x="1045.019531"/>
      <use xlink:href="#ArialMT-69" x="1067.236328"/>
      <use xlink:href="#ArialMT-74" x="1089.453125"/>
      <use xlink:href="#ArialMT-79" x="1117.236328"/>
     </g>
    </g>
   </g>
   <g id="PolyCollection_1">
    <defs>
     <path id="ma4dc1a866f" d="M 223.854695 -123.597393 
L 212.945305 -123.597393 
L 173.76 -126.613916 
L 201.790083 -129.630439 
L 215.309797 -132.646962 
L 216.579277 -135.663485 
L 217.081712 -138.680008 
L 217.370518 -141.696531 
L 217.5591 -144.713054 
L 217.687257 -147.729578 
L 217.778433 -150.746101 
L 217.853637 -153.762624 
L 217.91144 -156.779147 
L 217.958071 -159.79567 
L 217.998288 -162.812193 
L 218.031691 -165.828716 
L 218.060606 -168.845239 
L 218.084382 -171.861762 
L 218.106475 -174.878285 
L 218.12445 -177.894809 
L 218.139725 -180.911332 
L 218.154468 -183.927855 
L 218.167471 -186.944378 
L 218.179113 -189.960901 
L 218.189557 -192.977424 
L 218.200302 -195.993947 
L 218.209593 -199.01047 
L 218.216724 -202.026993 
L 218.224198 -205.043516 
L 218.231955 -208.060039 
L 218.237797 -211.076563 
L 218.242682 -214.093086 
L 218.249153 -217.109609 
L 218.254854 -220.126132 
L 218.259617 -223.142655 
L 218.264975 -226.159178 
L 218.269238 -229.175701 
L 218.272983 -232.192224 
L 218.276391 -235.208747 
L 218.280215 -238.22527 
L 218.283815 -241.241794 
L 218.286473 -244.258317 
L 218.288648 -247.27484 
L 218.291277 -250.291363 
L 218.294649 -253.307886 
L 218.29653 -256.324409 
L 218.298957 -259.340932 
L 218.301789 -262.357455 
L 218.304559 -265.373978 
L 218.30703 -268.390501 
L 218.309486 -271.407024 
L 218.311048 -274.423548 
L 218.312888 -277.440071 
L 218.31456 -280.456594 
L 218.316138 -283.473117 
L 218.317581 -286.48964 
L 218.318743 -289.506163 
L 218.321531 -292.522686 
L 218.322918 -295.539209 
L 218.323548 -298.555732 
L 218.325669 -301.572255 
L 218.326239 -304.588779 
L 218.326989 -307.605302 
L 218.329276 -310.621825 
L 218.330104 -313.638348 
L 218.331495 -316.654871 
L 218.33178 -319.671394 
L 218.333613 -322.687917 
L 218.334725 -325.70444 
L 218.335603 -328.720963 
L 218.336865 -331.737486 
L 218.338261 -334.75401 
L 218.338989 -337.770533 
L 218.339681 -340.787056 
L 218.341124 -343.803579 
L 218.341558 -346.820102 
L 218.34223 -349.836625 
L 218.343349 -352.853148 
L 218.344026 -355.869671 
L 218.344293 -358.886194 
L 218.344421 -361.902717 
L 218.344984 -364.91924 
L 218.346769 -367.935764 
L 218.347731 -370.952287 
L 218.348193 -373.96881 
L 218.348552 -376.985333 
L 218.348919 -380.001856 
L 218.349645 -383.018379 
L 218.350539 -386.034902 
L 218.350868 -389.051425 
L 218.352445 -392.067948 
L 218.352422 -395.084471 
L 218.351948 -398.100995 
L 218.352672 -401.117518 
L 218.354934 -404.134041 
L 218.355385 -407.150564 
L 218.355973 -410.167087 
L 218.355807 -413.18361 
L 218.357248 -416.200133 
L 218.380681 -419.216656 
L 218.399016 -422.233179 
L 218.400984 -422.233179 
L 218.400984 -422.233179 
L 218.419319 -419.216656 
L 218.442752 -416.200133 
L 218.444193 -413.18361 
L 218.444027 -410.167087 
L 218.444615 -407.150564 
L 218.445066 -404.134041 
L 218.447328 -401.117518 
L 218.448052 -398.100995 
L 218.447578 -395.084471 
L 218.447555 -392.067948 
L 218.449132 -389.051425 
L 218.449461 -386.034902 
L 218.450355 -383.018379 
L 218.451081 -380.001856 
L 218.451448 -376.985333 
L 218.451807 -373.96881 
L 218.452269 -370.952287 
L 218.453231 -367.935764 
L 218.455016 -364.91924 
L 218.455579 -361.902717 
L 218.455707 -358.886194 
L 218.455974 -355.869671 
L 218.456651 -352.853148 
L 218.45777 -349.836625 
L 218.458442 -346.820102 
L 218.458876 -343.803579 
L 218.460319 -340.787056 
L 218.461011 -337.770533 
L 218.461739 -334.75401 
L 218.463135 -331.737486 
L 218.464397 -328.720963 
L 218.465275 -325.70444 
L 218.466387 -322.687917 
L 218.46822 -319.671394 
L 218.468505 -316.654871 
L 218.469896 -313.638348 
L 218.470724 -310.621825 
L 218.473011 -307.605302 
L 218.473761 -304.588779 
L 218.474331 -301.572255 
L 218.476452 -298.555732 
L 218.477082 -295.539209 
L 218.478469 -292.522686 
L 218.481257 -289.506163 
L 218.482419 -286.48964 
L 218.483862 -283.473117 
L 218.48544 -280.456594 
L 218.487112 -277.440071 
L 218.488952 -274.423548 
L 218.490514 -271.407024 
L 218.49297 -268.390501 
L 218.495441 -265.373978 
L 218.498211 -262.357455 
L 218.501043 -259.340932 
L 218.50347 -256.324409 
L 218.505351 -253.307886 
L 218.508723 -250.291363 
L 218.511352 -247.27484 
L 218.513527 -244.258317 
L 218.516185 -241.241794 
L 218.519785 -238.22527 
L 218.523609 -235.208747 
L 218.527017 -232.192224 
L 218.530762 -229.175701 
L 218.535025 -226.159178 
L 218.540383 -223.142655 
L 218.545146 -220.126132 
L 218.550847 -217.109609 
L 218.557318 -214.093086 
L 218.562203 -211.076563 
L 218.568045 -208.060039 
L 218.575802 -205.043516 
L 218.583276 -202.026993 
L 218.590407 -199.01047 
L 218.599698 -195.993947 
L 218.610443 -192.977424 
L 218.620887 -189.960901 
L 218.632529 -186.944378 
L 218.645532 -183.927855 
L 218.660275 -180.911332 
L 218.67555 -177.894809 
L 218.693525 -174.878285 
L 218.715618 -171.861762 
L 218.739394 -168.845239 
L 218.768309 -165.828716 
L 218.801712 -162.812193 
L 218.841929 -159.79567 
L 218.88856 -156.779147 
L 218.946363 -153.762624 
L 219.021567 -150.746101 
L 219.112743 -147.729578 
L 219.2409 -144.713054 
L 219.429482 -141.696531 
L 219.718288 -138.680008 
L 220.220723 -135.663485 
L 221.490203 -132.646962 
L 235.009917 -129.630439 
L 263.04 -126.613916 
L 223.854695 -123.597393 
z
" style="stroke: #5a5a5a; stroke-width: 1.5"/>
    </defs>
    <g clip-path="url(#pf1177ba781)">
     <use xlink:href="#ma4dc1a866f" x="0" y="576" style="fill: #7891b5; stroke: #5a5a5a; stroke-width: 1.5"/>
    </g>
   </g>
   <g id="PolyCollection_2">
    <defs>
     <path id="m2eed60e750" d="M 370.307876 -120.622961 
L 364.092124 -120.622961 
L 352.866162 -123.699529 
L 341.590981 -126.776098 
L 348.686004 -129.852666 
L 360.690417 -132.929235 
L 365.039358 -136.005803 
L 365.932556 -139.082371 
L 366.236251 -142.15894 
L 366.412185 -145.235508 
L 366.531163 -148.312076 
L 366.618813 -151.388645 
L 366.68824 -154.465213 
L 366.744004 -157.541781 
L 366.790039 -160.61835 
L 366.825928 -163.694918 
L 366.855379 -166.771487 
L 366.882979 -169.848055 
L 366.905737 -172.924623 
L 366.925438 -176.001192 
L 366.944213 -179.07776 
L 366.958265 -182.154328 
L 366.968219 -185.230897 
L 366.981133 -188.307465 
L 366.995794 -191.384033 
L 367.007274 -194.460602 
L 367.015736 -197.53717 
L 367.023287 -200.613739 
L 367.028196 -203.690307 
L 367.030498 -206.766875 
L 367.038022 -209.843444 
L 367.047741 -212.920012 
L 367.052107 -215.99658 
L 367.052737 -219.073149 
L 367.055907 -222.149717 
L 367.06255 -225.226286 
L 367.06754 -228.302854 
L 367.071318 -231.379422 
L 367.076392 -234.455991 
L 367.080888 -237.532559 
L 367.083369 -240.609127 
L 367.085435 -243.685696 
L 367.088508 -246.762264 
L 367.091403 -249.838832 
L 367.093864 -252.915401 
L 367.096206 -255.991969 
L 367.0981 -259.068538 
L 367.09985 -262.145106 
L 367.102952 -265.221674 
L 367.106312 -268.298243 
L 367.109454 -271.374811 
L 367.111523 -274.451379 
L 367.112665 -277.527948 
L 367.114194 -280.604516 
L 367.115247 -283.681084 
L 367.115661 -286.757653 
L 367.117501 -289.834221 
L 367.121339 -292.91079 
L 367.124724 -295.987358 
L 367.126628 -299.063926 
L 367.127852 -302.140495 
L 367.128066 -305.217063 
L 367.127934 -308.293631 
L 367.129203 -311.3702 
L 367.131584 -314.446768 
L 367.133594 -317.523336 
L 367.134768 -320.599905 
L 367.134797 -323.676473 
L 367.135242 -326.753042 
L 367.136177 -329.82961 
L 367.136491 -332.906178 
L 367.137006 -335.982747 
L 367.137892 -339.059315 
L 367.139723 -342.135883 
L 367.142467 -345.212452 
L 367.144233 -348.28902 
L 367.14418 -351.365589 
L 367.143162 -354.442157 
L 367.142701 -357.518725 
L 367.143778 -360.595294 
L 367.146263 -363.671862 
L 367.14849 -366.74843 
L 367.148795 -369.824999 
L 367.147869 -372.901567 
L 367.147424 -375.978135 
L 367.147493 -379.054704 
L 367.147405 -382.131272 
L 367.147748 -385.207841 
L 367.149576 -388.284409 
L 367.151124 -391.360977 
L 367.151144 -394.437546 
L 367.150991 -397.514114 
L 367.151533 -400.590682 
L 367.15225 -403.667251 
L 367.152819 -406.743819 
L 367.15318 -409.820387 
L 367.155196 -412.896956 
L 367.162766 -415.973524 
L 367.178076 -419.050093 
L 367.192891 -422.126661 
L 367.198933 -425.203229 
L 367.201067 -425.203229 
L 367.201067 -425.203229 
L 367.207109 -422.126661 
L 367.221924 -419.050093 
L 367.237234 -415.973524 
L 367.244804 -412.896956 
L 367.24682 -409.820387 
L 367.247181 -406.743819 
L 367.24775 -403.667251 
L 367.248467 -400.590682 
L 367.249009 -397.514114 
L 367.248856 -394.437546 
L 367.248876 -391.360977 
L 367.250424 -388.284409 
L 367.252252 -385.207841 
L 367.252595 -382.131272 
L 367.252507 -379.054704 
L 367.252576 -375.978135 
L 367.252131 -372.901567 
L 367.251205 -369.824999 
L 367.25151 -366.74843 
L 367.253737 -363.671862 
L 367.256222 -360.595294 
L 367.257299 -357.518725 
L 367.256838 -354.442157 
L 367.25582 -351.365589 
L 367.255767 -348.28902 
L 367.257533 -345.212452 
L 367.260277 -342.135883 
L 367.262108 -339.059315 
L 367.262994 -335.982747 
L 367.263509 -332.906178 
L 367.263823 -329.82961 
L 367.264758 -326.753042 
L 367.265203 -323.676473 
L 367.265232 -320.599905 
L 367.266406 -317.523336 
L 367.268416 -314.446768 
L 367.270797 -311.3702 
L 367.272066 -308.293631 
L 367.271934 -305.217063 
L 367.272148 -302.140495 
L 367.273372 -299.063926 
L 367.275276 -295.987358 
L 367.278661 -292.91079 
L 367.282499 -289.834221 
L 367.284339 -286.757653 
L 367.284753 -283.681084 
L 367.285806 -280.604516 
L 367.287335 -277.527948 
L 367.288477 -274.451379 
L 367.290546 -271.374811 
L 367.293688 -268.298243 
L 367.297048 -265.221674 
L 367.30015 -262.145106 
L 367.3019 -259.068538 
L 367.303794 -255.991969 
L 367.306136 -252.915401 
L 367.308597 -249.838832 
L 367.311492 -246.762264 
L 367.314565 -243.685696 
L 367.316631 -240.609127 
L 367.319112 -237.532559 
L 367.323608 -234.455991 
L 367.328682 -231.379422 
L 367.33246 -228.302854 
L 367.33745 -225.226286 
L 367.344093 -222.149717 
L 367.347263 -219.073149 
L 367.347893 -215.99658 
L 367.352259 -212.920012 
L 367.361978 -209.843444 
L 367.369502 -206.766875 
L 367.371804 -203.690307 
L 367.376713 -200.613739 
L 367.384264 -197.53717 
L 367.392726 -194.460602 
L 367.404206 -191.384033 
L 367.418867 -188.307465 
L 367.431781 -185.230897 
L 367.441735 -182.154328 
L 367.455787 -179.07776 
L 367.474562 -176.001192 
L 367.494263 -172.924623 
L 367.517021 -169.848055 
L 367.544621 -166.771487 
L 367.574072 -163.694918 
L 367.609961 -160.61835 
L 367.655996 -157.541781 
L 367.71176 -154.465213 
L 367.781187 -151.388645 
L 367.868837 -148.312076 
L 367.987815 -145.235508 
L 368.163749 -142.15894 
L 368.467444 -139.082371 
L 369.360642 -136.005803 
L 373.709583 -132.929235 
L 385.713996 -129.852666 
L 392.809019 -126.776098 
L 381.533838 -123.699529 
L 370.307876 -120.622961 
z
" style="stroke: #5a5a5a; stroke-width: 1.5"/>
    </defs>
    <g clip-path="url(#pf1177ba781)">
     <use xlink:href="#m2eed60e750" x="0" y="576" style="fill: #aeb9cb; stroke: #5a5a5a; stroke-width: 1.5"/>
    </g>
   </g>
   <g id="PolyCollection_3">
    <defs>
     <path id="mf5e65d6d9e" d="M 517.788366 -116.679425 
L 514.211634 -116.679425 
L 510.762137 -119.835593 
L 505.472602 -122.991761 
L 501.400433 -126.147929 
L 501.865221 -129.304097 
L 506.177782 -132.460264 
L 510.743181 -135.616432 
L 513.444121 -138.7726 
L 514.55952 -141.928768 
L 514.968528 -145.084936 
L 515.153959 -148.241104 
L 515.270314 -151.397272 
L 515.356123 -154.55344 
L 515.422211 -157.709608 
L 515.475307 -160.865775 
L 515.520452 -164.021943 
L 515.558955 -167.178111 
L 515.590523 -170.334279 
L 515.615954 -173.490447 
L 515.636859 -176.646615 
L 515.655469 -179.802783 
L 515.674151 -182.958951 
L 515.692997 -186.115119 
L 515.709833 -189.271287 
L 515.72393 -192.427454 
L 515.737013 -195.583622 
L 515.749667 -198.73979 
L 515.759696 -201.895958 
L 515.765215 -205.052126 
L 515.767337 -208.208294 
L 515.769283 -211.364462 
L 515.773693 -214.52063 
L 515.780906 -217.676798 
L 515.789819 -220.832966 
L 515.799229 -223.989133 
L 515.807672 -227.145301 
L 515.813848 -230.301469 
L 515.817774 -233.457637 
L 515.820613 -236.613805 
L 515.823527 -239.769973 
L 515.82702 -242.926141 
L 515.83141 -246.082309 
L 515.837477 -249.238477 
L 515.845526 -252.394645 
L 515.853814 -255.550812 
L 515.859468 -258.70698 
L 515.861643 -261.863148 
L 515.862367 -265.019316 
L 515.863652 -268.175484 
L 515.865515 -271.331652 
L 515.867331 -274.48782 
L 515.869037 -277.643988 
L 515.870783 -280.800156 
L 515.873072 -283.956324 
L 515.876617 -287.112491 
L 515.880772 -290.268659 
L 515.883498 -293.424827 
L 515.884159 -296.580995 
L 515.884608 -299.737163 
L 515.886647 -302.893331 
L 515.890064 -306.049499 
L 515.893344 -309.205667 
L 515.895194 -312.361835 
L 515.895587 -315.518002 
L 515.895521 -318.67417 
L 515.895706 -321.830338 
L 515.896023 -324.986506 
L 515.896101 -328.142674 
L 515.895695 -331.298842 
L 515.894798 -334.45501 
L 515.894115 -337.611178 
L 515.894938 -340.767346 
L 515.897646 -343.923514 
L 515.901111 -347.079681 
L 515.904066 -350.235849 
L 515.906195 -353.392017 
L 515.907969 -356.548185 
L 515.909955 -359.704353 
L 515.912201 -362.860521 
L 515.91396 -366.016689 
L 515.914093 -369.172857 
L 515.912469 -372.329025 
L 515.910732 -375.485193 
L 515.910864 -378.64136 
L 515.913288 -381.797528 
L 515.916667 -384.953696 
L 515.919071 -388.109864 
L 515.919524 -391.266032 
L 515.918805 -394.4222 
L 515.918469 -397.578368 
L 515.91937 -400.734536 
L 515.92145 -403.890704 
L 515.924279 -407.046872 
L 515.927926 -410.203039 
L 515.934311 -413.359207 
L 515.946518 -416.515375 
L 515.964184 -419.671543 
L 515.981533 -422.827711 
L 515.992976 -425.983879 
L 515.998079 -429.140047 
L 516.001921 -429.140047 
L 516.001921 -429.140047 
L 516.007024 -425.983879 
L 516.018467 -422.827711 
L 516.035816 -419.671543 
L 516.053482 -416.515375 
L 516.065689 -413.359207 
L 516.072074 -410.203039 
L 516.075721 -407.046872 
L 516.07855 -403.890704 
L 516.08063 -400.734536 
L 516.081531 -397.578368 
L 516.081195 -394.4222 
L 516.080476 -391.266032 
L 516.080929 -388.109864 
L 516.083333 -384.953696 
L 516.086712 -381.797528 
L 516.089136 -378.64136 
L 516.089268 -375.485193 
L 516.087531 -372.329025 
L 516.085907 -369.172857 
L 516.08604 -366.016689 
L 516.087799 -362.860521 
L 516.090045 -359.704353 
L 516.092031 -356.548185 
L 516.093805 -353.392017 
L 516.095934 -350.235849 
L 516.098889 -347.079681 
L 516.102354 -343.923514 
L 516.105062 -340.767346 
L 516.105885 -337.611178 
L 516.105202 -334.45501 
L 516.104305 -331.298842 
L 516.103899 -328.142674 
L 516.103977 -324.986506 
L 516.104294 -321.830338 
L 516.104479 -318.67417 
L 516.104413 -315.518002 
L 516.104806 -312.361835 
L 516.106656 -309.205667 
L 516.109936 -306.049499 
L 516.113353 -302.893331 
L 516.115392 -299.737163 
L 516.115841 -296.580995 
L 516.116502 -293.424827 
L 516.119228 -290.268659 
L 516.123383 -287.112491 
L 516.126928 -283.956324 
L 516.129217 -280.800156 
L 516.130963 -277.643988 
L 516.132669 -274.48782 
L 516.134485 -271.331652 
L 516.136348 -268.175484 
L 516.137633 -265.019316 
L 516.138357 -261.863148 
L 516.140532 -258.70698 
L 516.146186 -255.550812 
L 516.154474 -252.394645 
L 516.162523 -249.238477 
L 516.16859 -246.082309 
L 516.17298 -242.926141 
L 516.176473 -239.769973 
L 516.179387 -236.613805 
L 516.182226 -233.457637 
L 516.186152 -230.301469 
L 516.192328 -227.145301 
L 516.200771 -223.989133 
L 516.210181 -220.832966 
L 516.219094 -217.676798 
L 516.226307 -214.52063 
L 516.230717 -211.364462 
L 516.232663 -208.208294 
L 516.234785 -205.052126 
L 516.240304 -201.895958 
L 516.250333 -198.73979 
L 516.262987 -195.583622 
L 516.27607 -192.427454 
L 516.290167 -189.271287 
L 516.307003 -186.115119 
L 516.325849 -182.958951 
L 516.344531 -179.802783 
L 516.363141 -176.646615 
L 516.384046 -173.490447 
L 516.409477 -170.334279 
L 516.441045 -167.178111 
L 516.479548 -164.021943 
L 516.524693 -160.865775 
L 516.577789 -157.709608 
L 516.643877 -154.55344 
L 516.729686 -151.397272 
L 516.846041 -148.241104 
L 517.031472 -145.084936 
L 517.44048 -141.928768 
L 518.555879 -138.7726 
L 521.256819 -135.616432 
L 525.822218 -132.460264 
L 530.134779 -129.304097 
L 530.599567 -126.147929 
L 526.527398 -122.991761 
L 521.237863 -119.835593 
L 517.788366 -116.679425 
z
" style="stroke: #5a5a5a; stroke-width: 1.5"/>
    </defs>
    <g clip-path="url(#pf1177ba781)">
     <use xlink:href="#mf5e65d6d9e" x="0" y="576" style="fill: #e5e5ea; stroke: #5a5a5a; stroke-width: 1.5"/>
    </g>
   </g>
   <g id="PolyCollection_4">
    <defs>
     <path id="m309297a7dc" d="M 664.816576 -98.310506 
L 664.783424 -98.310506 
L 664.770989 -101.837687 
L 664.751781 -105.364867 
L 664.723793 -108.892048 
L 664.685305 -112.419228 
L 664.63534 -115.946409 
L 664.574068 -119.473589 
L 664.503054 -123.000769 
L 664.425211 -126.52795 
L 664.344446 -130.05513 
L 664.265073 -133.582311 
L 664.191127 -137.109491 
L 664.125789 -140.636672 
L 664.071016 -144.163852 
L 664.027468 -147.691033 
L 663.994661 -151.218213 
L 663.971272 -154.745393 
L 663.955503 -158.272574 
L 663.945408 -161.799754 
L 663.939157 -165.326935 
L 663.935202 -168.854115 
L 663.932362 -172.381296 
L 663.929817 -175.908476 
L 663.927054 -179.435657 
L 663.923766 -182.962837 
L 663.919762 -186.490017 
L 663.914897 -190.017198 
L 663.909041 -193.544378 
L 663.902102 -197.071559 
L 663.894089 -200.598739 
L 663.885178 -204.12592 
L 663.875767 -207.6531 
L 663.866476 -211.180281 
L 663.858076 -214.707461 
L 663.851353 -218.234641 
L 663.846928 -221.761822 
L 663.845103 -225.289002 
L 663.845778 -228.816183 
L 663.848475 -232.343363 
L 663.85249 -235.870544 
L 663.857112 -239.397724 
L 663.861838 -242.924905 
L 663.866509 -246.452085 
L 663.87131 -249.979265 
L 663.876624 -253.506446 
L 663.882823 -257.033626 
L 663.890043 -260.560807 
L 663.898057 -264.087987 
L 663.906255 -267.615168 
L 663.913755 -271.142348 
L 663.91958 -274.669529 
L 663.922886 -278.196709 
L 663.92316 -281.723889 
L 663.920357 -285.25107 
L 663.914941 -288.77825 
L 663.907785 -292.305431 
L 663.899968 -295.832611 
L 663.89252 -299.359792 
L 663.886197 -302.886972 
L 663.881388 -306.414153 
L 663.878162 -309.941333 
L 663.876416 -313.468513 
L 663.876023 -316.995694 
L 663.876897 -320.522874 
L 663.87894 -324.050055 
L 663.881931 -327.577235 
L 663.885428 -331.104416 
L 663.888774 -334.631596 
L 663.891217 -338.158777 
L 663.892104 -341.685957 
L 663.891067 -345.213138 
L 663.888137 -348.740318 
L 663.883747 -352.267498 
L 663.878642 -355.794679 
L 663.873734 -359.321859 
L 663.869935 -362.84904 
L 663.868004 -366.37622 
L 663.868422 -369.903401 
L 663.871334 -373.430581 
L 663.876588 -376.957762 
L 663.883895 -380.484942 
L 663.893086 -384.012122 
L 663.904441 -387.539303 
L 663.918952 -391.066483 
L 663.938428 -394.593664 
L 663.965322 -398.120844 
L 664.002274 -401.648025 
L 664.051415 -405.175205 
L 664.113634 -408.702386 
L 664.188026 -412.229566 
L 664.271719 -415.756746 
L 664.360212 -419.283927 
L 664.448136 -422.811107 
L 664.53024 -426.338288 
L 664.602321 -429.865468 
L 664.661836 -433.392649 
L 664.708061 -436.919829 
L 664.741841 -440.44701 
L 664.765071 -443.97419 
L 664.780105 -447.50137 
L 664.819895 -447.50137 
L 664.819895 -447.50137 
L 664.834929 -443.97419 
L 664.858159 -440.44701 
L 664.891939 -436.919829 
L 664.938164 -433.392649 
L 664.997679 -429.865468 
L 665.06976 -426.338288 
L 665.151864 -422.811107 
L 665.239788 -419.283927 
L 665.328281 -415.756746 
L 665.411974 -412.229566 
L 665.486366 -408.702386 
L 665.548585 -405.175205 
L 665.597726 -401.648025 
L 665.634678 -398.120844 
L 665.661572 -394.593664 
L 665.681048 -391.066483 
L 665.695559 -387.539303 
L 665.706914 -384.012122 
L 665.716105 -380.484942 
L 665.723412 -376.957762 
L 665.728666 -373.430581 
L 665.731578 -369.903401 
L 665.731996 -366.37622 
L 665.730065 -362.84904 
L 665.726266 -359.321859 
L 665.721358 -355.794679 
L 665.716253 -352.267498 
L 665.711863 -348.740318 
L 665.708933 -345.213138 
L 665.707896 -341.685957 
L 665.708783 -338.158777 
L 665.711226 -334.631596 
L 665.714572 -331.104416 
L 665.718069 -327.577235 
L 665.72106 -324.050055 
L 665.723103 -320.522874 
L 665.723977 -316.995694 
L 665.723584 -313.468513 
L 665.721838 -309.941333 
L 665.718612 -306.414153 
L 665.713803 -302.886972 
L 665.70748 -299.359792 
L 665.700032 -295.832611 
L 665.692215 -292.305431 
L 665.685059 -288.77825 
L 665.679643 -285.25107 
L 665.67684 -281.723889 
L 665.677114 -278.196709 
L 665.68042 -274.669529 
L 665.686245 -271.142348 
L 665.693745 -267.615168 
L 665.701943 -264.087987 
L 665.709957 -260.560807 
L 665.717177 -257.033626 
L 665.723376 -253.506446 
L 665.72869 -249.979265 
L 665.733491 -246.452085 
L 665.738162 -242.924905 
L 665.742888 -239.397724 
L 665.74751 -235.870544 
L 665.751525 -232.343363 
L 665.754222 -228.816183 
L 665.754897 -225.289002 
L 665.753072 -221.761822 
L 665.748647 -218.234641 
L 665.741924 -214.707461 
L 665.733524 -211.180281 
L 665.724233 -207.6531 
L 665.714822 -204.12592 
L 665.705911 -200.598739 
L 665.697898 -197.071559 
L 665.690959 -193.544378 
L 665.685103 -190.017198 
L 665.680238 -186.490017 
L 665.676234 -182.962837 
L 665.672946 -179.435657 
L 665.670183 -175.908476 
L 665.667638 -172.381296 
L 665.664798 -168.854115 
L 665.660843 -165.326935 
L 665.654592 -161.799754 
L 665.644497 -158.272574 
L 665.628728 -154.745393 
L 665.605339 -151.218213 
L 665.572532 -147.691033 
L 665.528984 -144.163852 
L 665.474211 -140.636672 
L 665.408873 -137.109491 
L 665.334927 -133.582311 
L 665.255554 -130.05513 
L 665.174789 -126.52795 
L 665.096946 -123.000769 
L 665.025932 -119.473589 
L 664.96466 -115.946409 
L 664.914695 -112.419228 
L 664.876207 -108.892048 
L 664.848219 -105.364867 
L 664.829011 -101.837687 
L 664.816576 -98.310506 
z
" style="stroke: #5a5a5a; stroke-width: 1.5"/>
    </defs>
    <g clip-path="url(#pf1177ba781)">
     <use xlink:href="#m309297a7dc" x="0" y="576" style="fill: #efe1e0; stroke: #5a5a5a; stroke-width: 1.5"/>
    </g>
   </g>
   <g id="PolyCollection_5">
    <defs>
     <path id="m155e6daf89" d="M 813.618612 -93.079442 
L 813.581388 -93.079442 
L 813.569187 -96.711854 
L 813.550962 -100.344267 
L 813.524934 -103.97668 
L 813.489396 -107.609093 
L 813.443007 -111.241506 
L 813.385132 -114.873919 
L 813.316129 -118.506332 
L 813.237535 -122.138745 
L 813.15204 -125.771158 
L 813.063262 -129.403571 
L 812.975302 -133.035984 
L 812.892202 -136.668397 
L 812.817393 -140.30081 
L 812.753265 -143.933223 
L 812.700951 -147.565636 
L 812.660352 -151.198049 
L 812.630377 -154.830462 
L 812.609334 -158.462875 
L 812.595352 -162.095288 
L 812.58677 -165.727701 
L 812.58239 -169.360114 
L 812.581573 -172.992527 
L 812.584178 -176.62494 
L 812.590373 -180.257353 
L 812.600373 -183.889766 
L 812.614189 -187.522179 
L 812.631443 -191.154592 
L 812.651294 -194.787005 
L 812.67249 -198.419418 
L 812.693521 -202.051831 
L 812.712835 -205.684244 
L 812.729064 -209.316657 
L 812.741208 -212.94907 
L 812.748753 -216.581483 
L 812.751707 -220.213896 
L 812.750559 -223.846309 
L 812.746177 -227.478722 
L 812.739669 -231.111135 
L 812.732228 -234.743547 
L 812.724987 -238.37596 
L 812.718898 -242.008373 
L 812.714645 -245.640786 
L 812.712603 -249.273199 
L 812.712839 -252.905612 
L 812.715146 -256.538025 
L 812.719109 -260.170438 
L 812.724178 -263.802851 
L 812.729751 -267.435264 
L 812.735237 -271.067677 
L 812.740109 -274.70009 
L 812.743932 -278.332503 
L 812.746377 -281.964916 
L 812.747226 -285.597329 
L 812.746374 -289.229742 
L 812.743838 -292.862155 
L 812.739762 -296.494568 
L 812.734421 -300.126981 
L 812.728205 -303.759394 
L 812.721586 -307.391807 
L 812.715064 -311.02422 
L 812.709103 -314.656633 
L 812.704057 -318.289046 
L 812.700126 -321.921459 
L 812.697333 -325.553872 
L 812.695544 -329.186285 
L 812.69453 -332.818698 
L 812.694048 -336.451111 
L 812.69393 -340.083524 
L 812.694141 -343.715937 
L 812.694796 -347.34835 
L 812.696125 -350.980763 
L 812.698407 -354.613176 
L 812.701887 -358.245589 
L 812.706729 -361.878002 
L 812.713002 -365.510415 
L 812.720714 -369.142828 
L 812.72989 -372.77524 
L 812.740655 -376.407653 
L 812.753318 -380.040066 
L 812.768423 -383.672479 
L 812.786773 -387.304892 
L 812.809391 -390.937305 
L 812.837433 -394.569718 
L 812.872028 -398.202131 
L 812.914055 -401.834544 
L 812.963894 -405.466957 
L 813.021205 -409.09937 
L 813.084793 -412.731783 
L 813.152631 -416.364196 
L 813.222049 -419.996609 
L 813.290072 -423.629022 
L 813.353833 -427.261435 
L 813.410964 -430.893848 
L 813.459873 -434.526261 
L 813.499868 -438.158674 
L 813.531104 -441.791087 
L 813.554401 -445.4235 
L 813.570993 -449.055913 
L 813.582278 -452.688326 
L 813.617722 -452.688326 
L 813.617722 -452.688326 
L 813.629007 -449.055913 
L 813.645599 -445.4235 
L 813.668896 -441.791087 
L 813.700132 -438.158674 
L 813.740127 -434.526261 
L 813.789036 -430.893848 
L 813.846167 -427.261435 
L 813.909928 -423.629022 
L 813.977951 -419.996609 
L 814.047369 -416.364196 
L 814.115207 -412.731783 
L 814.178795 -409.09937 
L 814.236106 -405.466957 
L 814.285945 -401.834544 
L 814.327972 -398.202131 
L 814.362567 -394.569718 
L 814.390609 -390.937305 
L 814.413227 -387.304892 
L 814.431577 -383.672479 
L 814.446682 -380.040066 
L 814.459345 -376.407653 
L 814.47011 -372.77524 
L 814.479286 -369.142828 
L 814.486998 -365.510415 
L 814.493271 -361.878002 
L 814.498113 -358.245589 
L 814.501593 -354.613176 
L 814.503875 -350.980763 
L 814.505204 -347.34835 
L 814.505859 -343.715937 
L 814.50607 -340.083524 
L 814.505952 -336.451111 
L 814.50547 -332.818698 
L 814.504456 -329.186285 
L 814.502667 -325.553872 
L 814.499874 -321.921459 
L 814.495943 -318.289046 
L 814.490897 -314.656633 
L 814.484936 -311.02422 
L 814.478414 -307.391807 
L 814.471795 -303.759394 
L 814.465579 -300.126981 
L 814.460238 -296.494568 
L 814.456162 -292.862155 
L 814.453626 -289.229742 
L 814.452774 -285.597329 
L 814.453623 -281.964916 
L 814.456068 -278.332503 
L 814.459891 -274.70009 
L 814.464763 -271.067677 
L 814.470249 -267.435264 
L 814.475822 -263.802851 
L 814.480891 -260.170438 
L 814.484854 -256.538025 
L 814.487161 -252.905612 
L 814.487397 -249.273199 
L 814.485355 -245.640786 
L 814.481102 -242.008373 
L 814.475013 -238.37596 
L 814.467772 -234.743547 
L 814.460331 -231.111135 
L 814.453823 -227.478722 
L 814.449441 -223.846309 
L 814.448293 -220.213896 
L 814.451247 -216.581483 
L 814.458792 -212.94907 
L 814.470936 -209.316657 
L 814.487165 -205.684244 
L 814.506479 -202.051831 
L 814.52751 -198.419418 
L 814.548706 -194.787005 
L 814.568557 -191.154592 
L 814.585811 -187.522179 
L 814.599627 -183.889766 
L 814.609627 -180.257353 
L 814.615822 -176.62494 
L 814.618427 -172.992527 
L 814.61761 -169.360114 
L 814.61323 -165.727701 
L 814.604648 -162.095288 
L 814.590666 -158.462875 
L 814.569623 -154.830462 
L 814.539648 -151.198049 
L 814.499049 -147.565636 
L 814.446735 -143.933223 
L 814.382607 -140.30081 
L 814.307798 -136.668397 
L 814.224698 -133.035984 
L 814.136738 -129.403571 
L 814.04796 -125.771158 
L 813.962465 -122.138745 
L 813.883871 -118.506332 
L 813.814868 -114.873919 
L 813.756993 -111.241506 
L 813.710604 -107.609093 
L 813.675066 -103.97668 
L 813.649038 -100.344267 
L 813.630813 -96.711854 
L 813.618612 -93.079442 
z
" style="stroke: #5a5a5a; stroke-width: 1.5"/>
    </defs>
    <g clip-path="url(#pf1177ba781)">
     <use xlink:href="#m155e6daf89" x="0" y="576" style="fill: #d2acaa; stroke: #5a5a5a; stroke-width: 1.5"/>
    </g>
   </g>
   <g id="PolyCollection_6">
    <defs>
     <path id="mbbe3c45992" d="M 962.419283 -83.52 
L 962.380717 -83.52 
L 962.375028 -87.592727 
L 962.36808 -91.665455 
L 962.359723 -95.738182 
L 962.349825 -99.810909 
L 962.338279 -103.883636 
L 962.325017 -107.956364 
L 962.310014 -112.029091 
L 962.2933 -116.101818 
L 962.274961 -120.174545 
L 962.255139 -124.247273 
L 962.23403 -128.32 
L 962.211872 -132.392727 
L 962.188937 -136.465455 
L 962.165512 -140.538182 
L 962.141882 -144.610909 
L 962.11831 -148.683636 
L 962.095018 -152.756364 
L 962.072178 -156.829091 
L 962.049893 -160.901818 
L 962.028198 -164.974545 
L 962.00706 -169.047273 
L 961.98638 -173.12 
L 961.966013 -177.192727 
L 961.94578 -181.265455 
L 961.925488 -185.338182 
L 961.90495 -189.410909 
L 961.884004 -193.483636 
L 961.862528 -197.556364 
L 961.840451 -201.629091 
L 961.817757 -205.701818 
L 961.794488 -209.774545 
L 961.770732 -213.847273 
L 961.746618 -217.92 
L 961.722296 -221.992727 
L 961.697924 -226.065455 
L 961.673649 -230.138182 
L 961.649592 -234.210909 
L 961.625833 -238.283636 
L 961.602405 -242.356364 
L 961.579286 -246.429091 
L 961.556402 -250.501818 
L 961.533632 -254.574545 
L 961.510824 -258.647273 
L 961.487803 -262.72 
L 961.464399 -266.792727 
L 961.440464 -270.865455 
L 961.415895 -274.938182 
L 961.390654 -279.010909 
L 961.364787 -283.083636 
L 961.33843 -287.156364 
L 961.311821 -291.229091 
L 961.28529 -295.301818 
L 961.259251 -299.374545 
L 961.234181 -303.447273 
L 961.210596 -307.52 
L 961.18902 -311.592727 
L 961.169952 -315.665455 
L 961.15384 -319.738182 
L 961.14105 -323.810909 
L 961.131854 -327.883636 
L 961.126413 -331.956364 
L 961.124787 -336.029091 
L 961.126937 -340.101818 
L 961.132748 -344.174545 
L 961.142053 -348.247273 
L 961.154665 -352.32 
L 961.170402 -356.392727 
L 961.189114 -360.465455 
L 961.210701 -364.538182 
L 961.235124 -368.610909 
L 961.262407 -372.683636 
L 961.292622 -376.756364 
L 961.325874 -380.829091 
L 961.362273 -384.901818 
L 961.401902 -388.974545 
L 961.444787 -393.047273 
L 961.49087 -397.12 
L 961.539982 -401.192727 
L 961.591832 -405.265455 
L 961.646002 -409.338182 
L 961.701955 -413.410909 
L 961.759048 -417.483636 
L 961.816567 -421.556364 
L 961.87375 -425.629091 
L 961.92983 -429.701818 
L 961.984072 -433.774545 
L 962.035801 -437.847273 
L 962.084438 -441.92 
L 962.12952 -445.992727 
L 962.170711 -450.065455 
L 962.207811 -454.138182 
L 962.240748 -458.210909 
L 962.269572 -462.283636 
L 962.294437 -466.356364 
L 962.315581 -470.429091 
L 962.333305 -474.501818 
L 962.34795 -478.574545 
L 962.359879 -482.647273 
L 962.369459 -486.72 
L 962.430541 -486.72 
L 962.430541 -486.72 
L 962.440121 -482.647273 
L 962.45205 -478.574545 
L 962.466695 -474.501818 
L 962.484419 -470.429091 
L 962.505563 -466.356364 
L 962.530428 -462.283636 
L 962.559252 -458.210909 
L 962.592189 -454.138182 
L 962.629289 -450.065455 
L 962.67048 -445.992727 
L 962.715562 -441.92 
L 962.764199 -437.847273 
L 962.815928 -433.774545 
L 962.87017 -429.701818 
L 962.92625 -425.629091 
L 962.983433 -421.556364 
L 963.040952 -417.483636 
L 963.098045 -413.410909 
L 963.153998 -409.338182 
L 963.208168 -405.265455 
L 963.260018 -401.192727 
L 963.30913 -397.12 
L 963.355213 -393.047273 
L 963.398098 -388.974545 
L 963.437727 -384.901818 
L 963.474126 -380.829091 
L 963.507378 -376.756364 
L 963.537593 -372.683636 
L 963.564876 -368.610909 
L 963.589299 -364.538182 
L 963.610886 -360.465455 
L 963.629598 -356.392727 
L 963.645335 -352.32 
L 963.657947 -348.247273 
L 963.667252 -344.174545 
L 963.673063 -340.101818 
L 963.675213 -336.029091 
L 963.673587 -331.956364 
L 963.668146 -327.883636 
L 963.65895 -323.810909 
L 963.64616 -319.738182 
L 963.630048 -315.665455 
L 963.61098 -311.592727 
L 963.589404 -307.52 
L 963.565819 -303.447273 
L 963.540749 -299.374545 
L 963.51471 -295.301818 
L 963.488179 -291.229091 
L 963.46157 -287.156364 
L 963.435213 -283.083636 
L 963.409346 -279.010909 
L 963.384105 -274.938182 
L 963.359536 -270.865455 
L 963.335601 -266.792727 
L 963.312197 -262.72 
L 963.289176 -258.647273 
L 963.266368 -254.574545 
L 963.243598 -250.501818 
L 963.220714 -246.429091 
L 963.197595 -242.356364 
L 963.174167 -238.283636 
L 963.150408 -234.210909 
L 963.126351 -230.138182 
L 963.102076 -226.065455 
L 963.077704 -221.992727 
L 963.053382 -217.92 
L 963.029268 -213.847273 
L 963.005512 -209.774545 
L 962.982243 -205.701818 
L 962.959549 -201.629091 
L 962.937472 -197.556364 
L 962.915996 -193.483636 
L 962.89505 -189.410909 
L 962.874512 -185.338182 
L 962.85422 -181.265455 
L 962.833987 -177.192727 
L 962.81362 -173.12 
L 962.79294 -169.047273 
L 962.771802 -164.974545 
L 962.750107 -160.901818 
L 962.727822 -156.829091 
L 962.704982 -152.756364 
L 962.68169 -148.683636 
L 962.658118 -144.610909 
L 962.634488 -140.538182 
L 962.611063 -136.465455 
L 962.588128 -132.392727 
L 962.56597 -128.32 
L 962.544861 -124.247273 
L 962.525039 -120.174545 
L 962.5067 -116.101818 
L 962.489986 -112.029091 
L 962.474983 -107.956364 
L 962.461721 -103.883636 
L 962.450175 -99.810909 
L 962.440277 -95.738182 
L 962.43192 -91.665455 
L 962.424972 -87.592727 
L 962.419283 -83.52 
z
" style="stroke: #5a5a5a; stroke-width: 1.5"/>
    </defs>
    <g clip-path="url(#pf1177ba781)">
     <use xlink:href="#mbbe3c45992" x="0" y="576" style="fill: #b77977; stroke: #5a5a5a; stroke-width: 1.5"/>
    </g>
   </g>
   <g id="line2d_1">
    <path d="M 218.4 449.141931 
L 218.4 441.352488 
" clip-path="url(#pf1177ba781)" style="fill: none; stroke: #5a5a5a; stroke-width: 1.5; stroke-linecap: round"/>
   </g>
   <g id="line2d_2">
    <path d="M 218.4 449.141776 
L 218.4 446.026061 
" clip-path="url(#pf1177ba781)" style="fill: none; stroke: #5a5a5a; stroke-width: 4.5; stroke-linecap: round"/>
   </g>
   <g id="line2d_3">
    <path d="M 367.2 449.141931 
L 367.2 442.875399 
" clip-path="url(#pf1177ba781)" style="fill: none; stroke: #5a5a5a; stroke-width: 1.5; stroke-linecap: round"/>
   </g>
   <g id="line2d_4">
    <path d="M 367.2 449.141877 
L 367.2 446.635039 
" clip-path="url(#pf1177ba781)" style="fill: none; stroke: #5a5a5a; stroke-width: 4.5; stroke-linecap: round"/>
   </g>
   <g id="line2d_5">
    <path d="M 516 449.141931 
L 516 429.277283 
" clip-path="url(#pf1177ba781)" style="fill: none; stroke: #5a5a5a; stroke-width: 1.5; stroke-linecap: round"/>
   </g>
   <g id="line2d_6">
    <path d="M 516 449.141689 
L 516 441.195498 
" clip-path="url(#pf1177ba781)" style="fill: none; stroke: #5a5a5a; stroke-width: 4.5; stroke-linecap: round"/>
   </g>
   <g id="line2d_7">
    <path d="M 664.8 449.141931 
L 664.8 157.046192 
" clip-path="url(#pf1177ba781)" style="fill: none; stroke: #5a5a5a; stroke-width: 1.5; stroke-linecap: round"/>
   </g>
   <g id="line2d_8">
    <path d="M 664.8 371.800176 
L 664.8 228.262302 
" clip-path="url(#pf1177ba781)" style="fill: none; stroke: #5a5a5a; stroke-width: 4.5; stroke-linecap: round"/>
   </g>
   <g id="line2d_9">
    <path d="M 813.6 449.141931 
L 813.6 157.090301 
" clip-path="url(#pf1177ba781)" style="fill: none; stroke: #5a5a5a; stroke-width: 1.5; stroke-linecap: round"/>
   </g>
   <g id="line2d_10">
    <path d="M 813.6 384.466928 
L 813.6 233.847827 
" clip-path="url(#pf1177ba781)" style="fill: none; stroke: #5a5a5a; stroke-width: 4.5; stroke-linecap: round"/>
   </g>
   <g id="line2d_11">
    <path d="M 962.4 424.485959 
L 962.4 157.274041 
" clip-path="url(#pf1177ba781)" style="fill: none; stroke: #5a5a5a; stroke-width: 1.5; stroke-linecap: round"/>
   </g>
   <g id="line2d_12">
    <path d="M 962.4 317.194732 
L 962.4 212.664909 
" clip-path="url(#pf1177ba781)" style="fill: none; stroke: #5a5a5a; stroke-width: 4.5; stroke-linecap: round"/>
   </g>
   <g id="patch_3">
    <path d="M 144 512.64 
L 144 69.12 
" style="fill: none; stroke: #cccccc; stroke-width: 0.8; stroke-linejoin: miter; stroke-linecap: square"/>
   </g>
   <g id="patch_4">
    <path d="M 1036.8 512.64 
L 1036.8 69.12 
" style="fill: none; stroke: #cccccc; stroke-width: 0.8; stroke-linejoin: miter; stroke-linecap: square"/>
   </g>
   <g id="patch_5">
    <path d="M 144 512.64 
L 1036.8 512.64 
" style="fill: none; stroke: #cccccc; stroke-width: 0.8; stroke-linejoin: miter; stroke-linecap: square"/>
   </g>
   <g id="patch_6">
    <path d="M 144 69.12 
L 1036.8 69.12 
" style="fill: none; stroke: #cccccc; stroke-width: 0.8; stroke-linejoin: miter; stroke-linecap: square"/>
   </g>
   <g id="PathCollection_1">
    <defs>
     <path id="m047b7a475d" d="M 0 1.5 
C 0.397805 1.5 0.77937 1.341951 1.06066 1.06066 
C 1.341951 0.77937 1.5 0.397805 1.5 0 
C 1.5 -0.397805 1.341951 -0.77937 1.06066 -1.06066 
C 0.77937 -1.341951 0.397805 -1.5 0 -1.5 
C -0.397805 -1.5 -0.77937 -1.341951 -1.06066 -1.06066 
C -1.341951 -0.77937 -1.5 -0.397805 -1.5 0 
C -1.5 0.397805 -1.341951 0.77937 -1.06066 1.06066 
C -0.77937 1.341951 -0.397805 1.5 0 1.5 
z
" style="stroke: #5a5a5a"/>
    </defs>
    <g clip-path="url(#pf1177ba781)">
     <use xlink:href="#m047b7a475d" x="218.4" y="449.093802" style="fill: #ffffff; stroke: #5a5a5a"/>
    </g>
   </g>
   <g id="PathCollection_2">
    <g clip-path="url(#pf1177ba781)">
     <use xlink:href="#m047b7a475d" x="367.2" y="449.112587" style="fill: #ffffff; stroke: #5a5a5a"/>
    </g>
   </g>
   <g id="PathCollection_3">
    <g clip-path="url(#pf1177ba781)">
     <use xlink:href="#m047b7a475d" x="516" y="449.040511" style="fill: #ffffff; stroke: #5a5a5a"/>
    </g>
   </g>
   <g id="PathCollection_4">
    <g clip-path="url(#pf1177ba781)">
     <use xlink:href="#m047b7a475d" x="664.8" y="301.461871" style="fill: #ffffff; stroke: #5a5a5a"/>
    </g>
   </g>
   <g id="PathCollection_5">
    <g clip-path="url(#pf1177ba781)">
     <use xlink:href="#m047b7a475d" x="813.6" y="309.198821" style="fill: #ffffff; stroke: #5a5a5a"/>
    </g>
   </g>
   <g id="PathCollection_6">
    <g clip-path="url(#pf1177ba781)">
     <use xlink:href="#m047b7a475d" x="962.4" y="257.543006" style="fill: #ffffff; stroke: #5a5a5a"/>
    </g>
   </g>
   <g id="text_17">
    <!-- Count: 13696790 -->
    <g style="fill: #262626" transform="translate(172.364062 67.008078)scale(0.12 -0.12)">
     <defs>
      <path id="ArialMT-6e" d="M 422 0 
L 422 3319 
L 928 3319 
L 928 2847 
Q 1294 3394 1984 3394 
Q 2284 3394 2536 3286 
Q 2788 3178 2913 3003 
Q 3038 2828 3088 2588 
Q 3119 2431 3119 2041 
L 3119 0 
L 2556 0 
L 2556 2019 
Q 2556 2363 2490 2533 
Q 2425 2703 2258 2804 
Q 2091 2906 1866 2906 
Q 1506 2906 1245 2678 
Q 984 2450 984 1813 
L 984 0 
L 422 0 
z
" transform="scale(0.015625)"/>
      <path id="ArialMT-3a" d="M 578 2678 
L 578 3319 
L 1219 3319 
L 1219 2678 
L 578 2678 
z
M 578 0 
L 578 641 
L 1219 641 
L 1219 0 
L 578 0 
z
" transform="scale(0.015625)"/>
      <path id="ArialMT-20" transform="scale(0.015625)"/>
      <path id="ArialMT-39" d="M 350 1059 
L 891 1109 
Q 959 728 1153 556 
Q 1347 384 1650 384 
Q 1909 384 2104 503 
Q 2300 622 2425 820 
Q 2550 1019 2634 1356 
Q 2719 1694 2719 2044 
Q 2719 2081 2716 2156 
Q 2547 1888 2255 1720 
Q 1963 1553 1622 1553 
Q 1053 1553 659 1965 
Q 266 2378 266 3053 
Q 266 3750 677 4175 
Q 1088 4600 1706 4600 
Q 2153 4600 2523 4359 
Q 2894 4119 3086 3673 
Q 3278 3228 3278 2384 
Q 3278 1506 3087 986 
Q 2897 466 2520 194 
Q 2144 -78 1638 -78 
Q 1100 -78 759 220 
Q 419 519 350 1059 
z
M 2653 3081 
Q 2653 3566 2395 3850 
Q 2138 4134 1775 4134 
Q 1400 4134 1122 3828 
Q 844 3522 844 3034 
Q 844 2597 1108 2323 
Q 1372 2050 1759 2050 
Q 2150 2050 2401 2323 
Q 2653 2597 2653 3081 
z
" transform="scale(0.015625)"/>
      <path id="ArialMT-37" d="M 303 3981 
L 303 4522 
L 3269 4522 
L 3269 4084 
Q 2831 3619 2401 2847 
Q 1972 2075 1738 1259 
Q 1569 684 1522 0 
L 944 0 
Q 953 541 1156 1306 
Q 1359 2072 1739 2783 
Q 2119 3494 2547 3981 
L 303 3981 
z
" transform="scale(0.015625)"/>
     </defs>
     <use xlink:href="#ArialMT-43"/>
     <use xlink:href="#ArialMT-6f" x="72.216797"/>
     <use xlink:href="#ArialMT-75" x="127.832031"/>
     <use xlink:href="#ArialMT-6e" x="183.447266"/>
     <use xlink:href="#ArialMT-74" x="239.0625"/>
     <use xlink:href="#ArialMT-3a" x="266.845703"/>
     <use xlink:href="#ArialMT-20" x="294.628906"/>
     <use xlink:href="#ArialMT-31" x="322.412109"/>
     <use xlink:href="#ArialMT-33" x="378.027344"/>
     <use xlink:href="#ArialMT-36" x="433.642578"/>
     <use xlink:href="#ArialMT-39" x="489.257812"/>
     <use xlink:href="#ArialMT-36" x="544.873047"/>
     <use xlink:href="#ArialMT-37" x="600.488281"/>
     <use xlink:href="#ArialMT-39" x="656.103516"/>
     <use xlink:href="#ArialMT-30" x="711.71875"/>
    </g>
   </g>
   <g id="text_18">
    <!-- Count: 542514 -->
    <g style="fill: #262626" transform="translate(327.837187 67.008078)scale(0.12 -0.12)">
     <defs>
      <path id="ArialMT-35" d="M 266 1200 
L 856 1250 
Q 922 819 1161 601 
Q 1400 384 1738 384 
Q 2144 384 2425 690 
Q 2706 997 2706 1503 
Q 2706 1984 2436 2262 
Q 2166 2541 1728 2541 
Q 1456 2541 1237 2417 
Q 1019 2294 894 2097 
L 366 2166 
L 809 4519 
L 3088 4519 
L 3088 3981 
L 1259 3981 
L 1013 2750 
Q 1425 3038 1878 3038 
Q 2478 3038 2890 2622 
Q 3303 2206 3303 1553 
Q 3303 931 2941 478 
Q 2500 -78 1738 -78 
Q 1113 -78 717 272 
Q 322 622 266 1200 
z
" transform="scale(0.015625)"/>
     </defs>
     <use xlink:href="#ArialMT-43"/>
     <use xlink:href="#ArialMT-6f" x="72.216797"/>
     <use xlink:href="#ArialMT-75" x="127.832031"/>
     <use xlink:href="#ArialMT-6e" x="183.447266"/>
     <use xlink:href="#ArialMT-74" x="239.0625"/>
     <use xlink:href="#ArialMT-3a" x="266.845703"/>
     <use xlink:href="#ArialMT-20" x="294.628906"/>
     <use xlink:href="#ArialMT-35" x="322.412109"/>
     <use xlink:href="#ArialMT-34" x="378.027344"/>
     <use xlink:href="#ArialMT-32" x="433.642578"/>
     <use xlink:href="#ArialMT-35" x="489.257812"/>
     <use xlink:href="#ArialMT-31" x="544.873047"/>
     <use xlink:href="#ArialMT-34" x="600.488281"/>
    </g>
   </g>
   <g id="text_19">
    <!-- Count: 128910 -->
    <g style="fill: #262626" transform="translate(476.637187 67.008078)scale(0.12 -0.12)">
     <use xlink:href="#ArialMT-43"/>
     <use xlink:href="#ArialMT-6f" x="72.216797"/>
     <use xlink:href="#ArialMT-75" x="127.832031"/>
     <use xlink:href="#ArialMT-6e" x="183.447266"/>
     <use xlink:href="#ArialMT-74" x="239.0625"/>
     <use xlink:href="#ArialMT-3a" x="266.845703"/>
     <use xlink:href="#ArialMT-20" x="294.628906"/>
     <use xlink:href="#ArialMT-31" x="322.412109"/>
     <use xlink:href="#ArialMT-32" x="378.027344"/>
     <use xlink:href="#ArialMT-38" x="433.642578"/>
     <use xlink:href="#ArialMT-39" x="489.257812"/>
     <use xlink:href="#ArialMT-31" x="544.873047"/>
     <use xlink:href="#ArialMT-30" x="600.488281"/>
    </g>
   </g>
   <g id="text_20">
    <!-- Count: 6711 -->
    <g style="fill: #262626" transform="translate(632.552812 67.008078)scale(0.12 -0.12)">
     <use xlink:href="#ArialMT-43"/>
     <use xlink:href="#ArialMT-6f" x="72.216797"/>
     <use xlink:href="#ArialMT-75" x="127.832031"/>
     <use xlink:href="#ArialMT-6e" x="183.447266"/>
     <use xlink:href="#ArialMT-74" x="239.0625"/>
     <use xlink:href="#ArialMT-3a" x="266.845703"/>
     <use xlink:href="#ArialMT-20" x="294.628906"/>
     <use xlink:href="#ArialMT-36" x="322.412109"/>
     <use xlink:href="#ArialMT-37" x="378.027344"/>
     <use xlink:href="#ArialMT-31" x="433.642578"/>
     <use xlink:href="#ArialMT-31" x="481.882812"/>
    </g>
   </g>
   <g id="text_21">
    <!-- Count: 3148 -->
    <g style="fill: #262626" transform="translate(780.910312 67.008078)scale(0.12 -0.12)">
     <use xlink:href="#ArialMT-43"/>
     <use xlink:href="#ArialMT-6f" x="72.216797"/>
     <use xlink:href="#ArialMT-75" x="127.832031"/>
     <use xlink:href="#ArialMT-6e" x="183.447266"/>
     <use xlink:href="#ArialMT-74" x="239.0625"/>
     <use xlink:href="#ArialMT-3a" x="266.845703"/>
     <use xlink:href="#ArialMT-20" x="294.628906"/>
     <use xlink:href="#ArialMT-33" x="322.412109"/>
     <use xlink:href="#ArialMT-31" x="378.027344"/>
     <use xlink:href="#ArialMT-34" x="433.642578"/>
     <use xlink:href="#ArialMT-38" x="489.257812"/>
    </g>
   </g>
   <g id="text_22">
    <!-- Count: 46 -->
    <g style="fill: #262626" transform="translate(936.383437 67.008078)scale(0.12 -0.12)">
     <use xlink:href="#ArialMT-43"/>
     <use xlink:href="#ArialMT-6f" x="72.216797"/>
     <use xlink:href="#ArialMT-75" x="127.832031"/>
     <use xlink:href="#ArialMT-6e" x="183.447266"/>
     <use xlink:href="#ArialMT-74" x="239.0625"/>
     <use xlink:href="#ArialMT-3a" x="266.845703"/>
     <use xlink:href="#ArialMT-20" x="294.628906"/>
     <use xlink:href="#ArialMT-34" x="322.412109"/>
     <use xlink:href="#ArialMT-36" x="378.027344"/>
    </g>
   </g>
  </g>
 </g>
 <defs>
  <clipPath id="pf1177ba781">
   <rect x="144" y="69.12" width="892.8" height="443.52"/>
  </clipPath>
 </defs>
</svg>
