<?xml version="1.0" encoding="utf-8" standalone="no"?>
<!DOCTYPE svg PUBLIC "-//W3C//DTD SVG 1.1//EN"
  "http://www.w3.org/Graphics/SVG/1.1/DTD/svg11.dtd">
<svg xmlns:xlink="http://www.w3.org/1999/xlink" width="1152pt" height="576pt" viewBox="0 0 1152 576" xmlns="http://www.w3.org/2000/svg" version="1.1">
 <metadata>
  <rdf:RDF xmlns:dc="http://purl.org/dc/elements/1.1/" xmlns:cc="http://creativecommons.org/ns#" xmlns:rdf="http://www.w3.org/1999/02/22-rdf-syntax-ns#">
   <cc:Work>
    <dc:type rdf:resource="http://purl.org/dc/dcmitype/StillImage"/>
    <dc:date>2024-04-22T08:53:34.419281</dc:date>
    <dc:format>image/svg+xml</dc:format>
    <dc:creator>
     <cc:Agent>
      <dc:title>Matplotlib v3.5.3, https://matplotlib.org/</dc:title>
     </cc:Agent>
    </dc:creator>
   </cc:Work>
  </rdf:RDF>
 </metadata>
 <defs>
  <style type="text/css">*{stroke-linejoin: round; stroke-linecap: butt}</style>
 </defs>
 <g id="figure_1">
  <g id="patch_1">
   <path d="M 0 576 
L 1152 576 
L 1152 0 
L 0 0 
L 0 576 
z
" style="fill: none"/>
  </g>
  <g id="axes_1">
   <g id="patch_2">
    <path d="M 144 504 
L 1036.8 504 
L 1036.8 69.12 
L 144 69.12 
z
" style="fill: #ffffff"/>
   </g>
   <g id="matplotlib.axis_1">
    <g id="xtick_1">
     <g id="text_1">
      <!-- GRCh38 -->
      <g style="fill: #262626" transform="translate(195.057187 519.589375)scale(0.12 -0.12)">
       <defs>
        <path id="ArialMT-47" d="M 2638 1797 
L 2638 2334 
L 4578 2338 
L 4578 638 
Q 4131 281 3656 101 
Q 3181 -78 2681 -78 
Q 2006 -78 1454 211 
Q 903 500 622 1047 
Q 341 1594 341 2269 
Q 341 2938 620 3517 
Q 900 4097 1425 4378 
Q 1950 4659 2634 4659 
Q 3131 4659 3532 4498 
Q 3934 4338 4162 4050 
Q 4391 3763 4509 3300 
L 3963 3150 
Q 3859 3500 3706 3700 
Q 3553 3900 3268 4020 
Q 2984 4141 2638 4141 
Q 2222 4141 1919 4014 
Q 1616 3888 1430 3681 
Q 1244 3475 1141 3228 
Q 966 2803 966 2306 
Q 966 1694 1177 1281 
Q 1388 869 1791 669 
Q 2194 469 2647 469 
Q 3041 469 3416 620 
Q 3791 772 3984 944 
L 3984 1797 
L 2638 1797 
z
" transform="scale(0.015625)"/>
        <path id="ArialMT-52" d="M 503 0 
L 503 4581 
L 2534 4581 
Q 3147 4581 3465 4457 
Q 3784 4334 3975 4021 
Q 4166 3709 4166 3331 
Q 4166 2844 3850 2509 
Q 3534 2175 2875 2084 
Q 3116 1969 3241 1856 
Q 3506 1613 3744 1247 
L 4541 0 
L 3778 0 
L 3172 953 
Q 2906 1366 2734 1584 
Q 2563 1803 2427 1890 
Q 2291 1978 2150 2013 
Q 2047 2034 1813 2034 
L 1109 2034 
L 1109 0 
L 503 0 
z
M 1109 2559 
L 2413 2559 
Q 2828 2559 3062 2645 
Q 3297 2731 3419 2920 
Q 3541 3109 3541 3331 
Q 3541 3656 3305 3865 
Q 3069 4075 2559 4075 
L 1109 4075 
L 1109 2559 
z
" transform="scale(0.015625)"/>
        <path id="ArialMT-43" d="M 3763 1606 
L 4369 1453 
Q 4178 706 3683 314 
Q 3188 -78 2472 -78 
Q 1731 -78 1267 223 
Q 803 525 561 1097 
Q 319 1669 319 2325 
Q 319 3041 592 3573 
Q 866 4106 1370 4382 
Q 1875 4659 2481 4659 
Q 3169 4659 3637 4309 
Q 4106 3959 4291 3325 
L 3694 3184 
Q 3534 3684 3231 3912 
Q 2928 4141 2469 4141 
Q 1941 4141 1586 3887 
Q 1231 3634 1087 3207 
Q 944 2781 944 2328 
Q 944 1744 1114 1308 
Q 1284 872 1643 656 
Q 2003 441 2422 441 
Q 2931 441 3284 734 
Q 3638 1028 3763 1606 
z
" transform="scale(0.015625)"/>
        <path id="ArialMT-68" d="M 422 0 
L 422 4581 
L 984 4581 
L 984 2938 
Q 1378 3394 1978 3394 
Q 2347 3394 2619 3248 
Q 2891 3103 3008 2847 
Q 3125 2591 3125 2103 
L 3125 0 
L 2563 0 
L 2563 2103 
Q 2563 2525 2380 2717 
Q 2197 2909 1863 2909 
Q 1613 2909 1392 2779 
Q 1172 2650 1078 2428 
Q 984 2206 984 1816 
L 984 0 
L 422 0 
z
" transform="scale(0.015625)"/>
        <path id="ArialMT-33" d="M 269 1209 
L 831 1284 
Q 928 806 1161 595 
Q 1394 384 1728 384 
Q 2125 384 2398 659 
Q 2672 934 2672 1341 
Q 2672 1728 2419 1979 
Q 2166 2231 1775 2231 
Q 1616 2231 1378 2169 
L 1441 2663 
Q 1497 2656 1531 2656 
Q 1891 2656 2178 2843 
Q 2466 3031 2466 3422 
Q 2466 3731 2256 3934 
Q 2047 4138 1716 4138 
Q 1388 4138 1169 3931 
Q 950 3725 888 3313 
L 325 3413 
Q 428 3978 793 4289 
Q 1159 4600 1703 4600 
Q 2078 4600 2393 4439 
Q 2709 4278 2876 4000 
Q 3044 3722 3044 3409 
Q 3044 3113 2884 2869 
Q 2725 2625 2413 2481 
Q 2819 2388 3044 2092 
Q 3269 1797 3269 1353 
Q 3269 753 2831 336 
Q 2394 -81 1725 -81 
Q 1122 -81 723 278 
Q 325 638 269 1209 
z
" transform="scale(0.015625)"/>
        <path id="ArialMT-38" d="M 1131 2484 
Q 781 2613 612 2850 
Q 444 3088 444 3419 
Q 444 3919 803 4259 
Q 1163 4600 1759 4600 
Q 2359 4600 2725 4251 
Q 3091 3903 3091 3403 
Q 3091 3084 2923 2848 
Q 2756 2613 2416 2484 
Q 2838 2347 3058 2040 
Q 3278 1734 3278 1309 
Q 3278 722 2862 322 
Q 2447 -78 1769 -78 
Q 1091 -78 675 323 
Q 259 725 259 1325 
Q 259 1772 486 2073 
Q 713 2375 1131 2484 
z
M 1019 3438 
Q 1019 3113 1228 2906 
Q 1438 2700 1772 2700 
Q 2097 2700 2305 2904 
Q 2513 3109 2513 3406 
Q 2513 3716 2298 3927 
Q 2084 4138 1766 4138 
Q 1444 4138 1231 3931 
Q 1019 3725 1019 3438 
z
M 838 1322 
Q 838 1081 952 856 
Q 1066 631 1291 507 
Q 1516 384 1775 384 
Q 2178 384 2440 643 
Q 2703 903 2703 1303 
Q 2703 1709 2433 1975 
Q 2163 2241 1756 2241 
Q 1359 2241 1098 1978 
Q 838 1716 838 1322 
z
" transform="scale(0.015625)"/>
       </defs>
       <use xlink:href="#ArialMT-47"/>
       <use xlink:href="#ArialMT-52" x="77.783203"/>
       <use xlink:href="#ArialMT-43" x="150"/>
       <use xlink:href="#ArialMT-68" x="222.216797"/>
       <use xlink:href="#ArialMT-33" x="277.832031"/>
       <use xlink:href="#ArialMT-38" x="333.447266"/>
      </g>
     </g>
    </g>
    <g id="xtick_2">
     <g id="text_2">
      <!-- CONTAMINANT -->
      <g style="fill: #262626" transform="translate(323.644687 519.589375)scale(0.12 -0.12)">
       <defs>
        <path id="ArialMT-4f" d="M 309 2231 
Q 309 3372 921 4017 
Q 1534 4663 2503 4663 
Q 3138 4663 3647 4359 
Q 4156 4056 4423 3514 
Q 4691 2972 4691 2284 
Q 4691 1588 4409 1038 
Q 4128 488 3612 205 
Q 3097 -78 2500 -78 
Q 1853 -78 1343 234 
Q 834 547 571 1087 
Q 309 1628 309 2231 
z
M 934 2222 
Q 934 1394 1379 917 
Q 1825 441 2497 441 
Q 3181 441 3623 922 
Q 4066 1403 4066 2288 
Q 4066 2847 3877 3264 
Q 3688 3681 3323 3911 
Q 2959 4141 2506 4141 
Q 1863 4141 1398 3698 
Q 934 3256 934 2222 
z
" transform="scale(0.015625)"/>
        <path id="ArialMT-4e" d="M 488 0 
L 488 4581 
L 1109 4581 
L 3516 984 
L 3516 4581 
L 4097 4581 
L 4097 0 
L 3475 0 
L 1069 3600 
L 1069 0 
L 488 0 
z
" transform="scale(0.015625)"/>
        <path id="ArialMT-54" d="M 1659 0 
L 1659 4041 
L 150 4041 
L 150 4581 
L 3781 4581 
L 3781 4041 
L 2266 4041 
L 2266 0 
L 1659 0 
z
" transform="scale(0.015625)"/>
        <path id="ArialMT-41" d="M -9 0 
L 1750 4581 
L 2403 4581 
L 4278 0 
L 3588 0 
L 3053 1388 
L 1138 1388 
L 634 0 
L -9 0 
z
M 1313 1881 
L 2866 1881 
L 2388 3150 
Q 2169 3728 2063 4100 
Q 1975 3659 1816 3225 
L 1313 1881 
z
" transform="scale(0.015625)"/>
        <path id="ArialMT-4d" d="M 475 0 
L 475 4581 
L 1388 4581 
L 2472 1338 
Q 2622 884 2691 659 
Q 2769 909 2934 1394 
L 4031 4581 
L 4847 4581 
L 4847 0 
L 4263 0 
L 4263 3834 
L 2931 0 
L 2384 0 
L 1059 3900 
L 1059 0 
L 475 0 
z
" transform="scale(0.015625)"/>
        <path id="ArialMT-49" d="M 597 0 
L 597 4581 
L 1203 4581 
L 1203 0 
L 597 0 
z
" transform="scale(0.015625)"/>
       </defs>
       <use xlink:href="#ArialMT-43"/>
       <use xlink:href="#ArialMT-4f" x="72.216797"/>
       <use xlink:href="#ArialMT-4e" x="150"/>
       <use xlink:href="#ArialMT-54" x="222.216797"/>
       <use xlink:href="#ArialMT-41" x="275.925781"/>
       <use xlink:href="#ArialMT-4d" x="342.625"/>
       <use xlink:href="#ArialMT-49" x="425.925781"/>
       <use xlink:href="#ArialMT-4e" x="453.708984"/>
       <use xlink:href="#ArialMT-41" x="525.925781"/>
       <use xlink:href="#ArialMT-4e" x="592.625"/>
       <use xlink:href="#ArialMT-54" x="664.841797"/>
      </g>
     </g>
    </g>
    <g id="xtick_3">
     <g id="text_3">
      <!-- GCA -->
      <g style="fill: #262626" transform="translate(502.997813 519.589375)scale(0.12 -0.12)">
       <use xlink:href="#ArialMT-47"/>
       <use xlink:href="#ArialMT-43" x="77.783203"/>
       <use xlink:href="#ArialMT-41" x="150"/>
      </g>
     </g>
    </g>
    <g id="xtick_4">
     <g id="text_4">
      <!-- DECOY_GRCh38 -->
      <g style="fill: #262626" transform="translate(616.783125 519.743125)scale(0.12 -0.12)">
       <defs>
        <path id="ArialMT-44" d="M 494 0 
L 494 4581 
L 2072 4581 
Q 2606 4581 2888 4516 
Q 3281 4425 3559 4188 
Q 3922 3881 4101 3404 
Q 4281 2928 4281 2316 
Q 4281 1794 4159 1391 
Q 4038 988 3847 723 
Q 3656 459 3429 307 
Q 3203 156 2883 78 
Q 2563 0 2147 0 
L 494 0 
z
M 1100 541 
L 2078 541 
Q 2531 541 2789 625 
Q 3047 709 3200 863 
Q 3416 1078 3536 1442 
Q 3656 1806 3656 2325 
Q 3656 3044 3420 3430 
Q 3184 3816 2847 3947 
Q 2603 4041 2063 4041 
L 1100 4041 
L 1100 541 
z
" transform="scale(0.015625)"/>
        <path id="ArialMT-45" d="M 506 0 
L 506 4581 
L 3819 4581 
L 3819 4041 
L 1113 4041 
L 1113 2638 
L 3647 2638 
L 3647 2100 
L 1113 2100 
L 1113 541 
L 3925 541 
L 3925 0 
L 506 0 
z
" transform="scale(0.015625)"/>
        <path id="ArialMT-59" d="M 1784 0 
L 1784 1941 
L 19 4581 
L 756 4581 
L 1659 3200 
Q 1909 2813 2125 2425 
Q 2331 2784 2625 3234 
L 3513 4581 
L 4219 4581 
L 2391 1941 
L 2391 0 
L 1784 0 
z
" transform="scale(0.015625)"/>
        <path id="ArialMT-5f" d="M -97 -1272 
L -97 -866 
L 3631 -866 
L 3631 -1272 
L -97 -1272 
z
" transform="scale(0.015625)"/>
       </defs>
       <use xlink:href="#ArialMT-44"/>
       <use xlink:href="#ArialMT-45" x="72.216797"/>
       <use xlink:href="#ArialMT-43" x="138.916016"/>
       <use xlink:href="#ArialMT-4f" x="211.132812"/>
       <use xlink:href="#ArialMT-59" x="288.916016"/>
       <use xlink:href="#ArialMT-5f" x="355.615234"/>
       <use xlink:href="#ArialMT-47" x="411.230469"/>
       <use xlink:href="#ArialMT-52" x="489.013672"/>
       <use xlink:href="#ArialMT-43" x="561.230469"/>
       <use xlink:href="#ArialMT-68" x="633.447266"/>
       <use xlink:href="#ArialMT-33" x="689.0625"/>
       <use xlink:href="#ArialMT-38" x="744.677734"/>
      </g>
     </g>
    </g>
    <g id="xtick_5">
     <g id="text_5">
      <!-- DECOY_CONTAMINANT -->
      <g style="fill: #262626" transform="translate(745.370625 519.743125)scale(0.12 -0.12)">
       <use xlink:href="#ArialMT-44"/>
       <use xlink:href="#ArialMT-45" x="72.216797"/>
       <use xlink:href="#ArialMT-43" x="138.916016"/>
       <use xlink:href="#ArialMT-4f" x="211.132812"/>
       <use xlink:href="#ArialMT-59" x="288.916016"/>
       <use xlink:href="#ArialMT-5f" x="355.615234"/>
       <use xlink:href="#ArialMT-43" x="411.230469"/>
       <use xlink:href="#ArialMT-4f" x="483.447266"/>
       <use xlink:href="#ArialMT-4e" x="561.230469"/>
       <use xlink:href="#ArialMT-54" x="633.447266"/>
       <use xlink:href="#ArialMT-41" x="687.15625"/>
       <use xlink:href="#ArialMT-4d" x="753.855469"/>
       <use xlink:href="#ArialMT-49" x="837.15625"/>
       <use xlink:href="#ArialMT-4e" x="864.939453"/>
       <use xlink:href="#ArialMT-41" x="937.15625"/>
       <use xlink:href="#ArialMT-4e" x="1003.855469"/>
       <use xlink:href="#ArialMT-54" x="1076.072266"/>
      </g>
     </g>
    </g>
    <g id="xtick_6">
     <g id="text_6">
      <!-- DECOY_GCA -->
      <g style="fill: #262626" transform="translate(924.72375 519.743125)scale(0.12 -0.12)">
       <use xlink:href="#ArialMT-44"/>
       <use xlink:href="#ArialMT-45" x="72.216797"/>
       <use xlink:href="#ArialMT-43" x="138.916016"/>
       <use xlink:href="#ArialMT-4f" x="211.132812"/>
       <use xlink:href="#ArialMT-59" x="288.916016"/>
       <use xlink:href="#ArialMT-5f" x="355.615234"/>
       <use xlink:href="#ArialMT-47" x="411.230469"/>
       <use xlink:href="#ArialMT-43" x="489.013672"/>
       <use xlink:href="#ArialMT-41" x="561.230469"/>
      </g>
     </g>
    </g>
    <g id="text_7">
     <!-- prot_source -->
     <g style="fill: #262626" transform="translate(548.1575 537.580625)scale(0.16 -0.16)">
      <defs>
       <path id="ArialMT-70" d="M 422 -1272 
L 422 3319 
L 934 3319 
L 934 2888 
Q 1116 3141 1344 3267 
Q 1572 3394 1897 3394 
Q 2322 3394 2647 3175 
Q 2972 2956 3137 2557 
Q 3303 2159 3303 1684 
Q 3303 1175 3120 767 
Q 2938 359 2589 142 
Q 2241 -75 1856 -75 
Q 1575 -75 1351 44 
Q 1128 163 984 344 
L 984 -1272 
L 422 -1272 
z
M 931 1641 
Q 931 1000 1190 694 
Q 1450 388 1819 388 
Q 2194 388 2461 705 
Q 2728 1022 2728 1688 
Q 2728 2322 2467 2637 
Q 2206 2953 1844 2953 
Q 1484 2953 1207 2617 
Q 931 2281 931 1641 
z
" transform="scale(0.015625)"/>
       <path id="ArialMT-72" d="M 416 0 
L 416 3319 
L 922 3319 
L 922 2816 
Q 1116 3169 1280 3281 
Q 1444 3394 1641 3394 
Q 1925 3394 2219 3213 
L 2025 2691 
Q 1819 2813 1613 2813 
Q 1428 2813 1281 2702 
Q 1134 2591 1072 2394 
Q 978 2094 978 1738 
L 978 0 
L 416 0 
z
" transform="scale(0.015625)"/>
       <path id="ArialMT-6f" d="M 213 1659 
Q 213 2581 725 3025 
Q 1153 3394 1769 3394 
Q 2453 3394 2887 2945 
Q 3322 2497 3322 1706 
Q 3322 1066 3130 698 
Q 2938 331 2570 128 
Q 2203 -75 1769 -75 
Q 1072 -75 642 372 
Q 213 819 213 1659 
z
M 791 1659 
Q 791 1022 1069 705 
Q 1347 388 1769 388 
Q 2188 388 2466 706 
Q 2744 1025 2744 1678 
Q 2744 2294 2464 2611 
Q 2184 2928 1769 2928 
Q 1347 2928 1069 2612 
Q 791 2297 791 1659 
z
" transform="scale(0.015625)"/>
       <path id="ArialMT-74" d="M 1650 503 
L 1731 6 
Q 1494 -44 1306 -44 
Q 1000 -44 831 53 
Q 663 150 594 308 
Q 525 466 525 972 
L 525 2881 
L 113 2881 
L 113 3319 
L 525 3319 
L 525 4141 
L 1084 4478 
L 1084 3319 
L 1650 3319 
L 1650 2881 
L 1084 2881 
L 1084 941 
Q 1084 700 1114 631 
Q 1144 563 1211 522 
Q 1278 481 1403 481 
Q 1497 481 1650 503 
z
" transform="scale(0.015625)"/>
       <path id="ArialMT-73" d="M 197 991 
L 753 1078 
Q 800 744 1014 566 
Q 1228 388 1613 388 
Q 2000 388 2187 545 
Q 2375 703 2375 916 
Q 2375 1106 2209 1216 
Q 2094 1291 1634 1406 
Q 1016 1563 777 1677 
Q 538 1791 414 1992 
Q 291 2194 291 2438 
Q 291 2659 392 2848 
Q 494 3038 669 3163 
Q 800 3259 1026 3326 
Q 1253 3394 1513 3394 
Q 1903 3394 2198 3281 
Q 2494 3169 2634 2976 
Q 2775 2784 2828 2463 
L 2278 2388 
Q 2241 2644 2061 2787 
Q 1881 2931 1553 2931 
Q 1166 2931 1000 2803 
Q 834 2675 834 2503 
Q 834 2394 903 2306 
Q 972 2216 1119 2156 
Q 1203 2125 1616 2013 
Q 2213 1853 2448 1751 
Q 2684 1650 2818 1456 
Q 2953 1263 2953 975 
Q 2953 694 2789 445 
Q 2625 197 2315 61 
Q 2006 -75 1616 -75 
Q 969 -75 630 194 
Q 291 463 197 991 
z
" transform="scale(0.015625)"/>
       <path id="ArialMT-75" d="M 2597 0 
L 2597 488 
Q 2209 -75 1544 -75 
Q 1250 -75 995 37 
Q 741 150 617 320 
Q 494 491 444 738 
Q 409 903 409 1263 
L 409 3319 
L 972 3319 
L 972 1478 
Q 972 1038 1006 884 
Q 1059 663 1231 536 
Q 1403 409 1656 409 
Q 1909 409 2131 539 
Q 2353 669 2445 892 
Q 2538 1116 2538 1541 
L 2538 3319 
L 3100 3319 
L 3100 0 
L 2597 0 
z
" transform="scale(0.015625)"/>
       <path id="ArialMT-63" d="M 2588 1216 
L 3141 1144 
Q 3050 572 2676 248 
Q 2303 -75 1759 -75 
Q 1078 -75 664 370 
Q 250 816 250 1647 
Q 250 2184 428 2587 
Q 606 2991 970 3192 
Q 1334 3394 1763 3394 
Q 2303 3394 2647 3120 
Q 2991 2847 3088 2344 
L 2541 2259 
Q 2463 2594 2264 2762 
Q 2066 2931 1784 2931 
Q 1359 2931 1093 2626 
Q 828 2322 828 1663 
Q 828 994 1084 691 
Q 1341 388 1753 388 
Q 2084 388 2306 591 
Q 2528 794 2588 1216 
z
" transform="scale(0.015625)"/>
       <path id="ArialMT-65" d="M 2694 1069 
L 3275 997 
Q 3138 488 2766 206 
Q 2394 -75 1816 -75 
Q 1088 -75 661 373 
Q 234 822 234 1631 
Q 234 2469 665 2931 
Q 1097 3394 1784 3394 
Q 2450 3394 2872 2941 
Q 3294 2488 3294 1666 
Q 3294 1616 3291 1516 
L 816 1516 
Q 847 969 1125 678 
Q 1403 388 1819 388 
Q 2128 388 2347 550 
Q 2566 713 2694 1069 
z
M 847 1978 
L 2700 1978 
Q 2663 2397 2488 2606 
Q 2219 2931 1791 2931 
Q 1403 2931 1139 2672 
Q 875 2413 847 1978 
z
" transform="scale(0.015625)"/>
      </defs>
      <use xlink:href="#ArialMT-70"/>
      <use xlink:href="#ArialMT-72" x="55.615234"/>
      <use xlink:href="#ArialMT-6f" x="88.916016"/>
      <use xlink:href="#ArialMT-74" x="144.53125"/>
      <use xlink:href="#ArialMT-5f" x="172.314453"/>
      <use xlink:href="#ArialMT-73" x="227.929688"/>
      <use xlink:href="#ArialMT-6f" x="277.929688"/>
      <use xlink:href="#ArialMT-75" x="333.544922"/>
      <use xlink:href="#ArialMT-72" x="389.160156"/>
      <use xlink:href="#ArialMT-63" x="422.460938"/>
      <use xlink:href="#ArialMT-65" x="472.460938"/>
     </g>
    </g>
   </g>
   <g id="matplotlib.axis_2">
    <g id="ytick_1">
     <g id="text_8">
      <!-- −0.002 -->
      <g style="fill: #262626" transform="translate(99.965 491.896773)scale(0.12 -0.12)">
       <defs>
        <path id="ArialMT-2212" d="M 3381 1997 
L 356 1997 
L 356 2522 
L 3381 2522 
L 3381 1997 
z
" transform="scale(0.015625)"/>
        <path id="ArialMT-30" d="M 266 2259 
Q 266 3072 433 3567 
Q 600 4063 929 4331 
Q 1259 4600 1759 4600 
Q 2128 4600 2406 4451 
Q 2684 4303 2865 4023 
Q 3047 3744 3150 3342 
Q 3253 2941 3253 2259 
Q 3253 1453 3087 958 
Q 2922 463 2592 192 
Q 2263 -78 1759 -78 
Q 1097 -78 719 397 
Q 266 969 266 2259 
z
M 844 2259 
Q 844 1131 1108 757 
Q 1372 384 1759 384 
Q 2147 384 2411 759 
Q 2675 1134 2675 2259 
Q 2675 3391 2411 3762 
Q 2147 4134 1753 4134 
Q 1366 4134 1134 3806 
Q 844 3388 844 2259 
z
" transform="scale(0.015625)"/>
        <path id="ArialMT-2e" d="M 581 0 
L 581 641 
L 1222 641 
L 1222 0 
L 581 0 
z
" transform="scale(0.015625)"/>
        <path id="ArialMT-32" d="M 3222 541 
L 3222 0 
L 194 0 
Q 188 203 259 391 
Q 375 700 629 1000 
Q 884 1300 1366 1694 
Q 2113 2306 2375 2664 
Q 2638 3022 2638 3341 
Q 2638 3675 2398 3904 
Q 2159 4134 1775 4134 
Q 1369 4134 1125 3890 
Q 881 3647 878 3216 
L 300 3275 
Q 359 3922 746 4261 
Q 1134 4600 1788 4600 
Q 2447 4600 2831 4234 
Q 3216 3869 3216 3328 
Q 3216 3053 3103 2787 
Q 2991 2522 2730 2228 
Q 2469 1934 1863 1422 
Q 1356 997 1212 845 
Q 1069 694 975 541 
L 3222 541 
z
" transform="scale(0.015625)"/>
       </defs>
       <use xlink:href="#ArialMT-2212"/>
       <use xlink:href="#ArialMT-30" x="58.398438"/>
       <use xlink:href="#ArialMT-2e" x="114.013672"/>
       <use xlink:href="#ArialMT-30" x="141.796875"/>
       <use xlink:href="#ArialMT-30" x="197.412109"/>
       <use xlink:href="#ArialMT-32" x="253.027344"/>
      </g>
     </g>
    </g>
    <g id="ytick_2">
     <g id="text_9">
      <!-- 0.000 -->
      <g style="fill: #262626" transform="translate(106.97375 434.575351)scale(0.12 -0.12)">
       <use xlink:href="#ArialMT-30"/>
       <use xlink:href="#ArialMT-2e" x="55.615234"/>
       <use xlink:href="#ArialMT-30" x="83.398438"/>
       <use xlink:href="#ArialMT-30" x="139.013672"/>
       <use xlink:href="#ArialMT-30" x="194.628906"/>
      </g>
     </g>
    </g>
    <g id="ytick_3">
     <g id="text_10">
      <!-- 0.002 -->
      <g style="fill: #262626" transform="translate(106.97375 377.25393)scale(0.12 -0.12)">
       <use xlink:href="#ArialMT-30"/>
       <use xlink:href="#ArialMT-2e" x="55.615234"/>
       <use xlink:href="#ArialMT-30" x="83.398438"/>
       <use xlink:href="#ArialMT-30" x="139.013672"/>
       <use xlink:href="#ArialMT-32" x="194.628906"/>
      </g>
     </g>
    </g>
    <g id="ytick_4">
     <g id="text_11">
      <!-- 0.004 -->
      <g style="fill: #262626" transform="translate(106.97375 319.932508)scale(0.12 -0.12)">
       <defs>
        <path id="ArialMT-34" d="M 2069 0 
L 2069 1097 
L 81 1097 
L 81 1613 
L 2172 4581 
L 2631 4581 
L 2631 1613 
L 3250 1613 
L 3250 1097 
L 2631 1097 
L 2631 0 
L 2069 0 
z
M 2069 1613 
L 2069 3678 
L 634 1613 
L 2069 1613 
z
" transform="scale(0.015625)"/>
       </defs>
       <use xlink:href="#ArialMT-30"/>
       <use xlink:href="#ArialMT-2e" x="55.615234"/>
       <use xlink:href="#ArialMT-30" x="83.398438"/>
       <use xlink:href="#ArialMT-30" x="139.013672"/>
       <use xlink:href="#ArialMT-34" x="194.628906"/>
      </g>
     </g>
    </g>
    <g id="ytick_5">
     <g id="text_12">
      <!-- 0.006 -->
      <g style="fill: #262626" transform="translate(106.97375 262.611086)scale(0.12 -0.12)">
       <defs>
        <path id="ArialMT-36" d="M 3184 3459 
L 2625 3416 
Q 2550 3747 2413 3897 
Q 2184 4138 1850 4138 
Q 1581 4138 1378 3988 
Q 1113 3794 959 3422 
Q 806 3050 800 2363 
Q 1003 2672 1297 2822 
Q 1591 2972 1913 2972 
Q 2475 2972 2870 2558 
Q 3266 2144 3266 1488 
Q 3266 1056 3080 686 
Q 2894 316 2569 119 
Q 2244 -78 1831 -78 
Q 1128 -78 684 439 
Q 241 956 241 2144 
Q 241 3472 731 4075 
Q 1159 4600 1884 4600 
Q 2425 4600 2770 4297 
Q 3116 3994 3184 3459 
z
M 888 1484 
Q 888 1194 1011 928 
Q 1134 663 1356 523 
Q 1578 384 1822 384 
Q 2178 384 2434 671 
Q 2691 959 2691 1453 
Q 2691 1928 2437 2201 
Q 2184 2475 1800 2475 
Q 1419 2475 1153 2201 
Q 888 1928 888 1484 
z
" transform="scale(0.015625)"/>
       </defs>
       <use xlink:href="#ArialMT-30"/>
       <use xlink:href="#ArialMT-2e" x="55.615234"/>
       <use xlink:href="#ArialMT-30" x="83.398438"/>
       <use xlink:href="#ArialMT-30" x="139.013672"/>
       <use xlink:href="#ArialMT-36" x="194.628906"/>
      </g>
     </g>
    </g>
    <g id="ytick_6">
     <g id="text_13">
      <!-- 0.008 -->
      <g style="fill: #262626" transform="translate(106.97375 205.289664)scale(0.12 -0.12)">
       <use xlink:href="#ArialMT-30"/>
       <use xlink:href="#ArialMT-2e" x="55.615234"/>
       <use xlink:href="#ArialMT-30" x="83.398438"/>
       <use xlink:href="#ArialMT-30" x="139.013672"/>
       <use xlink:href="#ArialMT-38" x="194.628906"/>
      </g>
     </g>
    </g>
    <g id="ytick_7">
     <g id="text_14">
      <!-- 0.010 -->
      <g style="fill: #262626" transform="translate(106.97375 147.968242)scale(0.12 -0.12)">
       <defs>
        <path id="ArialMT-31" d="M 2384 0 
L 1822 0 
L 1822 3584 
Q 1619 3391 1289 3197 
Q 959 3003 697 2906 
L 697 3450 
Q 1169 3672 1522 3987 
Q 1875 4303 2022 4600 
L 2384 4600 
L 2384 0 
z
" transform="scale(0.015625)"/>
       </defs>
       <use xlink:href="#ArialMT-30"/>
       <use xlink:href="#ArialMT-2e" x="55.615234"/>
       <use xlink:href="#ArialMT-30" x="83.398438"/>
       <use xlink:href="#ArialMT-31" x="139.013672"/>
       <use xlink:href="#ArialMT-30" x="194.628906"/>
      </g>
     </g>
    </g>
    <g id="ytick_8">
     <g id="text_15">
      <!-- 0.012 -->
      <g style="fill: #262626" transform="translate(106.97375 90.646821)scale(0.12 -0.12)">
       <use xlink:href="#ArialMT-30"/>
       <use xlink:href="#ArialMT-2e" x="55.615234"/>
       <use xlink:href="#ArialMT-30" x="83.398438"/>
       <use xlink:href="#ArialMT-31" x="139.013672"/>
       <use xlink:href="#ArialMT-32" x="194.628906"/>
      </g>
     </g>
    </g>
    <g id="text_16">
     <!-- posterior_error_probability -->
     <g style="fill: #262626" transform="translate(92.5975 379.93125)rotate(-90)scale(0.16 -0.16)">
      <defs>
       <path id="ArialMT-69" d="M 425 3934 
L 425 4581 
L 988 4581 
L 988 3934 
L 425 3934 
z
M 425 0 
L 425 3319 
L 988 3319 
L 988 0 
L 425 0 
z
" transform="scale(0.015625)"/>
       <path id="ArialMT-62" d="M 941 0 
L 419 0 
L 419 4581 
L 981 4581 
L 981 2947 
Q 1338 3394 1891 3394 
Q 2197 3394 2470 3270 
Q 2744 3147 2920 2923 
Q 3097 2700 3197 2384 
Q 3297 2069 3297 1709 
Q 3297 856 2875 390 
Q 2453 -75 1863 -75 
Q 1275 -75 941 416 
L 941 0 
z
M 934 1684 
Q 934 1088 1097 822 
Q 1363 388 1816 388 
Q 2184 388 2453 708 
Q 2722 1028 2722 1663 
Q 2722 2313 2464 2622 
Q 2206 2931 1841 2931 
Q 1472 2931 1203 2611 
Q 934 2291 934 1684 
z
" transform="scale(0.015625)"/>
       <path id="ArialMT-61" d="M 2588 409 
Q 2275 144 1986 34 
Q 1697 -75 1366 -75 
Q 819 -75 525 192 
Q 231 459 231 875 
Q 231 1119 342 1320 
Q 453 1522 633 1644 
Q 813 1766 1038 1828 
Q 1203 1872 1538 1913 
Q 2219 1994 2541 2106 
Q 2544 2222 2544 2253 
Q 2544 2597 2384 2738 
Q 2169 2928 1744 2928 
Q 1347 2928 1158 2789 
Q 969 2650 878 2297 
L 328 2372 
Q 403 2725 575 2942 
Q 747 3159 1072 3276 
Q 1397 3394 1825 3394 
Q 2250 3394 2515 3294 
Q 2781 3194 2906 3042 
Q 3031 2891 3081 2659 
Q 3109 2516 3109 2141 
L 3109 1391 
Q 3109 606 3145 398 
Q 3181 191 3288 0 
L 2700 0 
Q 2613 175 2588 409 
z
M 2541 1666 
Q 2234 1541 1622 1453 
Q 1275 1403 1131 1340 
Q 988 1278 909 1158 
Q 831 1038 831 891 
Q 831 666 1001 516 
Q 1172 366 1500 366 
Q 1825 366 2078 508 
Q 2331 650 2450 897 
Q 2541 1088 2541 1459 
L 2541 1666 
z
" transform="scale(0.015625)"/>
       <path id="ArialMT-6c" d="M 409 0 
L 409 4581 
L 972 4581 
L 972 0 
L 409 0 
z
" transform="scale(0.015625)"/>
       <path id="ArialMT-79" d="M 397 -1278 
L 334 -750 
Q 519 -800 656 -800 
Q 844 -800 956 -737 
Q 1069 -675 1141 -563 
Q 1194 -478 1313 -144 
Q 1328 -97 1363 -6 
L 103 3319 
L 709 3319 
L 1400 1397 
Q 1534 1031 1641 628 
Q 1738 1016 1872 1384 
L 2581 3319 
L 3144 3319 
L 1881 -56 
Q 1678 -603 1566 -809 
Q 1416 -1088 1222 -1217 
Q 1028 -1347 759 -1347 
Q 597 -1347 397 -1278 
z
" transform="scale(0.015625)"/>
      </defs>
      <use xlink:href="#ArialMT-70"/>
      <use xlink:href="#ArialMT-6f" x="55.615234"/>
      <use xlink:href="#ArialMT-73" x="111.230469"/>
      <use xlink:href="#ArialMT-74" x="161.230469"/>
      <use xlink:href="#ArialMT-65" x="189.013672"/>
      <use xlink:href="#ArialMT-72" x="244.628906"/>
      <use xlink:href="#ArialMT-69" x="277.929688"/>
      <use xlink:href="#ArialMT-6f" x="300.146484"/>
      <use xlink:href="#ArialMT-72" x="355.761719"/>
      <use xlink:href="#ArialMT-5f" x="389.0625"/>
      <use xlink:href="#ArialMT-65" x="444.677734"/>
      <use xlink:href="#ArialMT-72" x="500.292969"/>
      <use xlink:href="#ArialMT-72" x="533.59375"/>
      <use xlink:href="#ArialMT-6f" x="566.894531"/>
      <use xlink:href="#ArialMT-72" x="622.509766"/>
      <use xlink:href="#ArialMT-5f" x="655.810547"/>
      <use xlink:href="#ArialMT-70" x="711.425781"/>
      <use xlink:href="#ArialMT-72" x="767.041016"/>
      <use xlink:href="#ArialMT-6f" x="800.341797"/>
      <use xlink:href="#ArialMT-62" x="855.957031"/>
      <use xlink:href="#ArialMT-61" x="911.572266"/>
      <use xlink:href="#ArialMT-62" x="967.1875"/>
      <use xlink:href="#ArialMT-69" x="1022.802734"/>
      <use xlink:href="#ArialMT-6c" x="1045.019531"/>
      <use xlink:href="#ArialMT-69" x="1067.236328"/>
      <use xlink:href="#ArialMT-74" x="1089.453125"/>
      <use xlink:href="#ArialMT-79" x="1117.236328"/>
     </g>
    </g>
   </g>
   <g id="PolyCollection_1">
    <defs>
     <path id="m42ca086514" d="M 222.86661 -139.977257 
L 213.93339 -139.977257 
L 194.847023 -142.988277 
L 173.76 -145.999297 
L 183.796894 -149.010317 
L 201.94476 -152.021337 
L 209.210207 -155.032357 
L 211.701557 -158.043377 
L 213.009795 -161.054397 
L 213.86147 -164.065417 
L 214.467531 -167.076437 
L 214.92712 -170.087457 
L 215.292081 -173.098477 
L 215.586505 -176.109497 
L 215.827032 -179.120517 
L 216.027114 -182.131537 
L 216.198979 -185.142557 
L 216.350164 -188.153577 
L 216.481581 -191.164597 
L 216.595625 -194.175617 
L 216.6935 -197.186637 
L 216.78117 -200.197657 
L 216.86223 -203.208677 
L 216.935466 -206.219697 
L 217.001531 -209.230717 
L 217.062116 -212.241737 
L 217.120836 -215.252757 
L 217.174707 -218.263777 
L 217.224102 -221.274797 
L 217.26988 -224.285817 
L 217.306466 -227.296837 
L 217.339834 -230.307857 
L 217.37428 -233.318877 
L 217.403088 -236.329897 
L 217.432138 -239.340917 
L 217.464626 -242.351937 
L 217.493869 -245.362957 
L 217.518478 -248.373977 
L 217.542143 -251.384997 
L 217.566929 -254.396017 
L 217.591064 -257.407037 
L 217.613991 -260.418057 
L 217.636911 -263.429077 
L 217.657727 -266.440097 
L 217.675983 -269.451117 
L 217.689839 -272.462137 
L 217.704334 -275.473157 
L 217.721042 -278.484177 
L 217.73576 -281.495197 
L 217.749647 -284.506217 
L 217.762375 -287.517237 
L 217.774703 -290.528257 
L 217.785892 -293.539277 
L 217.794893 -296.550297 
L 217.804511 -299.561317 
L 217.818343 -302.572337 
L 217.832569 -305.583357 
L 217.844358 -308.594377 
L 217.856054 -311.605397 
L 217.866051 -314.616417 
L 217.873739 -317.627437 
L 217.884123 -320.638457 
L 217.895416 -323.649477 
L 217.902952 -326.660497 
L 217.910626 -329.671517 
L 217.920342 -332.682537 
L 217.927982 -335.693557 
L 217.932737 -338.704577 
L 217.93748 -341.715597 
L 217.944756 -344.726617 
L 217.952985 -347.737637 
L 217.959948 -350.748657 
L 217.965198 -353.759677 
L 217.97068 -356.770697 
L 217.977763 -359.781717 
L 217.985621 -362.792737 
L 217.992537 -365.803757 
L 217.995731 -368.814777 
L 217.998151 -371.825797 
L 218.00433 -374.836817 
L 218.011139 -377.847837 
L 218.015495 -380.858857 
L 218.021751 -383.869877 
L 218.029244 -386.880897 
L 218.032833 -389.891917 
L 218.033852 -392.902937 
L 218.037419 -395.913957 
L 218.041377 -398.924977 
L 218.04741 -401.935997 
L 218.055701 -404.947017 
L 218.061416 -407.958037 
L 218.064591 -410.969057 
L 218.065433 -413.980077 
L 218.067423 -416.991097 
L 218.070765 -420.002117 
L 218.076011 -423.013137 
L 218.085246 -426.024157 
L 218.123697 -429.035177 
L 218.230562 -432.046197 
L 218.346346 -435.057217 
L 218.392836 -438.068237 
L 218.407164 -438.068237 
L 218.407164 -438.068237 
L 218.453654 -435.057217 
L 218.569438 -432.046197 
L 218.676303 -429.035177 
L 218.714754 -426.024157 
L 218.723989 -423.013137 
L 218.729235 -420.002117 
L 218.732577 -416.991097 
L 218.734567 -413.980077 
L 218.735409 -410.969057 
L 218.738584 -407.958037 
L 218.744299 -404.947017 
L 218.75259 -401.935997 
L 218.758623 -398.924977 
L 218.762581 -395.913957 
L 218.766148 -392.902937 
L 218.767167 -389.891917 
L 218.770756 -386.880897 
L 218.778249 -383.869877 
L 218.784505 -380.858857 
L 218.788861 -377.847837 
L 218.79567 -374.836817 
L 218.801849 -371.825797 
L 218.804269 -368.814777 
L 218.807463 -365.803757 
L 218.814379 -362.792737 
L 218.822237 -359.781717 
L 218.82932 -356.770697 
L 218.834802 -353.759677 
L 218.840052 -350.748657 
L 218.847015 -347.737637 
L 218.855244 -344.726617 
L 218.86252 -341.715597 
L 218.867263 -338.704577 
L 218.872018 -335.693557 
L 218.879658 -332.682537 
L 218.889374 -329.671517 
L 218.897048 -326.660497 
L 218.904584 -323.649477 
L 218.915877 -320.638457 
L 218.926261 -317.627437 
L 218.933949 -314.616417 
L 218.943946 -311.605397 
L 218.955642 -308.594377 
L 218.967431 -305.583357 
L 218.981657 -302.572337 
L 218.995489 -299.561317 
L 219.005107 -296.550297 
L 219.014108 -293.539277 
L 219.025297 -290.528257 
L 219.037625 -287.517237 
L 219.050353 -284.506217 
L 219.06424 -281.495197 
L 219.078958 -278.484177 
L 219.095666 -275.473157 
L 219.110161 -272.462137 
L 219.124017 -269.451117 
L 219.142273 -266.440097 
L 219.163089 -263.429077 
L 219.186009 -260.418057 
L 219.208936 -257.407037 
L 219.233071 -254.396017 
L 219.257857 -251.384997 
L 219.281522 -248.373977 
L 219.306131 -245.362957 
L 219.335374 -242.351937 
L 219.367862 -239.340917 
L 219.396912 -236.329897 
L 219.42572 -233.318877 
L 219.460166 -230.307857 
L 219.493534 -227.296837 
L 219.53012 -224.285817 
L 219.575898 -221.274797 
L 219.625293 -218.263777 
L 219.679164 -215.252757 
L 219.737884 -212.241737 
L 219.798469 -209.230717 
L 219.864534 -206.219697 
L 219.93777 -203.208677 
L 220.01883 -200.197657 
L 220.1065 -197.186637 
L 220.204375 -194.175617 
L 220.318419 -191.164597 
L 220.449836 -188.153577 
L 220.601021 -185.142557 
L 220.772886 -182.131537 
L 220.972968 -179.120517 
L 221.213495 -176.109497 
L 221.507919 -173.098477 
L 221.87288 -170.087457 
L 222.332469 -167.076437 
L 222.93853 -164.065417 
L 223.790205 -161.054397 
L 225.098443 -158.043377 
L 227.589793 -155.032357 
L 234.85524 -152.021337 
L 253.003106 -149.010317 
L 263.04 -145.999297 
L 241.952977 -142.988277 
L 222.86661 -139.977257 
z
" style="stroke: #5a5a5a; stroke-width: 1.5"/>
    </defs>
    <g clip-path="url(#pfe467a0fa6)">
     <use xlink:href="#m42ca086514" x="0" y="576" style="fill: #7891b5; stroke: #5a5a5a; stroke-width: 1.5"/>
    </g>
   </g>
   <g id="PolyCollection_2">
    <defs>
     <path id="m7765dbdf5d" d="M 369.873287 -135.675472 
L 364.526713 -135.675472 
L 359.120291 -138.773386 
L 350.198452 -141.871299 
L 342.001901 -144.969212 
L 340.288546 -148.067125 
L 345.496717 -151.165038 
L 352.697967 -154.262951 
L 357.896873 -157.360865 
L 360.657346 -160.458778 
L 362.042207 -163.556691 
L 362.844762 -166.654604 
L 363.39113 -169.752517 
L 363.796458 -172.85043 
L 364.114718 -175.948344 
L 364.378417 -179.046257 
L 364.604098 -182.14417 
L 364.799587 -185.242083 
L 364.970014 -188.339996 
L 365.116742 -191.437909 
L 365.23837 -194.535823 
L 365.337414 -197.633736 
L 365.422882 -200.731649 
L 365.504694 -203.829562 
L 365.587309 -206.927475 
L 365.668751 -210.025388 
L 365.744559 -213.123302 
L 365.811864 -216.221215 
L 365.871684 -219.319128 
L 365.928533 -222.417041 
L 365.984639 -225.514954 
L 366.035339 -228.612867 
L 366.074559 -231.710781 
L 366.102934 -234.808694 
L 366.127415 -237.906607 
L 366.154859 -241.00452 
L 366.186971 -244.102433 
L 366.219935 -247.200346 
L 366.248716 -250.29826 
L 366.272417 -253.396173 
L 366.294997 -256.494086 
L 366.319859 -259.591999 
L 366.345053 -262.689912 
L 366.366133 -265.787825 
L 366.382889 -268.885739 
L 366.400339 -271.983652 
L 366.422044 -275.081565 
L 366.445192 -278.179478 
L 366.465035 -281.277391 
L 366.481323 -284.375304 
L 366.496798 -287.473218 
L 366.512494 -290.571131 
L 366.528202 -293.669044 
L 366.544538 -296.766957 
L 366.561513 -299.86487 
L 366.577714 -302.962783 
L 366.592336 -306.060697 
L 366.605828 -309.15861 
L 366.618551 -312.256523 
L 366.630178 -315.354436 
L 366.640325 -318.452349 
L 366.649038 -321.550262 
L 366.656372 -324.648176 
L 366.66207 -327.746089 
L 366.666434 -330.844002 
L 366.671048 -333.941915 
L 366.677904 -337.039828 
L 366.687995 -340.137741 
L 366.700685 -343.235655 
L 366.714004 -346.333568 
L 366.725172 -349.431481 
L 366.731933 -352.529394 
L 366.734879 -355.627307 
L 366.737408 -358.72522 
L 366.742643 -361.823134 
L 366.751312 -364.921047 
L 366.762232 -368.01896 
L 366.773671 -371.116873 
L 366.783905 -374.214786 
L 366.79135 -377.312699 
L 366.79515 -380.410613 
L 366.79588 -383.508526 
L 366.795452 -386.606439 
L 366.795662 -389.704352 
L 366.797102 -392.802265 
L 366.800496 -395.900178 
L 366.807185 -398.998092 
L 366.816265 -402.096005 
L 366.824143 -405.193918 
L 366.829076 -408.291831 
L 366.833178 -411.389744 
L 366.83846 -414.487657 
L 366.844159 -417.585571 
L 366.850052 -420.683484 
L 366.86186 -423.781397 
L 366.892919 -426.87931 
L 366.954736 -429.977223 
L 367.039242 -433.075136 
L 367.118275 -436.17305 
L 367.169036 -439.270963 
L 367.191485 -442.368876 
L 367.208515 -442.368876 
L 367.208515 -442.368876 
L 367.230964 -439.270963 
L 367.281725 -436.17305 
L 367.360758 -433.075136 
L 367.445264 -429.977223 
L 367.507081 -426.87931 
L 367.53814 -423.781397 
L 367.549948 -420.683484 
L 367.555841 -417.585571 
L 367.56154 -414.487657 
L 367.566822 -411.389744 
L 367.570924 -408.291831 
L 367.575857 -405.193918 
L 367.583735 -402.096005 
L 367.592815 -398.998092 
L 367.599504 -395.900178 
L 367.602898 -392.802265 
L 367.604338 -389.704352 
L 367.604548 -386.606439 
L 367.60412 -383.508526 
L 367.60485 -380.410613 
L 367.60865 -377.312699 
L 367.616095 -374.214786 
L 367.626329 -371.116873 
L 367.637768 -368.01896 
L 367.648688 -364.921047 
L 367.657357 -361.823134 
L 367.662592 -358.72522 
L 367.665121 -355.627307 
L 367.668067 -352.529394 
L 367.674828 -349.431481 
L 367.685996 -346.333568 
L 367.699315 -343.235655 
L 367.712005 -340.137741 
L 367.722096 -337.039828 
L 367.728952 -333.941915 
L 367.733566 -330.844002 
L 367.73793 -327.746089 
L 367.743628 -324.648176 
L 367.750962 -321.550262 
L 367.759675 -318.452349 
L 367.769822 -315.354436 
L 367.781449 -312.256523 
L 367.794172 -309.15861 
L 367.807664 -306.060697 
L 367.822286 -302.962783 
L 367.838487 -299.86487 
L 367.855462 -296.766957 
L 367.871798 -293.669044 
L 367.887506 -290.571131 
L 367.903202 -287.473218 
L 367.918677 -284.375304 
L 367.934965 -281.277391 
L 367.954808 -278.179478 
L 367.977956 -275.081565 
L 367.999661 -271.983652 
L 368.017111 -268.885739 
L 368.033867 -265.787825 
L 368.054947 -262.689912 
L 368.080141 -259.591999 
L 368.105003 -256.494086 
L 368.127583 -253.396173 
L 368.151284 -250.29826 
L 368.180065 -247.200346 
L 368.213029 -244.102433 
L 368.245141 -241.00452 
L 368.272585 -237.906607 
L 368.297066 -234.808694 
L 368.325441 -231.710781 
L 368.364661 -228.612867 
L 368.415361 -225.514954 
L 368.471467 -222.417041 
L 368.528316 -219.319128 
L 368.588136 -216.221215 
L 368.655441 -213.123302 
L 368.731249 -210.025388 
L 368.812691 -206.927475 
L 368.895306 -203.829562 
L 368.977118 -200.731649 
L 369.062586 -197.633736 
L 369.16163 -194.535823 
L 369.283258 -191.437909 
L 369.429986 -188.339996 
L 369.600413 -185.242083 
L 369.795902 -182.14417 
L 370.021583 -179.046257 
L 370.285282 -175.948344 
L 370.603542 -172.85043 
L 371.00887 -169.752517 
L 371.555238 -166.654604 
L 372.357793 -163.556691 
L 373.742654 -160.458778 
L 376.503127 -157.360865 
L 381.702033 -154.262951 
L 388.903283 -151.165038 
L 394.111454 -148.067125 
L 392.398099 -144.969212 
L 384.201548 -141.871299 
L 375.279709 -138.773386 
L 369.873287 -135.675472 
z
" style="stroke: #5a5a5a; stroke-width: 1.5"/>
    </defs>
    <g clip-path="url(#pfe467a0fa6)">
     <use xlink:href="#m7765dbdf5d" x="0" y="576" style="fill: #aeb9cb; stroke: #5a5a5a; stroke-width: 1.5"/>
    </g>
   </g>
   <g id="PolyCollection_3">
    <defs>
     <path id="m6a887de79f" d="M 518.699508 -131.687964 
L 513.300492 -131.687964 
L 509.778466 -134.866224 
L 504.247322 -138.044485 
L 497.755046 -141.222745 
L 492.624304 -144.401006 
L 491.103739 -147.579266 
L 493.676364 -150.757527 
L 498.758584 -153.935787 
L 504.059657 -157.114048 
L 508.099846 -160.292308 
L 510.610061 -163.470568 
L 512.004303 -166.648829 
L 512.777798 -169.827089 
L 513.253869 -173.00535 
L 513.589158 -176.18361 
L 513.846391 -179.361871 
L 514.049382 -182.540131 
L 514.210807 -185.718392 
L 514.341093 -188.896652 
L 514.448283 -192.074912 
L 514.537664 -195.253173 
L 514.613902 -198.431433 
L 514.682375 -201.609694 
L 514.747443 -204.787954 
L 514.809945 -207.966215 
L 514.867278 -211.144475 
L 514.916311 -214.322736 
L 514.956402 -217.500996 
L 514.990015 -220.679257 
L 515.020989 -223.857517 
L 515.052452 -227.035777 
L 515.085838 -230.214038 
L 515.12099 -233.392298 
L 515.156861 -236.570559 
L 515.192463 -239.748819 
L 515.227383 -242.92708 
L 515.261071 -246.10534 
L 515.291711 -249.283601 
L 515.316681 -252.461861 
L 515.334826 -255.640122 
L 515.347992 -258.818382 
L 515.359811 -261.996642 
L 515.372919 -265.174903 
L 515.387575 -268.353163 
L 515.403005 -271.531424 
L 515.419542 -274.709684 
L 515.438616 -277.887945 
L 515.460487 -281.066205 
L 515.482833 -284.244466 
L 515.502215 -287.422726 
L 515.516713 -290.600986 
L 515.526777 -293.779247 
L 515.534009 -296.957507 
L 515.539923 -300.135768 
L 515.5459 -303.314028 
L 515.553466 -306.492289 
L 515.563737 -309.670549 
L 515.57643 -312.84881 
L 515.589692 -316.02707 
L 515.601117 -319.205331 
L 515.608954 -322.383591 
L 515.612613 -325.561851 
L 515.612631 -328.740112 
L 515.610656 -331.918372 
L 515.60944 -335.096633 
L 515.612134 -338.274893 
L 515.620594 -341.453154 
L 515.633932 -344.631414 
L 515.649003 -347.809675 
L 515.662503 -350.987935 
L 515.6725 -354.166196 
L 515.678479 -357.344456 
L 515.680957 -360.522716 
L 515.681266 -363.700977 
L 515.681004 -366.879237 
L 515.681275 -370.057498 
L 515.68258 -373.235758 
L 515.68525 -376.414019 
L 515.68952 -379.592279 
L 515.695053 -382.77054 
L 515.700567 -385.9488 
L 515.704184 -389.127061 
L 515.704472 -392.305321 
L 515.701672 -395.483581 
L 515.69811 -398.661842 
L 515.697013 -401.840102 
L 515.700274 -405.018363 
L 515.707119 -408.196623 
L 515.715158 -411.374884 
L 515.722877 -414.553144 
L 515.731222 -417.731405 
L 515.743321 -420.909665 
L 515.763271 -424.087925 
L 515.794351 -427.266186 
L 515.836414 -430.444446 
L 515.884071 -433.622707 
L 515.928483 -436.800967 
L 515.962266 -439.979228 
L 515.983185 -443.157488 
L 515.993728 -446.335749 
L 516.006272 -446.335749 
L 516.006272 -446.335749 
L 516.016815 -443.157488 
L 516.037734 -439.979228 
L 516.071517 -436.800967 
L 516.115929 -433.622707 
L 516.163586 -430.444446 
L 516.205649 -427.266186 
L 516.236729 -424.087925 
L 516.256679 -420.909665 
L 516.268778 -417.731405 
L 516.277123 -414.553144 
L 516.284842 -411.374884 
L 516.292881 -408.196623 
L 516.299726 -405.018363 
L 516.302987 -401.840102 
L 516.30189 -398.661842 
L 516.298328 -395.483581 
L 516.295528 -392.305321 
L 516.295816 -389.127061 
L 516.299433 -385.9488 
L 516.304947 -382.77054 
L 516.31048 -379.592279 
L 516.31475 -376.414019 
L 516.31742 -373.235758 
L 516.318725 -370.057498 
L 516.318996 -366.879237 
L 516.318734 -363.700977 
L 516.319043 -360.522716 
L 516.321521 -357.344456 
L 516.3275 -354.166196 
L 516.337497 -350.987935 
L 516.350997 -347.809675 
L 516.366068 -344.631414 
L 516.379406 -341.453154 
L 516.387866 -338.274893 
L 516.39056 -335.096633 
L 516.389344 -331.918372 
L 516.387369 -328.740112 
L 516.387387 -325.561851 
L 516.391046 -322.383591 
L 516.398883 -319.205331 
L 516.410308 -316.02707 
L 516.42357 -312.84881 
L 516.436263 -309.670549 
L 516.446534 -306.492289 
L 516.4541 -303.314028 
L 516.460077 -300.135768 
L 516.465991 -296.957507 
L 516.473223 -293.779247 
L 516.483287 -290.600986 
L 516.497785 -287.422726 
L 516.517167 -284.244466 
L 516.539513 -281.066205 
L 516.561384 -277.887945 
L 516.580458 -274.709684 
L 516.596995 -271.531424 
L 516.612425 -268.353163 
L 516.627081 -265.174903 
L 516.640189 -261.996642 
L 516.652008 -258.818382 
L 516.665174 -255.640122 
L 516.683319 -252.461861 
L 516.708289 -249.283601 
L 516.738929 -246.10534 
L 516.772617 -242.92708 
L 516.807537 -239.748819 
L 516.843139 -236.570559 
L 516.87901 -233.392298 
L 516.914162 -230.214038 
L 516.947548 -227.035777 
L 516.979011 -223.857517 
L 517.009985 -220.679257 
L 517.043598 -217.500996 
L 517.083689 -214.322736 
L 517.132722 -211.144475 
L 517.190055 -207.966215 
L 517.252557 -204.787954 
L 517.317625 -201.609694 
L 517.386098 -198.431433 
L 517.462336 -195.253173 
L 517.551717 -192.074912 
L 517.658907 -188.896652 
L 517.789193 -185.718392 
L 517.950618 -182.540131 
L 518.153609 -179.361871 
L 518.410842 -176.18361 
L 518.746131 -173.00535 
L 519.222202 -169.827089 
L 519.995697 -166.648829 
L 521.389939 -163.470568 
L 523.900154 -160.292308 
L 527.940343 -157.114048 
L 533.241416 -153.935787 
L 538.323636 -150.757527 
L 540.896261 -147.579266 
L 539.375696 -144.401006 
L 534.244954 -141.222745 
L 527.752678 -138.044485 
L 522.221534 -134.866224 
L 518.699508 -131.687964 
z
" style="stroke: #5a5a5a; stroke-width: 1.5"/>
    </defs>
    <g clip-path="url(#pfe467a0fa6)">
     <use xlink:href="#m6a887de79f" x="0" y="576" style="fill: #e5e5ea; stroke: #5a5a5a; stroke-width: 1.5"/>
    </g>
   </g>
   <g id="PolyCollection_4">
    <defs>
     <path id="meb95970b62" d="M 664.84089 -116.663629 
L 664.75911 -116.663629 
L 664.730633 -120.145603 
L 664.688019 -123.627577 
L 664.627769 -127.109552 
L 664.54727 -130.591526 
L 664.445611 -134.0735 
L 664.324228 -137.555474 
L 664.187151 -141.037448 
L 664.040673 -144.519422 
L 663.892473 -148.001396 
L 663.750359 -151.48337 
L 663.62097 -154.965345 
L 663.508763 -158.447319 
L 663.415523 -161.929293 
L 663.340475 -165.411267 
L 663.280894 -168.893241 
L 663.232998 -172.375215 
L 663.192852 -175.857189 
L 663.157075 -179.339164 
L 663.123201 -182.821138 
L 663.089697 -186.303112 
L 663.055719 -189.785086 
L 663.020774 -193.26706 
L 662.984461 -196.749034 
L 662.946382 -200.231008 
L 662.906265 -203.712983 
L 662.864208 -207.194957 
L 662.820925 -210.676931 
L 662.777853 -214.158905 
L 662.737011 -217.640879 
L 662.700607 -221.122853 
L 662.670471 -224.604827 
L 662.647472 -228.086802 
L 662.631122 -231.568776 
L 662.619528 -235.05075 
L 662.609756 -238.532724 
L 662.598543 -242.014698 
L 662.583144 -245.496672 
L 662.56207 -248.978646 
L 662.535449 -252.46062 
L 662.504919 -255.942595 
L 662.473074 -259.424569 
L 662.442688 -262.906543 
L 662.415967 -266.388517 
L 662.394083 -269.870491 
L 662.377081 -273.352465 
L 662.364122 -276.834439 
L 662.353889 -280.316414 
L 662.345003 -283.798388 
L 662.336288 -287.280362 
L 662.326888 -290.762336 
L 662.316273 -294.24431 
L 662.304217 -297.726284 
L 662.29078 -301.208258 
L 662.276313 -304.690233 
L 662.26141 -308.172207 
L 662.24679 -311.654181 
L 662.233102 -315.136155 
L 662.220715 -318.618129 
L 662.209571 -322.100103 
L 662.19916 -325.582077 
L 662.188633 -329.064052 
L 662.176995 -332.546026 
L 662.16333 -336.028 
L 662.146982 -339.509974 
L 662.127666 -342.991948 
L 662.105504 -346.473922 
L 662.080992 -349.955896 
L 662.054898 -353.43787 
L 662.02811 -356.919845 
L 662.001495 -360.401819 
L 661.975787 -363.883793 
L 661.951578 -367.365767 
L 661.929371 -370.847741 
L 661.909677 -374.329715 
L 661.893063 -377.811689 
L 661.880127 -381.293664 
L 661.871431 -384.775638 
L 661.867446 -388.257612 
L 661.86863 -391.739586 
L 661.875692 -395.22156 
L 661.890023 -398.703534 
L 661.914198 -402.185508 
L 661.952355 -405.667483 
L 662.010241 -409.149457 
L 662.094723 -412.631431 
L 662.212669 -416.113405 
L 662.36932 -419.595379 
L 662.566484 -423.077353 
L 662.801088 -426.559327 
L 663.064647 -430.041302 
L 663.344002 -433.523276 
L 663.623272 -437.00525 
L 663.886561 -440.487224 
L 664.120649 -443.969198 
L 664.316936 -447.451172 
L 664.472175 -450.933146 
L 664.587989 -454.41512 
L 664.6695 -457.897095 
L 664.723625 -461.379069 
L 664.876375 -461.379069 
L 664.876375 -461.379069 
L 664.9305 -457.897095 
L 665.012011 -454.41512 
L 665.127825 -450.933146 
L 665.283064 -447.451172 
L 665.479351 -443.969198 
L 665.713439 -440.487224 
L 665.976728 -437.00525 
L 666.255998 -433.523276 
L 666.535353 -430.041302 
L 666.798912 -426.559327 
L 667.033516 -423.077353 
L 667.23068 -419.595379 
L 667.387331 -416.113405 
L 667.505277 -412.631431 
L 667.589759 -409.149457 
L 667.647645 -405.667483 
L 667.685802 -402.185508 
L 667.709977 -398.703534 
L 667.724308 -395.22156 
L 667.73137 -391.739586 
L 667.732554 -388.257612 
L 667.728569 -384.775638 
L 667.719873 -381.293664 
L 667.706937 -377.811689 
L 667.690323 -374.329715 
L 667.670629 -370.847741 
L 667.648422 -367.365767 
L 667.624213 -363.883793 
L 667.598505 -360.401819 
L 667.57189 -356.919845 
L 667.545102 -353.43787 
L 667.519008 -349.955896 
L 667.494496 -346.473922 
L 667.472334 -342.991948 
L 667.453018 -339.509974 
L 667.43667 -336.028 
L 667.423005 -332.546026 
L 667.411367 -329.064052 
L 667.40084 -325.582077 
L 667.390429 -322.100103 
L 667.379285 -318.618129 
L 667.366898 -315.136155 
L 667.35321 -311.654181 
L 667.33859 -308.172207 
L 667.323687 -304.690233 
L 667.30922 -301.208258 
L 667.295783 -297.726284 
L 667.283727 -294.24431 
L 667.273112 -290.762336 
L 667.263712 -287.280362 
L 667.254997 -283.798388 
L 667.246111 -280.316414 
L 667.235878 -276.834439 
L 667.222919 -273.352465 
L 667.205917 -269.870491 
L 667.184033 -266.388517 
L 667.157312 -262.906543 
L 667.126926 -259.424569 
L 667.095081 -255.942595 
L 667.064551 -252.46062 
L 667.03793 -248.978646 
L 667.016856 -245.496672 
L 667.001457 -242.014698 
L 666.990244 -238.532724 
L 666.980472 -235.05075 
L 666.968878 -231.568776 
L 666.952528 -228.086802 
L 666.929529 -224.604827 
L 666.899393 -221.122853 
L 666.862989 -217.640879 
L 666.822147 -214.158905 
L 666.779075 -210.676931 
L 666.735792 -207.194957 
L 666.693735 -203.712983 
L 666.653618 -200.231008 
L 666.615539 -196.749034 
L 666.579226 -193.26706 
L 666.544281 -189.785086 
L 666.510303 -186.303112 
L 666.476799 -182.821138 
L 666.442925 -179.339164 
L 666.407148 -175.857189 
L 666.367002 -172.375215 
L 666.319106 -168.893241 
L 666.259525 -165.411267 
L 666.184477 -161.929293 
L 666.091237 -158.447319 
L 665.97903 -154.965345 
L 665.849641 -151.48337 
L 665.707527 -148.001396 
L 665.559327 -144.519422 
L 665.412849 -141.037448 
L 665.275772 -137.555474 
L 665.154389 -134.0735 
L 665.05273 -130.591526 
L 664.972231 -127.109552 
L 664.911981 -123.627577 
L 664.869367 -120.145603 
L 664.84089 -116.663629 
z
" style="stroke: #5a5a5a; stroke-width: 1.5"/>
    </defs>
    <g clip-path="url(#pfe467a0fa6)">
     <use xlink:href="#meb95970b62" x="0" y="576" style="fill: #efe1e0; stroke: #5a5a5a; stroke-width: 1.5"/>
    </g>
   </g>
   <g id="PolyCollection_5">
    <defs>
     <path id="medb3f1bd02" d="M 813.760937 -91.767273 
L 813.439063 -91.767273 
L 813.378403 -95.760661 
L 813.300646 -99.75405 
L 813.203203 -103.747438 
L 813.083855 -107.740826 
L 812.941042 -111.734215 
L 812.774156 -115.727603 
L 812.583814 -119.720992 
L 812.372063 -123.71438 
L 812.142488 -127.707769 
L 811.900184 -131.701157 
L 811.651578 -135.694545 
L 811.40409 -139.687934 
L 811.165673 -143.681322 
L 810.944253 -147.674711 
L 810.747144 -151.668099 
L 810.580487 -155.661488 
L 810.448794 -159.654876 
L 810.354632 -163.648264 
L 810.298504 -167.641653 
L 810.278914 -171.635041 
L 810.292619 -175.62843 
L 810.335019 -179.621818 
L 810.400633 -183.615207 
L 810.483608 -187.608595 
L 810.57819 -191.601983 
L 810.679114 -195.595372 
L 810.781883 -199.58876 
L 810.882912 -203.582149 
L 810.979552 -207.575537 
L 811.070006 -211.568926 
L 811.153175 -215.562314 
L 811.228461 -219.555702 
L 811.295577 -223.549091 
L 811.354374 -227.542479 
L 811.404733 -231.535868 
L 811.446498 -235.529256 
L 811.479484 -239.522645 
L 811.503527 -243.516033 
L 811.518566 -247.509421 
L 811.524739 -251.50281 
L 811.522469 -255.496198 
L 811.512523 -259.489587 
L 811.496033 -263.482975 
L 811.474469 -267.476364 
L 811.44957 -271.469752 
L 811.423232 -275.46314 
L 811.397382 -279.456529 
L 811.373836 -283.449917 
L 811.354174 -287.443306 
L 811.33964 -291.436694 
L 811.331084 -295.430083 
L 811.328948 -299.423471 
L 811.333293 -303.41686 
L 811.343872 -307.410248 
L 811.360212 -311.403636 
L 811.38172 -315.397025 
L 811.407766 -319.390413 
L 811.437754 -323.383802 
L 811.471167 -327.37719 
L 811.507575 -331.370579 
L 811.546621 -335.363967 
L 811.587998 -339.357355 
L 811.631408 -343.350744 
L 811.676538 -347.344132 
L 811.723043 -351.337521 
L 811.770553 -355.330909 
L 811.818699 -359.324298 
L 811.867147 -363.317686 
L 811.915648 -367.311074 
L 811.964081 -371.304463 
L 812.01249 -375.297851 
L 812.061103 -379.29124 
L 812.110325 -383.284628 
L 812.160713 -387.278017 
L 812.212926 -391.271405 
L 812.267657 -395.264793 
L 812.325553 -399.258182 
L 812.387135 -403.25157 
L 812.452728 -407.244959 
L 812.522395 -411.238347 
L 812.595906 -415.231736 
L 812.672725 -419.225124 
L 812.752029 -423.218512 
L 812.832755 -427.211901 
L 812.913663 -431.205289 
L 812.993424 -435.198678 
L 813.070705 -439.192066 
L 813.144258 -443.185455 
L 813.212998 -447.178843 
L 813.276058 -451.172231 
L 813.332834 -455.16562 
L 813.382991 -459.159008 
L 813.426465 -463.152397 
L 813.46343 -467.145785 
L 813.494259 -471.139174 
L 813.519478 -475.132562 
L 813.539709 -479.12595 
L 813.555626 -483.119339 
L 813.567903 -487.112727 
L 813.632097 -487.112727 
L 813.632097 -487.112727 
L 813.644374 -483.119339 
L 813.660291 -479.12595 
L 813.680522 -475.132562 
L 813.705741 -471.139174 
L 813.73657 -467.145785 
L 813.773535 -463.152397 
L 813.817009 -459.159008 
L 813.867166 -455.16562 
L 813.923942 -451.172231 
L 813.987002 -447.178843 
L 814.055742 -443.185455 
L 814.129295 -439.192066 
L 814.206576 -435.198678 
L 814.286337 -431.205289 
L 814.367245 -427.211901 
L 814.447971 -423.218512 
L 814.527275 -419.225124 
L 814.604094 -415.231736 
L 814.677605 -411.238347 
L 814.747272 -407.244959 
L 814.812865 -403.25157 
L 814.874447 -399.258182 
L 814.932343 -395.264793 
L 814.987074 -391.271405 
L 815.039287 -387.278017 
L 815.089675 -383.284628 
L 815.138897 -379.29124 
L 815.18751 -375.297851 
L 815.235919 -371.304463 
L 815.284352 -367.311074 
L 815.332853 -363.317686 
L 815.381301 -359.324298 
L 815.429447 -355.330909 
L 815.476957 -351.337521 
L 815.523462 -347.344132 
L 815.568592 -343.350744 
L 815.612002 -339.357355 
L 815.653379 -335.363967 
L 815.692425 -331.370579 
L 815.728833 -327.37719 
L 815.762246 -323.383802 
L 815.792234 -319.390413 
L 815.81828 -315.397025 
L 815.839788 -311.403636 
L 815.856128 -307.410248 
L 815.866707 -303.41686 
L 815.871052 -299.423471 
L 815.868916 -295.430083 
L 815.86036 -291.436694 
L 815.845826 -287.443306 
L 815.826164 -283.449917 
L 815.802618 -279.456529 
L 815.776768 -275.46314 
L 815.75043 -271.469752 
L 815.725531 -267.476364 
L 815.703967 -263.482975 
L 815.687477 -259.489587 
L 815.677531 -255.496198 
L 815.675261 -251.50281 
L 815.681434 -247.509421 
L 815.696473 -243.516033 
L 815.720516 -239.522645 
L 815.753502 -235.529256 
L 815.795267 -231.535868 
L 815.845626 -227.542479 
L 815.904423 -223.549091 
L 815.971539 -219.555702 
L 816.046825 -215.562314 
L 816.129994 -211.568926 
L 816.220448 -207.575537 
L 816.317088 -203.582149 
L 816.418117 -199.58876 
L 816.520886 -195.595372 
L 816.62181 -191.601983 
L 816.716392 -187.608595 
L 816.799367 -183.615207 
L 816.864981 -179.621818 
L 816.907381 -175.62843 
L 816.921086 -171.635041 
L 816.901496 -167.641653 
L 816.845368 -163.648264 
L 816.751206 -159.654876 
L 816.619513 -155.661488 
L 816.452856 -151.668099 
L 816.255747 -147.674711 
L 816.034327 -143.681322 
L 815.79591 -139.687934 
L 815.548422 -135.694545 
L 815.299816 -131.701157 
L 815.057512 -127.707769 
L 814.827937 -123.71438 
L 814.616186 -119.720992 
L 814.425844 -115.727603 
L 814.258958 -111.734215 
L 814.116145 -107.740826 
L 813.996797 -103.747438 
L 813.899354 -99.75405 
L 813.821597 -95.760661 
L 813.760937 -91.767273 
z
" style="stroke: #5a5a5a; stroke-width: 1.5"/>
    </defs>
    <g clip-path="url(#pfe467a0fa6)">
     <use xlink:href="#medb3f1bd02" x="0" y="576" style="fill: #d2acaa; stroke: #5a5a5a; stroke-width: 1.5"/>
    </g>
   </g>
   <g id="PolyCollection_6">
    <defs>
     <path id="m0403921270" d="M 962.425008 -101.481447 
L 962.374992 -101.481447 
L 962.362981 -105.292366 
L 962.346361 -109.103285 
L 962.323907 -112.914204 
L 962.294286 -116.725122 
L 962.256128 -120.536041 
L 962.208127 -124.34696 
L 962.149161 -128.157879 
L 962.078419 -131.968798 
L 961.99553 -135.779716 
L 961.900669 -139.590635 
L 961.794626 -143.401554 
L 961.678825 -147.212473 
L 961.55528 -151.023392 
L 961.426494 -154.834311 
L 961.295309 -158.645229 
L 961.164718 -162.456148 
L 961.037668 -166.267067 
L 960.916872 -170.077986 
L 960.804658 -173.888905 
L 960.702865 -177.699823 
L 960.612794 -181.510742 
L 960.535207 -185.321661 
L 960.470371 -189.13258 
L 960.418121 -192.943499 
L 960.37793 -196.754418 
L 960.348978 -200.565336 
L 960.330194 -204.376255 
L 960.320304 -208.187174 
L 960.317859 -211.998093 
L 960.321275 -215.809012 
L 960.328879 -219.61993 
L 960.338982 -223.430849 
L 960.349957 -227.241768 
L 960.36032 -231.052687 
L 960.36881 -234.863606 
L 960.374429 -238.674525 
L 960.37647 -242.485443 
L 960.374494 -246.296362 
L 960.368292 -250.107281 
L 960.35783 -253.9182 
L 960.3432 -257.729119 
L 960.324581 -261.540037 
L 960.302224 -265.350956 
L 960.276447 -269.161875 
L 960.247642 -272.972794 
L 960.216273 -276.783713 
L 960.182859 -280.594632 
L 960.147935 -284.40555 
L 960.111992 -288.216469 
L 960.075414 -292.027388 
L 960.03842 -295.838307 
L 960.001025 -299.649226 
L 959.963044 -303.460144 
L 959.924122 -307.271063 
L 959.8838 -311.081982 
L 959.841605 -314.892901 
L 959.797141 -318.70382 
L 959.750165 -322.514739 
L 959.700654 -326.325657 
L 959.648832 -330.136576 
L 959.595177 -333.947495 
L 959.540407 -337.758414 
L 959.485458 -341.569333 
L 959.431453 -345.380251 
L 959.379676 -349.19117 
L 959.331554 -353.002089 
L 959.288623 -356.813008 
L 959.252506 -360.623927 
L 959.224868 -364.434846 
L 959.207367 -368.245764 
L 959.201592 -372.056683 
L 959.209 -375.867602 
L 959.230864 -379.678521 
L 959.268222 -383.48944 
L 959.321854 -387.300358 
L 959.392257 -391.111277 
L 959.479641 -394.922196 
L 959.583912 -398.733115 
L 959.70465 -402.544034 
L 959.841073 -406.354953 
L 959.991987 -410.165871 
L 960.155742 -413.97679 
L 960.330195 -417.787709 
L 960.512708 -421.598628 
L 960.700191 -425.409547 
L 960.889204 -429.220465 
L 961.076109 -433.031384 
L 961.25727 -436.842303 
L 961.429266 -440.653222 
L 961.589114 -444.464141 
L 961.734449 -448.27506 
L 961.86365 -452.085978 
L 961.975901 -455.896897 
L 962.071171 -459.707816 
L 962.150132 -463.518735 
L 962.21402 -467.329654 
L 962.26447 -471.140572 
L 962.303342 -474.951491 
L 962.332561 -478.76241 
L 962.467439 -478.76241 
L 962.467439 -478.76241 
L 962.496658 -474.951491 
L 962.53553 -471.140572 
L 962.58598 -467.329654 
L 962.649868 -463.518735 
L 962.728829 -459.707816 
L 962.824099 -455.896897 
L 962.93635 -452.085978 
L 963.065551 -448.27506 
L 963.210886 -444.464141 
L 963.370734 -440.653222 
L 963.54273 -436.842303 
L 963.723891 -433.031384 
L 963.910796 -429.220465 
L 964.099809 -425.409547 
L 964.287292 -421.598628 
L 964.469805 -417.787709 
L 964.644258 -413.97679 
L 964.808013 -410.165871 
L 964.958927 -406.354953 
L 965.09535 -402.544034 
L 965.216088 -398.733115 
L 965.320359 -394.922196 
L 965.407743 -391.111277 
L 965.478146 -387.300358 
L 965.531778 -383.48944 
L 965.569136 -379.678521 
L 965.591 -375.867602 
L 965.598408 -372.056683 
L 965.592633 -368.245764 
L 965.575132 -364.434846 
L 965.547494 -360.623927 
L 965.511377 -356.813008 
L 965.468446 -353.002089 
L 965.420324 -349.19117 
L 965.368547 -345.380251 
L 965.314542 -341.569333 
L 965.259593 -337.758414 
L 965.204823 -333.947495 
L 965.151168 -330.136576 
L 965.099346 -326.325657 
L 965.049835 -322.514739 
L 965.002859 -318.70382 
L 964.958395 -314.892901 
L 964.9162 -311.081982 
L 964.875878 -307.271063 
L 964.836956 -303.460144 
L 964.798975 -299.649226 
L 964.76158 -295.838307 
L 964.724586 -292.027388 
L 964.688008 -288.216469 
L 964.652065 -284.40555 
L 964.617141 -280.594632 
L 964.583727 -276.783713 
L 964.552358 -272.972794 
L 964.523553 -269.161875 
L 964.497776 -265.350956 
L 964.475419 -261.540037 
L 964.4568 -257.729119 
L 964.44217 -253.9182 
L 964.431708 -250.107281 
L 964.425506 -246.296362 
L 964.42353 -242.485443 
L 964.425571 -238.674525 
L 964.43119 -234.863606 
L 964.43968 -231.052687 
L 964.450043 -227.241768 
L 964.461018 -223.430849 
L 964.471121 -219.61993 
L 964.478725 -215.809012 
L 964.482141 -211.998093 
L 964.479696 -208.187174 
L 964.469806 -204.376255 
L 964.451022 -200.565336 
L 964.42207 -196.754418 
L 964.381879 -192.943499 
L 964.329629 -189.13258 
L 964.264793 -185.321661 
L 964.187206 -181.510742 
L 964.097135 -177.699823 
L 963.995342 -173.888905 
L 963.883128 -170.077986 
L 963.762332 -166.267067 
L 963.635282 -162.456148 
L 963.504691 -158.645229 
L 963.373506 -154.834311 
L 963.24472 -151.023392 
L 963.121175 -147.212473 
L 963.005374 -143.401554 
L 962.899331 -139.590635 
L 962.80447 -135.779716 
L 962.721581 -131.968798 
L 962.650839 -128.157879 
L 962.591873 -124.34696 
L 962.543872 -120.536041 
L 962.505714 -116.725122 
L 962.476093 -112.914204 
L 962.453639 -109.103285 
L 962.437019 -105.292366 
L 962.425008 -101.481447 
z
" style="stroke: #5a5a5a; stroke-width: 1.5"/>
    </defs>
    <g clip-path="url(#pfe467a0fa6)">
     <use xlink:href="#m0403921270" x="0" y="576" style="fill: #b77977; stroke: #5a5a5a; stroke-width: 1.5"/>
    </g>
   </g>
   <g id="line2d_1">
    <path d="M 218.4 430.280664 
L 218.4 325.56847 
" clip-path="url(#pfe467a0fa6)" style="fill: none; stroke: #5a5a5a; stroke-width: 1.5; stroke-linecap: round"/>
   </g>
   <g id="line2d_2">
    <path d="M 218.4 430.08503 
L 218.4 388.278392 
" clip-path="url(#pfe467a0fa6)" style="fill: none; stroke: #5a5a5a; stroke-width: 4.5; stroke-linecap: round"/>
   </g>
   <g id="line2d_3">
    <path d="M 367.2 430.280664 
L 367.2 306.207587 
" clip-path="url(#pfe467a0fa6)" style="fill: none; stroke: #5a5a5a; stroke-width: 1.5; stroke-linecap: round"/>
   </g>
   <g id="line2d_4">
    <path d="M 367.2 429.990759 
L 367.2 380.477233 
" clip-path="url(#pfe467a0fa6)" style="fill: none; stroke: #5a5a5a; stroke-width: 4.5; stroke-linecap: round"/>
   </g>
   <g id="line2d_5">
    <path d="M 516 430.280664 
L 516 364.086459 
" clip-path="url(#pfe467a0fa6)" style="fill: none; stroke: #5a5a5a; stroke-width: 1.5; stroke-linecap: round"/>
   </g>
   <g id="line2d_6">
    <path d="M 516 430.255122 
L 516 403.786803 
" clip-path="url(#pfe467a0fa6)" style="fill: none; stroke: #5a5a5a; stroke-width: 4.5; stroke-linecap: round"/>
   </g>
   <g id="line2d_7">
    <path d="M 664.8 430.280595 
L 664.8 143.676708 
" clip-path="url(#pfe467a0fa6)" style="fill: none; stroke: #5a5a5a; stroke-width: 1.5; stroke-linecap: round"/>
   </g>
   <g id="line2d_8">
    <path d="M 664.8 336.679798 
L 664.8 200.662942 
" clip-path="url(#pfe467a0fa6)" style="fill: none; stroke: #5a5a5a; stroke-width: 4.5; stroke-linecap: round"/>
   </g>
   <g id="line2d_9">
    <path d="M 813.6 428.50666 
L 813.6 144.61334 
" clip-path="url(#pfe467a0fa6)" style="fill: none; stroke: #5a5a5a; stroke-width: 1.5; stroke-linecap: round"/>
   </g>
   <g id="line2d_10">
    <path d="M 813.6 399.315059 
L 813.6 247.33863 
" clip-path="url(#pfe467a0fa6)" style="fill: none; stroke: #5a5a5a; stroke-width: 4.5; stroke-linecap: round"/>
   </g>
   <g id="line2d_11">
    <path d="M 962.4 426.825529 
L 962.4 144.930614 
" clip-path="url(#pfe467a0fa6)" style="fill: none; stroke: #5a5a5a; stroke-width: 1.5; stroke-linecap: round"/>
   </g>
   <g id="line2d_12">
    <path d="M 962.4 334.781169 
L 962.4 200.372896 
" clip-path="url(#pfe467a0fa6)" style="fill: none; stroke: #5a5a5a; stroke-width: 4.5; stroke-linecap: round"/>
   </g>
   <g id="patch_3">
    <path d="M 144 504 
L 144 69.12 
" style="fill: none; stroke: #cccccc; stroke-width: 0.8; stroke-linejoin: miter; stroke-linecap: square"/>
   </g>
   <g id="patch_4">
    <path d="M 1036.8 504 
L 1036.8 69.12 
" style="fill: none; stroke: #cccccc; stroke-width: 0.8; stroke-linejoin: miter; stroke-linecap: square"/>
   </g>
   <g id="patch_5">
    <path d="M 144 504 
L 1036.8 504 
" style="fill: none; stroke: #cccccc; stroke-width: 0.8; stroke-linejoin: miter; stroke-linecap: square"/>
   </g>
   <g id="patch_6">
    <path d="M 144 69.12 
L 1036.8 69.12 
" style="fill: none; stroke: #cccccc; stroke-width: 0.8; stroke-linejoin: miter; stroke-linecap: square"/>
   </g>
   <g id="PathCollection_1">
    <defs>
     <path id="m8c00fcfd3c" d="M 0 1.5 
C 0.397805 1.5 0.77937 1.341951 1.06066 1.06066 
C 1.341951 0.77937 1.5 0.397805 1.5 0 
C 1.5 -0.397805 1.341951 -0.77937 1.06066 -1.06066 
C 0.77937 -1.341951 0.397805 -1.5 0 -1.5 
C -0.397805 -1.5 -0.77937 -1.341951 -1.06066 -1.06066 
C -1.341951 -0.77937 -1.5 -0.397805 -1.5 0 
C -1.5 0.397805 -1.341951 0.77937 -1.06066 1.06066 
C -0.77937 1.341951 -0.397805 1.5 0 1.5 
z
" style="stroke: #5a5a5a"/>
    </defs>
    <g clip-path="url(#pfe467a0fa6)">
     <use xlink:href="#m8c00fcfd3c" x="218.4" y="425.507796" style="fill: #ffffff; stroke: #5a5a5a"/>
    </g>
   </g>
   <g id="PathCollection_2">
    <g clip-path="url(#pfe467a0fa6)">
     <use xlink:href="#m8c00fcfd3c" x="367.2" y="423.79549" style="fill: #ffffff; stroke: #5a5a5a"/>
    </g>
   </g>
   <g id="PathCollection_3">
    <g clip-path="url(#pfe467a0fa6)">
     <use xlink:href="#m8c00fcfd3c" x="516" y="428.572716" style="fill: #ffffff; stroke: #5a5a5a"/>
    </g>
   </g>
   <g id="PathCollection_4">
    <g clip-path="url(#pfe467a0fa6)">
     <use xlink:href="#m8c00fcfd3c" x="664.8" y="264.523735" style="fill: #ffffff; stroke: #5a5a5a"/>
    </g>
   </g>
   <g id="PathCollection_5">
    <g clip-path="url(#pfe467a0fa6)">
     <use xlink:href="#m8c00fcfd3c" x="813.6" y="328.583863" style="fill: #ffffff; stroke: #5a5a5a"/>
    </g>
   </g>
   <g id="PathCollection_6">
    <g clip-path="url(#pfe467a0fa6)">
     <use xlink:href="#m8c00fcfd3c" x="962.4" y="259.492347" style="fill: #ffffff; stroke: #5a5a5a"/>
    </g>
   </g>
   <g id="text_17">
    <!-- Count: 5239256 -->
    <g style="fill: #262626" transform="translate(175.700625 55.306709)scale(0.12 -0.12)">
     <defs>
      <path id="ArialMT-6e" d="M 422 0 
L 422 3319 
L 928 3319 
L 928 2847 
Q 1294 3394 1984 3394 
Q 2284 3394 2536 3286 
Q 2788 3178 2913 3003 
Q 3038 2828 3088 2588 
Q 3119 2431 3119 2041 
L 3119 0 
L 2556 0 
L 2556 2019 
Q 2556 2363 2490 2533 
Q 2425 2703 2258 2804 
Q 2091 2906 1866 2906 
Q 1506 2906 1245 2678 
Q 984 2450 984 1813 
L 984 0 
L 422 0 
z
" transform="scale(0.015625)"/>
      <path id="ArialMT-3a" d="M 578 2678 
L 578 3319 
L 1219 3319 
L 1219 2678 
L 578 2678 
z
M 578 0 
L 578 641 
L 1219 641 
L 1219 0 
L 578 0 
z
" transform="scale(0.015625)"/>
      <path id="ArialMT-20" transform="scale(0.015625)"/>
      <path id="ArialMT-35" d="M 266 1200 
L 856 1250 
Q 922 819 1161 601 
Q 1400 384 1738 384 
Q 2144 384 2425 690 
Q 2706 997 2706 1503 
Q 2706 1984 2436 2262 
Q 2166 2541 1728 2541 
Q 1456 2541 1237 2417 
Q 1019 2294 894 2097 
L 366 2166 
L 809 4519 
L 3088 4519 
L 3088 3981 
L 1259 3981 
L 1013 2750 
Q 1425 3038 1878 3038 
Q 2478 3038 2890 2622 
Q 3303 2206 3303 1553 
Q 3303 931 2941 478 
Q 2500 -78 1738 -78 
Q 1113 -78 717 272 
Q 322 622 266 1200 
z
" transform="scale(0.015625)"/>
      <path id="ArialMT-39" d="M 350 1059 
L 891 1109 
Q 959 728 1153 556 
Q 1347 384 1650 384 
Q 1909 384 2104 503 
Q 2300 622 2425 820 
Q 2550 1019 2634 1356 
Q 2719 1694 2719 2044 
Q 2719 2081 2716 2156 
Q 2547 1888 2255 1720 
Q 1963 1553 1622 1553 
Q 1053 1553 659 1965 
Q 266 2378 266 3053 
Q 266 3750 677 4175 
Q 1088 4600 1706 4600 
Q 2153 4600 2523 4359 
Q 2894 4119 3086 3673 
Q 3278 3228 3278 2384 
Q 3278 1506 3087 986 
Q 2897 466 2520 194 
Q 2144 -78 1638 -78 
Q 1100 -78 759 220 
Q 419 519 350 1059 
z
M 2653 3081 
Q 2653 3566 2395 3850 
Q 2138 4134 1775 4134 
Q 1400 4134 1122 3828 
Q 844 3522 844 3034 
Q 844 2597 1108 2323 
Q 1372 2050 1759 2050 
Q 2150 2050 2401 2323 
Q 2653 2597 2653 3081 
z
" transform="scale(0.015625)"/>
     </defs>
     <use xlink:href="#ArialMT-43"/>
     <use xlink:href="#ArialMT-6f" x="72.216797"/>
     <use xlink:href="#ArialMT-75" x="127.832031"/>
     <use xlink:href="#ArialMT-6e" x="183.447266"/>
     <use xlink:href="#ArialMT-74" x="239.0625"/>
     <use xlink:href="#ArialMT-3a" x="266.845703"/>
     <use xlink:href="#ArialMT-20" x="294.628906"/>
     <use xlink:href="#ArialMT-35" x="322.412109"/>
     <use xlink:href="#ArialMT-32" x="378.027344"/>
     <use xlink:href="#ArialMT-33" x="433.642578"/>
     <use xlink:href="#ArialMT-39" x="489.257812"/>
     <use xlink:href="#ArialMT-32" x="544.873047"/>
     <use xlink:href="#ArialMT-35" x="600.488281"/>
     <use xlink:href="#ArialMT-36" x="656.103516"/>
    </g>
   </g>
   <g id="text_18">
    <!-- Count: 370032 -->
    <g style="fill: #262626" transform="translate(327.837187 55.306709)scale(0.12 -0.12)">
     <defs>
      <path id="ArialMT-37" d="M 303 3981 
L 303 4522 
L 3269 4522 
L 3269 4084 
Q 2831 3619 2401 2847 
Q 1972 2075 1738 1259 
Q 1569 684 1522 0 
L 944 0 
Q 953 541 1156 1306 
Q 1359 2072 1739 2783 
Q 2119 3494 2547 3981 
L 303 3981 
z
" transform="scale(0.015625)"/>
     </defs>
     <use xlink:href="#ArialMT-43"/>
     <use xlink:href="#ArialMT-6f" x="72.216797"/>
     <use xlink:href="#ArialMT-75" x="127.832031"/>
     <use xlink:href="#ArialMT-6e" x="183.447266"/>
     <use xlink:href="#ArialMT-74" x="239.0625"/>
     <use xlink:href="#ArialMT-3a" x="266.845703"/>
     <use xlink:href="#ArialMT-20" x="294.628906"/>
     <use xlink:href="#ArialMT-33" x="322.412109"/>
     <use xlink:href="#ArialMT-37" x="378.027344"/>
     <use xlink:href="#ArialMT-30" x="433.642578"/>
     <use xlink:href="#ArialMT-30" x="489.257812"/>
     <use xlink:href="#ArialMT-33" x="544.873047"/>
     <use xlink:href="#ArialMT-32" x="600.488281"/>
    </g>
   </g>
   <g id="text_19">
    <!-- Count: 41232 -->
    <g style="fill: #262626" transform="translate(479.97375 55.306709)scale(0.12 -0.12)">
     <use xlink:href="#ArialMT-43"/>
     <use xlink:href="#ArialMT-6f" x="72.216797"/>
     <use xlink:href="#ArialMT-75" x="127.832031"/>
     <use xlink:href="#ArialMT-6e" x="183.447266"/>
     <use xlink:href="#ArialMT-74" x="239.0625"/>
     <use xlink:href="#ArialMT-3a" x="266.845703"/>
     <use xlink:href="#ArialMT-20" x="294.628906"/>
     <use xlink:href="#ArialMT-34" x="322.412109"/>
     <use xlink:href="#ArialMT-31" x="378.027344"/>
     <use xlink:href="#ArialMT-32" x="433.642578"/>
     <use xlink:href="#ArialMT-33" x="489.257812"/>
     <use xlink:href="#ArialMT-32" x="544.873047"/>
    </g>
   </g>
   <g id="text_20">
    <!-- Count: 5191 -->
    <g style="fill: #262626" transform="translate(632.110312 55.306709)scale(0.12 -0.12)">
     <use xlink:href="#ArialMT-43"/>
     <use xlink:href="#ArialMT-6f" x="72.216797"/>
     <use xlink:href="#ArialMT-75" x="127.832031"/>
     <use xlink:href="#ArialMT-6e" x="183.447266"/>
     <use xlink:href="#ArialMT-74" x="239.0625"/>
     <use xlink:href="#ArialMT-3a" x="266.845703"/>
     <use xlink:href="#ArialMT-20" x="294.628906"/>
     <use xlink:href="#ArialMT-35" x="322.412109"/>
     <use xlink:href="#ArialMT-31" x="378.027344"/>
     <use xlink:href="#ArialMT-39" x="433.642578"/>
     <use xlink:href="#ArialMT-31" x="489.257812"/>
    </g>
   </g>
   <g id="text_21">
    <!-- Count: 399 -->
    <g style="fill: #262626" transform="translate(784.246875 55.306709)scale(0.12 -0.12)">
     <use xlink:href="#ArialMT-43"/>
     <use xlink:href="#ArialMT-6f" x="72.216797"/>
     <use xlink:href="#ArialMT-75" x="127.832031"/>
     <use xlink:href="#ArialMT-6e" x="183.447266"/>
     <use xlink:href="#ArialMT-74" x="239.0625"/>
     <use xlink:href="#ArialMT-3a" x="266.845703"/>
     <use xlink:href="#ArialMT-20" x="294.628906"/>
     <use xlink:href="#ArialMT-33" x="322.412109"/>
     <use xlink:href="#ArialMT-39" x="378.027344"/>
     <use xlink:href="#ArialMT-39" x="433.642578"/>
    </g>
   </g>
   <g id="text_22">
    <!-- Count: 255 -->
    <g style="fill: #262626" transform="translate(933.046875 55.306709)scale(0.12 -0.12)">
     <use xlink:href="#ArialMT-43"/>
     <use xlink:href="#ArialMT-6f" x="72.216797"/>
     <use xlink:href="#ArialMT-75" x="127.832031"/>
     <use xlink:href="#ArialMT-6e" x="183.447266"/>
     <use xlink:href="#ArialMT-74" x="239.0625"/>
     <use xlink:href="#ArialMT-3a" x="266.845703"/>
     <use xlink:href="#ArialMT-20" x="294.628906"/>
     <use xlink:href="#ArialMT-32" x="322.412109"/>
     <use xlink:href="#ArialMT-35" x="378.027344"/>
     <use xlink:href="#ArialMT-35" x="433.642578"/>
    </g>
   </g>
  </g>
 </g>
 <defs>
  <clipPath id="pfe467a0fa6">
   <rect x="144" y="69.12" width="892.8" height="434.88"/>
  </clipPath>
 </defs>
</svg>
